<?xml version="1.0" encoding="utf-8"?>
<!-- Generator: Adobe Illustrator 16.0.0, SVG Export Plug-In . SVG Version: 6.00 Build 0)  -->
<!DOCTYPE svg PUBLIC "-//W3C//DTD SVG 1.1//EN" "http://www.w3.org/Graphics/SVG/1.1/DTD/svg11.dtd">
<svg version="1.1" id="Capa_1" xmlns="http://www.w3.org/2000/svg" xmlns:xlink="http://www.w3.org/1999/xlink" x="0px" y="0px"
	 width="148.09px" height="183.91px" viewBox="0 0 148.09 183.91" enable-background="new 0 0 148.09 183.91" xml:space="preserve">
<g>
	<path fill-rule="evenodd" clip-rule="evenodd" fill="#636886" d="M45.913,181.291c-0.97,0-1.94,0-2.911,0
		c-0.817-1.441-1.441-2.979-1.606-4.619c-0.157-1.557-0.724-2.998-0.995-4.518c-0.192-1.074-0.722-1.762-1.991-1.922
		c-1.918-0.244-2.593-1.801-3.075-3.445c-0.493-1.678-1.102-3.307-2.159-4.871c0.224,1.639-0.197,3.029-0.568,4.414
		c-0.145,0.541-0.576,0.926-1.224,0.732c-0.722-0.217-1.159-0.719-1.173-1.482c-0.013-0.771,0.178-1.541,0.1-2.316
		c-0.036-0.352,0.076-0.898-0.462-0.896c-0.48,0-0.579,0.473-0.512,0.877c0.518,3.143,0.304,6.359,0.998,9.482
		c0.558,2.51,0.549,5.096,0.994,7.623c0.06,0.344,0,0.676-0.262,0.941c-0.485,0-0.971,0-1.456,0
		c-0.755-1.744-0.878-3.643-1.251-5.471c-1.013-4.967-1.494-10.033-2.795-14.947c-0.39-1.473-0.043-2.895,0.44-4.271
		c0.415-1.182,0.859-1.291,2.254-0.621c-0.467-1.014-0.375-1.912-0.081-2.844c0.533-1.693,0.507-3.422,0.105-5.146
		c1.068-0.482,2.653,0.184,3.112,1.607c0.8,2.482,2.443,4.379,3.995,6.352c1.19,1.514,2.899,2.604,3.604,4.852
		c0.781-1.52,1.736-2.445,2.698-3.373c0.651-0.629,0.888-1.516,1.074-2.354c0.396-1.785,1.295-3.34,2.136-4.914
		c0.705-1.322,1.3-1.383,2.281-0.279c0.652,0.732,0.922,0.541,1.337-0.205c1.049-1.887,2.272-1.855,3.403,0.021
		c0.56,0.93,0.729,1.994,1.062,3.006c1.157,4.207,1.82,8.52,2.734,12.777c0.165,0.768,0.458,1.732-0.935,1.701
		c-0.682-0.904-0.482-2.02-0.681-3.033c-0.429-2.193-1.318-4.25-1.761-6.434c-0.097-0.475-0.282-0.93-0.583-1.32
		c-0.693-0.898-1.417-0.91-2.037,0.033c-0.573,0.873-1.179,1.412-2.253,0.768c-0.596-0.357-0.879,0.07-1.113,0.529
		c-1.936,3.799-2.878,7.754-2.117,12.047c0.422,2.379,0.772,4.764,1.495,7.082C46.184,178.296,46.159,179.798,45.913,181.291z"/>
	<path fill-rule="evenodd" clip-rule="evenodd" fill="#101427" d="M89.581,181.291c-4.561,0-9.121,0-13.684,0
		c-0.617-0.65-0.711-1.469-0.738-2.309c0.281-1.316-0.679-2.525-0.336-3.848c0.465-0.848,1.283-1.123,2.15-1.32
		c0.852-0.191,1.695-0.385,2.404-0.951c0.721-0.578,0.992-1.176,0.943-2.215c-0.086-1.803-0.408-3.85,1.711-4.982
		c0.438-0.232,0.398-0.773,0.357-1.189c-0.24-2.354-0.24-4.719-0.588-7.072c-0.451-3.055-0.83-6.123-1.123-9.203
		c-0.371-3.895-1.057-7.748-1.748-11.598c-0.299-1.664-0.686-3.313-0.91-4.988c-0.084-0.613-0.201-1.285,0.549-1.641
		c1.293,0.121,1.504,1.281,2.043,2.125c0.742,2.381,0.592,4.881,0.965,7.313c0.787,5.113,1.398,10.252,2.223,15.357
		c0.191,1.195,0.617,2.309,1.225,3.385c0.58-0.334,0.398-0.883,0.508-1.318c0.133-0.541,0.32-1.076,0.92-1.184
		c0.598-0.107,1.01,0.326,1.287,0.785c0.689,1.143,0.711,2.492,1.047,3.744c0.139,0.516,0.268,1.021,0.5,1.502
		c0.447,1.162,0.627,2.395,0.984,3.58c0.125,0.311,0.223,0.629,0.307,0.953c0.445,1.713,0.295,1.986-1.408,2.605
		c-1.662,0.484-1.686,0.488-1.336,2.127c0.609,2.855,0.994,5.756,1.791,8.572C89.782,180.115,90.057,180.712,89.581,181.291z"/>
	<path fill-rule="evenodd" clip-rule="evenodd" fill="#656C8B" d="M28.448,147.812c1.148,1.984,0.583,4,0.027,5.979
		c-0.184,0.654-0.392,1.158,0.194,1.691c0.508,0.463,0.41,0.982-0.116,1.348c-0.729,0.506-0.753-0.248-0.95-0.617
		c-0.116-0.219-0.188-0.482-0.473-0.467c-0.414,0.023-0.537,0.389-0.64,0.703c-0.576,1.768-0.902,3.527-0.229,5.379
		c0.696,1.914,1.132,3.896,1.025,5.961c-0.01,0.193-0.027,0.404,0.038,0.578c1.172,3.102,1.079,6.465,1.992,9.615
		c0.317,1.096,0.294,2.197,0.294,3.309c-2.523,0-5.046,0-7.569,0c-0.229-5.709,0.2-11.406,0.307-17.111
		c0.18-9.572,0.404-19.145,0.622-28.717c0.022-0.965,0.113-1.928,0.21-2.889c0.088-0.875-0.34-1.121-1.118-1.012
		c-0.082-0.652,0.418-0.623,0.825-0.705c1.154,0.082,1.654,0.824,1.868,1.854c0.143,1.395-0.151,2.814,0.231,4.197
		c0.072,0.314,0.106,0.635,0.102,0.957c-0.337,1.279-0.262,2.537,0.204,3.773c0.222,0.73,0.408,1.469,0.583,2.211
		c0.22,0.934,0.529,1.652,1.721,1.736C28.583,145.656,28.808,146.427,28.448,147.812z"/>
	<path fill-rule="evenodd" clip-rule="evenodd" fill="#656C8B" d="M31.067,181.291c-0.775-4.459-1.205-8.967-1.875-13.443
		c-0.239-1.594-0.137-3.313-0.417-4.971c-0.14-0.83,0.606-1.236,1.273-1.289c0.724-0.059,0.739,0.633,0.719,1.174
		c-0.032,0.865,0.123,1.738-0.162,2.598c-0.262,0.793,0.282,1.217,0.904,1.406c0.869,0.266,0.874-0.652,0.855-0.996
		c-0.086-1.551,1.521-3.209-0.325-4.732c1.177,0.75,2.118,1.23,2.713,2.773c0.673,1.744,0.715,3.873,2.25,5.313
		c0.462,0.434,0.937,0.705,1.496,0.775c1.473,0.182,2.104,0.941,2.488,2.385c0.659,2.469,0.592,5.113,1.807,7.441
		c0.263,0.502,0.19,1.037,0.207,1.566C39.023,181.291,35.045,181.291,31.067,181.291z"/>
	<path fill-rule="evenodd" clip-rule="evenodd" fill="#6B7291" d="M54.646,181.291c-2.814,0-5.628,0-8.442,0
		c-0.085-0.117-0.204-0.244-0.197-0.381c0.118-2.592-0.635-5.051-1.067-7.563c-0.261-1.518-0.293-3.064-0.75-4.566
		c-0.355-1.172-0.245-2.398,0.069-3.592c0.333-1.262,0.79-2.482,1.033-3.777c0.266-1.416,1.081-1.654,2.2-0.746
		c0.55,0.445,1.079,0.6,1.724,0.244c0.556-0.305,1.164-0.473,1.778-0.621c0.524-0.127,1.025-0.053,1.264,0.441
		c0.73,1.51,1.924,2.791,2.118,4.57c0.18,1.658-0.109,2.275-1.794,2.684c-1.141,0.275-1.236,0.736-0.565,1.57
		c1.021,3.158,1.578,6.42,2.134,9.68c0.101,0.594,0.322,1.098,0.587,1.609C54.781,181.007,54.75,181.158,54.646,181.291z"/>
	<path fill-rule="evenodd" clip-rule="evenodd" fill="#4C5167" d="M54.6,181.025c-0.524-0.328-0.75-0.785-0.838-1.418
		c-0.466-3.363-1.235-6.666-2.041-9.961c-0.51-0.959-0.197-1.598,0.827-1.785c0.769-0.141,1.302-0.811,2.102-0.818
		c1.172-0.037,0.793-0.723,0.648-1.414c-0.919-4.381-1.8-8.768-2.694-13.154c-0.058-1.047-0.793-1.998-0.445-3.104
		c0.096-0.137,0.23-0.199,0.398-0.182c0.769,0.898,0.765,2.064,0.972,3.125c0.254,1.301,0.563,2.549,1.271,3.674
		c0.606,0.965,0.572,2.127,1,2.957c-0.013-1.008-0.103-2.201-0.134-3.395c-0.019-0.729,0.011-1.432,0.798-1.885
		c0.541-0.313,0.604-1.002,0.634-1.559c0.072-1.354,0.151-2.719-0.064-4.064c-0.095-0.592-0.157-1.15,0.063-1.711
		c0.499-1.27,0.602-2.635,0.962-3.938c0.225-0.811,0.615-1.486,1.662-0.986c0.669,0.496,0.607,1.41,1.14,1.986
		c0.872,3.17,1.773,6.336,2.037,9.635c-0.049,0.238-0.147,0.453-0.325,0.623c-0.994-0.076-0.793-0.953-0.962-1.527
		c-0.387-1.318-0.416-2.752-1.318-4.072c-0.734,0.957-0.793,1.992-0.892,2.939c-0.353,3.383-0.234,6.744,0.503,10.094
		c0.281,1.277,0.763,2.033,2.115,2.086c0.239,0.008,0.459,0.143,0.65,0.303c0.229,0.256,0.415,0.547,0.47,0.883
		c0.555,3.371,1.419,6.684,1.841,10.08c0.195,1.574,0.649,3.105,0.968,4.66c0.154,0.754,0.367,1.52-0.239,2.193
		c-0.485,0-0.97,0-1.456,0c-0.387-0.367-0.411-0.854-0.447-1.34c-0.305-4.107-1.221-8.139-1.497-12.248
		c-0.029-0.439-0.168-0.861-0.359-1.252c-0.257-0.525-0.222-1.336-1.097-1.324c-0.542,0.008-1.792,1.398-1.805,1.945
		c-0.018,0.701,0.562,0.809,1.024,1.057c1.152,0.617,1.293,1.189,0.645,2.455c-0.631-0.008-0.56-0.881-1.223-0.959
		c-0.444,0.594-0.256,1.26-0.169,1.902c0.364,2.664,0.67,5.338,1.125,7.99c0.105,0.615,0.234,1.248-0.273,1.773
		c-0.097,0-0.194,0-0.291,0c-0.846-0.816-0.831-1.934-0.995-2.969c-0.418-2.631-0.813-5.266-1.184-7.904
		c-0.227-1.611-1.86-2.498-3.375-1.996c-1.347,0.447-1.686,0.867-1.326,2.268c0.736,2.869,1.117,5.801,1.713,8.693
		C54.833,179.927,55.112,180.513,54.6,181.025z"/>
	<path fill-rule="evenodd" clip-rule="evenodd" fill="#AAAFB3" d="M127.424,181.291c-3.008,0-6.016,0-9.023,0
		c-1.063-1.43-1.1-3.242-1.793-4.811c-0.201-1.59-0.492-3.15-1.596-4.41c-1.146-0.4-1.344,0.516-1.701,1.217
		c-0.201,0.396-0.002,1.148-0.855,0.979c-0.143-0.17-0.219-0.369-0.258-0.586c-0.031-0.449-0.043-0.896,0.113-1.33
		c0.408-0.787,1.016-1.467,1.76-1.859c1.564-0.826,2.541-2.158,3.477-3.555c0.357-0.533,0.689-1.061,1.441-1.018
		c0.871,0.201,1.834,0.004,2.6,0.682c1.375,1.217,2.08,2.637,1.475,4.484c-0.186,0.564-0.379,1.098,0.17,1.568
		c0.16,0.242,0.264,0.508,0.361,0.777c0.053,0.18,0.137,0.385,0.074,0.551c-0.482,1.313,0.146,2.254,1.016,3.121
		c0.455,1.203,1.6,1.885,2.236,2.951C127.153,180.443,127.657,180.714,127.424,181.291z"/>
	<path fill-rule="evenodd" clip-rule="evenodd" fill="#EFF6FA" d="M142.852,176.63c0.602,1.783,1.932,3.113,2.912,4.66
		c-4.463,0-8.928,0-13.391,0c-0.922-0.412-0.896-1.492-1.504-2.127c-0.457-0.85-0.723-1.785-1.156-2.645
		c-0.162-0.672-0.791-1.113-0.9-1.811c-0.162-1.4-1.316-2.129-2.105-3.105c-0.084-0.117-0.148-0.242-0.201-0.375
		c-0.205-1.133,0.49-1.361,1.275-1.012c2.828,1.266,6.215,1.408,8.33,4.129c0.389,0.498,0.939,0.654,1.547,0.248
		c0.748-0.502,1.518-0.355,2.172,0.139C140.786,175.455,142.184,175.462,142.852,176.63z"/>
	<path fill-rule="evenodd" clip-rule="evenodd" fill="#353B4D" d="M104.135,181.291c-1.262,0-2.523,0-3.783,0
		c-1.189-1.311-1.93-2.912-2.266-4.576c-0.516-2.557-1.795-4.852-2.293-7.396c-0.082-0.422-0.23-0.834-0.283-1.266
		c0.002-0.359-0.221-0.617-0.396-0.906c-0.863-1.412-0.775-1.791,0.609-2.84c0.941,0.076,1.586,0.756,1.379,1.52
		c-0.521,1.914,0.465,3.258,1.479,4.783c-0.227-1.475-0.199-2.709,0.406-4.119c0.568-1.324,0.51-3.115,0.119-4.693
		c-0.398-1.613-0.428-3.26-0.391-4.9c0.027-1.203,0.377-1.412,1.461-1.098c0.414,0.459,0.637,1.016,0.816,1.594
		c0.045,1.115,0.721,1.238,1.602,1.004c0.375-0.1,0.707-0.314,1.063-0.461c0.709-0.291,1.459-0.457,1.994,0.234
		c0.51,0.66,0.879,1.422,0.221,2.238c-0.656,0.143-1.307-0.184-1.994,0.1c-2.006,0.83-2.658,1.928-2.223,4.09
		c0.494,2.457,1.289,4.867,1.533,7.355c0.191,1.955,0.859,3.852,0.707,5.844c-0.049,0.637,0.172,1.238,0.324,1.846
		C104.36,180.199,104.594,180.763,104.135,181.291z"/>
	<path fill-rule="evenodd" clip-rule="evenodd" fill="#5B6079" d="M75.6,178.968c0.1,0.775,0.199,1.549,0.297,2.322
		c-1.551,0-3.104,0-4.657,0c-0.743-1.443-1.061-2.988-1.018-4.598c0.03-1.109-0.149-2.105-1.011-2.9
		c-0.321-0.295-0.496-0.713-0.629-1.131c-0.592-1.85-1.4-3.592-2.425-5.246c-0.447-0.723-0.85-1.563,0.609-1.729
		c0.697-0.078,0.823-0.543,0.554-1.172c-0.281-0.656-0.719-1.123-1.379-1.404c-0.598-0.254-1.174-0.549-0.887-1.385
		c1.002-0.813,2.208-0.627,3.318-0.516c1.134,0.115,0.747,1.125,0.75,1.848c-0.013,0.135-0.059,0.262-0.128,0.377
		c-0.074,0.092-0.164,0.176-0.179,0.305c0.038-0.145,0.135-0.242,0.256-0.33c0.81,0.557,1.58,0.99,2.652,0.504
		c0.579-0.264,1.078,0.232,1.289,0.842c0.187,0.539,0.261,1.117,0.579,1.609c0.134,0.277,0.25,0.559,0.323,0.857
		C74.207,171.177,74.938,175.068,75.6,178.968z"/>
	<path fill-rule="evenodd" clip-rule="evenodd" fill="#69728C" d="M65.121,161.796c0.031,0.602,0.45,0.779,0.949,0.93
		c0.566,0.172,1.074,0.484,1.342,1.041c0.305,0.635,0.909,1.25,0.455,2.014c-0.407,0.684-1.145,0.238-1.738,0.332
		c-0.227,0.656,0.333,0.988,0.589,1.395c0.961,1.525,1.697,3.141,2.213,4.863c0.109,0.365,0.205,0.865,0.474,1.031
		c1.491,0.924,1.323,2.373,1.234,3.756c-0.092,1.436,0.854,2.693,0.601,4.133c-1.844,0-3.688,0-5.531,0
		c-0.004-2.484-0.903-4.816-1.236-7.256c-0.48-3.523-1.299-7-1.973-10.496c-0.576-1.172-0.249-2.438-0.356-3.656
		c-0.028-0.322,0.131-0.684,0.504-0.797c0.458-0.139,0.707,0.188,0.931,0.506c0.301,0.43,0.495,0.939,0.954,1.248
		C64.831,161.095,65.091,161.376,65.121,161.796z"/>
	<path fill-rule="evenodd" clip-rule="evenodd" fill="#404558" d="M95.706,164.408c-1.344,1.277-0.328,2.373,0.27,3.5
		c-1.488,0.863-1.488,0.863-2.494-0.639c-0.328,2.238,0.408,4.303,1.172,6.365c0.648,2.006,0.998,4.074,1.275,6.156
		c0.068,0.518,0.166,1.051-0.234,1.5c-0.971,0-1.941,0-2.912,0c-1.023-1.506-1.174-3.299-1.662-5.078
		c-0.52,1.225-0.57,2.648-1.854,3.363c-0.92-2.494-1.102-5.15-1.719-7.711c-0.055-0.234-0.094-0.473-0.135-0.709
		c-0.133-0.754-0.541-1.605-0.32-2.238c0.232-0.668,1.303,0.006,1.895-0.443c0.961-0.332,1.533,0.074,1.951,0.938
		c0.391,0.801,0.484,1.719,1.02,2.48c0.189-0.863,0.221-1.756,0.002-2.545c-0.584-2.105-0.393-4.332-1.1-6.408
		c-0.078-0.227-0.123-0.469-0.141-0.709c-0.039-0.529-0.141-1.139,0.463-1.395c0.557-0.238,0.875,0.223,1.164,0.621
		c0.705,0.881,1.311,1.855,2.643,1.943C95.446,163.429,95.87,163.785,95.706,164.408z"/>
	<path fill-rule="evenodd" clip-rule="evenodd" fill="#101529" d="M54.6,181.025c-0.825-3.461-1.181-7.02-2.124-10.457
		c-0.19-0.693-0.52-1.584,0.282-1.959c0.98-0.457,1.873-1.217,3.224-0.76c1.768,0.602,2.309,1.781,2.42,3.447
		c0.225,3.369,0.938,6.67,1.485,9.994c-1.747,0-3.493,0-5.24,0C54.648,181.199,54.633,181.111,54.6,181.025z"/>
	<path fill-rule="evenodd" clip-rule="evenodd" fill="#656C8B" d="M54.65,167.042c-0.495,0.486-1.125,0.715-1.768,0.9
		c-0.869,0.252-1.265,0.801-1.161,1.703c-0.492-0.299-0.88-0.758-0.702-1.301c0.175-0.533,0.793-0.627,1.328-0.734
		c1.727-0.348,2.087-0.943,1.677-2.605c-0.391-1.582-1.579-2.748-2.213-4.221c-0.214-0.498-1.483,0.068-2.139,0.389
		c-1.615,0.789-2.106,0.705-3.079-0.926c-0.753,0.354-1.031,0.955-0.974,1.762c0.082,1.156-0.63,2.098-0.901,3.16
		c-0.345,1.352-0.415,2.67,0.022,3.994c0.301,0.914,0.543,1.814,0.564,2.805c0.067,3.127,1.392,6.137,0.9,9.322
		c-0.097,0-0.194,0-0.292,0c-0.378-0.619-0.268-1.311-0.294-1.984c-0.023-0.578,0.043-1.197-0.14-1.725
		c-1.07-3.074-1.497-6.291-1.996-9.471c-0.243-1.549,0.21-3.211,0.375-4.818c0.217-2.111,1.287-3.922,2.075-5.836
		c0.431-1.045,0.867-1.666,1.937-0.574c0.872,0.891,1.195-0.092,1.44-0.605c0.246-0.52,0.214-1.168,1.019-1.176
		c0.789-0.006,1.408,0.326,1.858,0.955c0.166,0.232,0.307,0.506,0.376,0.783c0.778,3.074,1.904,6.063,2.309,9.232
		C54.919,166.445,54.767,166.73,54.65,167.042z"/>
	<path fill-rule="evenodd" clip-rule="evenodd" fill="#51586A" d="M104.135,181.291c-0.705-2.861-0.854-5.797-1.236-8.703
		c-0.381-2.891-1.215-5.719-1.857-8.574c-0.299-1.33,0.074-2.434,1.25-3.109c1.092-0.629,2.15-1.92,3.582-0.564
		c0.785,0.928,0.695,2.178,1.193,3.211c0.615,2.963,1.637,5.816,2.393,8.744c0.025,0.479,0.076,0.965-0.256,1.377
		c-0.777,0.254-0.734-0.434-0.867-0.818c-0.283-0.818-0.434-1.689-0.855-2.451c-0.445-0.799-1.096-1.398-2.098-1.205
		c-0.975,0.188-1.223,0.998-1.322,1.85c-0.125,1.068-0.025,2.129,0.32,3.143c0.563,1.648,0.732,3.389,1.225,5.055
		c0.203,0.691,0.258,1.434-0.307,2.047C104.913,181.291,104.524,181.291,104.135,181.291z"/>
	<path fill-rule="evenodd" clip-rule="evenodd" fill="#6B7387" d="M105.299,181.291c0-2.678-0.939-5.172-1.561-7.725
		c-0.248-1.014-0.227-2.018-0.121-3.021c0.119-1.139,0.803-1.949,1.957-1.963c1.049-0.014,1.949,0.578,2.35,1.602
		c0.451,1.156,0.775,2.363,1.154,3.547c0.959,1.018,1.367,2.24,1.354,3.619c-2.033-0.059-2.807,1.578-3.834,2.867
		c-0.268,0.336-0.373,0.785-0.717,1.074C105.688,181.291,105.495,181.291,105.299,181.291z"/>
	<path fill-rule="evenodd" clip-rule="evenodd" fill="#3B4159" d="M60.751,170.529c0.117-1.154,0.053-2.178-1.518-2.139
		c-0.083,0.002-0.172-0.082-0.25-0.137c-0.55-0.393-0.774-1.027-0.458-1.529c0.607-0.965,1.301-1.979,2.493-2.266
		c0.715-0.174,0.935,0.545,1.141,1.086c1.037,2.725,0.905,5.654,1.38,8.475c0.401,2.381,0.942,4.805,0.714,7.271
		c-0.583,0-1.165,0-1.747,0c-0.496-0.432-0.728-1.01-0.831-1.633c-0.421-2.553-0.946-5.088-1.252-7.658
		C60.362,171.478,60.289,170.939,60.751,170.529z"/>
	<path fill-rule="evenodd" clip-rule="evenodd" fill="#51586A" d="M94.237,173.431c-0.451-0.783-0.166-1.945-1.273-2.416
		c-0.131-0.055-0.221-0.625-0.102-0.787c0.654-0.877,0.195-1.744,0.063-2.611c-0.072-0.455-0.404-1.092,0.152-1.258
		c0.539-0.16,0.865,0.479,1.098,0.951c0.141,0.287,0.01,0.686,0.406,0.963c0.404-0.236,0.766-0.926,1.395-0.365
		c0.523,1.652,0.381,3.5,1.553,4.971c0.559,0.701,0.48,1.648,0.602,2.498c0.305,2.139,1.717,3.855,2.223,5.914
		c-0.68,0-1.359,0-2.039,0c-0.602-0.295-0.656-0.891-0.813-1.443c-0.611-2.186-1.605-4.207-2.688-6.189
		C94.676,173.404,94.5,173.326,94.237,173.431z"/>
	<path fill-rule="evenodd" clip-rule="evenodd" fill="#F8FAFB" d="M112.678,174.339c0.242-1.027,0.293-2.107,1.313-2.822
		c0.559-0.391,0.887-0.508,1.211,0.162c0.787,1.477,1.123,3.123,1.75,4.658c0.617,1.613,1.24,3.223,1.449,4.953
		c-1.068,0-2.135,0-3.203,0c-0.889-0.902-1.055-2.137-1.482-3.25c-0.293-0.76-0.43-1.58-0.885-2.279
		C112.624,175.304,112.258,174.863,112.678,174.339z"/>
	<path fill-rule="evenodd" clip-rule="evenodd" fill="#636984" d="M60.751,170.529c0.372,3.621,1.082,7.189,1.756,10.762
		c-0.776,0-1.553,0-2.329,0c-0.429-3.18-0.861-6.361-1.283-9.541c-0.076-0.57-0.131-1.145-0.159-1.717
		c-0.027-0.549,0.01-1.121,0.719-1.211c0.774-0.098,0.986,0.396,1.026,1.066C60.495,170.107,60.657,170.316,60.751,170.529z"/>
	<path fill-rule="evenodd" clip-rule="evenodd" fill="#454F59" d="M113.147,175.542c0.951,1.82,1.434,3.809,2.051,5.748
		c-1.359,0-2.717,0-4.076,0c-0.818-1.123-1.408-2.301-0.904-3.742c-0.053-1.371-0.967-2.484-1.139-3.818
		c0.002-0.486,0.004-0.975,0.006-1.463c0.723-0.059,0.76,0.625,1.053,1.006c0.848,1.1,1.412,2.395,2.383,3.523
		C113.008,176.464,112.709,175.8,113.147,175.542z"/>
	<path fill-rule="evenodd" clip-rule="evenodd" fill="#778088" d="M130.049,176.341c0.371,0.891,0.742,1.783,1.115,2.676
		c0.863,1.004,0.252,1.66-0.537,2.273c-1.068,0-2.135,0-3.203,0c-0.758-0.9-1.5-1.813-2.277-2.693
		c-0.354-0.4-0.689-0.779-0.672-1.352c0.059-0.033,0.117-0.068,0.176-0.104c1.043,0.348,1.451,1.359,2.145,2.068
		c0.387,0.398,0.664,0.938,1.576,0.902c-0.824-1.242-1.436-2.41-1.689-3.744c-0.09-0.477-0.678-0.646-1.07-0.924
		c-0.414-0.295-0.992-0.486-0.844-1.188c0.732-0.494,1.248,0.068,1.822,0.367c0.762,0.398,1.318,1.248,2.436,0.838
		C129.463,175.3,129.749,175.982,130.049,176.341z"/>
	<path fill-rule="evenodd" clip-rule="evenodd" fill="#5F677E" d="M94.237,173.431c0.096-0.332-0.205-0.879,0.322-0.951
		c0.355-0.051,0.389,0.457,0.539,0.742c1.354,2.578,2.613,5.191,3.215,8.068c-0.873,0-1.746,0-2.619,0
		C95.36,178.642,94.815,176.033,94.237,173.431z"/>
	<path fill-rule="evenodd" clip-rule="evenodd" fill="#F7FAF9" d="M110.217,177.548c0.053,1.307,0.719,2.467,0.904,3.742
		c-1.746,0-3.492,0-5.24,0c0.205-2.1,1.934-3.141,3.213-4.447C109.704,176.222,109.809,177.335,110.217,177.548z"/>
	<path fill-rule="evenodd" clip-rule="evenodd" fill="#52586B" d="M89.266,179.576c0.287-0.375-0.588-1.471,0.797-1.221
		c0.281,0.051,0.189-0.541,0.145-0.873c-0.074-0.568-0.166-1.162,0.318-1.621c0.545-0.514,1.309-0.488,1.277,0.24
		c-0.076,1.836,0.91,3.418,0.979,5.189c-1.066,0-2.135,0-3.201,0C89.475,180.718,89.372,180.148,89.266,179.576z"/>
	<path fill-rule="evenodd" clip-rule="evenodd" fill="#A9B4BA" d="M130.627,181.291c-0.074-0.26-0.354-0.695-0.018-0.754
		c1.172-0.203,0.572-0.947,0.555-1.52c0.752,0.572,0.666,1.59,1.209,2.273C131.792,181.291,131.209,181.291,130.627,181.291z"/>
	<path fill-rule="evenodd" clip-rule="evenodd" fill="#F6FCFB" d="M71.525,39.503c1.283,0.265-0.079,1.03,0.277,1.47
		c0.741,1.119,0.96,2.268,0.203,3.473c0.095,0.191,0.188,0.379,0.277,0.573c1.153,2.941,0.942,6.076,1.313,9.127
		c0.034,0.284-0.049,0.577-0.133,0.854c-0.141,0.465-0.276,0.966-0.879,1.01c-0.579,0.042-0.911-0.365-1.06-0.827
		c-0.768-2.379-1.659-4.729-1.893-7.247c0.059-0.535,0.026-1.077-0.173-1.569c-1.07-2.629-2.184-5.24-3.695-7.656
		c-0.895-0.886-1.858-1.729-1.914-3.13c0.51-0.553,0.938-0.465,1.297,0.166c1.712,0.315,2.61,1.879,4.041,2.646
		C69.952,38.802,70.71,39.206,71.525,39.503z"/>
	<path fill-rule="evenodd" clip-rule="evenodd" fill="#EFF6FA" d="M139.356,172.849c-0.104,0.1-0.215,0.193-0.314,0.299
		c-0.357,0.375-0.783,0.357-1.189,0.141c-0.23-0.123-0.268-0.414-0.16-0.646c0.246-0.533,0.715-0.375,1.133-0.305
		c0.184,0.031,0.355,0.145,0.533,0.221C139.358,172.654,139.358,172.751,139.356,172.849z"/>
	<path fill-rule="evenodd" clip-rule="evenodd" fill="#555A75" d="M22.915,131.177c0.621-0.406,1.305-0.57,2.04-0.541
		c0.761,0.293,0.954,1.006,0.94,1.648c-0.062,2.945,0.625,5.764,1.3,8.424c0.186-0.873,0.168-1.938,0.331-2.982
		c0.217-1.094,0.721-1.988,1.716-2.572c0.591-0.346,0.737-0.99,0.977-1.57c0.189-0.459,0.443-0.955,0.995-0.934
		c0.618,0.025,0.927,0.561,1.002,1.096c0.221,1.582,0.65,3.145,0.608,4.748c-0.023,0.875,0.156,1.77,0.042,2.596
		c-0.393,2.871,1.069,5.229,1.932,7.752c0.337,0.982,1.017,1.074,1.745,0.291c0.198-0.213,0.376-0.451,0.488-0.719
		c1.13-2.693,3.228-4.674,5.091-6.809c1.439-1.648,3.156-1.338,4.23,0.586c0.209,0.373,0.308,0.816,0.766,1.184
		c0.23-0.889,0.335-1.752,0.62-2.561c0.428-1.215,0.963-1.309,1.846-0.35c0.983,1.07,1.281,2.482,1.882,3.744
		c0.297,0.678,0.41,1.406,0.576,2.121c0.078,0.793,0.181,1.58,0.482,2.328c0.018,0.232-0.047,0.438-0.206,0.611
		c0.096,1.068,0.191,2.137,0.286,3.205c-0.527-1.014-0.625-2.203-1.393-3.135c-0.896-1.086-1.662-1.037-2.249,0.262
		c-0.119,0.264-0.178,0.553-0.289,0.82c-0.408,0.988-0.887,1.01-1.523,0.154c-1.176-1.576-1.225-1.551-2.148,0.217
		c-0.932,1.785-1.68,3.645-2.232,5.572c-0.199,0.693-0.523,1.17-1.041,1.652c-0.861,0.803-1.884,1.49-2.097,2.842
		c-0.104,0.662-0.671,0.73-0.965,0.068c-1.423-3.203-4.462-5.148-6.243-8.078c-0.354-0.582-0.775-1.129-0.889-1.793
		c-0.306-1.793-1.47-2.723-3.086-3.244c-0.097-0.418-0.243-0.83-0.278-1.252c-0.048-0.57-0.247-0.76-0.821-0.566
		c-1,0.336-1.423-0.334-1.648-1.109c-0.304-1.047-0.504-2.125-0.75-3.189c-0.411-1.234-0.1-2.523-0.287-3.775
		c-0.001-0.293-0.003-0.588-0.004-0.881c-0.398-1.434,0.122-2.928-0.287-4.359C24.116,131.957,23.829,131.263,22.915,131.177z"/>
	<path fill-rule="evenodd" clip-rule="evenodd" fill="#161B2F" d="M73.545,167.037c-0.233-0.125-0.258-0.352-0.279-0.578
		c-0.166-0.219-0.197-0.525-0.034-0.672c1.027-0.922,1.848-2.143,3.233-2.576c1.924-0.604,3.377-2.744,2.898-4.703
		c-0.656-2.672-0.256-5.398-0.586-8.084c-0.105-0.846,0.414-1.572,0.783-2.309c0.652-1.293,0.73-2.498-0.5-3.533
		c-0.465-0.393-0.674-0.951-0.75-1.535c-0.209-1.604-0.746-3.102-1.373-4.576c-0.559-1.322-0.674-2.715-0.68-4.129
		c-0.006-2.063-2.243-4.498-4.291-4.742c-0.64-0.078-1.124,0.188-1.623,0.49c-0.868,0.525-1.67,1.168-2.652,1.492
		c-1.354,0.447-2.36-0.049-2.344-1.438c0.025-2.158-0.782-4.063-1.392-6.039c-0.106-0.279-0.22-0.557-0.305-0.844
		c-0.253-0.85,0.103-1.793-0.405-2.604c-0.343-0.828-0.491-1.703-0.616-2.582c-0.289-1.02-0.316-1.92,0.993-2.238
		c0.193-0.047,0.318-0.238,0.357-0.43c0.207-1.021,0.896-1.559,1.823-1.881c0.393-0.137,0.669-0.387,0.662-0.848
		c0.424-2.412,1.106-3.105,3.474-3.553c0.678-0.129,1.239,0.035,1.661,0.602c0.085,0.137,0.135,0.285,0.152,0.445
		c0.003,0.162-0.032,0.314-0.101,0.461c-0.231,0.352-0.578,0.51-0.975,0.586c-0.433,0.072-0.872,0.055-1.308,0.064
		c-1.259,0.65,5.849-2.199-1.305,2.797c-0.278,0.195,7.602-7.938,7.793-7.66c2.541,3.709,2.953,6.201,5.84,9.662
		c0.777,0.932-3.936,11.846-3.164,12.777c0.275,0.33,0.514,0.721,0.273,1.193c-1.008,0.875-0.32,1.951-0.123,2.793
		c0.998,4.273,1.502,8.619,2.17,12.943c0.646,4.184,0.871,8.418,1.645,12.596c0.426,2.307,0.283,4.719,0.381,7.084
		c0.021,0.5,0.006,1.084-0.758,0.854c-0.615-0.188-0.99,0.32-0.965,0.594c0.125,1.398-1.125,2.711-0.242,4.135
		c0.34,0.547,0.176,0.906-0.281,1.371c-0.949,0.969-1.998,1.715-3.359,1.824c-0.877,0.07-1.57,0.432-2.232,0.938
		c-0.744-2.191-1.099-4.457-1.327-6.748C73.667,167.968,73.882,167.468,73.545,167.037z"/>
	<path fill-rule="evenodd" clip-rule="evenodd" fill="#161B2F" d="M88.995,161.789c-0.885-1.121-0.705-2.564-1.146-3.818
		c-0.078-0.223-0.043-0.488-0.125-0.709c-0.229-0.596-0.578-1.393-1.168-1.334c-0.729,0.072-0.688,0.844-0.547,1.516
		c0.061,0.285-0.125,0.65-0.27,0.943c-0.166,0.33-0.23,0.865-0.676,0.854c-0.439-0.01-0.52-0.523-0.646-0.873
		c-1.502-4.15-1.814-8.523-2.408-12.846c-0.287-2.092-7.16-10.717-7.517-12.799c-0.408-2.371,3.017-16.291,2.453-18.641
		c0.664-0.17,20.037,7.635,12.805,17.135c1.523,2.543-2.543,6.477-0.496,8.59c1.541,1.59,0.146,3.553,1.525,5.238
		c0.613,0.752,1.174,1.531,1.943,2.137c0.541,0.426,1.109,0.91,0.807,1.697c-0.301,0.781-1.027,0.797-1.725,0.707
		c-0.391-0.049-0.773-0.008-1.158-0.008c-0.523,0.033-1.059-0.432-1.57,0.043c-0.072,0.111-0.145,0.215-0.211,0.328
		c-0.107,0.533-0.293,1.033-0.58,1.486c-0.586,0.928-0.605,1.887-0.318,2.928c0.551,2.004,0.713,4.096,1.326,6.09
		C89.434,160.919,89.434,161.419,88.995,161.789z"/>
	<path fill-rule="evenodd" clip-rule="evenodd" fill="#313240" d="M88.995,161.789c0.115-1.338-0.482-2.543-0.77-3.795
		c-0.32-1.396-0.357-2.844-0.898-4.213c-0.283-0.723-0.252-1.656,0.42-2.307c0.617-0.598,0.465-1.533,1.02-2.143
		c0.127,0.125,0.244,0.26,0.393,0.363c-0.094-0.162-0.271-0.234-0.391-0.369c0.539-0.711,1.117-0.293,1.688-0.059
		c0.699,0.143,1.41,0.121,2.115,0.145c0.494,0.016,1.043,0.238,0.928,0.672c-0.447,1.711,0.338,3.449-0.209,5.135
		c-0.064,0.316-0.434,0.004-0.516,0.229c-0.588,1.625-0.857,1.734-2.287,0.9c-0.121-0.07-0.232-0.172-0.506-0.02
		c-0.314,1.029-0.309,2.18-0.131,3.32c0.215,1.385,0.166,2.791,0.4,4.174c0.088,0.516,0.096,1.07-0.383,1.467
		C89.577,164.123,89.286,162.955,88.995,161.789z"/>
	<path fill-rule="evenodd" clip-rule="evenodd" fill="#353B4D" d="M89.868,165.289c-0.168-1.82-0.305-3.643-0.512-5.457
		c-0.166-1.461-0.039-2.891,0.248-4.316c0.049-0.24,0.133-0.512,0.422-0.484c0.141,0.014,0.33,0.215,0.379,0.367
		c0.205,0.662,0.551,1.17,1.311,1.113c0.824-0.063,0.65-0.781,0.834-1.305c0.121-0.34,0.318,0.152,0.514,0.182
		c1.094,1.191,1.064,2.783,1.506,4.209c0.008,0.561,0.17,1.285-0.613,1.391c-0.635,0.084-0.789-0.59-1.012-1.059
		c-0.322-0.676-0.322-1.52-1.16-2.105c-0.115,0.867,0.238,1.533,0.453,2.221c0.184,0.582,0.527,1.176-0.041,1.744
		c-0.373-0.158-0.408-0.967-0.951-0.654c-0.416,0.24-0.189,0.785-0.076,1.201c0.861,3.162,1.037,6.436,1.557,9.652
		c0.059,0.35,0.064,0.793-0.385,0.773c-0.65-0.031-1.393-0.324-1.246-1.096c0.193-1.039-0.621-1.678-0.76-2.576
		c-0.088-0.559-0.803-0.598-1.348-0.615C90.563,167.888,90.563,167.888,89.868,165.289z"/>
	<path fill-rule="evenodd" clip-rule="evenodd" fill="#202741" d="M73.545,167.037c0.394,2.15,0.789,4.299,1.182,6.449
		c0.104,0.566,0.207,1.133,0.313,1.699c0.076,1.277,0.766,2.465,0.561,3.783C74.577,175.05,73.591,171.125,73.545,167.037z"/>
	<path fill-rule="evenodd" clip-rule="evenodd" fill="#666A78" d="M24.664,137.919c0.625,1.219,0.134,2.521,0.287,3.775
		C24.307,140.478,24.349,139.208,24.664,137.919z"/>
	<path fill-rule="evenodd" clip-rule="evenodd" fill="#666A78" d="M24.373,132.679c0.635,1.418,0.129,2.91,0.287,4.359
		C24.027,135.621,24.533,134.128,24.373,132.679z"/>
	<path fill-rule="evenodd" clip-rule="evenodd" fill="#343648" d="M63.974,123.347c0.095,0.197,0.19,0.395,0.285,0.592
		c0.209,0.588,0.201,1.221,0.423,1.811c0.363,0.961,0.225,1.854-0.274,2.781c-1.019,1.893-0.626,3.576,1.112,4.834
		c0.961,0.695,1.565,1.572,1.84,2.695c1.452,5.93,2.975,11.842,4.176,17.83c0.495,2.471,1.264,4.883,1.624,7.385
		c0.062,0.432,0.174,0.857,0.144,1.297c-0.028,0.404-0.141,0.789-0.544,0.957c-0.489,0.205-0.838,0.002-1.042-0.471
		c0.216-2.104-0.324-4.021-1.48-5.766c-0.303-0.457-0.542-0.912-0.619-1.451c-0.089-0.631-0.228-1.271-0.627-1.764
		c-1.51-1.859-1.844-4.115-2.271-6.357c-0.417-2.182-0.859-4.361-1.535-6.488c0.097,3.258,0.224,6.508,0.99,9.688
		c0.283,1.176,0.458,2.275-0.488,3.266c-0.493,0.516-0.33,1.182-0.208,1.803c0.159,0.807,0.424,1.598,0.406,2.432
		c-0.012,0.564-0.165,1.094-0.804,1.223c-0.606,0.121-1.016-0.234-1.299-0.729c-0.291-0.504-0.226-1.146-0.612-1.617
		c-0.07-0.139-0.119-0.283-0.155-0.434c-0.274-1.258-0.366-2.539-0.504-3.816c-0.068-1.896-0.638-3.709-1.075-5.527
		c-0.326-1.355-0.35-2.789-0.965-4.072c-0.325-0.648-0.345-1.389-0.623-2.051c-0.418-1.832-0.801-3.668-1.432-5.451
		c-0.556-1.57-0.458-3.242-0.372-4.889c0.019-0.346,0.087-0.723,0.343-0.938c1.003-0.838,0.958-1.918,0.784-3.043
		c-0.046-0.625-0.104-1.25-0.161-1.875c-0.041-0.441,0-0.898,0.492-1.105c0.459-0.191,0.84,0.027,1.2,0.301
		c0.587,0.443,0.799,1.176,1.202,1.74C63.122,125.498,63.355,124.285,63.974,123.347z"/>
	<path fill-rule="evenodd" clip-rule="evenodd" fill="#43495D" d="M60.177,141.41c0.098,0.678,0.196,1.357,0.293,2.037
		c-0.66-0.398-0.389-1.264-0.875-1.748c-0.538-0.801-1.187-0.666-1.313,0.145c-0.373,2.4-1.726,4.701-1.089,7.191
		c0.598,2.338-0.736,3.953-1.759,5.701c-0.377,0.645-0.99,0.561-1.389-0.082c-0.33-0.529-0.673-1.098-0.687-1.729
		c-0.028-1.271-0.487-2.441-0.75-3.656c-0.097,0-0.193,0-0.29,0c0-0.193-0.002-0.387-0.002-0.58
		c-0.371-0.732-0.257-1.586-0.587-2.328c-0.461-0.604-0.277-1.391-0.578-2.039c-0.462-1.811-1.315-3.502-1.696-5.33
		c-0.362-1.736-0.501-3.471,1.268-4.654c0.156-0.045,0.31-0.033,0.458,0.033c0.329,0.379,0.274,0.818,0.13,1.234
		c-0.958,2.768-0.065,5.383,0.869,7.893c0.841,2.26,1.535,4.584,2.536,6.482c0.32-2.299,1.08-4.795,1.522-7.354
		c0.529-3.055,0.101-5.844-1.155-8.613c-0.949-2.092-1.17-4.303-0.49-6.52c0.287-0.936,0.353-1.773-0.117-2.646
		c-0.394-0.734-0.404-1.482,0.044-2.211c0.175-0.5,0.32-1.025,0.979-1.086c0.7,0.695,0.396,1.65,0.618,2.473
		c0.237,0.873,0.335,1.785,0.727,2.77c0.352-2.219,0.133-4.186-1.028-5.984c-0.326-1.326-0.017-2.633,0.413-3.83
		c0.625-1.74,2.794-1.789,4.045-0.197c-0.41,1.486,0.24,2.826,0.594,4.205c0.174,0.676,0.752,0.809,1.351,0.867
		c0.59,0.057,0.873-0.291,1.045-0.791c0.078-0.227,0.17-0.449,0.378-0.596c0.698,0.893,0.131,1.932,0.332,2.881
		c0.446,1.68-1.169,2.359-1.755,3.535c-0.186,0.375-0.614,0.131-0.77-0.227c-0.113-0.258-0.1-0.572-0.214-0.83
		c-0.314-0.707-0.725-1.648-1.538-1.451c-0.846,0.205-0.079,1.049-0.111,1.609c-0.017,0.287,0.002,0.576,0.005,0.865
		c-1.789,2.809-1.771,5.861-0.998,8.918C59.072,137.656,59.676,139.521,60.177,141.41z"/>
	<path fill-rule="evenodd" clip-rule="evenodd" fill="#5B6079" d="M63.376,156.839c0.002,0.096,0.005,0.191,0.008,0.287
		c0.167,1.422,1.295,2.572,1.155,4.082c-1.157-0.072-0.906-1.502-1.921-1.949c-0.32,1.473,0.396,2.914-0.118,4.279
		c-2.741-0.02-3.126-0.518-3.488-4.225c-0.266-2.73-0.347-5.465-0.211-8.197c0.049-0.994,0.385-1.98,0.647-2.955
		c0.089-0.334,0.083-0.846,0.618-0.859c0.439-0.014,0.707,0.318,0.887,0.66c0.548,1.041,0.649,2.217,0.951,3.332
		c0.211,0.779,0.164,1.625,0.597,2.35C63.03,154.644,62.925,155.818,63.376,156.839z"/>
	<path fill-rule="evenodd" clip-rule="evenodd" fill="#464A65" d="M52.608,149.269c0.612,0.912,0.75,1.963,0.863,3.014
		c0.047,0.434,0.033,0.869,0.262,1.262c0.285,0.49,0.398,1.309,1.014,1.295c0.654-0.014,0.67-0.801,0.803-1.354
		c0.066-0.273,0.156-0.666,0.355-0.766c1.529-0.771,1.133-2.115,0.942-3.305c-0.171-1.074-0.186-2.086,0.079-3.145
		c0.386-1.535,0.639-3.105,1.022-4.643c0.095-0.381,0.347-0.922,0.804-0.93c0.549-0.012,0.78,0.479,0.844,1
		c-0.839-0.469-1.075,0.146-1.129,0.736c-0.207,2.217-1.42,4.244-0.966,6.617c0.264,1.381,0.212,2.883-0.212,4.305
		c-0.141,0.473,0.212,1.34-0.889,0.854c-0.292-0.129-0.302,0.285-0.291,0.504c0.09,1.689-0.124,3.404,0.399,5.057
		c0.106,0.336,0.063,0.594-0.274,0.686c-0.329,0.09-0.318-0.225-0.422-0.436c-0.731-1.479-1.044-3.107-1.801-4.602
		C53.056,153.533,52.839,151.376,52.608,149.269z"/>
	<path fill-rule="evenodd" clip-rule="evenodd" fill="#484B61" d="M63.376,156.839c-0.619-0.975-0.776-2.078-0.875-3.195
		c0.003-0.199,0.006-0.398,0.009-0.598C63.275,154.203,63.161,155.558,63.376,156.839z"/>
	<path fill-rule="evenodd" clip-rule="evenodd" fill="#5B6271" d="M112.604,172.275c-0.025,0.484-0.051,0.973-0.074,1.457
		c-0.658-0.092-0.611-0.666-0.717-1.102c-0.195-0.797-0.4-1.588-0.725-2.344c-1.027-3.088-1.973-6.199-2.889-9.322
		c0.09-1.191-0.93-2.115-0.813-3.314c0.275-0.746,0.836-0.924,1.557-0.783c0.459,0.152,0.766,0.494,1.041,0.867
		c1.104,1.4,1.643,3.08,2.039,4.756c0.457,1.93,1.428,3.584,2.32,5.295c0.41,0.785,0.795,0.828,1.377,0.127
		c0.473-0.57,0.883-1.322,1.826-1.225c-0.324,1.578-1.371,2.68-2.641,3.469C113.975,170.736,113.229,171.412,112.604,172.275z"/>
	<path fill-rule="evenodd" clip-rule="evenodd" fill="#8D9499" d="M120.459,164.65c1.521,1.172,2.727,2.658,4.018,4.057
		c0.809,0.877,1.576,1.791,2.363,2.689l0,0c0.795,1.053,1.891,1.887,2.328,3.201c0.295,0.582,0.588,1.162,0.881,1.744
		c-0.461,0-0.732-1.26-1.406-0.154c-0.232,0.381-0.654-0.109-0.971-0.311c-0.918-0.582-1.666-1.484-2.854-1.582
		c-0.236,0.121-0.377-0.018-0.506-0.184c-0.4-0.438,0.037-1.729-1.27-1.246c-0.639-0.438-0.959-0.754-0.461-1.705
		c1.064-2.037-0.525-4.504-2.836-4.719c-0.275-0.025-0.543-0.15-0.813-0.229c0.031-0.059,0.064-0.117,0.096-0.178
		c0.395-0.377,1.209-0.262,1.24-1.061C120.295,164.843,120.36,164.736,120.459,164.65z"/>
	<path fill-rule="evenodd" clip-rule="evenodd" fill="#2E363F" d="M111.426,170.208c0.789,1.043,0.648,2.377,1.104,3.523
		c0.049,0.203,0.1,0.404,0.148,0.607c0.156,0.4,0.313,0.803,0.469,1.203c-0.314,0.602,0.805,1.551-0.289,1.855
		c-0.893,0.248-1.051-0.824-1.424-1.369c-0.836-1.217-1.572-2.504-2.35-3.762c-0.953-2.859-1.906-5.721-2.352-8.717
		c0.061-0.031,0.121-0.061,0.182-0.092c0.629,0.076,0.865,0.541,1.055,1.059c0.627,1.727,1.541,3.324,2.225,5.025
		C110.409,170.076,110.625,170.712,111.426,170.208z"/>
	<path fill-rule="evenodd" clip-rule="evenodd" fill="#8D9499" d="M112.604,172.275c0.195-1.055,1.006-1.627,1.83-2.076
		c1.461-0.799,2.291-2.105,3.111-3.449c0.352-1.209,0.643-1.338,1.473-0.646l-0.084,0.109c-0.971,0.033-1.027,0.957-1.365,1.521
		C116.358,169.755,114.176,170.675,112.604,172.275z"/>
	<path fill-rule="evenodd" clip-rule="evenodd" fill="#D2DAD9" d="M116.952,176.337c-1.055-1.375-1.432-3.006-1.75-4.658
		C116.434,172.99,116.831,174.611,116.952,176.337z"/>
	<path fill-rule="evenodd" clip-rule="evenodd" fill="#778088" d="M123.043,172.865c0.049-0.314-0.057-0.727,0.406-0.809
		c0.352-0.063,0.455,0.277,0.646,0.479c0.402,0.424,0.445,0.936,0.42,1.475c-0.533,0.195-0.658-0.428-1.045-0.523
		c-0.059-0.006-0.115-0.012-0.174-0.018C123.213,173.267,123.127,173.066,123.043,172.865z"/>
	<path fill-rule="evenodd" clip-rule="evenodd" fill="#778088" d="M124.475,177.246c-1.658-0.865-1.395-2.328-1.178-3.777
		l0.107-0.063c0.102-0.008,0.236-0.004,0.258,0.063c0.393,1.213,0.672,2.455,0.902,3.707L124.475,177.246z"/>
	<path fill-rule="evenodd" clip-rule="evenodd" fill="#E3E8EE" d="M129.168,174.597c-0.686-1.133-1.766-1.98-2.328-3.201
		C127.92,172.242,128.969,173.111,129.168,174.597z"/>
	<path fill-rule="evenodd" clip-rule="evenodd" fill="#313240" d="M92.196,161.789c0.123-1.266-0.848-2.242-0.912-3.463
		c-0.02-0.373-0.193-0.986,0.244-0.906c0.377,0.066,1.117-0.227,1.271,0.59c0.123,0.658,0.371,1.293,0.582,1.934
		c0.104,0.309,0.174,0.803,0.535,0.756c0.531-0.07,0.23-0.625,0.33-0.957c1.252,1.047,2.744,1.908,2.936,3.596
		c0.004-0.033,0.014-0.262-0.045-0.49c-0.072-0.283-0.268-0.516-0.326-0.805c-0.289-1.426-0.475-2.84-0.234-4.313
		c0.199-1.232,0.402-2.473,0.318-3.746c-0.139-2.154,0.777-3.1,2.99-3.25c0.139-0.01,0.273-0.096,0.414-0.133
		c0.965,0.074,1.635,0.551,1.982,1.463c-0.088,0.676,0.391,1.17,0.57,1.76c0.102,0.334,0.137,0.688-0.17,0.936
		c-0.268,0.219-0.561,0.061-0.813-0.066c-0.693-0.354-1.33-0.791-1.926-1.414c-0.01,0.936,0.875,1.791,0.117,2.686
		c-1.195-0.563-0.973,0.563-0.949,0.965c0.094,1.678-0.059,3.398,0.482,5.023c0.506,1.52-0.381,3.057,0.145,4.563
		c0.039,0.109-0.029,0.344-0.119,0.398c-1.721,1.035-0.615,2.459-0.518,3.736c0.029,0.387,0.209,0.873-0.207,1.041
		c-0.57,0.232-0.484-0.393-0.654-0.688c-0.338-0.584-0.707-1.152-1.045-1.736c-0.545-0.945-1.203-1.793-0.467-3.043
		c0.496-0.842-0.402-1.357-1.023-1.816c-0.332-0.439-0.547-0.727-1.326-0.688C93.342,163.771,92.713,162.693,92.196,161.789z"/>
	<path fill-rule="evenodd" clip-rule="evenodd" fill="#23242A" d="M100.061,155.964c0.072-1.045-0.473-1.938-0.725-2.902
		c-0.07-0.264-0.258-0.578,0.137-0.721c0.277-0.1,0.428,0.158,0.545,0.359c0.566,0.969,1.604,1.305,2.441,1.939
		c0.639-0.992-1.188-1.49-0.379-2.443c0.805,0.08,1.195,0.775,1.758,1.205c1.037,0.795,1.924,1.766,2.969,2.559
		c0.678,0.514,1.012,1.18,0.473,2.016c-0.291,0.291-0.73,0.527-1.035,0.342c-1.225-0.75-2.365-0.215-3.555,0.055
		c-0.865,0.195-1.605-0.119-2.045-0.957C100.45,156.933,100.256,156.449,100.061,155.964z"/>
	<path fill-rule="evenodd" clip-rule="evenodd" fill="#313240" d="M100.645,157.416c1.045,0.662,2.17,0.807,3.318,0.389
		c1.129-0.412,2.273,0.674,3.375-0.094c0.098-0.141,0.197-0.141,0.299-0.004c0.203,1.092,1.105,1.99,0.889,3.199
		c-0.891,0.098-0.844-1.092-1.682-1.188c-0.369,0.637-0.006,1.271,0.047,1.9c0.055,0.641,0.436,1.301-0.117,1.902l-0.041,0.029
		c-0.574-0.994-0.773-2.086-0.859-3.211c0.059-0.535-0.1-1.029-0.254-1.537c-0.242-0.789-0.754-0.928-1.441-0.656
		c-0.486,0.193-0.938,0.477-1.426,0.662C101.319,159.353,100.774,158.984,100.645,157.416z"/>
	<path fill-rule="evenodd" clip-rule="evenodd" fill="#202741" d="M71.816,162.958c0.227,0.271,0.512,0.525,0.859,0.33
		c0.408-0.23,0.312-0.658,0.229-1.045c-0.353-1.645-0.692-3.293-1.057-4.936c-1.075-4.832-2.133-9.668-3.252-14.49
		c-0.564-2.43-1.252-4.83-1.87-7.246c-0.205-0.799-0.67-1.352-1.376-1.77c-2.052-1.217-2.655-3.572-1.337-5.531
		c0.574-0.854,0.637-1.715,0.446-2.617c-0.121-0.572-0.22-1.133-0.2-1.715c0.701,1.986,1.676,3.877,1.487,6.115
		c-0.106,1.252,0.574,1.557,1.767,1.156c1.081-0.363,1.912-1.115,2.866-1.67c1.093-0.635,3.366-0.391,4.098,0.594
		c0.57,0.764,0.97,1.635,1.861,2.168c0.52,0.311,0.479,1.025,0.416,1.615c-0.174,1.619,0.023,3.199,0.689,4.672
		c0.682,1.512,1.154,3.066,1.357,4.703c0.049,0.406,0.184,0.705,0.504,0.988c1.393,1.223,1.801,2.154,0.809,3.641
		c-1.475,2.205-0.592,4.488-0.689,6.721c-0.061,1.395,0.135,2.82,0.475,4.244c0.496,2.078-1.385,4.385-3.453,4.666
		c-0.094,0.014-0.248-0.004-0.277,0.049c-0.689,1.236-2.3,1.537-2.901,2.857c-0.168-0.285-0.465-0.564-0.48-0.857
		c-0.079-1.508-0.739-1.742-1.948-0.996c-0.767,0.475-1.367,0.545-1.413-0.633c-0.01-0.268-0.192-0.428-0.459-0.479l-0.021-0.021
		c0.016-0.08,0.008-0.158-0.022-0.234c-0.25-0.947,0.34-1.133,1.076-1.188c0.143,0.01,0.283,0.043,0.419,0.086
		C70.897,162.384,71.473,162.474,71.816,162.958z"/>
	<path fill-rule="evenodd" clip-rule="evenodd" fill="#484B61" d="M71.816,162.958c-0.549-0.031-1.081-0.102-1.43-0.605
		c0.294-0.463,0.171-0.785-0.342-1.004c-0.137,0.436,0.507,0.582,0.33,1c-0.626,0.064-1.378-0.076-1.452,0.889
		c0.122-1.781-0.922-1.775-2.264-1.613c-0.501,0.061-1.014,0.248-1.538,0.172c-0.194-0.195-0.388-0.393-0.582-0.588
		c-0.701-1.271-1.18-2.605-1.155-4.082c0.688,0.299,0.483,0.979,0.662,1.502c0.145,0.422,0.453,0.822,0.946,0.754
		c0.56-0.078,0.588-0.539,0.49-1.014c-0.157-0.756-0.297-1.514-0.452-2.27c-0.201-0.982-0.578-1.904,0.684-2.631
		c0.627-0.361,0.348-1.35,0.162-2.033c-0.62-2.285-0.987-4.609-1.013-6.967c-0.012-1.121-0.269-2.201-0.305-3.309
		c-0.015-0.453-0.207-1.145,0.391-1.248c0.54-0.096,0.5,0.619,0.63,0.992c0.925,2.637,1.324,5.396,1.864,8.123
		c0.319,1.611,0.647,3.189,1.764,4.504c0.563,0.66,0.954,1.465,0.87,2.398c-0.044,0.488,0.262,0.752,0.551,1.1
		c1.288,1.547,1.398,3.512,1.747,5.381C72.436,162.74,72.13,162.902,71.816,162.958z"/>
	<path fill-rule="evenodd" clip-rule="evenodd" fill="#8F93A1" d="M69.47,166.582c0.389,0.754,0.819,1.492,1.148,2.271
		c0.137,0.326,0.195,0.84-0.296,0.984c-0.525,0.154-0.652-0.336-0.732-0.691c-0.184-0.816-0.304-1.646-0.451-2.471
		C69.25,166.644,69.36,166.613,69.47,166.582z"/>
	<path fill-rule="evenodd" clip-rule="evenodd" fill="#99A3B0" d="M68.966,163.494c0.011,0.047,0.023,0.094,0.033,0.141
		c0.085,0.441,0.478,0.92-0.109,1.285c-0.185,0.115-0.411-0.023-0.476-0.207c-0.197-0.557-0.188-1.059,0.53-1.24L68.966,163.494z"/>
	<path fill-rule="evenodd" clip-rule="evenodd" fill="#EBF1F3" d="M64.492,162.958c0.908,0.18,2.079,0.436,2.848,1.502
		c0.229,0.316,0.413,0.711,0.184,1.078c-0.264,0.426-0.679,0.236-1.04,0.109c-0.863-0.305-1.718-0.631-2.583-0.928
		c-0.521-0.18-0.823-0.492-0.757-1.066C63.217,163.009,63.682,162.933,64.492,162.958z"/>
	<path fill-rule="evenodd" clip-rule="evenodd" fill="#9BA3B9" d="M65.811,175.439c-0.504-0.109-0.865-0.41-0.905-0.945
		c-0.041-0.547,0.328-0.76,0.827-0.742c0.503,0.016,0.803,0.293,0.827,0.801C66.584,175.05,66.342,175.363,65.811,175.439z"/>
	<path fill-rule="evenodd" clip-rule="evenodd" fill="#525A67" d="M124.565,177.175c-1.129-1.027-0.875-2.482-1.16-3.77
		c0.359-0.316,0.359-0.316,1.111,0.604c0.1,0.096,0.201,0.191,0.303,0.285c0.15,0.4,0.514,0.549,0.854,0.73
		c0.914,0.49,1.811,0.908,1.684,2.277c-0.076,0.818,0.65,1.445,1.123,2.113c0.203,0.287,0.813,0.668,0.338,1.08
		s-1.127,0.324-1.566-0.146c-0.748-0.805-1.432-1.672-2.141-2.512C124.926,177.619,124.747,177.396,124.565,177.175z"/>
	<path fill-rule="evenodd" clip-rule="evenodd" fill="#F9FCFD" d="M86.678,48.257c2.469,1.309,4.99,2.538,6.176,5.35
		c0.41,0.974,0.861,1.944,1.676,2.695c0.395,0.363,0.598,0.888,0.576,1.449c-0.143,3.744,1.271,7.271,1.527,10.958
		c0.182,2.599,1.209,5.056,1.242,7.687c0.008,0.691-0.045,0.935-0.742,0.69c-0.146,0.058-0.289,0.054-0.432-0.011
		c-0.783-0.543-1.012-1.379-1.127-2.247c-0.109-0.826-0.314-1.601-0.854-2.257c-1.012-2.743-1.453-5.657-2.521-8.382
		c-0.424-1.433-1.25-2.66-2.006-3.924c-0.154-1.215-0.414-2.4-0.988-3.499c-0.859-1.669-1.283-3.503-1.99-5.23
		c-0.174-0.9-1.049-1.662-0.545-2.698C86.672,48.644,86.676,48.45,86.678,48.257z"/>
	<path fill-rule="evenodd" clip-rule="evenodd" fill="#545D69" d="M86.67,48.837c0.291,0.871,0.582,1.741,0.873,2.612
		c0.201,0.308,0.232,0.839-0.037,0.859c-1.559,0.118-1.371,1.367-1.631,2.336c-0.689,0.212-0.863-0.377-0.998-0.771
		c-0.59-1.746-1.82-2.792-3.398-3.663c-2.943-1.624-5.943-3.164-8.731-5.061c-0.273-0.186-0.592-0.322-0.928-0.387
		c-0.099-0.098-0.197-0.196-0.296-0.293c-0.273-0.978,0.481-0.704,0.917-0.706c0.878-0.003,1.632,0.501,2.479,0.691
		c1.555,0.349,3.107,0.708,4.691,0.796c1.182,0.065,2.121,0.53,2.982,1.265C84.102,47.026,85.297,48.087,86.67,48.837z"/>
	<path fill-rule="evenodd" clip-rule="evenodd" fill="#B9C4C9" d="M82.594,46.516c-1.367-0.798-2.873-0.847-4.404-0.975
		c-1.854-0.155-3.684-0.579-5.422-1.312c-0.438-0.185-0.989-0.648-1.244,0.241c-0.077-0.116-0.153-0.231-0.23-0.347
		c1.536-0.829,0.234-2.116,0.509-3.149c0.689-0.474,1.229-0.155,1.738,0.328c-0.796,0.715-0.664,1.414,0.248,1.772
		c1.313,0.517,2.676,0.97,4.139,0.817C79.424,44.872,81.432,44.94,82.594,46.516z"/>
	<path fill-rule="evenodd" clip-rule="evenodd" fill="#7A858B" d="M77.928,43.891c0.049,0.214,0.201,0.621-0.137,0.544
		c-1.623-0.367-3.385-0.26-4.823-1.312c-0.49-0.358-0.618-0.867-0.493-1.422c0.142-0.63,0.648-0.426,1.065-0.4
		C75.004,42.165,76.467,43.028,77.928,43.891z"/>
	<path fill-rule="evenodd" clip-rule="evenodd" fill="#08070D" d="M71.82,44.763c0.217-0.651,0.599-0.3,0.871-0.099
		c2.312,1.709,5.065,2.675,7.36,4.399c0.553,0.417,1.23,0.598,1.799,0.795c2.391,0.828,2.883,3.028,3.893,4.869
		c1.074,0.596,1.283,1.636,1.336,2.718c0.029,0.633,0.057,1.254,0.26,1.857c0.291,2.396,0.85,4.752,1.049,7.165
		c0.084,1.025,0.6,1.933,1.158,2.797c0.365,0.566,0.795,1.129,0.477,1.874c-0.699,0.462-1.064-0.118-1.424-0.515
		c-0.809-0.892-1.619-1.796-1.949-3.04c-0.652,0.097-0.797,0.591-0.955,1.018c-0.361,0.971-1.027,1.401-2.035,1.171
		c-1.465-0.335-2.762-0.01-4.203,0.439c-1.813,0.565-3.75,0.908-5.667,1.155c-1.012,0.13-1.904-0.162-2.648-0.911
		c-0.351-0.353-0.708-0.851-1.468-0.448c0.849,0.95,1.195,2.06,1.228,3.296c0.018,0.703,0.65,0.885,1.187,1.123
		c0.522,0.23,0.955,0.586,0.75,1.224c-0.196,0.611-0.766,0.492-1.238,0.448c-1.523-0.142-2.888-0.814-4.263-1.393
		c-2.006-0.844-4.201-1.075-6.167-2.052c-0.84-0.418-1.708,0.151-2.53,0.376c-0.604,0.165-0.473,0.645-0.125,1.021
		c0.465,0.503,0.65,1.07,0.466,1.736c-0.606,2.195-0.008,4.408-0.085,6.611c-0.015,0.423,0.194,0.853-0.018,1.278
		c-0.272,0.381-0.678,0.202-1.03,0.25c-0.223,0.015-0.445,0.005-0.667-0.024c-0.779-0.149-1.648,0.348-2.358-0.318
		c-0.091-0.114-0.159-0.243-0.207-0.382c-0.474-1.662-0.37-3.332-0.05-5.003c-1.202-2.399-2.449-4.776-3.569-7.216
		c-0.299-0.651-0.608-1.306-1.07-1.868c-0.426-0.793-0.564-1.687-0.892-2.515c-0.346-1.185-0.388-2.352-0.07-3.571
		c0.521-2.003-0.068-4.023-0.079-6.039c-0.003-0.643-0.022-1.233,0.238-1.828c1.967-4.488,4.366-8.744,6.909-12.924
		c1.414-1.946,1.596-1.997,3.906-0.999c0.58,0.25,1.167,0.48,1.8,0.373c1.024-0.172,1.753,0.274,2.373,1.012
		c1.245,1.823,2.96,3.091,4.873,4.128c0.426,0.231,0.779,0.551,1.082,0.929c0.219,2.598,1.251,4.995,1.85,7.5
		c0.081,0.339,0.292,0.639,0.71,0.581c0.466-0.066,0.424-0.442,0.415-0.782c-0.075-2.719-0.149-5.439-0.677-8.119
		C72.224,46.155,72.003,45.463,71.82,44.763z"/>
	<path fill-rule="evenodd" clip-rule="evenodd" fill="#586178" d="M70.064,47.684c-2.382-1.107-4.681-2.322-6.08-4.702
		c-0.311-0.307-0.4-0.745-0.695-1.081c-0.763-0.87-1.027-1.854-0.292-2.886c0.731-1.026,1.645-1.245,2.731-0.527
		c0.067,0.044,0.18-0.028,0.256-0.095c0.283,0.001,0.445,0.198,0.541,0.41c1.166,2.58,2.333,5.16,3.46,7.756
		C70.128,46.884,70.044,47.307,70.064,47.684z"/>
	<path fill-rule="evenodd" clip-rule="evenodd" fill="#3A3E4A" d="M65.986,38.394c0.066,0.276,0.131,0.552,0.268,1.128
		c-0.883-0.677-1.563-1.777-2.624-0.697c-0.638,0.649-0.879,1.308-0.508,2.205c0.272,0.659,0.923,1.151,0.862,1.952
		c-0.719-0.76-1.495-1.249-2.629-0.871c-0.519,0.173-1.017-0.2-1.498-0.43c-2.166-1.036-2.167-1.032-3.505,0.72
		c-0.541-1.125,0.202-1.702,0.965-2.271c1.005-0.424,1.395-1.415,1.886-2.243c0.652-1.099,1.457-1.738,2.734-1.693
		c-0.655-0.324-1.313-0.559-2.027-0.696c-0.714-0.136-1.314-0.488-0.714-1.382c1.658-0.377,3.099-0.058,4.211,1.313
		c0.168,0.117,0.336,0.234,0.505,0.351C64.604,36.652,65.295,37.523,65.986,38.394z"/>
	<path fill-rule="evenodd" clip-rule="evenodd" fill="#767F89" d="M60.754,32.2c-1.483,0.811-1.274-0.213-1.192-1.1
		c-0.139-0.413-0.217-0.823,0.058-1.217c0.302,0.467,0.241,1.01,0.302,1.522c0.064,0.544,0.362,0.599,0.796,0.46
		C60.73,31.978,60.742,32.089,60.754,32.2z"/>
	<path fill-rule="evenodd" clip-rule="evenodd" fill="#D2DDE7" d="M55.809,32.245c0.83-0.233,1.55-0.189,2.026,0.683
		c0.098,0.179,0.435,0.405,0.571,0.356c1.225-0.441,2.563,0.193,3.758-0.419c0.143,0.1,0.423,0.251,0.408,0.292
		c-0.182,0.491-0.636,0.165-0.953,0.287c-0.073,0.062-0.148,0.162-0.23,0.165c-1.186,0.045-2.229,0.456-3.154,1.191
		c-1-0.261-2.021-0.406-3.048-0.505C53.671,33.091,55.395,32.867,55.809,32.245z"/>
	<path fill-rule="evenodd" clip-rule="evenodd" fill="#96A0B5" d="M58.201,34.511c0.906-1.104,2.108-1.26,3.418-1.068
		c0.01,0.076,0.016,0.152,0.019,0.228c-0.351,0.468-0.827,0.412-1.319,0.328c-0.371-0.063-0.782-0.208-0.995,0.291
		c-0.273,0.412-0.227,0.831,0.298,0.809c1.177-0.05,2.088,0.596,3.095,0.997c-0.08,0.532-0.083,0.554-0.431,0.504
		c-1.338-0.192-2.681-0.332-4.032-0.375c-0.136-0.007-0.269-0.038-0.396-0.086c-0.347-0.281-0.651-0.606-0.941-0.947
		c-0.024-0.693,0.514-0.564,0.919-0.628C57.959,34.551,58.081,34.534,58.201,34.511z"/>
	<path fill-rule="evenodd" clip-rule="evenodd" fill="#56666E" d="M59.324,34.29c0.523-1.133,1.557-0.361,2.314-0.619
		c0.767,0.409,1.54,0.811,1.77,1.759C62.184,34.557,60.781,34.326,59.324,34.29z"/>
	<path fill-rule="evenodd" clip-rule="evenodd" fill="#D2DEFE" d="M12.116,35.176c-0.185-0.02-0.37-0.039-0.555-0.059
		c1.409-2.027,3.135-3.604,5.679-4.048c0.418-0.073,0.822-0.236,1.224-0.383c0.771-0.282,1.332-0.119,1.141,0.79
		c-0.2,0.954,0.237,1.376,1.012,1.579c0.921,0.242,0.766-0.609,0.985-1.071c0.145-0.304,0.293-0.605,0.44-0.908
		c0.459,0.5,0.3,1.076,0.176,1.634c-0.063,0.281-0.151,0.537-0.066,0.839c0.638,2.273-0.152,3.063-2.526,2.712
		c-1.716-0.254-3.288-1.002-4.983-1.295C13.781,34.818,12.927,34.727,12.116,35.176z"/>
	<path fill-rule="evenodd" clip-rule="evenodd" fill="#717C9E" d="M13.037,37.457c1.433,0.38,2.983,0.537,3.836,2.019
		c-0.403,0.437-0.822,0.199-1.104-0.088c-0.598-0.609-1.22-0.581-1.91-0.246c-0.461,0.033-0.818-0.173-1.127-0.49l-0.011-0.013
		C12.826,38.245,12.932,37.851,13.037,37.457z"/>
	<path fill-rule="evenodd" clip-rule="evenodd" fill="#646F8F" d="M13.885,38.938c0.631-0.834,1.247-0.889,1.904-0.009
		c0.254,0.339,0.59,0.629,1.084,0.547c0.212,0.102,0.43,0.193,0.634,0.309c0.671,0.379,1.132,1.672,1.904,1.14
		c0.682-0.47,1.091-1.653,0.876-2.619c-0.301-1.353,0.134-1.735,1.456-1.817c1.528-0.096,1.659-0.562,1.149-2.787
		c0.39-0.136,0.644,0.077,0.879,0.338c0.373,0.722,0.97,0.542,1.619,0.496c3.651-0.254,7.304-0.212,10.952,0.097
		c0.517,0.422,0.183,0.646-0.216,0.803c-0.504,0.199-1.045,0.156-1.575,0.158c-2.452,0.011-4.905-0.01-7.616,0.016
		c0.776,0.942,1.692,1.114,2.486,1.48c3.608,1.661,6.96,3.714,9.88,6.433c0.248,0.23,0.5,0.455,0.815,0.593
		c2.575,1.867,5.365,3.468,7.41,5.992c0.242,0.299,0.553,0.545,0.651,0.944c0.101,1.312-0.279,2.571-0.407,3.858
		c-0.058,1.298-0.171,2.591-0.37,3.875c-0.33,1.487-0.798,2.943-0.989,4.461c-0.909-0.031-1.052-0.112-1.051-1.574
		c0.002-1.233-0.615-1.745-1.687-1.955c-0.718-0.141-1.31,0.239-1.636,0.741c-1.289,1.979-3.617,2.799-5.025,4.668
		c-0.934,1.239-1.211,2.152-0.407,3.535c0.289,0.497,0.761,0.992,0.389,1.587c-0.41,0.655-1.021,0.311-1.568,0.145
		c-0.274-0.084-0.567-0.225-0.814,0.02c-0.261,0.257-0.083,0.541,0.023,0.805c0.461,1.141,0.92,2.23,2.432,2.346
		c0.808,0.062,1.296,0.795,1.88,1.295c0.749,0.642,1.339,0.576,1.569-0.453c0.339-1.517,1.906-1.603,2.817-2.451
		c0.298-0.278,0.814,0.104,1.128,0.436c0.34,0.36,0.53,0.807,0.708,1.257c0.304,0.771,0.567,1.74,1.234,2.097
		c2.315,1.235,2.929,3.506,3.696,5.666c0.789,2.224,1.079,4.477-0.655,6.482c-0.718-0.002-0.657-0.596-0.744-1.032
		c-0.167-0.848-0.251-1.713-0.622-2.521c0.074,2.156,0.405,4.271,1.075,6.329c0.173,0.533,0.685,0.16,1.017,0.293
		c0.755,1.271,0.94,2.649,0.773,4.092c-0.107,0.098-0.234,0.145-0.38,0.137c-0.469-0.439-0.939-0.018-1.412,0.004
		c-1.091-1.064-2.244-2.088-3.061-3.382c-0.407-0.645-0.906-0.644-1.489-0.551c-0.668,0.106-0.615,0.642-0.606,1.131
		c0.052,2.847,0.97,5.511,1.714,8.214c0.293,1.066,1.516,0.742,2.073,1.41c0.245,0.316,0.375,0.672,0.388,1.07
		c-0.319,1.139-1.137,0.848-1.917,0.674c-0.208-0.07-0.426-0.119-0.623-0.223c-1.211-1.082,3.297,25.314,1.936,24.535
		c-2.366-0.162-13.571,0.818-15.911,0.434c-2.181-0.357,0.323-28.438,0.808-30.553c0.095-0.412,0.293-0.826,0.008-1.406
		c-0.432,0.611-0.32,1.238-0.37,1.814c-0.083,0.965-0.519,1.525-1.548,1.539c-1.496,0.021-3.008,0.207-4.413-0.529
		c-0.9-1.346-0.403-2.613,0.31-3.799c0.459-0.764,1.039-0.596,1.431,0.141c0.35,0.658,0.365,1.4,0.475,2.119
		c0.05,0.332,0.099,0.713,0.563,0.715c0.359,0.002,0.474-0.299,0.573-0.57c0.234-0.639,0.438-1.291,0.491-1.973
		c0.095-1.221,0.354-2.395,0.852-3.518c0.407-0.917,0.363-1.739-0.335-2.558c-0.936-1.099-0.996-2.496-1.042-3.856
		c-0.036-1.068-0.049-2.132-0.286-3.182c-0.208-0.925-0.325-1.75-1.314-2.399c-0.881-0.579-0.932-1.855-0.774-2.955
		c0.09-0.626,0.28-1.271,0.029-1.869c-0.845-2.013-0.78-4.176-1.061-6.275c-0.283-2.11,0.281-4.229,0.004-6.377
		c-0.127-0.99-0.09-2.007-0.403-2.983c-0.698-2.175-1.167-4.406-1.563-6.652c-0.136-0.769-0.42-1.151-1.298-1.21
		c-1.38-0.094-2.723-0.764-3.106-2.07c-0.709-2.414-2.461-4.147-3.592-6.268c-0.203-0.376-0.318-0.795-0.571-1.148
		C14.656,41.575,13.476,40.603,13.885,38.938z"/>
	<path fill-rule="evenodd" clip-rule="evenodd" fill="#434752" d="M120.448,164.923c-0.426-0.635-0.469-1.277-0.25-1.99
		c-2.311-2.635-4.191-5.627-6.063-8.623c-0.289-0.074-0.566-0.068-0.787,0.248c-0.32,0.461,0.557,1.707,0.176,1.318
		c-2.301-2.346-8.484-39.617-4.58,0.99c-0.152,1.039,6.24,2.531,6.795,3.223c0.74,0.928,1.492,1.846,2.398,2.869
		c-1.939-0.563-2.854-2.098-4.15-3.152c-1.248-1.016-2.502-2.109-4.318-1.805c0.455,0.619,0.898,1.225,1.115,1.996
		c0.844,3.008,1.908,5.922,3.512,8.635c0.553,0.936,0.906,0.67,1.342,0.057c0.535-0.754,1.102-1.459,1.908-1.939
		c0.416-0.385,0.635-1.219,1.473-0.646c0.465,0.045,0.902-0.025,1.357-0.168C121.34,165.632,120.84,165.289,120.448,164.923z"/>
	<path fill-rule="evenodd" clip-rule="evenodd" fill="#131D20" d="M34.312,106.496c0.161-0.799,1.034-1.211,1.112-2.055
		c-0.086-1.01,0.96-1.137,1.371-1.762c0.69-0.492,1.42-0.893,2.287-0.975c0.288-0.016,0.576-0.021,0.862-0.008
		c0.567,0.029,1.233-0.057,1.467,0.627c0.255,0.746-0.197,1.309-0.733,1.734c-0.96,0.762-2.072,1.164-3.308,1.176
		c-0.404,0.133-0.666,0.527-1.1,0.609c-0.326,0.336-0.67,0.654-0.971,1.01c-0.229,0.271-0.301,0.818-0.783,0.645
		C34.047,107.328,34.328,106.845,34.312,106.496z"/>
	<path fill-rule="evenodd" clip-rule="evenodd" fill="#404359" d="M42.714,119.875c0.676-0.113,1.421,0.242,2.036-0.297
		c0.376-0.227,0.725-0.088,1.071,0.082c0.89,1.107,1.856,2.18,1.753,3.752c-0.119,0.213-0.285,0.344-0.543,0.309
		c-1.212-0.785-2.502-0.605-3.773-0.238c-1.527,0.441-2.971,1.16-4.59,1.297c-0.503,0.041-0.942,0.336-1.149,0.797
		c-0.925,2.055-1.404,4.201-1.148,6.467c0.035,0.314,0.115,0.672,0.482,0.875c0.45-0.428,0.443-1.047,0.635-1.57
		c0.512-1.404,1.642-2.309,2.958-2.15c2.323,0.277,4.751,0.16,6.942,1.238c1.502,1.775,1.431,2.68-0.313,4.121
		c-0.191,0.158-0.396,0.354-0.634,0.307c-1.867-0.367-3.274,0.992-4.959,1.309c-0.63,0.117-1.106,0.574-1.515,1.074
		c-0.553,0.676-1.167,1.297-1.811,1.885c-1.109,1.012-1.434,0.936-2.211-0.303c-0.98-1.561-1.74-3.24-2.672-4.824
		c-0.326-0.555-0.462-1.18-0.426-1.818c0.036-0.621-0.16-1.133-0.557-1.59c-0.147-0.295-0.172-0.613-0.191-0.934
		c0.017-1.164-0.208-2.377,0.664-3.371c0.822-1.143,2.065-1.803,3.099-2.703c0.619-0.539,1.212-0.922,2.16-0.348
		c0.736,0.447,1.492,0,1.772-0.9c0.254-0.814,0.71-1.455,1.456-1.883C41.861,120.572,42.313,120.289,42.714,119.875z"/>
	<path fill-rule="evenodd" clip-rule="evenodd" fill="#44485E" d="M27.87,137.632c0.168,1.414-0.295,2.781-0.309,4.182
		c-0.002,0.229,0.022,0.535-0.297,0.574c-0.373,0.043-0.522-0.266-0.524-0.553c-0.018-2.947-1.622-5.672-1.213-8.682
		c0.122-0.896-3.194-35.324-3.552-36.127c1.673-2.037,9.7,4.031,12.37,3.684c0.518,0.473-2.577,27.209-2.69,27.795
		c-0.384,0.721-0.802,1.416-0.812,2.289c-0.006,0.482-0.214,1.006-0.591,1.295C28.419,133.505,28.575,135.75,27.87,137.632z"/>
	<path fill-rule="evenodd" clip-rule="evenodd" fill="#8B909D" d="M32.764,126.291c-0.089,1.152-0.178,2.307-0.268,3.461
		c-0.311,0.893-0.697,0.805-1.134,0.086c-0.03-1.096,0.191-2.176,0.227-3.268C31.898,126.126,32.355,126.308,32.764,126.291z"/>
	<path fill-rule="evenodd" clip-rule="evenodd" fill="#454141" d="M43.873,116.083c0.523,0.725,0.199,1.74,0.918,2.432
		c0.769,0.738,0.8,0.24,0.836-0.398c1.034,0.586,0.721,1.168-0.005,1.748c-0.291-0.096-0.581-0.191-0.872-0.287
		C43.803,118.578,43.811,117.337,43.873,116.083z"/>
	<path fill-rule="evenodd" clip-rule="evenodd" fill="#555A75" d="M31.589,126.57c0.026,1.154,0.052,2.309,0.077,3.461
		c0.123,0.523,0.913,0.826,0.505,1.527c-0.878,0.357-1.121-0.223-1.22-0.885c-0.108-0.721,0.049-1.42,0.391-2.07
		c0.004-0.58,0.009-1.16,0.013-1.74C31.434,126.765,31.511,126.667,31.589,126.57z"/>
	<path fill-rule="evenodd" clip-rule="evenodd" fill="#464A65" d="M31.342,128.603c0.007,0.715-0.005,1.434,0.027,2.148
		c0.026,0.59,0.209,0.982,0.859,0.465c-0.123-0.326,0.033-0.496,0.33-0.588c0.498,0.066,0.928,0.365,0.796,0.844
		c-0.573,2.088,1.162,3.352,1.741,5.018c0.311,0.896,1.038,1.639,1.415,2.52c0.332,0.775,0.617,0.555,1.023,0.152
		c0.344-0.342,0.749-0.643,1.019-1.035c1.255-1.822,3.076-2.645,5.145-3.172c0.903-0.229,1.584-1.248,2.732-0.412
		c0.364,0.266,1.771-2.221,1.504-2.758c-0.19-0.385-0.573-0.674-0.572-1.154c-0.613-1.645-0.286-3.395-0.565-5.08
		c-0.107-0.646-0.294-1.338,0.287-1.895c0.095-0.1,0.189-0.197,0.284-0.295c0.282-0.064,0.446,0.098,0.589,0.301
		c0.425,0.799,0.481,1.674,0.453,2.545c-0.068,2.094,0.183,4.145,0.571,6.201c0.222,1.174,0.564,1.979,1.88,2.01
		c-1.334,1.488-1.396,3.16-0.838,4.994c0.488,1.605,1.005,3.217,1.13,4.91c-0.784-1.1-0.826-2.59-1.884-3.551
		c-0.236-0.217-0.286-0.703-0.69-0.656c-0.458,0.053-0.329,0.533-0.404,0.832c-0.199,0.793-0.364,1.596-0.513,2.402
		c-0.079,0.426-0.099,0.861-0.648,1.148c-0.383-0.773-0.749-1.541-1.139-2.295c-0.778-1.502-2.146-1.795-3.242-0.508
		c-1.021,1.199-2.012,2.482-3.054,3.619c-1.205,1.316-1.704,2.971-2.811,4.273c-0.354,0.418-0.661,0.902-1.292,0.688
		c-0.615-0.209-1.18-0.564-1.186-1.311c-0.01-1.242-0.625-2.219-1.317-3.156c-0.272-0.371-0.448-0.725-0.449-1.186
		c-0.011-3.313-0.04-6.625-0.578-9.906c-0.055-0.334-0.003-0.695-0.114-1.002c-0.119-0.332-0.164-0.855-0.674-0.807
		c-0.382,0.039-0.512,0.479-0.555,0.783c-0.148,1.037-0.57,1.779-1.63,2.158c-0.767,0.275-0.706,1.201-1.101,1.783
		c0.118-1.184,0.235-2.365,0.355-3.549c0.004-0.047,0.014-0.104,0.043-0.135C29.694,132.396,30.437,130.453,31.342,128.603z"/>
	<path fill-rule="evenodd" clip-rule="evenodd" fill="#464A65" d="M51.729,146.361c0.573,0.68,0.611,1.496,0.587,2.328
		C51.568,148.052,51.767,147.175,51.729,146.361z"/>
	<path fill-rule="evenodd" clip-rule="evenodd" fill="#F6F9F9" d="M71.5,109.994c-0.517-1.006-0.977-2.027-1.113-3.176
		c-0.076-0.641-0.12-1.246,0.26-1.807c0.546-1.002,1.303-1.447,2.429-0.924c0.167,0.135,0.302,0.301,0.422,0.477
		c0.14,0.193,0.226,0.43,0.42,0.58c0.66,0.508,0.82,1.027,0.098,1.629c-0.275,0.229-0.396,0.541-0.205,0.9
		c0.023,1.076-1.097,2.34-2.262,2.555C71.533,110.15,71.516,110.072,71.5,109.994z"/>
	<path fill-rule="evenodd" clip-rule="evenodd" fill="#EBEFF0" d="M60.17,116.976c0.796,0.848,2.054,0.193,2.898,0.889
		c0.081,0.891,0.256,1.762,0.573,2.602c-0.09,0.766,0.249,1.924-0.919,1.941c-1.015,0.014-2.27-0.076-2.442-1.652
		c-0.098-0.904-0.424-1.783-0.647-2.674C59.505,117.566,59.504,117.107,60.17,116.976z"/>
	<path fill-rule="evenodd" clip-rule="evenodd" fill="#7A8383" d="M70.611,110.882c0.271,0.354,0.518,0.727,0.13,1.137
		c-0.52,0.547-0.817-0.191-1.24-0.248c-0.7-0.096-0.532-0.5-0.276-0.908C69.687,110.869,70.149,110.875,70.611,110.882z"/>
	<path fill-rule="evenodd" clip-rule="evenodd" fill="#23242A" d="M100.344,150.734c-0.049,0.416-0.293,0.561-0.695,0.551
		c-1.422-0.031-2.682,0.99-2.387,2.258c0.281,1.215,0.068,2.34-0.164,3.416c-0.508,2.354,0.105,4.561,0.473,6.814
		c0.072,0.438,0.465,1.102-0.326,1.098c-0.648-0.002-0.488-0.666-0.408-1.148c0.156-0.932-0.34-1.709-1.02-2.084
		c-0.834-0.461-1.275-1.076-1.57-1.896c-0.395-1.451-0.789-2.902-1.184-4.354c0.213-1.268-0.623-2.598-0.213-3.709
		c0.82-2.221-0.336-2.252-1.9-2.158c-0.158,0.01-0.328-0.164-0.494-0.254c0.611-0.23,1.219-0.117,1.838-0.016
		c0.4,0.064,0.793-0.049,0.973-0.467c0.154-0.363,0.002-0.709-0.295-0.896c-2.477-1.561-3.396-4.379-5.244-6.438
		c-1.572-1.754-3.027-3.596-4.535-5.398c-0.803-0.957-0.117-14.465-0.598-15.629c1.133,1.023,6.834,9.668,8.164,10.434
		c1.256,0.723,2.654,3.006,3.797,4.002c1.029,0.896,4.076,3.65,4.676,4.947c0.285,1.434-1.129-0.883,0,0
		c0.645,0.504-0.887,0.516,0,0c1.582,0.02-1.939,7.4-0.93,8.285C99.122,148.81,100.292,149.376,100.344,150.734z"/>
	<path fill-rule="evenodd" clip-rule="evenodd" fill="#464342" d="M94.887,146.126c-0.119,0.365-0.365,0.537-0.754,0.512
		c-1.342-0.082-3.867-2.629-3.912-3.982c-0.008-0.219,0.146-0.445,0.227-0.668c0.088-0.002,0.176-0.014,0.264-0.033l0.072,0.074
		c0.719,1.939,1.955,3.363,3.982,3.996C94.807,146.058,94.846,146.093,94.887,146.126z"/>
	<path fill-rule="evenodd" clip-rule="evenodd" fill="#8A8D96" d="M88.768,149.326c0.047-0.01,0.092-0.018,0.139-0.029
		c0.49-0.111,0.969-0.135,1.137,0.467c0.09,0.324-0.15,0.549-0.459,0.576c-0.738,0.063-0.826-0.445-0.818-1.008l-0.063-0.049
		L88.768,149.326z"/>
	<path fill-rule="evenodd" clip-rule="evenodd" fill="#272939" d="M60.626,128.716c0.084,0.146,0.177,0.258,0.222,0.389
		c1.332,3.895,2.403,7.846,2.523,11.992c0.011,0.377,0.022,0.854-0.182,1.119c-1.06,1.373-0.71,2.717-0.035,4.078
		c0.135,0.271,0.317,0.594,0,0.758c-0.319,0.166-0.493-0.162-0.615-0.439c-0.961-2.186-1.335-4.52-1.666-6.854
		c-0.076-0.537-0.085-1.107-0.413-1.51c-1.012-1.24-0.984-2.805-1.379-4.229c-0.188-0.678-0.355-1.49,0.885-1.723
		c0.886-0.166,0.486-1.121,0.405-1.74C60.295,129.957,59.935,129.365,60.626,128.716z"/>
	<path fill-rule="evenodd" clip-rule="evenodd" fill="#393C50" d="M60.177,141.41c-1.479-3.811-2.571-7.697-2.323-11.85
		c0.073-1.232,1.042-1.881,1.736-2.711c0.087,0.521,0.206,1.039,0.251,1.564c0.04,0.457,0.255,1.068-0.333,1.285
		c-1.146,0.422-1.009,1.334-1.098,2.264c-0.283,2.941,1.217,5.512,1.627,8.303C60.095,140.644,60.131,141.029,60.177,141.41z"/>
	<path fill-rule="evenodd" clip-rule="evenodd" fill="#393C50" d="M50.279,123.06c0.81-1.281,1.136-2.654,0.483-4.313
		c1.078,0.377-5.354-19.248-5.213-18.707c0.611,2.34,6.393,4.809,8.847,4.814c-0.797,0.934,4.712,18.48,5.106,19.24
		c0.299,0.576-3.991,2.146-4.233,2.775c-0.958,2.49-0.729,4.91,0.438,7.371c1.327,2.797,1.547,5.754,0.915,8.867
		c-0.445,2.189-0.958,4.363-1.418,6.549c-0.146,0.691,0.693,1.721-0.101,1.912c-0.638,0.154-0.613-1.105-0.893-1.727
		c-1.204-2.678-2.274-5.41-3.12-8.223c-0.727-2.418-0.931-4.863,0.008-7.293c-0.452-0.479-0.418-1.072-0.39-1.664
		C51.749,129.41,51.142,126.23,50.279,123.06z"/>
	<path fill-rule="evenodd" clip-rule="evenodd" fill="#E7E9EC" d="M51.129,132.722c-0.009,0.535-0.019,1.07-0.029,1.605
		c-0.093-0.006-0.174,0.023-0.24,0.09c-1.794,0.93-1.647,0.891-2.19-1.127c-0.856-3.178-0.468-6.455-1.007-9.648
		c0.621-0.963,1.267-0.561,1.917-0.035c1.051,2.414,1.144,5.01,1.404,7.57C51.036,131.689,50.943,132.218,51.129,132.722z"/>
	<path fill-rule="evenodd" clip-rule="evenodd" fill="#DEE5EA" d="M55.562,121.63c0.178-0.32,0.356-0.641,0.535-0.959
		c1.223,1.219,1.295,2.859,1.381,4.396c0.035,0.621-0.197,1.27,0.075,1.926c0.112,0.271,0.007,0.59-0.317,0.717
		c-0.408,0.158-0.7-0.07-0.768-0.426C56.112,125.41,55.195,123.621,55.562,121.63z"/>
	<path fill-rule="evenodd" clip-rule="evenodd" fill="#272A33" d="M109.075,157.134c0.213-0.387-6.059-7.93-6.178-8.445
		c-3.666-15.967,0.119-22.959,0-23.805c0.773-0.404,10.451,29.674,8.225,32.225c0.816,0.922,2.416-0.098,3.492,0.6
		c1.1,2.18,3.102,3.725,4.467,6.064c-1.855-0.539-3.217-1.289-4.24-2.545c-1.363-1.672-3.127-2.666-5.172-3.227
		C109.471,157.712,109.272,157.423,109.075,157.134z"/>
	<path fill-rule="evenodd" clip-rule="evenodd" fill="#23242A" d="M106.774,163.521c-0.186-0.994-0.4-1.982-0.549-2.982
		c-0.084-0.559-0.256-1.254,0.428-1.541c0.699-0.293,0.83,0.508,1.178,0.84c0.299,0.287,0.469,0.707,0.695,1.068
		c1.105,3.059,2.021,6.176,2.9,9.303c-0.098,0.344,0.182,0.879-0.295,1.006c-0.482,0.127-0.807-0.359-0.967-0.711
		c-0.885-1.945-1.732-3.908-2.529-5.893C107.442,164.13,107.186,163.787,106.774,163.521z"/>
	<path fill-rule="evenodd" clip-rule="evenodd" fill="#8A8B96" d="M70.375,162.349c-0.161-0.096-0.313-0.217-0.486-0.279
		c-0.471-0.174-0.749-0.459-0.579-0.98c0.098-0.301,0.353-0.488,0.673-0.41c0.627,0.156,0.979,0.643,1.099,1.223
		c0.115,0.549-0.414,0.367-0.695,0.451L70.375,162.349z"/>
	<path fill-rule="evenodd" clip-rule="evenodd" fill="#B9C3CC" d="M98.385,79.683c-0.029,0.108-0.059,0.216-0.088,0.324
		c-1.15-0.523-1.717-1.412-1.678-2.681c0.057-0.141,0.154-0.243,0.289-0.31c0.074,0.023,0.15,0.046,0.225,0.068
		C97.114,78.161,98.26,78.676,98.385,79.683z"/>
	<path fill-rule="evenodd" clip-rule="evenodd" fill="#586175" d="M89.827,71.245c0.109-1.146-0.85-1.782-1.285-2.666
		c-0.98-1.987-0.746-4.205-1.213-6.291c-0.211-0.936-0.365-1.964-0.393-2.967c0.115-0.112,0.252-0.154,0.41-0.128
		c0.92,0.626,2.193,0.249,3.047,1.069c1.168,0.966,1.658,2.319,2.109,3.694c0.467,2.035,1.109,4.023,1.672,6.031
		c0.266,0.943,0.045,1.709-0.271,2.495c-0.363,0.904-1.053,0.601-1.691,0.315c-0.357-0.143-0.619-0.394-0.826-0.709
		c-0.32-0.94-0.768-0.979-1.336-0.189C89.729,71.766,89.651,71.548,89.827,71.245z"/>
	<path fill-rule="evenodd" clip-rule="evenodd" fill="#606E8A" d="M87.237,59.315c-0.1,0.002-0.201,0.004-0.301,0.006
		c-0.42-1.525-0.354-3.178-1.193-4.594c0.092-0.393-0.057-0.747-0.141-1.122c-0.213-0.946,0.215-1.551,1.17-1.519
		c0.576,0.02,0.797-0.078,0.771-0.638c0.672,1.751,1.346,3.502,2.018,5.254c0.371,0.826,0.238,1.457-0.791,1.376
		C87.78,58,87.747,58.911,87.237,59.315z"/>
	<path fill-rule="evenodd" clip-rule="evenodd" fill="#B9C3CC" d="M95.081,72.452c0.691,0.507,0.793,1.304,0.873,2.041
		c0.102,0.944,0.451,1.754,0.955,2.524c-0.045,0.046-0.09,0.093-0.135,0.139c-0.365,0.35-0.83,0.312-1.281,0.331
		c-0.797-0.41-1.799,0.685-2.516-0.336c0.24-0.952,0.039-1.856-0.303-2.745c-0.164-0.428-0.492-0.818-0.301-1.327
		c0.275-0.333,0.494-0.059,0.732,0.064C94.561,73.899,94.561,73.898,95.081,72.452z"/>
	<path fill-rule="evenodd" clip-rule="evenodd" fill="#7C8B9B" d="M95.081,72.452c-0.164,0.553,0.73,1.168-0.102,1.683
		c-0.85,0.524-1.314-0.075-1.824-0.6c-0.195-0.201-0.457-0.339-0.689-0.506c-0.428-0.055-0.477-0.276-0.27-0.611
		c0.475-0.194,1.035,0.78,1.223,0.197c0.258-0.803,0.803-1.62,0.551-2.543c-0.432-1.568-0.881-3.131-1.346-4.69
		c-0.141-0.474-0.186-0.941-0.121-1.425C93.719,66.681,94.122,69.65,95.081,72.452z"/>
	<path fill-rule="evenodd" clip-rule="evenodd" fill="#C0CDD9" d="M87.237,59.315c-0.111-1.233,0.063-2.135,1.682-1.655
		c1.07,0.316,0.518-0.575,0.643-0.957c0.609,1.108,1.176,2.228,0.832,3.56C89.37,59.852,87.993,60.615,87.237,59.315z"/>
	<path fill-rule="evenodd" clip-rule="evenodd" fill="#010101" d="M89.827,71.245c0.111,0.195,0.223,0.39,0.332,0.585
		c0.734,0.551,0.598,1.478,0.947,2.193c0.154,1.028,1.117,1.751,1.08,2.852c-0.893,2.156-0.563,4.32-0.029,6.48
		c0.113,0.466,0.275,0.92,0.363,1.393c0.449,2.413,12.482,42.332,10.377,43.585c-1.441,0.928,1.439,21.313,0,22.252
		c-4.031,2.197-13.316-23.752-17.35-21.555c-0.891,0.486-13.311-30.627-13.977-31.848c-0.821-1.152-1.931-2.012-2.989-2.92
		c-0.513-0.408-0.911,0.023-1.324,0.203c-0.53,0.23-1.025,0.537-1.565,0.752c-1.657,0.662-1.854,0.588-2.65-1.033
		c-0.707-1.098-1.914-1.307-3.02-1.699c-0.285-0.116-0.528-0.289-0.725-0.527c-0.501-0.781-0.562-1.683-0.71-2.563
		c-0.398-1.457-0.306-2.945-0.281-4.429c0.007-0.434,0.031-0.868,0.403-1.182c-0.831-2.076,0.103-4.305-0.549-6.405
		c-0.123-0.395-0.044-0.858,0.217-1.256c0.5-0.759,0.583-1.397-0.443-1.85c-0.458-0.202-0.43-0.718-0.265-1.159
		c0.142-0.381,0.388-0.571,0.821-0.703c1.955-0.595,3.59,0.395,5.392,0.756c2.802,0.562,5.155,2.334,8.016,2.525
		c0.268,0.018,0.601,0.261,0.707-0.173c0.1-0.406-0.191-0.711-0.54-0.713c-1.716-0.011-1.781-1.146-1.699-2.397
		c0.044-0.674-0.091-1.212-0.76-1.579c-0.466-0.256-0.961-0.721-0.478-1.283c0.46-0.534,1.336-0.598,1.683-0.084
		c1.537,2.283,3.501,1.473,5.459,0.929c1.598-0.443,3.318-0.298,4.822-1.322c0.512-0.349,1.605-0.007,2.373,0.224
		c1.049,0.315,1.678,0.232,1.832-1.016c0.064-0.53,0.447-0.957,0.861-1.314c0.525-0.452,1-0.317,1.031,0.322
		C87.28,69.166,88.803,70.027,89.827,71.245z"/>
	<path fill-rule="evenodd" clip-rule="evenodd" fill="#A5ADAF" d="M57.526,40.366c-0.688,0.507-1.119,1.164-1.174,2.037
		C54.014,46.504,51.67,50.603,49.7,54.9c-0.16,0.348-0.452,0.733-0.405,1.062c0.497,3.538-0.254,7.088,0.141,10.622
		c-0.855,0.021-0.873-0.654-1.02-1.224c-0.202-1.509,0.329-2.973,0.282-4.475c-0.018-0.583-0.02-1.161-0.201-1.722
		c-0.085-0.393-0.125-0.79-0.125-1.191c-0.426-4.325,0.444-8.316,2.968-11.922c0.517-0.739,0.844-1.625,1.226-2.458
		c0.535-1.165,1.445-1.888,2.563-2.44c0.754-0.373,1.236-0.75,0.501-1.745c-0.748-1.011,0.526-2.902,2.147-3.423
		c0.048,0.025,0.096,0.051,0.145,0.076C57.986,37.513,57.848,38.948,57.526,40.366z"/>
	<path fill-rule="evenodd" clip-rule="evenodd" fill="#96A1B2" d="M59.645,91.86c0.187,0.135,0.373,0.269,0.558,0.403
		c0.157,0.193,0.185,0.414,0.137,0.648c-0.505,0.998-0.302,2.057-0.22,3.09c0.075,0.955,0.137,1.898-0.038,2.846
		c-0.508,0.645-0.382,1.336-0.171,2.049c0.662,2.246,1.079,4.564,2.051,6.715c-0.315,0.02-0.63,0.039-0.945,0.059
		c-0.206,0.156-0.425,0.156-0.653,0.057c-0.538-0.359-0.604-0.953-0.721-1.51c-0.365-1.738-1.083-3.379-1.386-5.133
		c-0.088-0.508-0.453-0.828-0.752-1.197c-0.132-2.268-0.794-4.432-1.362-6.609c-0.53-2.034-0.942-2.133-2.479-0.707
		c-0.193-0.061-0.387-0.168-0.416-0.361c-0.242-1.601-0.754-3.155-0.81-4.785c0.53-0.561,0.94,0.077,1.397,0.162
		c1.067,0.197,1.325-0.074,1.354-1.15c0.026-1.014-0.914-1.95-0.213-2.997c0.766,0.021,1.532,0.042,2.299,0.063
		c0.215,0.444,0.078,0.82-0.22,1.166c-0.616,0.085-0.768,0.426-0.649,1.019c0.225,1.12,0.13,2.194-0.478,3.218
		c-0.364,0.613-0.324,1.217,0.477,1.527c0.458,0.177,0.808,0.505,1.103,0.885c0.361-0.225,0.272-0.657,0.553-0.86
		c0.747-0.126,0.686,0.496,0.76,0.898C58.919,91.887,59.1,92.127,59.645,91.86z"/>
	<path fill-rule="evenodd" clip-rule="evenodd" fill="#F7FAFA" d="M54.975,83.438c-0.045,1.064,0.736,1.94,0.661,3.028
		c-0.037,0.544,0.398,1.256-0.286,1.546c-0.736,0.313-1.588,0.407-2.303-0.188c-0.179-0.148-0.296-0.369-0.442-0.557
		c-0.4-0.25-0.553-0.658-0.65-1.081c-0.472-2.061-0.974-4.114-1.354-6.192c-0.153-0.84-0.194-1.702,1.043-1.761
		c0.433,0.034,0.851,0.153,1.276,0.233c0.888,0.167,1.462,0.594,1.496,1.628c0.033,1.041,0.218,2.078,0.522,3.084
		C54.942,83.268,54.956,83.354,54.975,83.438z"/>
	<path fill-rule="evenodd" clip-rule="evenodd" fill="#E3EBED" d="M48.771,65.416c0.181,0.412,0.181,0.927,0.664,1.168
		c0.278,0.792,0.556,1.583,0.834,2.375c0.253,0.501,0.458,1.023,0.702,1.529c0.191,0.396,0.664,0.883,0.18,1.263
		c-0.501,0.394-0.801-0.232-1.155-0.493c-1.293-1.997-2.678-3.947-3.335-6.284c-0.783-2.154,0.083-4.205,0.392-6.29
		c-0.023-1.257,0.063-2.503,0.353-3.73c0.884-0.447,1.188,0.007,1.269,0.815c0.069,0.694-0.141,1.406,0.132,2.087
		c0.01,0.384,0.021,0.768,0.031,1.15c0.503,1.821-0.344,3.602-0.163,5.413C48.708,64.751,48.624,65.095,48.771,65.416z"/>
	<path fill-rule="evenodd" clip-rule="evenodd" fill="#748295" d="M58.147,90.457c-0.102,0.639,0.151,1.377-0.646,1.963
		c-0.271-0.915-0.664-1.56-1.749-1.764c-0.953-0.18-0.689-1.363-0.338-1.804c0.919-1.154,0.762-2.314,0.48-3.562
		c-0.071-0.313-0.13-0.572,0.279-0.839c0.448-0.292,0.565,0.039,0.81,0.186c0.56,0.122,0.519,0.735,0.871,1.071
		c0.421-0.745-0.22-1.454-0.03-2.169c0.367-0.176,0.583,0.192,0.885,0.246c0.13,1.937-0.024,3.887,0.289,5.813
		C58.612,89.783,58.5,90.24,58.147,90.457z"/>
	<path fill-rule="evenodd" clip-rule="evenodd" fill="#BBC4CA" d="M50.196,71.025c0.254,0.195,0.508,0.392,0.865,0.666
		c0.084-1.084-0.913-1.759-0.792-2.732c1.514,2.661,2.876,5.4,4.167,8.175c0.138,0.297,0.318,0.575,0.479,0.861
		c0.301,0.748-0.18,0.782-0.688,0.712c-0.444-0.063-0.703-0.429-0.981-0.741c-1.225-1.946-1.729-4.263-3.126-6.127
		C49.951,71.612,50.008,71.282,50.196,71.025z"/>
	<path fill-rule="evenodd" clip-rule="evenodd" fill="#748295" d="M53.506,77.62c0.461,0.16,0.556,1.69,1.41,0.375
		c0.453,0.148,0.658,0.731,0.462,0.876c-1.53,1.14-0.423,2.491-0.393,3.749c0.004,0.186-0.032,0.373-0.049,0.56
		c-0.446-0.723-0.562-1.554-0.617-2.357c-0.087-1.274-0.649-1.95-1.946-2.008c-0.215-0.01-0.424-0.187-0.636-0.286
		C52.233,78.043,52.938,77.964,53.506,77.62z"/>
	<path fill-rule="evenodd" clip-rule="evenodd" fill="#E6EFF1" d="M57.825,83.54c0.799,0.641,0.632,1.52,0.577,2.366
		c-0.021,0.313,0.059,0.734-0.431,0.747c-0.387,0.01-0.58-0.284-0.667-0.631c-0.115-0.46-0.214-0.923-0.321-1.385
		c-0.001-0.403,0.004-0.806,0.289-1.137C57.457,83.515,57.642,83.527,57.825,83.54z"/>
	<path fill-rule="evenodd" clip-rule="evenodd" fill="#010101" d="M55.367,72.146c-0.225-0.437-0.408-0.828-0.623-1.2
		c-0.188-0.323-0.579-0.638-0.162-1.002c0.307-0.268,0.642,0.003,0.934,0.154c0.375,0.195,0.634,0.44,0.363,0.92
		C55.694,71.345,55.564,71.704,55.367,72.146z"/>
	<path fill-rule="evenodd" clip-rule="evenodd" fill="#666B75" d="M57.526,40.366c-0.555-1.499-0.198-2.914,0.395-4.307
		c0.77-0.565,1.544-0.268,2.332-0.037c0.81,0.237,1.627,0.615,2.465,0.074c0.509,0.33,0.307,0.844-0.093,0.718
		c-2.874-0.906-3.045,1.746-4.162,3.103C58.17,40.271,57.943,40.429,57.526,40.366z"/>
	<path fill-rule="evenodd" clip-rule="evenodd" fill="#96A0B5" d="M51.141,30.214c0.374,0.21,0.871,0.406,0.682,0.933
		c-0.132,0.371-0.608,0.244-0.915,0.201c-1.447-0.201-2.366,0.623-3.214,1.595c-0.207,0.237-0.631,0.43-0.421,0.823
		c0.192,0.359,0.628,0.258,0.923,0.183c1.333-0.34,2.687-0.274,4.034-0.246c0.908,0.02,1.813,0.173,2.719,0.266
		c1.103,0.068,2.244-0.093,3.253,0.542c-0.047,0.04-0.095,0.079-0.144,0.117c-0.277,0.118-0.569,0.082-0.857,0.085
		c-1.927,0.029-3.839-0.405-5.767-0.247c-1.827,0.15-3.663,0.077-5.576,0.287c3.025-0.115,5.955-0.45,8.897-0.182
		c0.667,0.061,1.358,0.012,1.912,0.501c-0.254,1.171-1.236,0.873-1.924,0.806c-1.782-0.173-3.562-0.186-5.346-0.237
		c-2.497-0.071-4.994,0.675-7.49-0.01c-0.188-0.052-0.364,0.093-0.508,0.223c-0.861,0.931-1.805-0.318-2.835,0.194
		c1.031,0.005,1.92,0.554,2.792-0.135c0.458-0.24,0.824-0.1,1.134,0.271c0.296,0.857-0.313,1.057-0.904,1.069
		c-1.104,0.022-2.161,0.515-3.284,0.295c-0.224-0.044-0.625-0.1-0.575,0.202c0.171,1.027-0.514,1.841-0.592,2.78
		c-0.066,0.783,0.68,1.086,1.145,1.554c0.708,0.713,1.857,1.103,1.808,2.391c-1.097-0.271-1.716-1.222-2.519-1.875
		c-2.86-2.323-5.983-4.141-9.403-5.499c-0.81-0.322-1.495-0.958-2.244-1.455c0.477-0.626,0.998-0.463,1.459-0.466
		c2.566-0.017,5.133-0.004,7.7-0.027c0.513-0.004,1.079,0.147,1.515-0.297l-0.012-0.015c0.19-0.149,0.395-0.36,0.628-0.33
		c1.802,0.23,3.193-0.757,4.715-1.458C44.862,31.701,47.932,30.715,51.141,30.214z"/>
	<path fill-rule="evenodd" clip-rule="evenodd" fill="#D2DAE8" d="M42.399,36.333c-0.356-0.201-0.724-0.36-1.148-0.302l-0.001-0.001
		c-0.52-1.02,0.255-0.934,0.806-0.861c4.316,0.569,8.658-0.437,12.974,0.229c0.536,0.083,1.162,0.215,1.664-0.23
		c0.078-0.099,0.17-0.108,0.272-0.041c0.507,0.062,1.032,0.105,0.812,0.856c-0.563,0.529-1.156,1.032-1.523,1.73
		c-0.37,0.704-1.305,1.505,0.351,1.86c0.433,0.093,0.447,0.5,0.192,0.805c-0.368,0.441-0.713,0.964-1.286,1.135
		c-1.471,0.438-2.226,1.514-2.853,2.826c-1.034,2.162-2.079,4.317-3.361,6.359c-0.453,0.72-0.501,1.734-0.484,2.666
		c0.027,1.496,0,2.994-0.005,4.491c-0.477-0.536-0.248-1.189-0.265-1.788c-0.022-0.78-0.354-1.154-1.137-1.115
		c-0.037-1.374,0.278-2.702,0.514-4.04c-0.257-0.433-0.168-0.804,0.14-1.19c1.983-2.491,2.845-5.573,4.354-8.316
		c0.415-0.754,0.164-1.107-0.723-0.834c-0.435,0.134-0.889,0.105-1.269-0.119c-2.051-1.21-4.368-1.805-6.491-2.845
		C43.319,37.31,42.75,36.95,42.399,36.333z"/>
	<path fill-rule="evenodd" clip-rule="evenodd" fill="#616D78" d="M56.966,35.128c-0.09,0.016-0.181,0.03-0.272,0.041
		c-3.737-0.603-7.513-0.081-11.261-0.416c4.202-0.698,8.408-0.904,12.625-0.125C57.694,34.794,57.33,34.961,56.966,35.128z"/>
	<path fill-rule="evenodd" clip-rule="evenodd" fill="#9BA4BC" d="M15.939,42.421c-0.583-0.043-0.776,0.244-0.961,0.798
		c-0.221,0.658-0.714,1.224-1.09,1.831c-0.003-0.096-0.046-0.217-0.004-0.284c1.243-1.98-0.165-3.432-0.995-4.993
		c-0.194-0.364-0.158-0.74-0.157-1.121c0.422-0.059,0.795,0.084,1.153,0.286C14.302,40.256,14.741,41.563,15.939,42.421z"/>
	<path fill-rule="evenodd" clip-rule="evenodd" fill="#59607C" d="M15.064,45.632c0.434-0.654,0.375-1.57,1.098-2.07
		c1.325,1.718,2.951,3.242,3.533,5.44c0.521,1.965,1.873,2.874,3.912,2.556c0.52-0.081,0.686,0.096,0.762,0.573
		c0.494,3.137,1.483,6.171,2.104,9.251c0.334,1.658,0.576,3.683,0.082,5.543c-0.263,0.989-0.082,1.992,0.015,3.009
		c0.204,2.146,0.662,4.217,1.153,6.31c0.249,1.058-0.548,2.299,0.08,3.493c0.208,0.395,0.095,0.785,0.814,0.479
		c0.698-0.296,0.593,0.473,0.712,0.908c0.641,2.346,0.431,4.79,0.854,7.161c0.106,0.593,0.222,1.19,0.758,1.497
		c0.949,0.543,0.954,1.509,0.597,2.154c-1.115,2.021-0.946,4.316-1.587,6.431c-0.241,0.793-0.626,0.82-1.236,0.826
		c-0.751,0.01-0.866-0.439-0.852-1.043c0.024-1.006-0.078-1.986-0.704-2.977c-0.977,1.271-1.135,2.615-1.039,4.027
		c-0.473,1.076-1.368,0.889-2.246,0.754c-0.674-0.549-0.698-1.357-0.776-2.115c-0.437-4.225-1.587-8.249-3.072-12.226
		c-1.353-3.625-2.905-7.166-4.265-10.785c-0.068-0.182,0.008,0.049-0.057-0.134c-0.398-1.129-0.217-2.64,0.42-2.814
		c1.078-0.295,1.474,0.688,2.062,1.28c0.2,0.201,0.302,0.503,0.611,0.591c0.099,0.005,0.211-0.029,0.232-0.126
		c0.814-3.734,1.678-7.465,0.642-11.307c-0.291-1.08-0.405-2.188-0.428-3.309c-0.008-0.407,0.032-1.021-0.577-0.979
		c-0.544,0.036-1.344,0.129-1.429,0.776c-0.336,2.545-2.192,4.26-3.526,6.168c-1.115,1.596-2.042,3.237-2.949,4.933
		c-0.767,1.434-1.79,2.692-3.447,3.22c-0.563-0.82,0.099-1.361,0.508-1.878c2.438-3.08,4.14-6.598,6.036-10.001
		c0.071-0.126,0.135-0.257,0.19-0.392c0.357-0.864,0.303-1.73-0.583-2.13c-0.88-0.396-1.556,0.354-1.836,1.022
		c-1.505,3.593-3.508,6.939-5.076,10.498c-0.641,1.455-0.374,3.054-0.774,4.547c-0.028,0.106,0.332,0.032,0.513,0.055
		c0.144,0.021,0.268,0.078,0.375,0.173c-1.004,1.856-2.233,3.445-4.516,3.769c-0.278-0.419-0.232-0.888,0.045-1.226
		c2.011-2.451,2.5-5.534,3.329-8.421c1.028-3.581,2.536-6.854,4.65-9.896c1.272-1.831,2.306-3.799,2.862-5.988
		c0.244-0.964,0.688-1.807,1.651-2.267c0.717-0.343,0.775-1.049,0.917-1.712c0.208-0.977,0.426-1.955,1.837-1.798
		C17.112,46.079,15.61,46.493,15.064,45.632z"/>
	<path fill-rule="evenodd" clip-rule="evenodd" fill="#5C6782" d="M53.506,77.62c-0.02,1.411-1.129,0.701-1.768,0.908
		c-0.855-0.176-0.983,0.189-0.81,0.956c0.585,2.589,1.121,5.188,1.676,7.784c0.694,1.677,0.789,3.487,1.17,5.233
		c0.478,0.242,0.66,0.695,0.756,1.164c0.396,1.922,0.952,3.811,1.141,5.773c-0.351-13.207,52.388,2.109,0.431,22.121
		c-0.502,0.188-3.939-19.865-4.336-20.271c-0.768-1.773-0.901-3.707-1.392-5.551c-0.062-0.23,0.044-0.475,0.281-0.611
		c-0.044-1.391-0.35-2.737-0.698-4.076c-1.031-1.052-1.176-1.865-0.566-3.18c0.06-0.459-0.088-0.998,0.52-1.238
		c0.118-0.046,0.299-0.224,0.279-0.291c-0.49-1.719,0.763-3.683-0.729-5.255c-0.375-0.395-0.73-0.81-0.631-1.397
		c0.22-1.308-0.331-2.038-1.545-2.55c-1.392-0.586-1.897-1.99-2.494-3.26c-0.184-0.392-0.312-0.817-0.545-1.175
		c-0.146-0.223-0.434-0.359-0.674-0.509c-0.086-0.054-2.61,2.052-2.605,2.173c0.029,0.697-0.19,1.257-0.901,1.479
		c-0.688,0.214-1.07-0.301-1.472-0.712c-0.677-0.691-1.29-1.388-2.439-1.326c-0.701,0.037-1.218-0.459-1.405-1.236
		c-0.121-0.505-0.264-1.032-0.699-1.407c-0.434-0.373-0.3-0.802,0.014-1.147c0.342-0.376,0.757-0.616,1.263-0.197
		c0.183,0.151,0.407,0.26,0.623,0.366c0.263,0.13,0.563,0.263,0.788-0.026c0.215-0.277,0.031-0.538-0.131-0.787
		c-0.361-0.554-0.943-0.976-0.957-1.735c-0.021-1.14,0.34-1.973,1.125-2.932c1.535-1.873,3.892-2.772,5.227-4.814
		c0.896-1.372,2.035-0.506,3.083-0.212c1.005,0.282,0.648,1.179,0.688,1.816c0.041,0.667-0.1,1.337,0.406,1.894
		c0.734,0.398,0.673,1.171,0.86,1.827c0.874,2.032,2.086,3.881,3.156,5.808C51.538,73.104,52.393,75.427,53.506,77.62z"/>
	<path fill-rule="evenodd" clip-rule="evenodd" fill="#B5BDD2" d="M42.399,36.333c2.538,1.583,5.558,2.121,8.089,3.725
		c0.402,0.255,0.844,0.473,1.31,0.004c0.341-0.343,0.831-0.378,1.181-0.059c0.363,0.332,0.283,0.864,0.058,1.217
		c-1.871,2.934-2.476,6.562-5.009,9.132c-0.111,0.113-0.075,0.371-0.107,0.561c-2.306-2.517-5.146-4.384-7.833-6.438
		c-0.7-1.07-1.714-1.814-2.711-2.569c-0.797-0.603-1.123-1.277-0.501-2.193c0.079-0.116,0.08-0.371,0.157-0.389
		c1.425-0.328-1.191-2.692,1.015-2.266c1.146,0.221,2.039-0.358,3.075-0.182C41.568,36.954,42.244,37.136,42.399,36.333z"/>
	<path fill-rule="evenodd" clip-rule="evenodd" fill="#58637F" d="M45.822,119.66c-2.383,0.063-0.739-19.152-1.113-20.943
		c-0.469-2.244-1.237-4.422-1.184-6.765c0.011-0.515-0.091-1.08,0.526-1.129c0.775-0.062,2.087-0.461,2.244,0.273
		c0.335,1.578,2.085,1.843,2.481,3.232c0.085,0.299,0.392,0.537,0.597,0.803c0.442,0.264,0.45,0.764,0.64,1.166
		c0.196,0.805,0.4,1.607,0.609,2.41c-0.123,1.053,0.781,2.117-0.029,3.164c-0.122,0.088,2.307,34.301,0.169,16.877
		C49.93,118.511,46.649,119.703,45.822,119.66z"/>
	<path fill-rule="evenodd" clip-rule="evenodd" fill="#747B91" d="M42.136,102.396c0.216-0.049,0.511,0.088,0.618-0.18
		c0.029-0.072-0.214-0.26-0.342-0.387c-0.199-0.195-0.405-0.383-0.609-0.576c1.183,0.838,2.939,0.561,3.831,1.967
		c-0.209,0.297-0.489,0.227-0.777,0.158c-1.524-0.357-2.492,0.537-1.772,1.861c0.783,1.443,1.851,2.803,3.341,3.684
		c0.156,0.094,0.379,0.041,0.572,0.031c0.477-0.012,0.912-0.283,1.401-0.23c0.221,0.127,0.292,0.322,0.263,0.564
		c-0.215,0.598-0.722,0.734-1.268,0.805c-0.384,0.051-0.772,0.055-1.154,0.135c-2.544,0.535-2.671,0.482-4.113-1.713
		c-0.105-0.145-0.237-0.277-0.309-0.438c-0.092-0.203-0.124-0.51-0.392-0.451c-0.105,0.023-0.131,0.398-0.194,0.613
		c-1.233-0.607-1.304-1.691-1.176-2.859c-0.102-0.131-0.204-0.262-0.306-0.393c-0.039-0.559,0.452-0.68,0.785-0.877
		C41.245,103.689,41.777,103.13,42.136,102.396z"/>
	<path fill-rule="evenodd" clip-rule="evenodd" fill="#DDE7EF" d="M49.391,87.871c0.028,1.088,0.242,2.144,0.566,3.18
		c-0.561,1.018-1.116,0.727-1.308-0.15c-0.473-2.168-0.82-4.363-1.178-6.555c-0.064-0.393-0.14-0.981,0.453-1.056
		c0.566-0.07,0.668,0.505,0.756,0.9C48.95,85.41,49.159,86.644,49.391,87.871z"/>
	<path fill-rule="evenodd" clip-rule="evenodd" fill="#E6F0F6" d="M52.042,101.224c-0.601,0.916-0.937,0.619-1.169-0.246
		c-0.208-0.773-0.074-1.643-0.644-2.313c-0.328-0.754-0.515-1.541-0.56-2.361c0-0.674-0.735-1.797,0.9-1.471
		c0.029,0.098,0.057,0.195,0.085,0.293C51.118,97.16,51.58,99.191,52.042,101.224z"/>
	<path fill-rule="evenodd" clip-rule="evenodd" fill="#D2DAE8" d="M47.041,65.218c-0.287-0.609-0.573-1.219-0.86-1.827
		c-0.271-1.673,0.301-3.189,0.872-4.707c0.01,0.853,0.086,1.669-0.378,2.504c-0.391,0.702-0.317,1.591,0.056,2.364
		C46.989,64.086,47.143,64.624,47.041,65.218z"/>
	<path fill-rule="evenodd" clip-rule="evenodd" fill="#A1ABBD" d="M50.57,94.833c-1.303-0.123-0.631,0.961-0.9,1.471
		c-0.369-0.322-0.202-0.781-0.297-1.174C49.611,94.384,49.891,93.806,50.57,94.833z"/>
	<path fill-rule="evenodd" clip-rule="evenodd" fill="#13181D" d="M86.079,96.863c-2.814,2.529-5.629,5.059-8.443,7.588
		c-0.986-0.002-1.908,0.012-2.73,0.803c-0.598,0.576-1.229,0.262-1.487-0.568c-0.139-0.818,0.213-1.338,0.921-1.75
		c1.246-0.725,2.382-1.902,3.681-2.201c1.559-0.359,2.307-1.527,3.455-2.26c1.1-0.699,2.309-1.189,3.41-1.885
		C85.293,96.332,85.852,96.039,86.079,96.863z"/>
	<path fill-rule="evenodd" clip-rule="evenodd" fill="#919A9D" d="M73.223,104.812c0.105-0.008,0.21-0.016,0.315-0.023
		c0.483,0.723,0.851,0.676,1.384-0.037c0.74-0.988,1.701-1.17,2.713-0.301c-0.01,0.184-0.021,0.367-0.035,0.551
		c-0.426,0.551-1.684-0.451-1.68,0.902c0.148,0.193,0.121,0.365-0.064,0.518c-0.289,0.143-0.32,0.734-0.863,0.445
		c-0.872-0.463-0.992,0.238-1.181,0.807c-0.071-0.168-0.244-0.445-0.198-0.488C74.682,106.185,73.675,105.544,73.223,104.812z"/>
	<path fill-rule="evenodd" clip-rule="evenodd" fill="#37394E" d="M47.083,123.656c0.15,1.473,0.206,2.965,0.484,4.416
		c0.175,0.914-0.318,1.697-0.205,2.561c-2.037-0.621-4.202-0.449-6.25-1.045c-1.207-0.352-2.672,0.514-3.113,1.693
		c-0.119,0.316-0.154,0.682-0.336,0.953c-0.366,0.541,0.144,1.711-0.714,1.674c-0.803-0.035-0.908-1.15-1.067-1.865
		c-0.318-1.434,0.112-2.859,0.353-4.262c0.082-0.477,0.286-0.992,0.429-1.496c0.358-1.26,1.034-2.172,2.553-2.061
		c1.147,0.086,2.146-0.541,3.135-0.947c1.174-0.48,2.356-0.443,3.538-0.592C46.542,122.603,47,122.943,47.083,123.656z"/>
	<path fill-rule="evenodd" clip-rule="evenodd" fill="#666A78" d="M32.558,130.628c-0.11,0.197-0.22,0.393-0.33,0.588
		c-0.527-0.232-0.618-0.674-0.562-1.186c0.423,0.34,0.593-0.07,0.831-0.279C32.517,130.042,32.538,130.335,32.558,130.628z"/>
	<path fill-rule="evenodd" clip-rule="evenodd" fill="#454141" d="M44.765,113.748c0.931,0.602,0.44,1.543,0.56,2.338
		C44.917,115.359,44.888,114.542,44.765,113.748z"/>
	<path fill-rule="evenodd" clip-rule="evenodd" fill="#464F64" d="M49.419,123.648c0.094-0.1,0.188-0.199,0.281-0.297
		c0.193-0.098,0.386-0.195,0.579-0.291c0.418,0.045,0.782,0.225,0.829,0.664c0.246,2.324,0.859,4.615,0.631,6.986
		c-0.069,0.723-0.787,1.229-0.61,2.012c-0.833-2.385-0.894-4.92-1.424-7.363C49.583,124.794,49.513,124.218,49.419,123.648z"/>
	<path fill-rule="evenodd" clip-rule="evenodd" fill="#E3EBEC" d="M63.926,108.783c0.294-0.203,0.589-0.404,0.884-0.605
		c0.92-0.012,1.779-0.102,1.364,1.375c-0.189,0.672,0.548,1.404,0.432,2.203c-0.04,0.273,0.006,0.639-0.374,0.668
		c-0.247,0.018-0.392-0.229-0.48-0.467C65.318,110.798,64.056,110.115,63.926,108.783z"/>
	<path fill-rule="evenodd" clip-rule="evenodd" fill="#0B0908" d="M94.928,147.136c1.016,0.971,2.271,1.109,3.113,1.996
		c0.359,0.377,0.648,0.723,0.293,1.254c-0.352,0.52-0.672,1.154-1.379,1.139c-0.639-0.014-0.938-0.676-0.895-1.146
		C96.168,149.185,94.729,148.607,94.928,147.136z"/>
	<path fill-rule="evenodd" clip-rule="evenodd" fill="#B4B7B1" d="M94.766,146.025c-0.754,0.752-1.225-0.189-1.74-0.387
		c-1.373-0.525-2.371-2.314-2.242-3.609c0.232-0.002,0.57-0.105,0.682,0.01C92.672,143.275,94.042,144.388,94.766,146.025z"/>
	<path fill-rule="evenodd" clip-rule="evenodd" fill="#56627E" d="M95.407,77.104c0.459-0.067,0.918-0.155,1.367,0.052
		c0.135,1.15,1.021,1.897,1.523,2.851c-0.002,0.086,0.008,0.171,0.031,0.254c0.264,0.833,0.707,1.584,1.074,2.37
		c0.189,0.406,0.881,12.769,3.5,25.542c4.271,20.824,11.131,45.994,10.445,46.385c-0.984,0.563-9.699-23.695-15.035-43.563
		C95.086,98.98,94.393,87.25,93.7,87.364c-0.268-0.235-0.23-0.521-0.143-0.817c0.123-0.311,0.338-0.627,0.186-0.966
		c-0.607-1.332-0.666-2.815-1.176-4.172c-0.049-0.128-0.084-0.26-0.111-0.395c-0.221-1.116,0.191-1.799,1.266-2.276
		C94.42,78.428,95.489,78.299,95.407,77.104z"/>
	<path fill-rule="evenodd" clip-rule="evenodd" fill="#F3F9FB" d="M92.196,72.418c0.09,0.204,0.18,0.407,0.27,0.611
		c0.461,0.944,0.963,1.861,1.08,2.947c0.059,0.532,0.172,0.963-0.496,1.117c-1.088,0.091-0.998-1.009-1.475-1.521
		c-0.369-0.396-0.621-0.966-0.705-1.555c-0.305-0.568-0.313-1.204-0.393-1.817c-0.043-0.326-0.072-0.742,0.275-0.907
		c0.49-0.231,0.623,0.284,0.875,0.536C91.817,72.025,92.006,72.222,92.196,72.418z"/>
	<path fill-rule="evenodd" clip-rule="evenodd" fill="#B9C3CC" d="M91.627,71.829c-0.426-0.226-1.006-0.81-0.891,0.337
		c0.066,0.666,0.199,1.326,0.303,1.988c-0.1,0.146-0.193,0.143-0.281-0.012c-0.357-0.729-0.469-1.523-0.6-2.313
		c0.264-0.413-0.357-1.258,0.369-1.284C91.016,70.528,91.575,71.123,91.627,71.829z"/>
	<path fill-rule="evenodd" clip-rule="evenodd" fill="#3E4B53" d="M90.758,74.143c0.094-0.017,0.188-0.013,0.281,0.012
		c0.521,1.081,1.037,2.165,2.01,2.939c0.783,0.601,1.574-0.68,2.357,0.011c0.334,0.153,0.668,0.307,1.115,0.512
		c-0.85,0.524-1.576,1.218-2.426,1.439c-1.238,0.322-1.432,1.05-1.322,2.094c-1.324-0.675-0.92-1.913-0.953-2.993
		c-0.016-0.464,0.342-0.908,0.119-1.4C91.676,75.827,90.799,75.174,90.758,74.143z"/>
	<path fill-rule="evenodd" clip-rule="evenodd" fill="#F5F7F8" d="M62.478,102.46c0.008-0.432,0.155-0.895-0.284-1.223
		c-1.177-1.916-1.455-4.107-1.915-6.242c-0.156-0.721-0.619-1.447-0.099-2.205c0.007-0.176,0.015-0.352,0.022-0.527
		c1.272,0.175,2.465,0.496,3.174,1.712c0.218,0.553,0.201,1.15,0.328,1.719c0.299,2.031,0.607,4.059,0.89,6.092
		c0.083,0.592-0.153,1.105-0.777,1.174C63.346,103.011,62.614,103.433,62.478,102.46z"/>
	<path fill-rule="evenodd" clip-rule="evenodd" fill="#6C7891" d="M63.705,95.695c-0.404-0.516-0.377-1.115-0.328-1.719
		c0.317,1.355,1.029,1.572,2.183,0.834c0.677-0.434,1.453-0.707,2.154-1.107c0.505-0.287,0.93-0.52,1.177,0.254
		c-0.606,1.098-0.05,2.172,0.066,3.254c0.069,0.648,0.498,1.299-0.016,1.943c-0.284,1.516-1.579,1.498-2.676,1.701
		c-0.56,0.102-0.629-0.42-0.483-0.787c0.453-1.141,0.148-1.912-0.914-2.529C64.212,97.156,64.646,95.972,63.705,95.695z"/>
	<path fill-rule="evenodd" clip-rule="evenodd" fill="#F5FAF8" d="M68.941,99.154c-0.284-1.393-0.571-2.783-0.85-4.178
		c-0.129-0.643-0.104-1.18,0.8-1.02c0.941,1.01,2.116,1.783,2.939,2.912c0.446,1.482-0.299,2.189-1.604,2.676
		C69.595,99.781,69.254,99.669,68.941,99.154z"/>
	<path fill-rule="evenodd" clip-rule="evenodd" fill="#0E131E" d="M91.94,76.756c0.41,0.272,0.473,0.597,0.359,1.098
		c-0.262,1.139-0.094,2.256,0.475,3.296l0.002,0.008c0.283,1.863,1.188,3.596,1.172,5.522c-0.115,0.176-0.23,0.351-0.346,0.525
		c-0.816,0.291-1.594,0.661-2.303,1.164c-0.252,0.307-0.539,0.249-0.838,0.083c1.967-1.471,2.271-1.983,1.383-4.455
		c-0.611-1.702-0.367-3.431-0.723-5.119C90.952,78.069,91.649,77.461,91.94,76.756z"/>
	<path fill-rule="evenodd" clip-rule="evenodd" fill="#D6E0E9" d="M58.147,90.457c0.004-0.564-0.181-1.316,0.852-0.857
		c0.417,0.696,0.118,1.597,0.646,2.261c-0.052,0.357,0.083,0.868-0.481,0.881c-0.44,0.012-0.656-0.337-0.725-0.761
		C58.356,91.47,58.534,90.909,58.147,90.457z"/>
	<path fill-rule="evenodd" clip-rule="evenodd" fill="#D2DAE8" d="M48.771,65.416c-0.327-1.038-0.54-2.109-0.22-3.165
		c0.326-1.075,0.225-2.161,0.286-3.245c0.443,1.213,0.371,2.465,0.139,3.685C48.802,63.603,48.789,64.504,48.771,65.416z"/>
	<path fill-rule="evenodd" clip-rule="evenodd" fill="#F8FCFC" d="M57.511,99.732c-0.816,0.414-1.723,1.6-2.269-0.268
		c-0.49-2.32-0.979-4.641-1.468-6.963c0.07-0.633-0.145-1.43,0.933-1.434c0.929-0.004,1.503,0.246,1.707,1.31
		c0.323,1.693,0.84,3.349,1.27,5.021C57.887,98.195,58.128,98.996,57.511,99.732z"/>
	<path fill-rule="evenodd" clip-rule="evenodd" fill="#748497" d="M60.181,92.791c0.671,2.814,1.343,5.631,2.014,8.447
		c-0.652,0.162-0.458-0.422-0.559-0.686c-0.323-0.842-0.793-1.492-1.749-1.645c-0.234-1.729-0.315-3.465-0.287-5.207
		C59.607,93.273,59.811,92.98,60.181,92.791z"/>
	<path fill-rule="evenodd" clip-rule="evenodd" fill="#6E7A91" d="M41.251,36.032c-0.716,0.727-2.858,0.792-3.445,0.099
		c-0.084-0.1-0.18-0.253-0.162-0.364c0.049-0.308,0.332-0.271,0.56-0.311C39.293,35.263,40.262,35.698,41.251,36.032L41.251,36.032z
		"/>
	<path fill-rule="evenodd" clip-rule="evenodd" fill="#434B65" d="M25.397,129.974c-1.528,0.34-2.134,2.123-2.509,0.883
		c0.026-15.941-4.667-42.838-6.129-47.838c-0.89-3.045-1.71-6.109-2.562-9.165c-0.213-1.211-0.874-2.225-1.451-3.274
		c-0.418-0.763-0.871-0.77-1.44-0.133c-0.862,0.965-1.761,1.896-2.644,2.843c-0.637,0.636-1.01,1.582-2.051,1.741l-0.138-0.001
		L6.335,75.03c-0.296-0.924-0.115-1.646,0.861-2.029c1.235-0.996,2.681-1.826,3.225-3.432c0.793-2.341,2.566-4.032,3.841-6.052
		c0.694-1.099,1.297-2.249,2.225-3.186c0.266-0.27,0.631-0.696,0.363-1.016c-1.252-1.488,0.271-1.238,0.903-1.451
		c1.924-0.646,1.975-0.61,1.953,1.527c-0.024,2.426,1.221,4.675,0.896,7.153c-0.334,2.551-0.5,5.124-1.174,7.622
		c-0.076,0.28-0.082,0.619-0.439,0.655c-0.279,0.028-0.364-0.269-0.495-0.468c-0.481-0.726-0.97-1.443-1.63-2.031
		c-0.447-0.397-0.823-0.431-0.892,0.227c-0.075,0.71-0.166,1.447,0.134,2.148c0.976,2.282,2.124,4.51,2.879,6.862
		c1.064,3.313,2.615,6.448,3.438,9.851C23.094,94.187,24.995,127.162,25.397,129.974z"/>
	<path fill-rule="evenodd" clip-rule="evenodd" fill="#313856" d="M28.764,92.541c-0.047,0.439,0.08,0.797-0.251,0.934
		c-0.412,0.172-0.614-0.203-0.789-0.463c-0.184-0.271-0.373-0.604-0.386-0.917c-0.081-1.89-0.756-3.664-1.014-5.518
		c-0.049-0.353-0.398-0.78,0.163-0.972c0.44-0.15,0.713,0.224,0.925,0.54c0.718,1.075,0.476,2.406,0.936,3.585
		C28.697,90.623,28.413,91.73,28.764,92.541z"/>
	<path fill-rule="evenodd" clip-rule="evenodd" fill="#646F8F" d="M23.062,53.546c0.223,0.028,0.347,0.168,0.292,0.373
		c-0.065,0.241-0.266,0.385-0.521,0.39c-0.19,0.004-0.4-0.05-0.367-0.301C22.51,53.68,22.753,53.559,23.062,53.546z"/>
	<path fill-rule="evenodd" clip-rule="evenodd" fill="#E6EEF5" d="M51.76,121.287c0.465,0.486-0.244-18.883,0.099-18.242
		c0.273,0.51,0.34,1.074-0.159,1.439c-0.548,0.398-0.685-0.236-0.968-0.518c-0.338-0.334-0.74-0.604-1.092-0.924
		c-0.727-0.662-0.707-1.121,0.373-1.256C50.099,101.802,51.676,121.263,51.76,121.287z"/>
	<path fill-rule="evenodd" clip-rule="evenodd" fill="#E6F0F7" d="M30.724,100.679c-0.454-0.041-0.962,0.066-1.018-0.428
		c-0.066-0.578,0.465-0.48,0.816-0.471c0.367,0.01,0.889-0.014,0.946,0.434C31.548,100.845,30.91,100.494,30.724,100.679z"/>
	<path fill-rule="evenodd" clip-rule="evenodd" fill="#605D5C" d="M81.708,96.56c1.219-1.504,2.959-2.258,4.617-3.092
		c0.602-0.303,0.965-0.576,0.949-1.249c0.633-0.778,1.393-0.323,2.117-0.218c-0.016,0.045-0.021,0.095-0.045,0.136
		s-0.063,0.072-0.096,0.107c0,0.001-0.096,0.014-0.096,0.014s-0.1-0.009-0.098-0.009c-1.059-0.024-0.889,0.769-0.941,1.414
		c-0.49-0.336-0.813-0.027-1.264,0.197C85.118,94.726,83.553,95.914,81.708,96.56z"/>
	<path fill-rule="evenodd" clip-rule="evenodd" fill="#3E4B53" d="M93.948,86.68c-0.336-1.852-1.121-3.609-1.172-5.522
		C93.303,82.97,94.35,84.671,93.948,86.68z"/>
	<path fill-rule="evenodd" clip-rule="evenodd" fill="#D2DDE7" d="M55.809,32.245c0.83-0.233,1.55-0.189,2.026,0.683
		c0.098,0.179,0.435,0.405,0.571,0.356c1.225-0.441,2.563,0.193,3.758-0.419c0.143,0.1,0.423,0.251,0.408,0.292
		c-0.182,0.491-0.636,0.165-0.953,0.287c-0.073,0.062-0.148,0.162-0.23,0.165c-1.186,0.045-2.229,0.456-3.154,1.191
		c-1-0.261-2.021-0.406-3.048-0.505C53.671,33.091,55.395,32.867,55.809,32.245z"/>
	<path fill-rule="evenodd" clip-rule="evenodd" fill="#96A0B5" d="M51.141,30.214c0.374,0.21,0.871,0.406,0.682,0.933
		c-0.132,0.371-0.608,0.244-0.915,0.201c-1.447-0.201-2.366,0.623-3.214,1.595c-0.207,0.237-0.631,0.43-0.421,0.823
		c0.192,0.359,0.628,0.258,0.923,0.183c1.333-0.34,2.687-0.274,4.034-0.246c0.908,0.02,1.813,0.173,2.719,0.266
		c1.103,0.068,2.244-0.093,3.253,0.542c-0.047,0.04-0.095,0.079-0.144,0.117c-0.277,0.118-0.569,0.082-0.857,0.085
		c-1.927,0.029-3.839-0.405-5.767-0.247c-1.827,0.15-3.663,0.077-5.576,0.287c3.025-0.115,5.955-0.45,8.897-0.182
		c0.667,0.061,1.358,0.012,1.912,0.501c-0.254,1.171-1.236,0.873-1.924,0.806c-1.782-0.173-3.562-0.186-5.346-0.237
		c-2.497-0.071-4.994,0.675-7.49-0.01c-0.188-0.052-0.364,0.093-0.508,0.223c-0.861,0.931-1.805-0.318-2.835,0.194
		c1.031,0.005,1.92,0.554,2.792-0.135c0.458-0.24,0.824-0.1,1.134,0.271c0.296,0.857-0.313,1.057-0.904,1.069
		c-1.104,0.022-2.161,0.515-3.284,0.295c-0.224-0.044-0.625-0.1-0.575,0.202c0.171,1.027-0.514,1.841-0.592,2.78
		c-0.066,0.783,0.68,1.086,1.145,1.554c0.708,0.713,1.857,1.103,1.808,2.391c-1.097-0.271-1.716-1.222-2.519-1.875
		c-2.86-2.323-5.983-4.141-9.403-5.499c-0.81-0.322-1.495-0.958-2.244-1.455c0.477-0.626,0.998-0.463,1.459-0.466
		c2.566-0.017,5.133-0.004,7.7-0.027c0.513-0.004,1.079,0.147,1.515-0.297l-0.012-0.015c0.19-0.149,0.395-0.36,0.628-0.33
		c1.802,0.23,3.193-0.757,4.715-1.458C44.862,31.701,47.932,30.715,51.141,30.214z"/>
	<path fill-rule="evenodd" clip-rule="evenodd" fill="#D2DBEA" d="M21.943,31.045c-1.459-1.126-0.629-3.069-1.336-4.211"/>
	<path fill-rule="evenodd" clip-rule="evenodd" fill="#767F89" d="M59.798,19.696c-0.102,0.385-0.203,0.768-0.305,1.152
		c0.225,2.57,0.49,5.137,0.433,7.723c-0.007,0.347-0.084,0.666-0.312,0.937c-0.554,0.302-0.638-0.178-0.742-0.495
		c-0.146-0.444-0.064-0.929-0.143-1.389c-0.078-1.709-0.035-3.418-0.018-5.125c-0.035-0.722,0.557-2.016-1.135-1.213
		c-0.166,0.08-0.434,0.063-0.547-0.076c-0.705-0.844-1.688-0.596-2.582-0.696c-0.217-1.232,0.572-2.212,1.018-3.196
		c0.561-1.24,1.129-2.4,1.043-3.789c0.744-0.475,1.285-0.059,1.689,0.486c0.379,0.512,0.863,0.853,1.375,1.184
		c0.338,0.423,0.495,0.9,0.438,1.443c-0.081,0.383-0.344,0.668-0.549,0.984C58.948,18.419,58.935,19.128,59.798,19.696z"/>
	<path fill-rule="evenodd" clip-rule="evenodd" fill="#9399A3" d="M59.798,19.696c-0.689,0.35-1.105,0.18-1.164-0.627
		c-0.07-0.987,0.273-1.775,1.147-2.296c0.571-0.179,0.33,0.466,0.6,0.593C60.741,18.282,60.38,19.017,59.798,19.696z"/>
	<path fill-rule="evenodd" clip-rule="evenodd" fill="#EFF5F6" d="M59.145,22.12c0.003,1.801,0.007,3.603,0.011,5.404
		c-0.207,0.566,0.041,1.258-0.476,1.74c-0.175,0.164-0.206,0.207,0.097,0.277c0.793,0.184,0.646,0.943,0.825,1.5
		c-0.12,0.817,0.276,1.15,1.054,1.126c0.094,0.028,0.188,0.032,0.283,0.011c0.375,0.218,0.751,0.436,1.126,0.654
		c-0.892,0.742-3.528,1.067-4.448,0.442c-0.608-0.414-1.275-0.646-1.924-0.941c-0.555-0.656-0.436-1.425-0.092-2.047
		c0.792-1.433,0.866-3.03,1.207-4.39c-0.418,0.865-0.263,2.027-0.653,3.074c-0.188,0.508-0.374,1.082-1.042,1.023
		c-0.584-0.052-0.73-0.586-0.781-1.078c-0.037-0.379-0.247-0.613-0.501-0.847c-1.341-1.86-1.093-3.962-0.646-5.958
		c0.335-1.5,2.354-2.023,3.53-1.115c0.376,0.291,0.688,0.436,1.169,0.25C58.677,20.94,59.044,21.364,59.145,22.12z"/>
	<path fill="#57667E" d="M21.377,29.015c0.179-1.271-0.268-2.429-0.654-3.599L21.377,29.015z"/>
	<path fill-rule="evenodd" clip-rule="evenodd" fill="#393F5A" d="M36.24,34.272c-1.572-0.387-3.169-0.139-4.753-0.181
		c-0.89-0.023-1.454-0.29-1.663-1.224c-0.213-0.959-0.652-1.878-1.431-2.465c-1.55-1.168-1.983-2.861-2.122-4.578
		c-0.127-1.576-0.661-2.775-1.919-3.684c-0.119-0.169-0.249-0.331-0.374-0.497c-0.188-0.091-0.358-0.204-0.529-0.317
		c-0.709,1.021-1.51,1.943-2.385,2.694c0.584,1.599,1.223,3.212,0.95,5.001c-0.017,0.111,0.104,0.278,0.205,0.366
		c1.451,1.252,0.691,3.073,1.189,4.569c-0.094,1.201,0.226,1.834,1.533,1.121c0.489-0.267,1.023-0.248,1.555-0.248
		c3.333-0.002,6.666-0.004,9.998-0.006c0.024-0.076,0.047-0.15,0.071-0.226C36.494,34.454,36.385,34.346,36.24,34.272z"/>
	<path fill-rule="evenodd" clip-rule="evenodd" fill="#8996A1" d="M52.795,21.976c0.581-0.475,1.161-0.949,1.741-1.424
		c0.828-0.648,1.615-0.832,2.35,0.154c0.162,0.218,0.378,0.39,0.739,0.246c1.582-0.627,1.587-0.615,1.52,1.168
		c-0.231-0.282-0.361-0.816-0.833-0.647c-0.962,0.345-1.604-0.026-2.312-0.648c-0.501-0.439-2.327,0.39-2.423,1.258
		c-0.213,1.946-0.766,4.001,0.643,5.792c0.367,0.936-0.229,1.715-0.502,2.506c-0.178,0.516-0.815,0.361-1.229,0.055
		c-0.533-0.395-0.761-0.951-0.723-1.614c0.316-0.726,0.523-1.481,0.592-2.273c0.006-1.345-0.793-2.644-0.233-4.02
		C52.255,22.229,52.399,21.948,52.795,21.976z"/>
	<path fill-rule="evenodd" clip-rule="evenodd" fill="#A9B1BC" d="M57.788,30.503c0.172-1.35,1.342-1.906,1.367-2.979"/>
	<path fill-rule="evenodd" clip-rule="evenodd" fill="#BCC6D6" d="M51.887,28.765c0.14,0.307,0.263,0.621,0.422,0.918
		c0.206,0.386,0.445,0.852,0.956,0.725c0.558-0.139,0.334-0.613,0.208-0.961c-0.286-0.791,0.952-0.836,0.747-1.572
		c0.633,0.184,0.596,0.647,0.506,1.157c-0.053,0.304,0.051,0.638,0.356,0.705c0.425,0.094,0.574-0.274,0.647-0.61
		c0.295-1.354,0.574-2.711,0.856-4.068c0.056-0.266-0.027-0.594,0.46-0.746c0.307,1.806-0.059,3.49-0.699,5.126
		c-0.352,0.901-0.752,1.774-0.637,2.775c0.277,0.545,0.027,0.782-0.497,0.89c-0.499,0.102-0.607,0.397-0.363,0.834
		c-0.37,0.443-0.841,0.329-1.325,0.273c-1.623-0.186-3.246-0.244-4.869,0.053c-0.613,0.112-1.34,0.258-1.697-0.391
		c-0.375-0.681,0.237-1.154,0.65-1.602c0.701-0.76,1.516-1.32,2.611-1.354c0.29-0.008,0.772,0.074,0.523-0.523
		c-0.66-0.947-1.264-1.924-2.057-2.773c-0.484-0.518-0.802-1.178-0.159-1.775c0.659-0.611,1.284-0.23,1.712,0.35
		C50.843,27.012,51.954,27.517,51.887,28.765z"/>
	<path fill-rule="evenodd" clip-rule="evenodd" fill="#222841" d="M41.465,21.46c-0.2-0.379-0.458-0.736-0.456-1.193
		c0.05-1.154-0.666-1.673-1.612-2.109c-1.436-0.66-1.96-1.904-1.527-3.34c0.157-0.52,0.266-1.063-0.135-1.499
		c-0.442-0.48-0.962-0.255-1.454-0.024c-0.219,0.104-0.456,0.145-0.695,0.172c-0.145,0.031-0.285,0.072-0.421,0.135
		c-0.653,0.266-1.295,0.61-1.221,1.418c0.228,2.451-0.302,4.954,0.444,7.26c-0.062-0.137-0.184-0.268-0.404-0.325
		c-0.932,0.938-0.413,2.072-0.422,3.134c-0.003,0.404,0.32,0.945-0.221,1.149c-0.449,0.171-0.788-0.26-1.092-0.567
		c-0.582-0.59-0.733-1.305-0.733-2.12c0-0.674-0.54-1.555-1.089-0.909c-1.309,1.537-1.302,0.042-1.73-0.554
		c-0.116-0.162-0.226-0.329-0.339-0.494c-1.097,0.548-2.374,0.697-3.561,0.371c-0.353-0.097-0.675-0.234-0.978-0.395
		c0.063,0.239,0.118,0.483,0.155,0.738c1.271,1.008,1.739,2.25,1.883,3.933c0.137,1.603,0.432,3.423,2.214,4.461
		c0.853,0.497,1.331,1.566,1.396,2.599c0.067,1.068,0.615,1.262,1.514,1.246c1.833-0.033,3.667-0.014,5.501-0.015
		c0.478,0.087,0.958,0.009,1.437,0.003c1.495-0.019,1.866-0.359,1.972-1.832c0.063-0.863,0.043-1.729,0.01-2.596
		c0.129-2.281,0.053-4.609,1.434-6.615C41.79,22.832,41.835,22.161,41.465,21.46z"/>
	<path fill-rule="evenodd" clip-rule="evenodd" fill="#5B6584" d="M36.485,34.529c0.32-0.095,0.636-0.245,0.963-0.276
		c1.97-0.196,1.969-0.188,1.958-2.194c-0.004-0.724,0.006-1.447,0.009-2.171c0.208-1.869,1.272-3.254,2.624-4.425
		c0.751-0.651,0.946-1.253,0.337-2.081c-0.428-0.582-0.561-1.317-0.927-1.936c-0.178-0.398-0.361-0.793-0.35-1.246
		c0.029-1.105,0.804-1.563,1.767-1.012c0.635,0.365,1.104,0.928,1.592,1.469c1.42,1.572,3.104,2.859,4.633,4.316
		c-0.826-0.56-1.287-1.408-1.72-2.256c-0.567-1.111-0.235-1.734,1.005-1.645c1.191,0.085,2.373,0.107,3.563,0.078
		c0.52,0.031,0.816,0.295,0.856,0.824c-0.099,0.201-0.196,0.404-0.296,0.605c-0.774,0.767-0.549,1.653-0.275,2.525
		c0.17,0.539,0.373,1.069,0.561,1.604c-0.217,0.721,0.081,1.666-0.896,2.054c-0.676-0.81-1.367-1.606-2.021-2.435
		c-0.351-0.442-0.726-0.688-1.194-0.25c-0.41,0.383-0.231,0.824,0.131,1.126c0.983,0.819,1.603,1.901,2.238,2.977
		c-0.051,0.241-0.11,0.526-0.4,0.53c-2.124,0.022-3.925,1.262-5.996,1.563c-1.131,0.164-2.305,0.757-3.228,1.458
		c-1.53,1.164-3.192,1.176-4.934,1.076C36.487,34.716,36.487,34.622,36.485,34.529z"/>
	<path fill-rule="evenodd" clip-rule="evenodd" fill="#494E5F" d="M36.79,10.96c0.004,0.391-0.013,0.84,0.39,1.025
		c1.339,0.617,1.148,1.788,1.023,2.873c-0.248,2.152,0.863,2.96,2.893,2.398c2.259-0.623,4.497-1.266,6.671-2.139
		c0.518-0.209,1.047-0.059,1.535,0.192c0.344,0.396,0.639,0.851,1.039,1.177c1.512,1.232,2.164,2.732,1.597,4.664
		c-1.065,0.913-2.239,0.473-3.405,0.305c-0.352-0.05-0.844-0.188-1.065,0.213c-0.216,0.389,0.18,0.699,0.346,1.035
		c0.472,0.954,1.185,1.709,2.251,2.559c-0.807-0.014-1.345,0.08-1.719-0.32c-1.35-1.445-3.042-2.531-4.28-4.091
		c-0.12-0.151-0.196-0.371-0.35-0.455c-0.644-0.353-1.039-1.489-1.866-1.065c-0.896,0.461-0.186,1.382-0.11,2.104
		c-0.857,0.086-0.862-0.688-1.169-1.159c0.086-0.826-0.198-1.303-1.064-1.595c-1.953-0.657-2.598-2.132-1.954-4.114
		c0.121-0.371,0.227-0.789-0.076-1.096c-0.31-0.312-0.625-0.052-0.894,0.152c-0.289,0.219-0.612,0.268-0.959,0.242
		c0.203-0.752,0.421-1.464-0.19-2.196c-0.294-0.353-0.222-0.908,0.187-1.29C35.968,10.657,36.013,11.546,36.79,10.96z"/>
	<path fill-rule="evenodd" clip-rule="evenodd" fill="#03030B" d="M37.551,33.183c-1.12-1.287-1.325-2.978-1.498-4.48"/>
	<path fill-rule="evenodd" clip-rule="evenodd" fill="#272939" d="M49.229,116.277c2.814-1.27,2.516,6.268,2.56,6.396
		c0.79,2.309-0.905,6.215-0.729,12.236c1.549-4.053,1.169-0.17,0.965,0.094c-1.06,1.375-1.857,3.742-1.182,5.104
		c0.135,0.271,0.317,0.594,0,0.758c-0.319,0.166-0.493-0.162-0.615-0.439c-0.961-2.186-1.335-4.52-1.666-6.854
		c-0.076-0.537-0.085-1.107-0.413-1.51c-1.012-1.24-0.984-2.805-1.379-4.229c-0.188-0.678-2.661-2.188-1.42-2.42
		c0.886-0.166-1.062-1.391-1.143-2.01C44.129,122.802,47.507,113.207,49.229,116.277z"/>
</g>
</svg>
