<?xml version="1.0" encoding="utf-8"?>
<!-- Generator: Adobe Illustrator 16.0.0, SVG Export Plug-In . SVG Version: 6.00 Build 0)  -->
<!DOCTYPE svg PUBLIC "-//W3C//DTD SVG 1.1//EN" "http://www.w3.org/Graphics/SVG/1.1/DTD/svg11.dtd">
<svg version="1.1" id="Capa_1" xmlns="http://www.w3.org/2000/svg" xmlns:xlink="http://www.w3.org/1999/xlink" x="0px" y="0px"
	 width="128.488px" height="115.727px" viewBox="0 0 128.488 115.727" enable-background="new 0 0 128.488 115.727"
	 xml:space="preserve">
<g>
	<path fill-rule="evenodd" clip-rule="evenodd" fill="#10131B" d="M40.345,94.009c-1.104,0.243-1.54,1.471-2.606,1.77
		c-0.684,0.364-1.023-0.092-1.188-0.607c-0.337-1.05-0.845-2.04-1.076-3.125c0.082-0.687,0.334-1.313,0.073-2.077
		c-0.345-1.012,0.262-1.474,1.31-1.27c0.858,0.167,1.381,0.803,2.039,1.253c0.094,0.096,0.188,0.191,0.282,0.287
		c0.351,0.383,0.665,0.807,1.056,1.14C41.754,92.674,41.763,92.663,40.345,94.009z"/>
	<path fill-rule="evenodd" clip-rule="evenodd" fill="#F1F4F3" d="M48.505,82.668c0.663,0.032,1.323-0.11,1.964,0.299
		c1.088,0.696,1.215,1.531,0.568,2.574c-0.361,0.294-0.723,0.589-1.084,0.883c-1.411-0.77-2.133-2.636-1.452-3.754L48.505,82.668z"
		/>
	<path fill-rule="evenodd" clip-rule="evenodd" fill="#565251" d="M68.591,77.137c0.398,1.129,0.781,2.263,1.202,3.382
		c0.134,0.355,0.294,0.758,0.567,0.994c1.111,0.966,2.273,1.769,0.7,3.404c-0.522,0.542,0.529,1.097,0.94,1.587
		c0.473,0.564,1.039,1.019,1.811,1.12c-0.1,0.641-0.315,1.033-1.027,0.544c-0.935-0.642-1.941-1.183-2.748-2
		c-2.477-1.821-4.98-3.607-7.415-5.482c-0.866-0.668-2.142-1.038-2.215-2.45c-0.104-0.289-0.015-0.549,0.123-0.801
		c1.892-1.458,3.578-3.189,5.717-4.324c0.146-0.011,0.288,0.004,0.429,0.041C67.936,74.181,68.342,75.621,68.591,77.137z"/>
	<path fill-rule="evenodd" clip-rule="evenodd" fill="#C9D5FC" d="M72.656,36.913c1.396,1.126,2.102,2.727,2.709,4.316
		c0.193,0.504,0.303,1.075,0.608,1.546c2.125,3.271,4.127,6.62,6.415,9.789c0.717,0.992,1.023,2.279,1.518,3.431
		c0.206,0.48,0.048,0.734-0.472,0.767c-0.925-0.292-1.265-1.264-2.028-1.744c-0.066-0.007-0.132-0.014-0.199-0.02
		c-0.904-0.447-1.405-1.396-2.308-1.846c-1.537-1.212-3.035-2.469-4.523-3.739c-1.521-1.526-3.356-2.704-4.78-4.339
		c-0.408-0.469-0.908-0.863-1.029-1.523c0.057-1.477,0.794-2.775,1.092-4.189c0.323-0.899,1.306-1.196,1.787-1.954
		c0.226-0.261,0.488-0.47,0.826-0.57C72.409,36.815,72.537,36.839,72.656,36.913z"/>
	<path fill-rule="evenodd" clip-rule="evenodd" fill="#100F0F" d="M74.692,49.199c1.479,1.235,3.053,2.362,4.389,3.765
		c0.857,0.582,1.428,1.488,2.312,2.04l0.014,0.014c-0.295,0.842-1.265,0.849-1.777,1.437c-0.357,0.408-0.966,0.588-1.11,1.199
		c0.041,0.705-0.4,0.845-0.973,0.832c-0.947,0.094-1.209,1.672-2.218,1.25c-0.738-0.31-1.244-1.17-1.858-1.78
		c-1.372-1.364-2.743-2.73-4.124-4.087c-0.427-0.419-0.813-0.83-0.479-1.484c-0.045-1.148,1.063-1.354,1.647-1.982
		c0.388-0.417,0.914-0.692,1.427-0.957c0.166-0.094,0.397-0.112,0.507-0.26C73.21,48.151,73.949,48.476,74.692,49.199z"/>
	<path fill-rule="evenodd" clip-rule="evenodd" fill="#161B25" d="M30.741,79.49c-2.324-2.437-4.648-4.873-6.973-7.31
		c-0.354-0.459-0.275-0.866,0.159-1.219c0.545-0.442,0.968-1.024,1.58-1.39c1.849-1.648,3.827-3.15,5.544-4.945
		c0.578-0.253,1.041-0.658,1.502-1.08c0.416-0.381,0.884-0.728,1.152,0.158c-0.043,0.056-0.085,0.111-0.126,0.169
		c-1.36,1.066-2.53,2.206-2.437,4.169c0.039,0.813-0.378,1.601-0.822,2.298c-0.676,1.063-0.798,2.208-0.385,3.342
		c0.582,1.603,0.58,3.338,1.224,4.918c0.11,0.271,0.121,0.568-0.038,0.843C31.006,79.548,30.879,79.563,30.741,79.49z"/>
	<path fill-rule="evenodd" clip-rule="evenodd" fill="#0D0F13" d="M42.368,64.657c-0.038,1.219,0.148,2.396,0.645,3.517
		c0.541,1.222-0.709,1.362-1.191,1.966c-1.103-0.464-1.919-1.206-2.31-2.364c-1.461-0.095-1.557-1.758-2.634-2.293
		c-0.641-0.96-1.451-1.788-2.106-2.736c-0.584-0.847-0.455-1.423,0.479-1.982c1.668-0.999,1.637-1.053,3.057,0.082l-0.002-0.002
		C39.808,61.957,40.921,63.485,42.368,64.657z"/>
	<path fill-rule="evenodd" clip-rule="evenodd" fill="#4B4745" d="M38.308,60.846c-0.632,0.078-0.884-0.949-1.469-0.641
		c-0.704,0.372-1.312,0.922-2.024,1.324c-0.495,0.278,0.005,0.777,0.188,1.115c0.541,0.998,1.569,1.679,1.874,2.838
		c-1.938-1.521-2.813-3.82-4.22-5.729c-2.316-3.145-3.89-6.723-5.995-9.986c-0.061-0.065-0.076-0.125-0.045-0.179
		c0.029-0.05,0.056-0.074,0.081-0.074c0.089-0.104,0.178-0.209,0.267-0.313c0.501,0.192,0.657,0.696,0.923,1.078
		c2.538,3.652,6.246,6.129,9.285,9.274C37.57,59.965,37.931,60.413,38.308,60.846z"/>
	<path fill-rule="evenodd" clip-rule="evenodd" fill="#C8D1F4" d="M46.441,66.972c-1.584-0.274-1.052-1.706-1.44-2.634
		c-0.226-0.434-0.604-0.757-0.844-1.18c-0.921-1.633-0.845-2.197,0.483-3.554c1.355-1.185,1.962-0.948,3,1.164
		c0.232,1.193-0.429,2.158-0.815,3.192c-0.455,0.733-0.491,1.403,0.254,1.997c0.219,0.174,0.396,0.412,0.307,0.738
		C47.135,67.008,46.785,66.98,46.441,66.972z"/>
	<path fill-rule="evenodd" clip-rule="evenodd" fill="#1B1D28" d="M40.017,74.843c-0.977-0.745-1.48-1.865-2.228-2.792
		c-0.31-0.384-0.6-1.201-1.133-0.836c-0.685,0.469,0.112,0.972,0.347,1.442c0.063,0.127,0.097,0.269,0.144,0.403
		c-1.474,0.264-2.167-0.278-2.063-1.625c0.015-0.188,0.164-0.423,0.074-0.562c-0.965-1.499-0.004-2.987-0.004-4.479
		c0.055-0.131,0.138-0.241,0.251-0.326c1.397,1.549,2.248,3.464,3.389,5.182c0.601,0.903,0.494,2.256,1.535,3.003
		C40.577,74.637,40.531,74.864,40.017,74.843z"/>
	<path fill-rule="evenodd" clip-rule="evenodd" fill="#818E9D" d="M44.72,59.675c-0.911,0.813-1.076,1.691-0.408,2.779
		c0.343,0.559,0.467,1.252,0.689,1.884c-0.947-0.407-1.922-0.743-2.747-1.405c-0.451-0.361-0.822-0.671-0.517-1.296
		c1.035-0.491,1.853-1.271,2.684-2.031C44.544,59.526,44.644,59.55,44.72,59.675z"/>
	<path fill-rule="evenodd" clip-rule="evenodd" fill="#15181F" d="M22.306,76.547c-0.242-0.77-0.475-1.543-0.731-2.308
		c-0.133-0.396-0.179-0.77,0.234-1.004c0.391-0.222,0.605,0.129,0.85,0.339c0.577,0.495,0.998,1.165,1.703,1.517
		c0.369,0.299,0.738,0.6,1.106,0.899c0.338,1.075,1.315,1.617,2.019,2.381c1.245,1.353,1.266,1.387-0.055,2.565
		c-0.282,0.253-0.512,0.566-0.767,0.852c-0.186-0.001-0.371-0.001-0.557-0.002c-1.191-0.923-1.59-2.449-2.646-3.475
		C23.076,77.724,22.69,77.136,22.306,76.547z"/>
	<path fill-rule="evenodd" clip-rule="evenodd" fill="#464342" d="M36.003,102.167c-0.606-0.553-1.217-1.104-1.819-1.661
		c-0.312-0.288-0.57-0.716-1.091-0.354l-0.08-0.063c-1.444-1.222-2.62-2.621-3.001-4.546c0.234-0.552-0.09-0.896-0.443-1.247
		c-0.818-0.816-1.454-1.785-2.161-2.691c-0.563-0.722-0.44-0.919,0.427-1.075c2.152,2.146,3.726,4.758,5.673,7.07
		c1.081,1.283,2.039,2.671,3.053,4.012C36.373,101.797,36.188,101.981,36.003,102.167z"/>
	<path fill-rule="evenodd" clip-rule="evenodd" fill="#2A221F" d="M34.819,94.021c-0.752-1.11-0.046-1.618,0.846-2.05
		c0.673,0.79,0.893,1.782,1.144,2.74c0.146,0.555,0.268,1.015,0.93,1.067c-1.17,1.217-0.152,2.087,0.623,2.74
		c1.003,0.845,1.372,2.041,2.062,3.048c0.253,0.37,0.882,1.537-0.66,1.208c-1.129-1.813-2.511-3.481-3.195-5.551
		C36.336,95.965,36.119,94.697,34.819,94.021z"/>
	<path fill-rule="evenodd" clip-rule="evenodd" fill="#BFCBF8" d="M60.695,77.707c-0.722-0.372-0.49-0.91-0.294-1.482
		c0.696-2.021,1.368-4.053,2.049-6.08c-0.042-0.829,0.375-1.205,1.182-1.198c1.475,0.448,2.667,2.455,2.613,4.398
		C64.395,74.799,62.545,76.253,60.695,77.707z"/>
	<path fill-rule="evenodd" clip-rule="evenodd" fill="#5A5B5F" d="M54.624,51.222c0.572,0.206,0.57,0.998,1.187,1.16
		c1.15,0.475,2.056,1.884,2.037,3.171c0.93,2.833,2.646,5.253,4.115,7.802c0.257,0.447,0.802,0.789,0.15,1.312
		c-0.773,0.026-1.074-0.557-1.412-1.092c-0.495-1.277-1.728-1.728-2.736-2.427c-1.885-1.472-3.596-3.139-5.333-4.776
		c-0.434-0.408-0.788-1.027-1.56-0.743c-0.472-0.269-0.894-0.668-0.173-1.003c1.323-0.615,2.258-1.708,3.411-2.525
		C54.618,51.88,54.326,51.444,54.624,51.222z"/>
	<path fill-rule="evenodd" clip-rule="evenodd" fill="#5B6261" d="M82.299,35.778c-0.238,0.901-0.635,0.447-0.989,0.104
		c-0.796-0.771-1.593-1.54-2.357-2.341c-0.461-0.483-0.958-0.792-1.647-0.683c-0.26-0.373-0.513-0.751-0.815-1.092
		c-0.948-1.405-2.479-2.211-3.546-3.549c0.479,1.053,1.45,1.982,0.279,3.125c-0.371,0.393-0.41,1.011-0.895,1.326
		c-1.324-1.56-2.453-3.237-3.142-5.184c0.069-0.18-0.061,0.036,0.018-0.142c0.926-2.102,0.926-2.101-1.454-2.282
		c-0.092-0.007-0.177-0.068-0.263-0.114c-0.442-0.461-1.026-0.865-0.674-1.651c-0.025-1.506,0.87-1.114,1.713-0.831
		C73.318,26.694,77.594,31.459,82.299,35.778z"/>
	<path fill-rule="evenodd" clip-rule="evenodd" fill="#D2DCFC" d="M75.874,39.866c-0.786-1.343-1.573-2.687-2.359-4.03
		c-0.25-0.521-0.013-0.749,0.485-0.679c0.654,0.094,0.948-0.32,1.255-0.756c0.484-0.586,0.971-1.171,1.818-1.211
		c1.377-0.241,1.909,0.94,2.659,1.662c2.352,2.26,2.013,1.626-0.296,3.498c-0.669,0.542-1.44,0.962-2.082,1.531
		C76.8,40.373,76.363,40.297,75.874,39.866z"/>
	<path fill-rule="evenodd" clip-rule="evenodd" fill="#3C4E54" d="M66.843,43.116c0.958-0.279-0.14-0.639,0.037-0.949
		c1.274-0.268,1.551,0.731,1.97,1.551c1.749,1.646,3.294,3.521,5.366,4.811c0.228,0.143,0.491,0.325,0.477,0.671
		c-1.172-1.24-1.729,0.554-2.652,0.538c1.531-1.728-0.585-1.979-1.155-2.856c-0.867-0.973-1.983-1.611-3.065-2.299
		c-0.121-0.141-0.231-0.292-0.349-0.437C67.263,43.803,66.74,43.648,66.843,43.116z"/>
	<path fill-rule="evenodd" clip-rule="evenodd" fill="#B0BEC6" d="M68.85,43.718c-0.766-0.378-1.096-1.311-1.97-1.551
		c0.235-0.949,1.052-1.41,1.695-2.018c0.562-0.164,0.759-0.943,1.462-0.869C69.642,40.759,69.245,42.238,68.85,43.718z"/>
	<path fill-rule="evenodd" clip-rule="evenodd" fill="#646770" d="M49.297,56.112c2.247,0.296,3.067,1.735,2.148,3.774
		c-0.139,0.308-0.291,0.61-0.449,0.908c-0.744,1.397-0.87,1.402-1.924,0.205c-0.248-0.283-0.583-0.49-0.878-0.732
		c-0.469,0.069-0.637-0.182-0.646-0.604c0.738-0.953,1.433-1.925,1.218-3.238C48.942,56.321,49.12,56.217,49.297,56.112z"/>
	<path fill-rule="evenodd" clip-rule="evenodd" fill="#707280" d="M93.324,71.852c-0.107,0.092-0.214,0.184-0.32,0.275
		c-0.108,0.203-0.332,0.273-0.486,0.191c-1.705-0.9-3.506-1.691-4.458-3.543c1.423-0.716,1.427-0.718,0.636-2.317
		c-0.215-0.434-0.431-0.854-0.05-1.306c0.538-0.12,0.779,0.249,1.028,0.612c-0.792-1.146-1.242-2.453-1.749-3.731
		c-0.531-1.341-0.975-2.716-1.566-4.034c-0.103-1.061,0.368-1.921,1.397-1.93c0.936-0.008,0.778-0.61,0.992-1.06
		c0.081-0.174,0.167-0.371,0.325-0.466c1.649-0.989,2.269-2.318,1.411-4.156c0.067-0.346,0.172-0.674,0.44-0.924
		c0.571-0.166,0.73,0.305,0.956,0.641c0.887,1.321,0.881,1.322,2.189,0.285c0.367-0.291,0.72-0.656,1.261-0.375
		c0.093,0.105,0.144,0.229,0.147,0.371c-0.227,0.492-0.146,0.902,0.251,1.299c0.815,0.813,0.565,1.596-0.217,2.233
		c-1.377,1.122-2.827,2.152-3.713,2.938c0.61-0.57,1.784-1.386,2.88-2.302c0.787-0.657,1.626-1.404,2.71-0.702
		c3.275,2.12,7.002,3.565,9.747,6.48c0.218,0.231,0.604,0.37,0.457,0.809c-1.186-0.165-1.726,0.85-2.523,1.389
		c-0.432,0.291-0.84,0.617-1.259,0.929c-1.478,0.444-2.912-0.138-4.368-0.2c-0.37-0.016-0.736-0.217-1.127-0.21
		c-1.073,0.02-1.372,0.519-0.86,1.473c0.228,0.423,0.504,0.819,0.773,1.219c1.084,1.606,0.771,2.435-1.112,2.95
		C95.853,69.744,94.588,70.798,93.324,71.852z"/>
	<path fill-rule="evenodd" clip-rule="evenodd" fill="#FDFDFD" d="M118.358,51.816c-1.055,0.438-1.734,1.358-2.612,2.024
		c-0.771,0.76-1.528,1.541-2.649,1.783c-0.684-0.029-1.133-0.476-1.585-0.905c-0.454-0.433-0.896-0.899-1.541-1.015
		c-1.263-0.226-1.96-1.159-2.245-2.207c-0.434-1.593-1.465-2.655-2.588-3.707c-0.281-0.475-0.521-1.063-0.052-1.44
		c1.378-1.108,2.528-2.62,4.5-2.773c1.826,0.627,3.094,2.081,4.606,3.165c1.367,0.98,2.602,2.144,3.86,3.264
		C118.58,50.475,119.438,51.019,118.358,51.816z"/>
	<path fill-rule="evenodd" clip-rule="evenodd" fill="#F5F9FA" d="M111.42,28.179c1.729,3.017,4.594,5.109,6.656,8.022
		c-0.784,0.157-0.961-0.605-1.471-0.658c-0.774,0.125-1.136-0.467-1.502-0.944c-0.799-1.04-1.791-1.907-2.567-2.965
		c-0.463-0.631-1.055-1.003-1.882-0.719c-1.007,0.306-1.495-0.521-2.154-0.979c-1.946-2.086-3.465-4.514-5.323-6.67
		c-0.254-0.295-0.419-0.647-0.45-1.05c-0.005-0.296,0.108-0.549,0.283-0.78c0.178-0.218,0.391-0.398,0.612-0.57
		c0.521-0.467,1.099-0.595,1.748-0.286c0.128,0.055,0.249,0.125,0.364,0.204c1.881,2.02,3.615,4.163,5.304,6.344
		C111.271,27.428,111.524,27.744,111.42,28.179z"/>
	<path fill-rule="evenodd" clip-rule="evenodd" fill="#626668" d="M107.594,61.142c-2.025-1.764-4.089-3.478-6.53-4.656
		c-1.086-0.524-2.097-1.166-3.044-1.901c-1.234-0.959-2.255-0.637-3.313,0.341c-1.057,0.977-2.211,1.848-3.332,2.754
		c-0.294,0.238-0.622,0.435-1.156,0.424c0.313-1.187,1.394-1.479,2.098-2.107c0.934-0.834,1.979-1.541,2.949-2.336
		c0.7-0.574,1.013-1.175,0.017-1.825c-0.759-0.496-0.817-1.039,0.098-1.471c1.07,0.268,1.579,1.172,2.203,1.945
		c1.099,1.438,2.849,1.955,4.238,2.98c-1.126-1.315-2.354-2.496-4.061-3.04c-0.193-0.622-0.001-1.269-0.117-1.898
		c0.104-0.095,0.227-0.151,0.366-0.172c0.452,0.015,0.766,0.294,1.085,0.564c2.173,1.676,4.393,3.29,6.592,4.933
		c1.046,0.916,2.206,1.705,3.133,2.76c0.312,0.866,1.264,1.611,0.514,2.681C108.758,61.448,108.181,61.614,107.594,61.142z"/>
	<path fill-rule="evenodd" clip-rule="evenodd" fill="#627071" d="M118.358,51.816c0.325-0.374,0.427-0.684-0.048-1.078
		c-2.812-2.341-5.551-4.772-8.588-6.829c-0.505-0.109-0.656-0.477-0.667-0.933c-0.012-0.502-0.256-0.884-0.601-1.22
		c-0.392-0.626-1.511-1.216-0.104-1.935c0.803,0.659,1.31,1.624,2.23,2.163c0.79,1.629,2.354,2.487,3.613,3.65
		c-1.266-1.167-2.539-2.326-3.629-3.667c-0.612-0.8-1.282-1.54-2.127-2.104c-1.548-0.736-2.412-2.291-3.825-3.188
		c-0.131-0.606,0.927-0.731,0.577-1.428c0.64-0.321,0.97,0.202,1.329,0.532c0.842,0.773,1.625,1.61,2.446,2.405
		c2.807,2.841,5.619,5.674,8.474,8.467c0.832,0.836,1.952,1.389,2.485,2.52c0.106,0.274,0.272,0.51,0.464,0.73
		c0.521,0.604,0.974,1.19,0.447,2.058c-0.507,0.833-1.211,0.589-1.916,0.479C118.567,52.381,118.452,52.109,118.358,51.816z"/>
	<path fill-rule="evenodd" clip-rule="evenodd" fill="#687275" d="M110.541,30.585c0.854-0.659,1.457-0.293,2.055,0.432
		c1.282,1.555,2.52,3.153,4.01,4.525c0.742,1.35,1.932,2.317,2.929,3.449c0.336,0.069,0.529,0.261,0.533,0.617
		c1.043,1.635,2.47,2.942,3.734,4.39c0.476,0.544,0.997,1.068,1.369,1.68c0.749,1.231,0.423,2.114-0.979,2.936
		c-0.501,0.221-1,0.219-1.497-0.012c-0.238-0.404-0.092-0.792,0.188-1.057c0.971-0.914,0.566-1.684-0.17-2.469
		c-1.979-2.111-3.924-4.25-5.771-6.481c-0.707-0.854-1.115-1.922-1.984-2.646c-1.264-0.931-1.716-2.67-3.471-3.199
		C110.849,32.559,109.933,31.709,110.541,30.585z"/>
	<path fill-rule="evenodd" clip-rule="evenodd" fill="#878D99" d="M97.117,68.69c1.782-0.984,1.789-1.023,0.641-2.813
		c-0.183-0.284-0.288-0.621-0.489-0.89c-0.428-0.572-1.093-1.076-0.477-1.892c0.572-0.756,1.485-0.688,2.144-0.454
		c1.595,0.567,3.313,0.211,4.876,0.816c-0.699,1.007-1.785,1.566-2.697,2.328c-0.874,0.73-1.882,1.304-2.482,2.344
		C98.316,68.677,97.736,68.811,97.117,68.69z"/>
	<path fill-rule="evenodd" clip-rule="evenodd" fill="#334448" d="M111.42,28.179c-1.955-2.406-3.91-4.812-5.864-7.218
		c-0.229-0.947,0.34-0.887,0.81-0.522c0.477,0.37,0.903,0.851,1.231,1.387c0.068,0.044,0.143,0.058,0.223,0.039
		c1.08,1.726,2.547,3.15,3.718,4.801C111.819,27.063,112.979,27.81,111.42,28.179z"/>
	<path fill-rule="evenodd" clip-rule="evenodd" fill="#A3AFC4" d="M113.187,55.344c0.931-0.369,1.554-1.263,2.56-1.503
		c0.146,0.743-0.527,0.964-0.922,1.267c-0.98,0.755-1.976,1.315-2.483,2.667c-0.407,1.086-1.962,0.722-3.001,1.021
		c-0.022-0.064-0.044-0.128-0.067-0.192c0.187-0.905,1.13-1.121,1.603-1.767C111.554,56.197,112.142,55.416,113.187,55.344z"/>
	<path fill-rule="evenodd" clip-rule="evenodd" fill="#939EAB" d="M122.686,48.261c0.411,0.507,0.994,0.276,1.506,0.353
		c-2.093,0.103-1.829,2.377-3.048,3.356c-0.792,0.637-1.326,0.998-2.223,0.468c0.64-0.079,1.408,0.178,1.776-0.634
		c0.367-0.806-0.27-1.236-0.692-1.736c-0.217-0.257-0.481-0.48-0.482-0.856c0.775-0.002,1.552,0.068,2.128-0.665
		C121.874,48.26,122.278,48.132,122.686,48.261z"/>
	<path fill-rule="evenodd" clip-rule="evenodd" fill="#F5F9FA" d="M120.067,39.608c-0.178-0.205-0.355-0.411-0.533-0.617
		c0.121-0.604,0.451-0.587,0.782-0.203c0.483,0.558,0.91,1.164,1.46,1.88C120.897,40.533,120.702,39.741,120.067,39.608z"/>
	<path fill-rule="evenodd" clip-rule="evenodd" fill="#A3AFC4" d="M109.333,61.116c0.293-1.06-0.346-1.811-0.86-2.603
		c0.425-0.298,0.68-0.089,0.877,0.293l-0.01-0.012C109.387,59.569,110.648,60.347,109.333,61.116z"/>
	<path fill-rule="evenodd" clip-rule="evenodd" fill="#4F4C4E" d="M71.209,89.341c-0.121,0.096-0.241,0.191-0.362,0.286
		c-1.051,0.093-1.854-0.348-2.545-1.112c-1.878-2.078-4.256-3.46-6.696-4.753c-0.782-0.415-1.487-0.311-2.167,0.2
		c-1.316,0.989-2.553,2.075-3.818,3.125c-0.679,0.563-0.747,1.179-0.199,1.892c0.412,0.536,0.869,1.104,0.953,1.776
		c0.249,2.009,1.428,3.055,3.307,3.529c0.762,0.192,1.354,0.739,1.908,1.287c0.31,0.307,0.667,0.643,0.33,1.123
		c-0.248,0.354-0.536,0.706-1.064,0.598c-0.711-0.146-1.521-0.433-2.025,0.271c-0.631,0.882-1.423,1.734-1.292,2.979
		c0.109,1.032,0.095,2.028-1.397,2.017c0.326,0.738,1.126,0.552,1.444,1.064c-0.231,0.898-0.957,0.727-1.479,0.524
		c-1.151-0.447-2.029-0.054-2.867,0.665c-0.636,0.464-1.358,1.419-2.074,0.525c-0.614-0.768,0.396-1.318,0.92-1.841
		c0.17-0.17,0.388-0.29,0.566-0.452c0.245-0.222,0.579-0.419,0.366-0.836c-0.092-0.18-0.257-0.313-0.462-0.304
		c-0.389,0.018-0.359,0.392-0.477,0.631c-0.344,0.711-0.899,1.259-1.418,1.828c-0.686,0.753-1.577,0.968-2.522,0.647
		c-1.194-0.405-2.358-0.963-3.25-1.851c-0.956-0.954-1.893-1.938-2.821-2.924c-1.097-1.166-1.112-1.728-0.164-3.048
		c0.472-0.656,1.006-1.252,1.654-1.75c-0.962,0.849-1.971,1.582-3.279,1.773c-0.587,0.086-1.2,0.158-1.601-0.387
		c-0.424-0.577-0.028-1.104,0.238-1.611c0.272-0.521,0.764-0.873,1.073-1.368c0.14-0.196,0.296-0.386,0.494-0.521
		c0.667-0.451,0.62-0.812-0.017-1.304c-0.599-0.464-1.489-0.807-1.266-1.86c1.311-0.165,1.914,0.942,2.735,1.59
		c2.613,2.059,5.033,4.355,7.75,6.29c0.463,0.33,0.885,0.568,1.452,0.394c1.607,0.139,2.399,1.628,3.636,2.229
		c-2.336-2.181-5.079-4.007-7.318-6.406c-0.608-0.651-1.179-0.743-1.851-0.158c-1.06-0.373-0.688-0.997-0.329-1.675
		c0.505-0.95,1.652-1.1,2.54-2.115c-0.976,0.127-1.197,0.778-1.644,1.085c-0.852,0.587-1.594,1.692-2.847,0.714
		c-0.18-0.317-0.268-0.649-0.156-1.012c0.815-0.801,1.865-1.286,2.718-2.065c0.645-0.588,1.02-1.188,1.11-2.015
		c0.589-0.202,0.882,0.249,1.237,0.562c0.983,0.669,1.565,1.632,2.01,2.706c0.147,0.354,0.214,0.949,0.851,0.474
		c0.783-0.063,0.909,0.585,1.154,1.083c0.276,0.561,0.531,1.131,0.869,1.63c-0.388-2.542-2.14-4.435-3.28-6.633
		c-0.034-0.142-0.037-0.284-0.009-0.428c0.256-0.567,0.672-0.942,1.287-1.081c0.195-0.013,0.392-0.003,0.564,0.095
		c1.745,0.992,1.748,0.998,3.354-0.304c1.201-0.974,2.544-1.77,3.608-2.918c0.398-0.43,0.697-0.805,0.235-1.371
		c-0.351-0.428-0.677-0.95-0.143-1.407c0.499-0.427,1-0.065,1.444,0.251c3.154,2.251,6.248,4.586,9.423,6.81
		c0.563,0.533,1.138,1.06,1.62,1.666C71.516,88.521,71.894,88.955,71.209,89.341z"/>
	<path fill-rule="evenodd" clip-rule="evenodd" fill="#676467" d="M71.209,89.341c0.386-0.774-0.389-0.978-0.705-1.395
		c-0.319-0.421-0.696-0.8-1.047-1.196c-0.29-0.459-0.05-0.661,0.373-0.776c1.129,0.106,1.733,1.155,2.721,1.519
		c0.253,0.093,0.559,0.57,0.718-0.091c-0.754-1.007-0.917-1.959-0.336-3.207c0.599-1.288,0.709-2.767,1.363-4.098
		c0.462-0.941-0.109-1.966-0.701-2.838c-1.237-1.821-1.166-3.697,0.306-5.399c0.82-0.947,1.762-1.804,2.85-2.455
		c1.77-1.061,3.608-0.873,4.727,0.861c1.749,2.715,4.109,4.133,7.279,4.328c0.09,0.005,0.17,0.086,0.246,0.148
		c0.095,0.14,0.09,0.274-0.017,0.406c-3.514,3.086-7.207,5.951-10.888,8.831c-0.838,0.655-1.635,1.369-2.505,1.976
		c-0.903,0.63-1.491,1.342-1.241,2.522c0.17,0.796-0.469,1.212-0.886,1.726c-0.697,0.413-1.091,0.076-1.363-0.556
		C71.909,89.24,71.502,89.458,71.209,89.341z"/>
	<path fill-rule="evenodd" clip-rule="evenodd" fill="#605D5C" d="M57.499,103.615c-0.29-0.013-0.617,0.058-0.861-0.055
		c-0.488-0.226-1.317-0.25-1.255-0.951c0.055-0.616,0.648-0.664,1.264-0.517c0.54,0.129,0.685-0.355,0.536-0.752
		c-0.62-1.661,0.463-2.865,1.188-4.079c0.47-0.787,1.504-0.856,2.359-0.404c0.465,0.246,0.732,0.152,0.961-0.226
		c0.272-0.448-0.211-0.535-0.4-0.777c-0.801-1.021-1.989-1.426-3.129-1.721c-1.076-0.278-1.573-0.925-1.775-1.838
		c-0.298-1.35-0.744-2.596-1.713-3.608c-0.483-0.506-0.352-0.956,0.107-1.377c1.566-1.435,3.194-2.793,4.912-4.044
		c0.584-0.425,1.188-0.396,1.774-0.068c2.675,1.491,5.438,2.866,7.372,5.373c0.512,0.663,1.494,0.409,2.008,1.056
		c-3.651,3.023-7.302,6.046-10.953,9.069c-1.604,1.169-1.563,1.174-0.809,3.035c0.444,1.095,1.005,2.205,0.69,3.466
		c-0.676,0.588-0.889-0.061-1.144-0.463C58.336,104.268,58.27,103.595,57.499,103.615z"/>
	<path fill-rule="evenodd" clip-rule="evenodd" fill="#BFC8CC" d="M88.054,68.75c1.601,1.197,3.041,2.631,4.95,3.377
		c0.11,0.422-1.041,0.254-0.428,0.909c0.52,0.555,0.767,1.233,0.177,1.784c-0.589,0.552-1.33,0.37-1.989-0.074
		c-0.192-0.13-0.442-0.172-0.666-0.254c0.019-0.526,0.398-0.501,0.763-0.502c0.204,0.035,0.396,0.111,0.582,0.198
		c0.703,0.203,0.861-0.097,0.463-0.619c-0.521-0.684-1.137-1.3-1.901-1.734c-0.986-0.723-2.042-1.349-2.968-2.157
		c-0.494-0.816-0.313-1.248,0.69-1.209C87.872,68.519,87.981,68.613,88.054,68.75z"/>
	<path fill-rule="evenodd" clip-rule="evenodd" fill="#657278" d="M90.977,74.29c-0.331-0.101-0.657-0.178-0.879,0.202
		c-0.371,0.219-0.741,0.438-1.112,0.655c-0.01-0.113-0.019-0.228-0.028-0.342c0.116-0.608,0.515-0.948,1.074-1.139
		C90.472,73.684,91.073,73.459,90.977,74.29z"/>
	<path fill-rule="evenodd" clip-rule="evenodd" fill="#3C3A3C" d="M17.646,87.906c-0.196-0.386-0.474-0.689-0.875-0.868
		c-0.486-0.681-0.974-1.36-1.46-2.041c-1.666-2.71-3.945-4.96-5.698-7.603c-1.778-2.679-3.828-5.179-5.364-8.013
		c-0.771-1.421-0.098-2.904,1.483-3.577c0.454,0.524,0.907,1.166,1.385,0.02c0.297-0.121,0.594-0.241,0.89-0.361
		c0.513,0.367,0.353,0.956,0.491,1.451c0.498,1.776,1.355,3.27,3.143,4.082c1.543,0.702,2.758,1.728,3.238,3.47
		c0.311,1.127,1.634,1.633,2.677,1.113c2.107-1.052,2.209-1.025,3.565,0.944c0.247,0.358,0.491,0.72,0.568,1.162
		c0.041,0.294-0.008,0.582-0.127,0.845c-0.446,0.985-0.052,1.601,0.788,2.158c2.851,1.892,4.037,4.674,4.148,8
		c-0.836,0.451-1.098-0.313-1.454-0.74c-2.389-2.857-4.705-5.773-6.99-8.715c-0.573-0.738-1.154-1.164-2.041-0.401
		c-0.432,0.371-1.077,0.575-0.388,1.278c0.204,0.208,0.22,0.53,0.046,0.813c-0.965,0.205-1.397-0.573-1.85-1.126
		c-1.126-1.377-2.48-2.567-2.984-3.513c2.595,3.052,5.684,6.638,8.719,10.268c2.484,2.972,4.829,6.061,7.467,8.905
		c0.369,0.397,0.661,0.862,0.293,1.436c-0.112,0.09-0.241,0.128-0.385,0.116c-1.692-1.635-3.47-3.193-4.833-5.135
		c-0.368-0.524-0.733-1.046-1.34-1.274C19.384,90.08,18.479,89.039,17.646,87.906z"/>
	<path fill-rule="evenodd" clip-rule="evenodd" fill="#FDFDFE" d="M78.76,9.046c-0.064-0.771,0.529-1.063,1.042-1.395
		c1.587-1.026,3.184-2.038,4.776-3.056c-0.013-0.452,0.316-0.606,0.655-0.753c1.576-0.154,2.053,1.33,3.049,2.043
		c0.807,1.088,1.71,2.105,2.422,3.264c0.491,0.87,1.09,1.67,1.645,2.498c0.419,0.627,0.928,1.064,1.678,1.2
		c0.749,0.562,1.484,1.134,1.559,2.178c-0.51,1.454-2.014,1.665-3.083,2.406c-0.691,0.479-1.2,0.931-1.043,1.834
		c-0.098,0.309-0.325,0.442-0.631,0.475c-0.142-0.003-0.277-0.035-0.408-0.089c-0.885-0.933-1.798-1.84-2.696-2.762
		c-0.093-0.101-0.174-0.21-0.249-0.324c-1.053-1.496-2.528-2.58-3.799-3.862c-0.443-0.448-1.098-0.542-1.723-0.593
		c-0.314,0.071-0.599,0.296-0.949,0.194C79.901,11.463,79.138,10.388,78.76,9.046z"/>
	<path fill-rule="evenodd" clip-rule="evenodd" fill="#B9C0C7" d="M68.275,15.665c0.938-0.345,1.086-1.258,1.449-2.016
		c0.083,0.532,0.438,0.654,0.908,0.605c0.334,1.926,2.089,2.962,2.896,4.6c0.225,0.453,0.782,0.313,1.192,0.146
		c1.077-0.438,1.652,0.036,1.977,1.025c0.104,0.322,0.215,0.643,0.337,0.959c0.301,0.776,0.718,1.14,1.506,0.507
		c0.341-0.273,0.771-0.402,1.187-0.533c0.403-0.127,0.889-0.384,1.157,0.143c0.238,0.467-0.137,0.812-0.445,1.126
		c-0.102,0.104-0.222,0.188-0.327,0.287c-1.406,1.298-1.395,1.579,0.106,2.745c0.236,0.735-0.378,0.999-0.773,1.376
		c-0.931,0.887-2.195,1.382-2.926,2.503c-0.317,0.131-0.587-0.001-0.779-0.22c-1.853-2.1-3.99-3.904-5.999-5.842
		c-0.245-0.236-0.441-0.511-0.596-0.813c-0.23-0.838-0.855-1.143-1.638-1.082c-0.682,0.053-1.46,0.541-1.775-0.516
		c-0.313-1.047-0.704-2.079,0.256-3.08C66.688,16.855,67.461,16.243,68.275,15.665z"/>
	<path fill-rule="evenodd" clip-rule="evenodd" fill="#E0E7EC" d="M80.271,25.364c-0.711-0.125-1.553-0.146-1.722-1.034
		c-0.162-0.849,0.415-1.443,1.016-1.964c0.413-0.357,1.041-0.518,1.185-1.426c-0.921,0.584-1.959,0.481-2.543,1.386
		c-0.313,0.486-0.72,0.23-0.97-0.048c-0.282-0.314-0.584-0.716-0.638-1.112c-0.224-1.644-0.838-2.431-2.576-1.524
		c-0.416,0.217-0.882-0.082-1.019-0.558c-0.335-1.166-1.14-1.996-1.967-2.792c-0.641-0.617-0.918-1.229-0.404-2.037l-0.012,0.008
		c0.554-0.299,1.063-0.653,1.457-1.153c0.218-0.334,0.56-0.303,0.892-0.302c0.485,0.214,0.95,0.481,1.303,0.872
		c1.139,1.258,2.851,1.142,4.243,1.788c0.143,0.066,0.338-0.305,0.56-0.409c0.938,0.174,1.028,1.063,1.404,1.694
		c0.721,1.208,1.092,2.579,2.787,3.068c1.221,0.353,1.471,2.143,0.759,3.292c-0.292,0.308-0.628,0.557-1.011,0.741
		c-0.961,0.298-1.702,0.978-2.549,1.477C80.401,25.343,80.336,25.354,80.271,25.364z"/>
	<path fill-rule="evenodd" clip-rule="evenodd" fill="#586368" d="M78.76,9.046c0.792,1.055,1.585,2.109,2.378,3.163
		c0.375,0.135,0.674,0.363,0.897,0.699c1.767,2.657,3.747,5.16,5.57,7.776c0.409,0.588,0.842,1.188,0.969,1.929
		c-0.008,0.139-0.047,0.268-0.121,0.386c-0.751,0.236-0.991-0.385-1.351-0.806c-1.001-1.17-1.764-2.527-2.853-3.629
		c-0.96-1.001-1.596-2.24-2.428-3.335c0.824,1.121,1.454,2.387,2.462,3.372c0.386,0.677,1.281,1.216,0.594,2.185
		c-0.335,0.159-0.629,0.138-0.929-0.119c-1.741-1.488-2.976-3.33-4.039-5.351c-0.982-1.867-2.008-3.739-3.479-5.3
		c-0.444-0.471-0.583-0.973-0.266-1.563C77.421,6.94,77.964,8.548,78.76,9.046z"/>
	<path fill-rule="evenodd" clip-rule="evenodd" fill="#616C72" d="M90.419,9.313c-0.798-1.043-1.596-2.086-2.394-3.129
		c-0.26-1.079-1.233-1.531-1.956-2.195c-0.266-0.244-0.617-0.227-0.838,0.152c-0.218,0.15-0.436,0.303-0.653,0.454
		c-1.074-0.517-0.467-1.183-0.086-1.724c0.496-0.703,1.271-0.828,1.901-0.277c0.906,0.791,1.727,1.689,2.513,2.603
		c1.32,1.533,2.585,3.114,3.873,4.675c0.77,0.268,1.24,0.883,1.718,1.486c1.159,1.47,2.3,2.954,3.493,4.396
		c0.383,0.463,0.873,0.928,0.821,1.634c-0.659,1.698-0.816,3.32,0.725,4.683c-0.119,0.355-0.358,0.595-0.707,0.728
		c-1.458-0.797-2.445-1.987-2.978-3.561c0.084-0.23,0.224-0.44,0.414-0.578c1.085-0.788,0.924-1.522-0.069-2.238
		c-0.169-0.526-0.43-0.993-0.88-1.336c-0.157-0.881-0.949-1.318-1.397-1.996c-0.92-0.668-1.359-1.741-2.136-2.526
		C91.351,10.125,91.08,9.503,90.419,9.313z"/>
	<path fill-rule="evenodd" clip-rule="evenodd" fill="#F8FBFC" d="M79.055,15.212c0.07,0.646-0.405,0.909-0.868,1.292
		c-0.425-0.352-0.215-2.32-1.417-0.65c-0.027,0.037-0.222,0.023-0.263-0.027c-0.993-1.227-2.815-1.48-3.538-3.019
		c1.125-0.859,2.026-2.055,3.525-2.354C77.966,11.708,78.772,13.318,79.055,15.212z"/>
	<path fill-rule="evenodd" clip-rule="evenodd" fill="#757786" d="M79.055,15.212c-0.854-1.586-1.707-3.172-2.561-4.758
		c-0.341-0.629-1.057-1.196-0.328-2.001c0.024,0.472-0.083,0.962,0.343,1.347c2.42,2.19,3.782,5.07,5.147,7.947
		c0.021,0.043,0.019,0.101,0.047,0.136c0.899,1.114,2.084,1.9,3.194,2.772c0.786,0.404,0.582,1.009,0.332,1.626
		c-0.378,0.494-0.695,1.122-1.502,0.708c0.329-0.496,0.93-0.949,0.278-1.61c-0.506-0.516-0.407-1.771-1.674-1.362
		c-0.589,0.19-0.704-0.275-0.937-0.654C80.563,18.007,80.105,16.441,79.055,15.212z"/>
	<path fill-rule="evenodd" clip-rule="evenodd" fill="#F5F9FA" d="M93.901,9.323c0.48-0.812,0.784-0.485,1.258,0.084
		c1.942,2.338,3.941,4.628,5.937,6.921c0.279,0.321,0.655,0.56,0.986,0.836c1.301,0.401,1.756,1.452,2.031,2.644
		c-0.036,0.313-0.156,0.57-0.469,0.699c-0.481,0.096-0.852-0.151-1.138-0.469c-1.268-1.408-2.761-2.629-3.678-4.335
		c-1.168-1.538-2.649-2.811-3.762-4.397C94.788,10.581,93.759,10.296,93.901,9.323z"/>
	<path fill-rule="evenodd" clip-rule="evenodd" fill="#6B737D" d="M103.819,19.812c-0.303-1.063-1.055-1.833-1.737-2.647
		c-0.018-0.094-0.027-0.19-0.056-0.28c-0.313-0.996-0.579-2.167,0.512-2.681c1.26-0.592,1.667,0.668,2.164,1.516
		c0.702,1.363,0.34,2.822,0.379,4.244c0.007,0.257-0.067,0.456-0.361,0.529C104.126,20.641,103.992,20.207,103.819,19.812z"/>
	<path fill-rule="evenodd" clip-rule="evenodd" fill="#DDECEB" d="M98.586,17.451c-1.579-2.575-3.593-4.813-5.513-7.126
		c-0.113-0.137-0.196-0.301-0.294-0.453c0.098-0.118,0.195-0.236,0.293-0.355c1.133,0.195,1.553,1.207,2.22,1.938
		c1.096,1.438,2.357,2.736,3.494,4.142c0.854,1.455,2.052,2.635,3.124,3.915c0.52,0.618,1.153,1.165,1.32,2.016
		c-0.107,0.219-0.215,0.438-0.322,0.656c-0.977,0.019-1.317-0.884-1.962-1.348c-0.573-0.7-1.169-1.379-1.801-2.029
		C98.797,18.448,98.396,18.057,98.586,17.451z"/>
	<path fill-rule="evenodd" clip-rule="evenodd" fill="#A4B3B6" d="M92.173,7.849c-1.215-1.455-2.431-2.91-3.646-4.366
		c1.526,0.642,2.467,1.907,3.563,2.995c0.424,0.421-0.009,0.922,0.075,1.379L92.173,7.849z"/>
	<path fill-rule="evenodd" clip-rule="evenodd" fill="#C6D3FE" d="M103.819,19.812c0.656,0.768,0.94,0.756,1.094-0.357
		c0.177-1.279-0.035-2.497-0.211-3.735c0.675,0.586,0.553,1.382,0.574,2.144c0.024,0.839-0.326,1.889,1.114,1.948
		c0.241,0.01,0.306,0.337,0.322,0.586c-0.513,0.046-1.262-0.577-1.405,0.502c-0.596-0.329-1.097-0.162-1.542,0.293
		c-0.285-0.202-0.419-0.45-0.247-0.794C103.619,20.202,103.72,20.007,103.819,19.812z"/>
	<path fill-rule="evenodd" clip-rule="evenodd" fill="#A4B3B6" d="M95.105,11.599c-0.678-0.693-1.355-1.387-2.033-2.082
		c-0.097-0.665-0.889-0.955-0.899-1.668l-0.008,0.008c0.579,0.488,1.157,0.979,1.736,1.467c0.37,0.677,1.164,1.004,1.446,1.754
		C95.273,11.254,95.258,11.458,95.105,11.599z"/>
	<path fill-rule="evenodd" clip-rule="evenodd" fill="#6B737D" d="M105.308,20.898c0.042-1.362,0.733-0.904,1.405-0.502
		c0.184,0.545,0.834,0.801,0.884,1.429c-0.418-0.383-0.833-0.771-1.256-1.148c-0.429-0.383-0.67-0.214-0.785,0.284
		C105.467,20.962,105.384,20.941,105.308,20.898z"/>
	<path fill-rule="evenodd" clip-rule="evenodd" fill="#C3CFFC" d="M90.681,50.423c0.907,2.518,0.906,2.518-1.269,4.236
		c-0.148,0.117-0.286,0.248-0.429,0.373c-0.578,1.087-2.098,1.065-2.617,2.223c-0.781,0.594-1.2,0.127-1.557-0.529
		c-0.232-0.607-0.651-1.129-0.833-1.762c-0.021-0.831-0.28-1.591-0.625-2.343c-0.507-1.104-0.308-2.042,0.729-2.778
		c0.979-0.696,1.863-1.522,2.856-2.203c0.508-0.347,1.007-0.789,1.709-0.49c0.328,0.169,0.58,0.432,0.84,0.684
		C90.106,48.593,90.731,49.353,90.681,50.423z"/>
	<path fill-rule="evenodd" clip-rule="evenodd" fill="#545458" d="M88.696,65.18c-0.181,0.731,0.537,1.073,0.7,1.626
		c0.159,0.537,0.881,0.988,0.361,1.678c-0.486,0.646-1.122,0.272-1.704,0.266c0,0.001,0.021-0.013,0.021-0.013
		c-2.554-0.394-4.251-2.264-6.223-3.648c-0.574-0.403-0.854-1.158-0.101-1.548c1.772-0.916,2.058-2.335,1.698-4.078
		c0.477-1.008-0.178-1.478-0.898-1.94c-0.768-0.494-1.479-1.087-2.455-0.378c-0.469,0.34-0.916,0.917-1.643,0.529
		c0.241-1.67,1.759-1.983,2.883-2.716c1.118-0.054,1.37,1.173,2.229,1.506c0.393,0.371,0.964,0.264,1.4,0.518
		c0.147,0.22,0.309,0.43,0.459,0.647c0.271,0.828,0.609,1.624,1.146,2.322c0.125,0.978,0.612,1.786,1.199,2.548
		C88.053,63.4,88.972,64.084,88.696,65.18z"/>
	<path fill-rule="evenodd" clip-rule="evenodd" fill="#C3CCF6" d="M95.367,50.061c-0.844,0.219-1.327,0.919-1.896,1.479
		c-0.617,0.608-0.999,0.565-1.419-0.195c-0.339-0.612-0.424-1.385-1.08-1.807c-1.236-0.925-1.1-1.655,0.492-2.658
		c1.84-0.085,3.809,1.376,4.054,3.005C95.468,49.943,95.417,50.002,95.367,50.061z"/>
	<path fill-rule="evenodd" clip-rule="evenodd" fill="#BCC2C8" d="M85.18,57.639c-0.097-0.195-0.193-0.39-0.29-0.585
		c-0.229-0.333-0.14-0.547,0.244-0.649c0.146,0.664,0.393,1.139,1.168,0.622c0.36,0.221,0.062,0.655,0.297,0.916
		c1.334,1.935,1.615,4.313,2.684,6.367c0.439,0.846,1.109,1.668,0.892,2.809c-0.518-0.679-0.997-1.309-1.478-1.938
		c-0.491-0.822-0.935-1.665-1.181-2.599c-0.613-0.845-0.787-1.879-1.209-2.806C85.645,59.214,85.694,58.278,85.18,57.639z"/>
	<path fill-rule="evenodd" clip-rule="evenodd" fill="#121D21" d="M91.58,47.127c-0.882,0.632-1.61,1.302-0.609,2.41
		c-0.032,0.316,0.071,0.677-0.29,0.886c-0.479-0.797-0.958-1.593-1.438-2.39c-0.721-1.315-0.721-1.315,0.937-2.702
		c0.131-0.076,0.272-0.12,0.423-0.137C92.08,45.726,92.297,46.153,91.58,47.127z"/>
	<path fill-rule="evenodd" clip-rule="evenodd" fill="#4A4F4B" d="M97.388,52.384c-0.7-0.643-1.477-1.211-2.008-2.021
		c-0.005-0.101-0.009-0.201-0.013-0.302l0,0c0.669-1.341,1.142-1.271,2.297,0.342c0.549,0.551,1.151,1.102,0.027,1.68
		C97.668,52.262,97.567,52.362,97.388,52.384z"/>
	<path fill-rule="evenodd" clip-rule="evenodd" fill="#9699B0" d="M86.599,57.942c-0.324-0.232-0.256-0.591-0.297-0.916
		c0.675-0.958,1.736-1.398,2.682-1.994c-0.01,0.435,0.005,0.871-0.038,1.303c-0.028,0.293-0.233,0.69-0.529,0.478
		C86.83,55.677,86.895,57.078,86.599,57.942z"/>
	<path fill-rule="evenodd" clip-rule="evenodd" fill="#EAF0F3" d="M108.759,41.592c0.497,0.354,1.12,0.634,0.647,1.442
		c-0.219,0.374,0.235,0.572,0.315,0.875c-1.918,0.157-2.942,1.791-4.405,2.698c-0.369,0.229,0.057,0.706,0.003,1.07
		c-0.06,0.04-0.118,0.08-0.178,0.121c-1.049-0.321-1.069-1.391-1.516-2.137c-0.879-1.471-1.83-2.909-2.443-4.525
		c-0.06-0.479-0.14-1.069,0.392-1.241c0.522-0.169,0.803,0.384,1.091,0.756c0.116,0.149,0.207,0.318,0.307,0.48
		c1.043,1.694,1.244,1.711,2.698,0.214C106.993,40.26,106.993,40.26,108.759,41.592z"/>
	<path fill-rule="evenodd" clip-rule="evenodd" fill="#EAF0F3" d="M113.187,55.344c-0.695,0.571-1.39,1.142-2.085,1.713
		c-1.19,0.682-1.803-0.107-2.312-0.971c-0.56-0.95-0.765-2.082-1.46-2.97c-0.206-0.207-0.452-0.369-0.653-0.581
		c-0.646-1.538-1.695-2.955-1.452-4.766c0,0,0.094-0.091,0.095-0.091c1.278,0.801,2.294,1.703,2.658,3.348
		c0.22,0.993,0.716,2.243,2.208,2.25c0.72,0.003,1.042,0.621,1.5,1.023C112.146,54.706,112.488,55.28,113.187,55.344z"/>
	<path fill-rule="evenodd" clip-rule="evenodd" fill="#5B6B76" d="M101.208,20.641c0.567,0.514,1.134,1.028,1.7,1.542
		c1.94,2.509,3.88,5.019,5.819,7.527c2.183,2.04,3.294,4.888,5.317,7.049c1.401,2.412,3.018,4.705,4.05,7.324
		c0.127,0.734,0.089,1.407-0.679,1.804c-1.051,0.233-1.415-0.551-1.865-1.24c-1.392-2.128-2.75-4.272-3.525-6.722
		c-0.404-1.974-1.695-3.455-2.817-5.025c-0.645-0.902-1.291-0.58-1.905,0.071c-1.013-0.132-1.599-0.652-1.576-1.727
		c0.183-0.298,0.492-0.253,0.772-0.275c0.691-0.055,0.711-0.447,0.362-0.868c-1.45-1.751-2.539-3.758-3.974-5.521
		c-0.936-1.149-1.573-0.232-2.293,0.254c-0.591-0.01-0.901-0.315-0.949-0.898c0.217-0.597,1.423-0.604,0.965-1.611
		c0.315-0.262,0.663-0.223,1.032-0.104C101.44,21.7,100.685,21.342,101.208,20.641z"/>
	<path fill-rule="evenodd" clip-rule="evenodd" fill="#BAC5C8" d="M113.746,36.907c-2.098-2.103-3.32-4.815-5.019-7.197
		c0.683,0.131,0.867,1.291,1.813,0.875c0.241,1.105,0.778,1.62,1.818,1.865c0.251,0.06,0.548,0.292,0.659,0.524
		c0.528,1.097,1.409,1.897,2.206,2.771C114.711,36.106,114.173,36.437,113.746,36.907z"/>
	<path fill-rule="evenodd" clip-rule="evenodd" fill="#5C6B68" d="M103.519,20.397c0.082,0.265,0.164,0.529,0.246,0.794
		c-0.178,0.111-0.355,0.224-0.534,0.335c-1.793-1.736-3.261-3.741-4.707-5.761c-0.022-0.479,0.184-0.556,0.565-0.319
		C100.342,17.297,101.959,18.821,103.519,20.397z"/>
	<path fill-rule="evenodd" clip-rule="evenodd" fill="#C6CBD5" d="M106.979,52.419c0.208,0.089,0.416,0.178,0.624,0.267
		c0.093,0.113,0.111,0.249,0.14,0.39c0.501,2.509,0.409,2.63-2.224,2.896c-2.26-1.618-4.592-3.141-6.638-5.041
		c0.035-0.636-0.489-0.851-0.876-1.173c-0.463-0.386-1.018-0.713-0.993-1.438c0.507-0.835,1.655-0.808,2.178-1.624
		c1.627-0.148,1.329,1.348,1.842,2.152c0.022,0.138,0.014,0.275-0.018,0.41c-0.638,0.81-0.956,1.56,0.385,1.989
		c1.164,0.756,2.177,1.71,3.29,2.531c0.488,0.358,0.941,0.92,1.643,0.561c0.645-0.329,0.438-0.986,0.475-1.54
		C106.814,52.654,106.878,52.526,106.979,52.419z"/>
	<path fill-rule="evenodd" clip-rule="evenodd" fill="#E0E9EF" d="M105.519,55.972c0.023-0.231-0.292-0.603,0.244-0.626
		c1.94-0.083,1.939-0.081,1.85-1.94c-0.012-0.239-0.007-0.479-0.01-0.72c0.476,0.989,0.999,1.958,1.413,2.973
		c0.396,0.97,1.018,1.487,2.086,1.398c-0.368,0.8-1.448,0.887-1.752,1.75c-0.293-0.098-0.585-0.195-0.877-0.293
		C107.488,57.666,106.503,56.818,105.519,55.972z"/>
	<path fill-rule="evenodd" clip-rule="evenodd" fill="#707280" d="M97.664,50.402c-0.28-0.16-0.657-0.253-0.824-0.492
		c-0.621-0.894-1.029-0.331-1.473,0.15c-0.368-1.277-2.439-2.882-3.787-2.934c0.485-1.158-0.396-1.398-1.155-1.722
		c-0.223-0.618-0.444-1.236,0.574-1.313c0.2,0.065,0.369,0.183,0.521,0.327c1.461,1.315,3.021,2.509,4.555,3.738
		c0.753,0.604,1.682,1.113,1.941,2.182C97.898,50.36,97.781,50.381,97.664,50.402z"/>
	<path fill-rule="evenodd" clip-rule="evenodd" fill="#DDEBF2" d="M98.016,50.339c-2.2-1.8-4.401-3.597-6.593-5.407
		c-0.086-0.071-0.068-0.268-0.099-0.406c0.145-0.183,0.341-0.261,0.564-0.284c0.638-0.011,1.038,0.404,1.449,0.802
		c1.296,1.049,2.801,1.857,3.771,3.28c0.382,0.773,1.21,1.058,1.771,1.63c0.272,0.279,0.955,0.656,0.002,0.978
		C98.592,50.733,98.304,50.536,98.016,50.339z"/>
	<path fill-rule="evenodd" clip-rule="evenodd" fill="#9DA09F" d="M97.388,52.384c0.101-0.101,0.202-0.201,0.304-0.302
		c1.1-0.273,1.847,0.456,2.556,1.04c0.979,0.807,1.937,1.679,2.67,2.866c-0.963,0.365-1.52-0.416-1.921-0.758
		C99.826,54.236,97.909,54.168,97.388,52.384z"/>
	<path fill-rule="evenodd" clip-rule="evenodd" fill="#8B8E8C" d="M104.725,56.479c0.637,0.526,1.228,1.004,1.798,1.505
		c0.06,0.053,0.043,0.299-0.025,0.363c-0.082,0.078-0.299,0.126-0.386,0.072c-0.608-0.377-1.206-0.774-1.788-1.19
		c-0.073-0.053-0.1-0.288-0.046-0.374C104.367,56.714,104.541,56.626,104.725,56.479z"/>
	<path fill-rule="evenodd" clip-rule="evenodd" fill="#FBFCFB" d="M113.746,36.907c-0.04-1.065,0.414-1.502,1.479-1.161
		c2.892,3.394,5.78,6.79,8.68,10.178c0.404,0.473,0.353,0.813-0.123,1.204c-0.403,0.331-0.733,0.752-1.096,1.133
		c-0.353,0.255-0.802,0.44-1.037,0.776c-0.673,0.957-1.349,0.956-2.126,0.174c-0.772-0.784-1.546-1.567-2.318-2.352
		c-0.466-0.684,0.338-0.776,0.535-1.15c0.216-0.577,0.385-1.152-0.025-1.72C116.392,41.628,115.068,39.268,113.746,36.907z"/>
	<path fill-rule="evenodd" clip-rule="evenodd" fill="#EEF1F3" d="M118.045,45.945c-0.16,0.415-0.875,0.32-0.841,0.914
		c-1.861-1.386-3.21-3.291-4.909-4.845c-1.238-1.132-2.385-2.366-3.572-3.555c-0.107-0.397,0.176-0.465,0.453-0.54
		c0.335-0.022,0.67,0.043,1.005,0.013c0.705-0.015,1.346-1.145,2.112-0.131c1.088,2.344,2.252,4.641,3.697,6.798
		c0.344,0.512,0.622,0.931,1.214,1.092C117.444,45.909,117.829,45.647,118.045,45.945z"/>
	<path fill-rule="evenodd" clip-rule="evenodd" fill="#BCC9F5" d="M108.759,41.592c-0.982-0.563-1.965-1.215-2.938,0.015
		c-1.902-0.677-2.703-3.179-1.51-4.719c0.106-0.105,0.233-0.178,0.379-0.217c1.03-0.224,1.375,0.704,1.938,1.209
		c0.666,0.6,1.225,1.318,1.829,1.985l0.002-0.004C107.149,40.684,108.558,41.032,108.759,41.592z"/>
	<path fill-rule="evenodd" clip-rule="evenodd" fill="#2F4450" d="M104.689,36.671c-0.03,0.064-0.04,0.133-0.03,0.204
		c-1.113,0.78-1.241,1.685-0.458,2.81c0.323,0.466,0.584,0.994,0.835,1.516c0.179,0.369,0.304,0.755-0.086,1.04
		c-0.399,0.293-0.816,0.068-0.993-0.263c-0.788-1.475-1.975-2.729-2.441-4.381c0.124-0.729,0.63-1.146,1.221-1.493
		c0.819-0.188,1.221-1.231,2.205-1.086c0.137,0.051,0.236,0.144,0.298,0.276C105.729,36.021,104.804,36.185,104.689,36.671z"/>
	<path fill-rule="evenodd" clip-rule="evenodd" fill="#DFE6E8" d="M110.535,41.949c2.071,1.108,3.328,3.058,4.855,4.745
		c-1.828-1.068-3.506-2.313-4.878-3.926c-0.131-0.154,0.015-0.545,0.032-0.826L110.535,41.949z"/>
	<path fill-rule="evenodd" clip-rule="evenodd" fill="#CACDD0" d="M105.239,35.294c-0.1-0.041-0.199-0.083-0.299-0.125
		c-0.178-0.086-0.361-0.168-0.361-0.411c0.171-0.558,0.535-0.919,1.097-1.082c1.198,1.145,2.298,2.383,3.438,3.582
		c0.214,0.225,0.448,0.526,0.171,0.884c-0.188,0.106-0.375,0.212-0.563,0.318C107.562,37.405,106.4,36.35,105.239,35.294z"/>
	<path fill-rule="evenodd" clip-rule="evenodd" fill="#3E4447" d="M108.456,39.865c1.288,0.102,1.948,0.829,2.079,2.084l0.01-0.007
		c-1.356-0.031-1.859-0.918-2.087-2.081L108.456,39.865z"/>
	<path fill-rule="evenodd" clip-rule="evenodd" fill="#605D5C" d="M70.036,86.168c-0.372,0.017-0.554,0.221-0.579,0.582
		c-2.611-1.626-5.1-3.425-7.496-5.347c-0.715-0.573-1.629-0.85-2.228-1.588c-0.212-0.261-0.563-0.488-0.869-0.151
		c-0.301,0.332-0.074,0.664,0.231,0.841c1.29,0.744,0.612,1.371-0.11,1.972c-1.569,1.309-3.168,2.582-4.728,3.902
		c-0.807,0.684-1.546,0.792-2.197-0.134c-0.271-0.384-0.555-0.653-1.023-0.704c0.192-1.844-1.111-2.355-2.491-2.8
		c0.669-1.355,2.335-1.776,3.352-0.854c0.333,0.301,0.517,0.809,1.099,0.806c-0.287-0.116-0.504-0.266-0.483-0.602
		c1.277-1.254-0.13-2.148-0.446-3.281c-0.082,0.975-0.532,1.207-1.317,0.797c-0.249-0.13-0.459-0.034-0.667,0.097
		c-0.928,0.786-2.384,1.29-1.564,2.99c-0.114,1.472,0.719,2.578,1.436,3.729c0.001,0.106,0.003,0.213,0.004,0.319
		c0.216,1.407,1.352,2.548,1.177,4.067c-0.082,0.343,0.179,0.888-0.299,0.986c-0.545,0.112-0.646-0.483-0.778-0.85
		c-0.441-1.211-0.909-2.386-2.137-3.036c0.219-1.23-0.298-1.871-1.545-1.923c-0.654-0.674-0.913-1.492-0.871-2.418
		c0.524-0.216,0.356-0.462,0.109-0.834c-0.604-0.91-1.597-1.523-1.971-2.604c-0.039-0.6-0.311-1.1-0.678-1.554
		c-1.053-1.304-1.871-2.776-2.938-4.068c-0.724-0.783-1.168-1.666-1.534-2.703c-0.585-1.663-1.815-3.039-2.677-4.596
		c-0.184-0.333-0.448-0.625-0.635-0.963c-0.443-0.858-0.986-1.643-1.718-2.281c-1.142-0.369-1.527,1.002-2.475,1.073
		c-0.575,0.241-1.061,0.684-1.698,0.779c-0.96,0.144-2.033,0.088-2.395-0.872c-0.767-2.039-2.67-2.406-4.284-3.009
		c-1.375-0.513-2.684-0.89-3.682-2.071c-0.91-1.077-1.884-1.104-3.074-0.324c-0.509,0.333-0.952,0.874-1.677,0.536
		c-0.179-0.154-0.233-0.354-0.219-0.581c0.965-1.643,2.428-2.809,3.878-3.977c1.569-1.264,2.971-2.713,4.513-4.006
		c1.013-0.496,1.789-1.192,2.008-2.363c0.06-0.123,0.146-0.226,0.252-0.312c0.854-0.1,1.036,1.49,2.111,0.838
		c1.38,1.084,1.93,2.736,2.798,4.163c0.423,0.695,0.695,1.5,1.177,2.163c1.988,2.736,3.448,5.824,5.64,8.424
		c0.223,0.264,0.437,0.515,0.753,0.66c0.938,0.748,1.504,1.856,2.475,2.576c0.013,1.417,0.93,2.343,2.114,2.132
		c0.796-0.579,1.053-1.294,0.676-2.249c-0.336-0.853-0.356-1.775-0.454-2.678c-0.882-1.541-2.261-2.603-3.579-3.721
		c-0.117-0.071-0.226-0.155-0.33-0.243c-2.034-2.07-4.3-3.896-6.378-5.908c-1.805-1.75-3.813-3.417-4.749-5.9
		c0.13-0.338,0.473-0.484,0.69-0.294c1.222,1.066,3.021,1.319,4.013,2.873c0.143-0.557,0.083-1.214,0.705-1.465
		c0.732-0.296,1.297,0.199,1.915,0.442c1.931,1.059,3.912,0.62,5.873,0.16c1.385-0.324,2.667-0.589,3.344,1.148
		c0.131,0.336,0.579,0.483,0.919,0.659c0.33,0.102,0.708,0.04,0.995,0.288c0.212,0.815-0.468,1.091-0.933,1.449
		c-1.489,1.146-2.878,2.412-4.356,3.568c-0.744,0.581-0.816,1.088-0.126,1.76c0.655,0.638,1.339,1.246,1.97,1.909
		c0.386,0.974,1.205,1.471,2.101,1.858c0.442,0.191,0.908,0.322,1.232,0.711c0.572,0.81,0.237,2.129,1.453,2.577
		c2.022,2.294,4.609,4.01,6.549,6.389c2.13,2.141,4.15,4.436,7.313,5.094c2.491,2.608,5.588,4.443,8.426,6.61
		C69.412,85.191,70.167,85.321,70.036,86.168z"/>
	<path fill-rule="evenodd" clip-rule="evenodd" fill="#575556" d="M14.107,59.943c0.696,0.156,1.048-0.413,1.485-0.746
		c1.379-1.053,2.797-0.893,3.822,0.545c0.567,0.796,1.301,1.462,2.227,1.454c1.599-0.015,2.663,1.152,4.048,1.597
		c0.572,0.185,1.634,0.479,1.388,1.773c-0.142,0.741,1.484,1.17,2.563,0.747c0.491-0.192,0.823-0.701,1.411-0.687
		c0.163,0.443-0.094,0.756-0.384,0.995c-1.689,1.396-3.217,2.984-5.012,4.257c-0.084,0.048-0.18,0.075-0.26,0.125
		c-1.998,1.25-2.75,1.03-3.778-1.225c-0.396-0.866-1.053-1.495-1.659-2.176c-0.331-0.371-0.757-0.6-1.512-0.363
		c1.717,2.092,3.286,4.172,5.525,5.628c2.313,2.482,4.794,4.81,6.955,7.436c0.485,0.758,1.25,1.187,1.974,1.664
		c0.164,0.135,0.274,0.301,0.304,0.515c-0.031,0.328-0.075,0.63,0.207,0.921c1.659,1.71,3.036,3.682,4.859,5.24
		c1.659,1.54,3.239,3.176,5.251,4.282c1.101,0.626,1.687-0.358,2.438-0.798c0.147-0.086,0.188-0.335,0.317-0.474
		c0.406-0.438,0.685-1.126,1.479-0.889c0.28,0.083,0.611,0.341,0.543,0.602c-0.17,0.656-0.739,1.055-1.343,1.184
		c-0.83,0.178-1.104,0.869-1.575,1.383c-0.408,0.444-0.145,0.781,0.218,1.086c2.169,1.164,4.13,2.577,5.522,4.661
		c-0.578,0.549-1.008,0.174-1.51-0.18c-1.562-1.103-2.969-2.398-4.475-3.561c-2.004-1.546-3.683-3.506-5.959-4.701
		c-0.216-0.003-0.401-0.088-0.572-0.213c-3.285-2.822-6.182-6.032-8.989-9.305c-1.353-1.575-2.808-3.006-4.32-4.402
		c-0.455-0.317-0.855-0.692-1.196-1.131c-0.825-1.036-1.465-2.206-3.185-2.031c-0.81,0.083-1.481-0.767-1.677-1.605
		c-0.221-0.946-0.761-1.657-1.313-2.392c-1.573-2.089-3.068-4.234-4.625-6.335c-0.476-0.642-0.585-1.433-1.031-2.07
		C12.393,59.377,13.245,59.648,14.107,59.943z"/>
	<path fill-rule="evenodd" clip-rule="evenodd" fill="#413F44" d="M40.345,94.009c-0.43,0.578-0.882,1.143-1.28,1.742
		c-0.175,0.265-0.433,0.591-0.178,0.93c0.229,0.306,0.608,0.285,0.942,0.229c1.063-0.174,2.052-0.524,2.856-1.288
		c0.278-0.266,0.579-0.515,0.899-0.726c0.28-0.186,0.658-0.392,0.886,0.011c0.199,0.351-0.038,0.689-0.382,0.808
		c-1.057,0.362-1.476,1.345-2.145,2.089c-0.632,0.703-0.509,1.313,0.144,1.879c1.692,1.469,2.953,3.369,5.014,4.495
		c2.028,1.108,4.38,0.162,4.657-2.167c0.05-0.416,0.069-0.962,0.483-0.849c0.565,0.155,1.093,0.586,1.536,1.005
		c0.387,0.364-0.078,0.564-0.327,0.766c-0.563,0.456-1.151,0.885-1.679,1.378c-0.242,0.227-0.788,0.485-0.392,0.913
		c0.295,0.317,0.723,0.137,1.022-0.175c0.166-0.173,0.322-0.354,0.483-0.532c0.613,0.728,0.573,1.648,0.54,2.475
		c-0.043,1.112,0.487,1.643,1.361,2.129c1.021,0.567,2.212,1.01,2.518,2.361c-0.747,0.669-1.449,0.292-2.107-0.137
		c-1.248-0.812-2.684-1.074-4.075-1.472c-0.234-0.067-0.514-0.118-0.688,0.064c-0.26,0.272-0.029,0.542,0.12,0.78
		c0.352,0.563,0.909,1.04,0.712,1.816c-0.874,0.536-1.114-0.332-1.548-0.721c-0.825-0.74-1.147-1.999-2.383-2.315
		c-1.16,0.578-2.261,1.388-3.683,0.854c-0.346-0.129-0.791-0.1-0.729-0.661c0.712-0.629,0.643-1.192-0.085-1.778
		c-1.574-1.267-3.138-2.549-4.54-4.013c-0.314-0.328-0.755-0.408-1.17-0.538c-0.562-0.177-1.108-0.382-1.262-1.054
		c0.021-0.383,0.268-0.616,0.543-0.83c0.479-0.196,0.433-0.779,0.786-1.069c1.24,0.37,1.366,1.689,2.1,2.497
		c0.529,0.581,0.2-0.267,0.386-0.185c0.545-0.494,0.398-0.998,0.061-1.537c-0.608-0.97-1.216-1.923-2.014-2.771
		c-1.079-1.146-1.049-1.669-0.18-2.861c0.515-0.418,1.039-0.822,1.546-1.249C39.446,94.009,39.818,93.634,40.345,94.009z"/>
	<path fill-rule="evenodd" clip-rule="evenodd" fill="#141727" d="M45.556,83.579c0.446,0.703,0.787,1.449,0.929,2.276
		c0.433,0.27,0.732,0.604,0.575,1.164c0.549,0.906,0.26,1.431-0.604,2.039c-1.046,0.736-1.841,1.835-3.213,2.07
		c-0.424,0.146-0.737-0.102-1.042-0.319c-1.279-0.915-2.367-2.056-3.563-3.07c-0.361-0.307-0.636-0.726-0.417-1.261
		c0.509-0.431,0.037-0.655-0.212-0.899c-0.664-0.648-0.986-1.461-0.957-2.354c0.077-2.425-0.686-4.78-0.544-7.209
		c0.041-0.701-0.29-1.559,0.556-1.928c0.82-0.358,1.146,0.479,1.612,0.926c0.104,0.1,0.249,0.146,0.384,0.202
		c2.342,2.6,4.58,5.282,6.496,8.22C45.577,83.47,45.557,83.531,45.556,83.579z"/>
	<path fill-rule="evenodd" clip-rule="evenodd" fill="#605D5C" d="M89.841,73.942c-0.2,0.384-0.494,0.673-0.884,0.863
		c-3.33,0.247-5.823-1.083-7.513-3.961c-0.927-1.578-2.738-2.157-4.279-1.157c-1.625,1.055-3.205,2.146-3.869,4.255
		c-0.403,1.281-0.152,2.067,0.569,3.003c1.096,1.424,1.525,2.801,0.27,4.547c-0.815,1.133-0.505,2.828-1.306,4.166
		c-0.352,0.588,0.965,1.124,0.981,1.966c-1.402,0.46-1.934-0.738-2.679-1.458c-0.643-0.621-0.587-1.39-0.111-2.117
		c0.32-0.489,0.472-0.916-0.091-1.376c-1.69-1.38-2.037-3.405-2.506-5.366c0.239-0.439,0.696-0.596,1.093-0.832
		c0.886,0.319,0.807,1.238,1.162,1.886c0.255,0.463,0.338,1.009,0.779,1.42c0.053-0.863-0.153-1.697-0.564-2.455
		c-0.756-1.392-0.743-2.679,0.398-3.895c-0.857,0.528-1.63,1.1-2.526,1.464c-0.904-0.585-0.626-1.666-1.037-2.458
		c-0.082-0.498-0.479-0.772-0.777-1.124c-0.363-0.427-0.4-0.843,0.225-1.097c0.623-0.094,1.102,0.207,1.563,0.562
		c1.25,1.435,1.251,1.436,2.603,0.016c0.333-0.35,0.663-0.798,1.136-0.843c1.124-0.105,1.892-0.834,2.771-1.385
		c1.386-0.869,1.408-1.074,0.139-2.021c-0.115-0.086-0.19-0.212-0.245-0.348c-0.063-0.297,0.049-0.539,0.232-0.76
		c0.189-0.197,0.424-0.328,0.663-0.453c0.231-0.124,0.466-0.241,0.696-0.369c0.424-0.19,0.807-0.536,1.33-0.368
		c0.227,0.093,0.52,0.193,0.597,0.392c0.923,2.389,3.406,3.104,5.11,4.63c1.731,1.551,3.718,2.919,5.777,4.099
		C89.759,73.487,89.947,73.646,89.841,73.942z"/>
	<path fill-rule="evenodd" clip-rule="evenodd" fill="#6E6D70" d="M66.554,73.365c-0.104-0.007-0.206-0.014-0.309-0.021
		c-0.559-0.589-0.556-1.42-0.904-2.106c-0.424-0.836-0.923-1.577-1.688-2.125c0.016-0.743-0.267-1.211-0.903-1.724
		c-1.376-1.107-2.981-2.078-3.529-3.95c0.68-0.422,1.07,0.115,1.487,0.476c0.542,0.469,1.024,1.003,1.57,1.577
		c-0.213-0.306-0.282-0.583-0.314-0.873c0.054-0.405-0.12-0.715-0.346-1.047c-1.289-1.904-2.263-3.992-3.435-5.967
		c-0.331-0.559-0.686-1.169-0.51-1.891c0.349-0.421,0.996-0.118,1.342-0.554c0.604-0.2,1.187-0.435,1.62-0.928
		c0.77-0.876,1.592-0.755,2.449-0.142c1.214,0.868,2.703,1.275,3.839,2.497c0.293-1.322,0.324-2.38-0.499-3.328
		c-0.357-0.41-0.598-0.92-0.359-1.478c0.287-0.67,0.909-0.375,1.409-0.426c0.64,0.116,1.102,0.504,1.506,0.982
		c0.243,0.931,0.926,1.544,1.576,2.185c1.332,1.313,2.676,2.616,3.989,3.946c0.712,0.721,1.259,0.938,2.024,0.165
		c0.271-0.274,0.645-0.431,1.049-0.193c0.174,0.301,0.036,0.559-0.126,0.799c-0.401,0.59-1.219,1.055-0.211,1.883
		c1.43,1.175,1.895,1.312,2.975,0.387c0.694-0.593,1.411-1.157,2.109-1.745c0.379-0.319,0.758-0.817,1.364-0.366
		c0.008,0.241-0.023,0.492,0.03,0.724c0.462,2.009,0.347,2.46-1.397,3.396c-1.058,0.568-0.858,0.913-0.044,1.46
		c1.902,1.278,3.645,2.801,5.758,3.757c-0.508,0.024-1.381-0.321-0.804,0.797c-0.7,0.535-1.168-0.076-1.661-0.375
		c-2.068-1.253-3.928-2.804-5.893-4.204c-0.552-0.393-1.065-0.866-1.829-0.635c-0.375,0.173-0.61,0.592-1.074,0.605
		c-0.036-1.85-0.309-2.168-1.92-2.241c-0.512-0.149-0.524-0.65-0.718-1.023c-0.257-0.499-0.592-0.769-1.157-0.43
		c-1.234,0.324-1.955,1.379-2.927,2.074c-0.901,0.645-1.712,1.411-2.578,2.104c-1.813,1.454-1.816,1.44-0.729,3.528
		c0.233,0.449,0.707,0.839,0.44,1.445c-0.604,0.563-0.171,0.78,0.334,0.91c0.53,0.136,0.698,0.397,0.441,0.895
		c-0.126,0.175-0.035,0.351-0.012,0.53c0.045,0.339,0.39,0.731-0.088,0.996c-0.417,0.23-0.686-0.1-0.968-0.344
		C66.824,73.275,66.682,73.282,66.554,73.365z"/>
	<path fill-rule="evenodd" clip-rule="evenodd" fill="#51504D" d="M77.89,64.319c0.243-1.132,0.812-0.632,1.334-0.256
		c2.26,1.627,4.506,3.272,6.779,4.881c0.373,0.264,0.708,0.695,1.269,0.589c1.029,0.584,1.991,1.262,2.876,2.048
		c0.497,0.435,1.042,0.838,1.421,1.374c0.411,0.583,0.791,1.265-0.31,1.603c-0.094-0.089-0.188-0.179-0.281-0.268
		c-0.242-0.563-0.731-0.319-1.137-0.348c-2.432-1.172-4.424-2.997-6.625-4.508c-1.131-0.777-1.895-2.074-3.417-2.309
		c-0.24-0.037-0.647-0.367-0.626-0.51C79.34,65.492,78.36,65.054,77.89,64.319z"/>
	<path fill-rule="evenodd" clip-rule="evenodd" fill="#657278" d="M91.259,74.558c0.609-0.711,0.391-1.345-0.24-1.87
		c-0.379-0.315-0.739-0.612-0.872-1.106c0.957,0.258,1.427,1.115,2.102,1.718c0.329,0.294,0.66,0.683,0.372,1.138
		C92.26,75.007,91.751,74.938,91.259,74.558z"/>
	<path fill-rule="evenodd" clip-rule="evenodd" fill="#4C4B4C" d="M21.432,77.719c-0.238-0.361-0.451-0.742-0.718-1.08
		c-0.445-0.563-0.826-1.337-1.416-1.582c-0.617-0.256-1.008,0.68-1.576,0.993c-1.237,0.684-3.052-0.218-3.297-1.623
		c-0.255-1.458-1.384-2.381-2.578-2.887c-2.638-1.116-3.788-3.04-3.819-5.788c0-0.097-0.013-0.192-0.02-0.289
		c0.016-0.098,0.033-0.195,0.049-0.293c0.625-0.879,1.803-1.344,1.933-2.592c0.331-1.489,1.396-1.381,2.516-1.152
		c1.214,3.571,3.759,6.338,5.731,9.448c1.24,1.955,3.052,3.464,4.287,5.425c0.528,0.552,0.94,1.179,1.229,1.886
		c0.164,0.621,0.948,0.998,0.708,1.779c-0.482,0.385-0.95-0.077-1.43-0.025C22.028,79.538,21.837,78.551,21.432,77.719z"/>
	<path fill-rule="evenodd" clip-rule="evenodd" fill="#464342" d="M36.851,105.676c-1.636-1.753-3.19-3.602-5.457-4.606
		c-0.064-0.02-0.128-0.039-0.193-0.058c-1.397-1.117-2.168-2.854-3.75-3.789c-0.104-0.091-0.18-0.199-0.232-0.325
		c0.139-0.689-0.355-1.049-0.747-1.476c-2.352-2.559-4.441-5.341-6.69-7.977c-2.63-3.082-5.063-6.341-7.913-9.233
		c-0.989-1.005-1.535-2.273-2.203-3.51c2.199,1.882,3.627,4.48,5.942,6.221c0.514,0.055,0.789,0.438,1.09,0.787
		c0.506,0.84,1.292,1.43,1.929,2.153c0.091,0.099,0.17,0.206,0.243,0.317c1.184,1.442,2.377,2.876,3.605,4.28
		c0.593,0.677,1.394,0.785,2.203,0.9c0.489,0.161,0.835,0.504,1.146,0.893c0.23,0.382,0.643,0.58,0.928,0.907
		c0.192,0.222,0.497,0.559,0.353,0.746c-1.325,1.724,0.682,2.26,1.208,3.683c-0.092-0.88-0.687-1.673,0.18-1.843
		c0.858-0.167,1.354,0.548,1.503,1.404c-0.553,1.752,0.56,3.622,2.972,4.808c0.127,0.059,0.234,0.142,0.327,0.245
		c1.379,2.04,3.429,3.401,5.194,5.042c1.344,1.248,2.567,2.647,4.135,3.652c0.267,0.171,0.544,0.44,0.35,0.85
		c1.237,0.268,2.521,0.937,3.546-0.477c0.198-0.272,0.5-0.511,0.828-0.1c0.409,1.241-0.078,2.044-1.763,2.904
		c-0.559-0.007-1.146-0.086-1.438,0.573c-0.1,0.001-0.2,0.002-0.3,0.004c0.073-0.866-0.552-1.257-1.118-1.728
		c-1.439-1.195-2.953-2.313-4.14-3.788C38.244,106.37,37.457,106.13,36.851,105.676z"/>
	<path fill-rule="evenodd" clip-rule="evenodd" fill="#171A26" d="M25.506,90.526c-0.204-0.375-0.49-0.67-0.862-0.881
		c-2.701-1.109-4.26-3.485-6.123-5.523l0.001,0.001c-0.561-0.881-1.478-1.448-2.042-2.325c-0.379-0.204-0.671-0.495-0.873-0.875
		c-0.001-0.712-0.724-0.987-0.971-1.517c0.047-0.09,0.058-0.146,0.091-0.168c2.431-1.586,2.472-1.619,4.347,0.654
		c2.201,2.668,4.318,5.405,6.482,8.104c0.235,0.295,0.543,0.531,0.818,0.795c0.253,0.053,0.421,0.203,0.511,0.444
		C26.887,90.159,26.645,90.822,25.506,90.526z"/>
	<path fill-rule="evenodd" clip-rule="evenodd" fill="#6F717A" d="M56.706,21.255c0.357-0.723,0.229-1.511,0.289-2.271
		c0.161-2.053,0.384-2.28,2.561-2.428c0.002,0.102,0.004,0.203,0.007,0.305c-0.069,0.129-0.159,0.256-0.292,0.305
		c-1.032,0.38-0.845,0.811-0.062,1.273c1.015,0.964,1.761,2.178,3.4,2.425c0.885,0.134,1.321,1.161,1.226,2.184
		c-0.591,0.94-0.549,1.899-0.124,2.891c0.382,0.888,0.671,1.812,1.083,2.691c1.017,2.173,0.176,4.441-1.86,5.65
		c-1.278,0.76-2.033,2.16-3.262,3.041c-0.972,0.696-1.94,1.282-3.179,1.199c-1.214-0.081-1.724-0.75-1.502-1.945
		c0.045-0.237,0.145-0.462,0.201-0.697c0.168-0.696,0.152-1.369-0.446-1.863c-0.567-0.469-1.097-0.079-1.614,0.162
		c-2.04,0.951-2.207,1.705-0.768,3.494c0.518,0.644,1.094,1.242,1.747,1.737c1.62,1.227,2.949,2.75,4.381,4.168
		c0.776,0.596,1.706,1.044,2.018,2.089c-0.203,0.343-0.545,0.438-0.902,0.505c-0.358,0.033-0.696-0.061-1.03-0.179
		c-0.718-0.326-1.207-0.903-1.663-1.517c-1.297-1.451-2.53-2.967-4.213-4.013c-1.009-0.654-1.864-1.461-2.474-2.51
		c-0.224-1.068-0.693-1.82-1.815-2.309c-1.012-0.44-2.092-0.927-2.88-1.799c-0.126-0.279-0.062-0.546,0.047-0.811
		c1.697-1.907,3.868-3.267,5.762-4.949c0.573-0.508,1.247-0.895,1.804-1.427c0.141-0.144,0.292-0.274,0.447-0.401
		c0.472-0.361,0.973-0.686,1.402-1.103c0.103-0.091,0.214-0.168,0.331-0.237c1.169-0.645,0.79-1.924,1.173-2.889
		C56.595,21.786,56.421,21.458,56.706,21.255z"/>
	<path fill-rule="evenodd" clip-rule="evenodd" fill="#1B232A" d="M109.285,38.142c-0.431-0.886-1.258-1.418-1.908-2.104
		c-0.671-0.708-1.312-1.429-1.821-2.263c-0.529,0.182-0.796-0.208-1.073-0.522c-1.811-2.048-3.636-4.081-5.532-6.05
		c-0.692-1.377-2.389-1.82-3.028-3.247c-0.308-0.864-0.571-1.744-1.135-2.497c-0.663-0.887-1.398-1.604-2.637-1.39
		c-0.479-0.121-0.713-0.462-0.816-0.917c-0.616-0.705-0.606-1.153,0.324-1.693c1.252-0.726,2.625-1.298,3.658-2.372
		c0.945-0.101,1.343,0.222,0.917,1.183c-0.39,0.964-0.901,1.915-0.302,2.979c0.971,1.155,1.941,2.31,2.912,3.465
		c0.61,0.149,1.055,0.424,0.884,1.166c0.156,0.426,0.515,0.646,0.877,0.864c0.481,0.024,0.796,0.342,1.076,0.667
		c1.385,1.607,2.658,3.306,4.01,4.941c0.181,0.22,0.326,0.485,0.162,0.795c0.149,0.847,0.877,1.23,1.414,1.767
		c1.684,0.956,2.61,2.583,3.593,4.139c0.407,0.646-0.109,1.053-0.669,1.33C109.876,38.349,109.511,38.509,109.285,38.142z"/>
	<path fill-rule="evenodd" clip-rule="evenodd" fill="#D9E2F1" d="M88.414,22.646c-2.225-3.62-5.093-6.79-7.276-10.438
		c0.199-0.181,0.399-0.36,0.599-0.542c1.775,1.493,2.833,3.568,4.31,5.304c0.724,1.127,1.805,1.995,2.362,3.244
		c0.541,0.912,0.983,1.888,2.369,1.734c0.477-0.052,0.74,0.558,1.042,0.93c0.738,1.449,2.055,2.515,2.688,4.035
		c0.089,0.263,0.152,0.53,0.152,0.81c-0.177,0.683-0.53,1.263-1.038,1.751c-0.623,0.079-0.976-0.339-1.286-0.757
		c-1.193-1.61-2.259-3.314-3.522-4.873C88.519,23.482,88.571,23.037,88.414,22.646z"/>
	<path fill-rule="evenodd" clip-rule="evenodd" fill="#4A5459" d="M94.216,27.066c-0.896-1.345-1.792-2.69-2.688-4.035
		c-0.171-1.354-1.208-2.062-2.149-2.816c-0.453-0.363-0.893,0.099-1.332,0.218c-0.453-1.302-1.644-2.079-2.305-3.232
		c-0.156-0.257,0.018-0.491,0.048-0.735c0.101-0.241,0.172-0.494,0.284-0.732c0.253-0.452,0.566-0.469,0.889-0.088
		c0.275,0.323,0.49,0.702,0.888,0.903l-0.006-0.004c0.721,1.121,1.717,1.994,2.649,2.924c0.076,0.005,0.152,0.015,0.228,0.029
		c1.556,0.618,2.262,2.054,3.173,3.293c0.365,0.84,0.349,0.799-0.471,1.13c-0.199,0.081,0.209,0.257,0.271,0.433
		c0.556,0.648,1.221,1.215,1.527,2.041c0.138,0.37,0.19,0.771-0.209,1.018C94.625,27.65,94.409,27.351,94.216,27.066z"/>
	<path fill-rule="evenodd" clip-rule="evenodd" fill="#D6E1E5" d="M93.626,22.971c-0.969-1.158-1.938-2.316-2.905-3.474
		c0.204-0.115,0.409-0.23,0.613-0.346c0.268,0.22,0.535,0.439,0.802,0.659c2.109,0.617,3.047,2.405,4.088,4.091
		c0.893,1.153,2.292,1.815,3.027,3.122c-0.902,0.129-1.745-0.688-2.673-0.17c-0.115-0.074-0.2-0.175-0.263-0.296
		C95.618,25.212,94.547,24.148,93.626,22.971z"/>
	<path fill-rule="evenodd" clip-rule="evenodd" fill="#637070" d="M87.85,16.548c-0.557,0.128-0.825-0.133-1.022-0.642
		c-0.137-0.354-0.383-0.36-0.471,0.082c-0.545,0.305-0.711-0.263-0.981-0.376c0.208,0.274,0.64,0.513,0.691,1.013
		c-0.108,0.191-0.217,0.384-0.325,0.575c-1.386-1.808-2.81-3.587-4.005-5.533c1.174-0.012,2.074,0.469,2.848,1.365
		C85.626,14.243,87.021,15.132,87.85,16.548z"/>
	<path fill-rule="evenodd" clip-rule="evenodd" fill="#B5B8BC" d="M90.419,9.313c0.578-0.356,0.872,0.115,1.183,0.437
		c0.952,0.986,1.819,2.036,2.317,3.34c-0.806,0.081-1.361-0.219-1.748-0.966C91.664,11.144,90.795,10.382,90.419,9.313z"/>
	<path fill-rule="evenodd" clip-rule="evenodd" fill="#909A9C" d="M85.231,4.142c0.113-0.341,0.422-0.754,0.681-0.524
		c0.829,0.737,2.292,0.998,2.113,2.567c-0.521-0.547-1.056-1.08-1.557-1.645C86.122,4.151,85.757,3.925,85.231,4.142z"/>
	<path fill-rule="evenodd" clip-rule="evenodd" fill="#637070" d="M90.493,19.468c-1.324-0.575-2.104-1.644-2.649-2.924
		C88.821,17.434,89.906,18.225,90.493,19.468z"/>
	<path fill-rule="evenodd" clip-rule="evenodd" fill="#D3DDF5" d="M68.526,22.465c-0.13-0.231-0.26-0.463-0.412-0.735
		c0.597-0.146,0.858,0.494,1.35,0.43c2.351,2.306,4.701,4.61,7.052,6.915c0.734-0.078,1.135,0.471,1.498,0.925
		c0.798,0.998,1.499,0.979,2.249-0.013c0.111-0.148,0.3-0.228,0.472-0.311c0.883-0.426,1.563-0.096,2.198,0.544
		c1.461,1.472,2.942,2.925,4.395,4.404c1.196,1.218,1.199,1.353,0.164,2.767c-0.216,0.295-0.386,0.552-0.158,0.903
		c1.247,1.527,2.555,2.993,3.958,4.377c0.488,0.481,1.151,0.983,0.615,1.842c-0.193,0.004-0.388,0.009-0.582,0.013
		c-0.116-0.086-0.232-0.173-0.349-0.259c-2.335-1.65-4.188-3.804-6.096-5.896c-0.812-0.892-1.542-1.855-2.689-2.356
		c-2.501-1.83-4.468-4.228-6.713-6.331c-2.182-2.044-4.17-4.29-6.442-6.243C68.74,23.188,68.461,22.912,68.526,22.465z"/>
	<path fill-rule="evenodd" clip-rule="evenodd" fill="#111314" d="M80.812,29.984c-1.69,1.558-1.689,1.556-3.439-0.142
		c-0.274-0.267-0.57-0.513-0.857-0.769c-0.316-0.84,0.404-1.08,0.869-1.416c0.996-0.724,2.063-1.353,2.887-2.294l-0.007,0.004
		c0.765-0.743,1.717-1.214,2.594-1.792c0.29-0.196,0.58-0.392,0.87-0.587c0.599-0.008,0.817-0.528,1.17-0.867
		c1.407-1.315,1.405-1.313,2.597,0.376c0.243,0.345,0.621,0.609,0.62,1.092c0,0.141-0.025,0.278-0.066,0.412
		c-0.052,0.126-0.124,0.242-0.214,0.345c-0.568,0.433-1.073,0.937-1.568,1.451c-0.232,0.229-0.477,0.444-0.738,0.639
		c-0.85,0.508-1.43,1.315-2.16,1.955c-0.292,0.247-0.616,0.454-0.896,0.718C82.046,29.645,81.255,29.482,80.812,29.984z"/>
	<path fill-rule="evenodd" clip-rule="evenodd" fill="#5F6A76" d="M87.791,24.138c-0.036-0.094-0.03-0.186,0.017-0.274
		c0.222-0.254,0.263-0.626,0.548-0.839c0.019-0.126,0.038-0.252,0.058-0.378c1.91,2.128,3.156,4.761,5.179,6.803
		c0.562,0.158,0.849,0.628,1.145,1.061c1.802,2.634,3.687,5.209,5.535,7.81c0.541,0.847,1.173,1.654,1.197,2.728
		c1.252,2.241,2.504,4.481,3.756,6.723c0.585,1.55,1.169,3.1,1.754,4.649c0.091,0.273,0.198,0.542,0.269,0.821
		c0.178,0.699-0.119,1.237-0.672,1.613c-0.582,0.396-1.097,0.105-1.57-0.28c-1.266-1.03-2.534-2.059-3.802-3.088
		c-1.012-0.645-1.229-1.396-0.306-2.298l-0.001,0.001c0.403-1.46,0.922-2.901,0.729-4.458c-0.388-1.695-1.291-3.134-2.384-4.43
		c-2.904-3.444-5.449-7.125-7.726-11.015C90.449,27.465,89.283,25.672,87.791,24.138z"/>
	<path fill-rule="evenodd" clip-rule="evenodd" fill="#3A4345" d="M88.355,23.024c0.043,0.426-0.16,0.693-0.548,0.839
		c0.022-0.904-0.604-1.475-1.107-2.095c-0.8-0.986-1.135,0.565-1.803,0.354c0.312-0.489,0.333-0.979,0-1.467
		c0.281-0.826-1.001-1.19-0.604-2.05l-0.002,0.004c0.865-0.26,0.996,0.579,1.335,0.982C86.565,20.709,87.265,22.021,88.355,23.024z"
		/>
	<path fill-rule="evenodd" clip-rule="evenodd" fill="#3F4950" d="M101.208,20.641c0.029,0.934,1.112,1.299,1.213,2.305
		c-0.669-0.06-1.13-0.848-1.844-0.507c-0.508,0.348-0.878,0.214-1.131-0.325c-2.076-1.655-2.076-1.655-0.86-4.662
		C99.46,18.515,100.334,19.577,101.208,20.641z"/>
	<path fill-rule="evenodd" clip-rule="evenodd" fill="#CEDDF6" d="M95.932,19.247c-1.167-1.211-1.132-1.564,0.302-2.979
		c0.849,0.149,1.236,0.804,1.61,1.472C97.113,18.124,96.854,19.105,95.932,19.247z"/>
	<path fill-rule="evenodd" clip-rule="evenodd" fill="#B0C1DA" d="M99.446,22.113c0.377,0.108,0.754,0.217,1.131,0.325
		c0.181,0.263,0.865,0.11,0.697,0.482c-0.261,0.581-0.782,1.042-1.547,0.957c-0.295-0.389-0.589-0.777-0.884-1.166
		C98.867,22.334,99.051,22.117,99.446,22.113z"/>
	<path fill-rule="evenodd" clip-rule="evenodd" fill="#808D8B" d="M99.089,15.446c-0.247,0.003-0.454,0.077-0.565,0.319
		c-1.14-1.389-2.279-2.778-3.418-4.167c0.08-0.174,0.161-0.348,0.242-0.521C96.595,12.533,97.842,13.99,99.089,15.446z"/>
	<path fill-rule="evenodd" clip-rule="evenodd" fill="#999DA8" d="M82.299,35.778c0.39,0.021,0.77,0.061,1.062,0.372
		c2.537,2.707,5.076,5.411,7.615,8.116c-0.693,0.133-0.167,0.856-0.551,1.139l-0.005,0.003c-0.669,0.594-1.619,0.946-1.74,2.015
		c-0.636-0.353-0.996,0.19-1.393,0.477c-0.938,0.678-1.775,1.51-2.76,2.104c-1.336,0.808-1.294,1.845-0.624,2.945
		c0.416,0.685,0.459,1.346,0.404,2.073c-1.029-0.447-1.031-1.539-1.284-2.356c-0.554-1.792-1.493-3.349-2.553-4.834
		c-1.515-2.122-2.748-4.427-4.318-6.51c-0.285-0.378-0.577-0.791-0.421-1.326c1.668-0.451,2.912-1.608,4.279-2.564
		c0.762-0.532,0.707-1.04,0.084-1.646c-0.969-0.943-1.86-1.975-3.11-2.576c-0.055-0.237,0.062-0.393,0.245-0.517
		c0.717-0.3,1.303-0.077,1.807,0.461c0.654,0.696,1.392,1.308,2.052,1.997C81.424,35.503,81.748,35.854,82.299,35.778z"/>
	<path fill-rule="evenodd" clip-rule="evenodd" fill="#707280" d="M88.68,47.423c-0.122-1.279,0.818-1.639,1.74-2.015
		c-0.42,0.862-2.002,1.204-1.177,2.625C89.056,47.829,88.867,47.626,88.68,47.423z"/>
	<path fill-rule="evenodd" clip-rule="evenodd" fill="#727879" d="M86.336,59.708c0.858,0.767,0.878,1.878,1.18,2.873
		c-0.876-0.646-1.253-1.521-1.189-2.598c-0.076-0.063-0.1-0.126-0.071-0.187C86.282,59.737,86.309,59.708,86.336,59.708z"/>
	<path fill-rule="evenodd" clip-rule="evenodd" fill="#656C76" d="M86.336,59.708c0,0.092-0.003,0.184-0.01,0.275
		c-0.886-0.535-1.049-1.424-1.146-2.345C86.116,58.021,85.868,59.064,86.336,59.708z"/>
	<path fill-rule="evenodd" clip-rule="evenodd" fill="#BFC6EC" d="M101.469,41.047c-0.496-0.855-0.991-1.71-1.487-2.565
		c0.389-0.683,0.909-1.115,1.757-0.934c0.824,1.405,1.647,2.813,2.474,4.217c0.145,0.247,0.305,0.59,0.64,0.409
		c0.305-0.164,0.191-0.498,0.055-0.768c-0.327-0.645-0.595-1.328-0.995-1.924c-0.81-1.205-0.571-2.045,0.748-2.607
		c-1.008,1.606-0.735,2.717,1.161,4.731c-0.25,0.485-0.588,0.908-1.085,1.133c-0.656,0.296-1.254,0.424-1.646-0.482
		c-0.336-0.776-0.849-1.477-1.293-2.227C101.336,40.372,101.563,40.747,101.469,41.047z"/>
	<path fill-rule="evenodd" clip-rule="evenodd" fill="#B9C9ED" d="M105.853,31.146c-1.749-2.135-3.499-4.269-5.248-6.403
		c0.86-1.694,1.563-1.802,2.643-0.354c1.289,1.73,2.559,3.477,3.789,5.25c0.302,0.434,1.024,0.863,0.627,1.463
		C107.185,31.824,106.47,31.405,105.853,31.146z"/>
	<path fill-rule="evenodd" clip-rule="evenodd" fill="#B6C4ED" d="M110.19,38.381c0.648-0.498,0.701-0.981,0.135-1.643
		c-1.063-1.238-2.044-2.547-3.059-3.826c0.004-1.124,0.739-1.72,1.495-0.949c1.606,1.637,3.24,3.362,3.531,5.839
		C111.35,37.115,110.986,38.534,110.19,38.381z"/>
	<path fill-rule="evenodd" clip-rule="evenodd" fill="#BCCBCE" d="M115.437,42.254c-0.344-0.232-0.487-0.284-0.563-0.388
		c-0.446-0.617-1.043-1.165-1.038-2.009c0.001-0.06,0.296-0.199,0.335-0.165C114.874,40.298,115.374,41.016,115.437,42.254z"/>
	<path fill-rule="evenodd" clip-rule="evenodd" fill="#C4D2D2" d="M118.045,45.945c-0.319,0.047-0.645,0.11-0.841-0.254
		c0.766-0.389,0.474-1.095,0.51-1.702C118.422,44.54,117.957,45.289,118.045,45.945z"/>
	<path fill-rule="evenodd" clip-rule="evenodd" fill="#BFCAF8" d="M97.108,48.323c-1.039-0.221-1.484-1.261-2.372-1.717
		c-0.606-0.312-1.118-0.808-1.673-1.222c1.828-2.333,2.766-2.416,4.833-0.422c0.312,0.301,0.59,0.632,0.856,0.973
		c0.198,0.28,0.404,0.557,0.407,0.923C99.065,48.172,97.734,47.755,97.108,48.323z"/>
	<path fill-rule="evenodd" clip-rule="evenodd" fill="#828899" d="M99.16,46.858c-0.273-0.132-0.516-0.289-0.514-0.641
		c0.274-0.326,0.699-0.34,1.049-0.51c0.924-0.125,1.321-1.287,2.353-1.198c0.034,1.662,0.266,3.373-1.151,4.679
		c-0.248-0.517-0.538-1.019-0.731-1.556C99.983,47.13,99.791,46.735,99.16,46.858z"/>
	<path fill-rule="evenodd" clip-rule="evenodd" fill="#828899" d="M100.897,49.188c-0.556,0.854-0.078,1.569,0.306,2.298
		C99.431,50.692,99.397,50.439,100.897,49.188z"/>
	<path fill-rule="evenodd" clip-rule="evenodd" fill="#191D20" d="M99.724,46.005c-0.284,0.449-0.723,0.117-1.077,0.213
		c-0.561-0.503-1.172-0.96-1.669-1.519c-0.998-1.122-1.906-1.016-2.839,0.055c-0.282,0.323-0.578,0.658-1.075,0.631
		c-0.285-0.424-0.599-0.811-1.157-0.872c0.117-0.671-0.352-1.028-0.745-1.445c-1.437-1.524-2.858-3.063-4.286-4.597
		c0.238-1.356,1.164-2.183,2.234-2.899c0.219,0.054,0.4,0.171,0.56,0.326c1.814,2.158,3.828,4.121,5.94,5.986
		C96.979,43.259,98.672,44.313,99.724,46.005z"/>
	<path fill-rule="evenodd" clip-rule="evenodd" fill="#FBFDFD" d="M101.738,37.548c-0.586,0.311-1.171,0.622-1.757,0.934
		c-2.25-2.926-4.424-5.905-6.389-9.032c-0.071-0.785,0.486-1.225,0.943-1.719c0.733-0.18,0.935-1.45,1.989-0.97
		c1.046-1.34,1.857-0.242,2.726,0.263c2.102,2.25,4.203,4.501,6.305,6.751c0.003,0.625-0.73,0.665-0.91,1.145
		c-0.599,0.445-1.072,1.032-1.677,1.47C102.559,36.775,102.148,37.161,101.738,37.548z"/>
	<path fill-rule="evenodd" clip-rule="evenodd" fill="#BFC6EC" d="M102.969,36.389c0.418-0.651,0.877-1.256,1.678-1.47
		c0.098,0.084,0.196,0.167,0.295,0.25C104.032,35.169,103.824,36.304,102.969,36.389z"/>
	<path fill-rule="evenodd" clip-rule="evenodd" fill="#6C6968" d="M39.488,38.148c1.367-0.597,2.009-2.16,3.481-2.617
		c0.458,0.383,0.727,0.911,1.075,1.379c0.063,0.118,0.11,0.242,0.149,0.369c0.326,1.327,1.271,2.309,1.926,3.452
		c0.16,0.322,0.278,0.66,0.372,1.007c0.075,0.282,0.021,0.595,0.113,0.857c0.564,1.619,0.11,2.888-1.18,3.979
		c-1.342,1.136-2.494,2.497-4.387,2.827c-0.802,0.14-1.366,0.874-2.028,1.35c-0.912,0.654-1.859,1.043-2.961,0.508
		c-0.671-0.327-1.443,0.063-2.101-0.32c-0.262-0.11-0.528-0.211-0.785-0.333c-0.77-0.364-1.262-0.292-1.062,0.72
		c0.107,0.544-0.002,1.112-0.476,1.224c-0.811,0.19-0.472-0.617-0.639-0.991c-0.02-0.044-0.018-0.113-0.05-0.133
		c-1.283-0.814-2.486-1.773-3.974-2.225c0.072,0.276-0.071,0.357-0.314,0.348c-0.116-0.067-0.213-0.158-0.291-0.267
		c-0.661-0.992,0.505-1.015,0.799-1.508c0.053-0.118,0.127-0.213,0.222-0.295c1.124-0.725,2.118-1.612,3.173-2.479
		c-0.647,0.14-1.264,0.708-1.914,0.088c0.185-1.185,1.391-0.985,2.052-1.524c1.181-1.445,3.044-1.778,4.523-2.75
		C36.613,39.895,38.063,39.036,39.488,38.148z"/>
	<path fill-rule="evenodd" clip-rule="evenodd" fill="#0D0D0D" d="M41.737,61.637c-1.277-0.482-2.011-1.61-2.884-2.539
		c-0.552-0.586,0.232-0.926,0.592-1.221c1.749-1.438,3.534-2.832,5.296-4.253c0.219-0.178,0.378-0.429,0.564-0.646
		c1.202-1.73,2.988-2.815,4.565-4.133c0.164-0.105-0.032,0.047,0.131-0.06c2.098-1.363,2.127-1.383,3.564,0.789
		c0.481,0.728,1.173,1.425,0.986,2.444c-0.561,1.128-1.626,1.729-2.566,2.468c-0.293,0.229-0.918,0.303-0.544,0.934
		c0.615,0.938,1.751,1.451,2.107,2.596c-0.009,0.14-0.07,0.25-0.191,0.324c-1.147,0.108-1.535-0.94-2.249-1.489
		c-0.465-0.358-0.816-1.007-1.548-0.491c-0.218,0.125-0.433,0.255-0.633,0.407c-0.546,0.432-1.133,0.808-1.681,1.236
		c-0.587,1.029-2.003,0.911-2.618,1.901C43.74,60.605,43.14,61.793,41.737,61.637z"/>
	<path fill-rule="evenodd" clip-rule="evenodd" fill="#090B11" d="M33.629,63.769c0.326,1.046,1.131,1.77,1.756,2.614
		c0.243,0.613,0.196,1.311-0.026,1.828c-0.405,0.942-0.336,1.682,0.348,2.409c0.088,0.095,0.188,0.317,0.143,0.377
		c-1.383,1.839,0.383,1.683,1.298,2.063c0.719,0.693,1.264,1.515,1.743,2.383c-0.695,0.545-0.591-0.28-0.779-0.5
		c-0.251-0.292-0.397-0.741-0.864-0.631c-0.511,0.121-0.382,0.612-0.382,0.978c-0.005,2.818,0.648,5.586,0.638,8.411
		c-0.003,0.627,0.221,1.334,0.957,1.682c0.604,0.284,0.69,0.833,0.557,1.447c-0.281-0.121-0.539-0.232-0.798-0.344
		c-0.361-0.299-0.722-0.599-1.083-0.898c-1.567-1.15-3.117-2.317-4.048-4.098c-0.091-0.097-0.182-0.194-0.272-0.292
		c-0.577-0.595-1.598-0.735-1.776-1.737c-0.949-1.876-0.901-4.02-1.609-5.975c-0.392-1.08-0.235-2.236,0.488-3.313
		c0.599-0.891,1.061-1.878,0.799-3.105C30.473,65.932,32.436,63.846,33.629,63.769z"/>
	<path fill-rule="evenodd" clip-rule="evenodd" fill="#4D4C4F" d="M29.875,89.938c0.084-0.946-0.331-1.664-0.993-2.301
		c-0.937-0.898-1.855-1.816-2.755-2.752c-1.221-1.27-1.169-1.605,0.284-2.608c0.133-0.093,0.172-0.323,0.254-0.489
		c-0.2-0.587,0.227-0.907,0.58-1.19c0.845-0.678,0.607-1.276-0.034-1.908c-0.443-0.436-0.903-0.858-1.303-1.334
		c-0.324-0.386-0.803-0.748-0.44-1.365c1.499,1.332,3.081,2.56,4.221,4.273c1.508,2.269,3.852,3.793,5.531,5.905
		c1.108,1.394,2.437,2.537,3.677,3.783c-0.819-0.118-1.275-1.007-2.184-0.994c-0.341,0.004-0.658-0.131-0.88,0.229
		c-0.177,0.287-0.118,0.57,0.098,0.792c0.764,0.786,0.247,1.386-0.266,1.992c-0.173,0.643-0.986,1.139-0.441,1.942
		c0.931,0.896,1.358,2.04,1.625,3.264c0.636,1.417,1.575,2.658,2.332,4.006c0.284,0.503,0.685,0.952,0.582,1.592
		c0.057,0.182,0.089,0.376,0.176,0.541c0.13,0.245,0.416,0.506,0.042,0.723c-0.403,0.233-0.568-0.106-0.757-0.407
		c-0.676-1.077-1.377-2.138-2.068-3.205c-0.063-0.025-0.127-0.051-0.191-0.075c-0.837-0.637-1.147-1.673-1.838-2.422
		c-1.38-2.214-2.842-4.368-4.528-6.368C30.222,91.115,29.646,90.686,29.875,89.938z"/>
	<path fill-rule="evenodd" clip-rule="evenodd" fill="#111114" d="M63.632,68.946c-0.394,0.399-0.788,0.799-1.182,1.198
		c-0.507,0.124-0.905,0.402-1.195,0.836c-0.98,0.915-1.756,2.031-2.856,2.831c-0.595,0.433-0.563,1.021-0.326,1.687
		c0.203,0.569,0.132,0.595-0.546,0.767c-0.785-0.767-1.569-1.534-2.354-2.302c-1.585-2.023-3.113-4.087-4.396-6.322
		c-0.309-0.98-0.487-1.744,0.841-2.322c0.727-0.315,1.523-0.991,2.043-1.77c0.416-0.814,1.458-1.333,1.519-2.206
		c0.062-0.88-1.059-1.277-1.537-1.985c-0.238-0.353-0.572-0.694-0.186-1.149l0.031-0.025c1.236,0.084,1.657,1.262,2.508,1.863
		c0.831,0.772,1.473,1.76,2.559,2.243c0.418,0.27,0.861,0.523,0.762,1.139c1.272,1.486,2.534,2.979,4.28,3.963
		C64.408,67.849,64.691,68.403,63.632,68.946z"/>
	<path fill-rule="evenodd" clip-rule="evenodd" fill="#64646A" d="M43.844,36.964c-0.579-0.301-0.93-0.743-0.874-1.433
		c0.503-0.37,0.779-0.813,0.439-1.437c-0.143-0.261-0.628-0.516-0.244-0.807c0.534-0.404,0.626,0.328,0.941,0.514
		c0.511,0.59,1.025,1.345,1.484-0.04c1.592,0.313,2.638,1.733,4.297,2.04c0.664,0.123,0.32,1.369,0.647,2.041
		c-0.896,0.149-1.57-0.708-2.592-0.497c1.649,3.343,3.688,6.429,5.743,9.505c0.549,0.55,0.917,1.221,1.298,1.889
		c0.829,1.453,1.062,1.499,2.394,0.524c0.193-0.142,0.389-0.279,0.603-0.39c1.117-0.769,2.24-1.285,3.364,0.002
		c-0.91-1.056-2.484-1.519-2.653-3.178c0.292,0.097,0.585,0.192,0.878,0.289c0.943-0.008,1.374,0.778,1.984,1.285
		c1.161,0.963,1.941,2.35,3.361,3.019c0.247-0.021,0.491-0.064,0.736-0.087c0.244-0.001,0.489,0.005,0.733-0.038
		c0.128-0.006,0.252,0.014,0.374,0.056c0.468,0.309,0.715,0.731,0.668,1.304c-0.033,0.185-0.038,0.414-0.322,0.339
		c-0.25-0.066-0.493-0.436-0.744-0.055c-0.172,0.262-0.148,0.646,0.07,0.814c1.297,1.004,1.104,2.416,1.131,3.787
		c0.004,0.241,0.114,0.496-0.107,0.66c-0.285,0.211-0.635,0.061-0.785-0.143c-0.946-1.275-2.558-1.516-3.718-2.447
		c-0.756-0.607-1.408-0.95-2.137,0.171c-0.326,0.502-0.96,1.188-1.834,0.653c-1.37-0.355-1.534-1.768-2.309-2.645
		c-0.267-0.302-0.41-0.858-0.883-0.21c-0.833,0.069-0.967-0.661-1.314-1.146c-3.013-4.488-6.02-8.98-8.838-13.595
		c-0.148-0.298-0.369-0.551-0.541-0.832C44.608,36.075,44.229,36.473,43.844,36.964z"/>
	<path fill-rule="evenodd" clip-rule="evenodd" fill="#B5BBBC" d="M57.848,55.553c-0.589-1.114-1.172-2.233-2.037-3.171
		c0.058-0.372-0.558-0.867,0.095-1.098c0.432-0.152,0.625,0.347,0.834,0.659c0.75,1.119,1.495,2.241,2.241,3.362
		C58.923,56.856,58.299,55.807,57.848,55.553z"/>
	<path fill-rule="evenodd" clip-rule="evenodd" fill="#3C3A3C" d="M27.834,90.528c-0.962,0.282-0.294,0.65-0.041,0.973
		c0.79,1.005,1.593,2.001,2.391,3c0.27,0.338,0.364,0.669-0.035,0.983c-0.235,0.063-0.323-0.036-0.292-0.265
		c-0.316-0.602-0.76-1.061-1.398-1.378c-0.36,0.729,0.25,1.038,0.429,1.492c0.109,0.277,0.197,0.615-0.066,0.802
		c-0.322,0.228-0.492-0.1-0.671-0.324c-0.861-1.078-1.729-2.15-2.563-3.186c0.312-0.641,1.118,0.149,1.238-0.535
		c0.114-0.655-0.559-0.806-0.961-1.119c-0.146-0.113-0.24-0.295-0.358-0.445c0.837-0.121,1.191-0.627,1.154-1.445
		c0.663-0.22,1.156-1.646,2.042-0.287C27.744,89.038,27.42,89.599,27.834,90.528z"/>
	<path fill-rule="evenodd" clip-rule="evenodd" fill="#0F0E0D" d="M66.298,50.329c-0.188,0.344-0.416,0.061-0.627,0.038
		c-1.147-0.481-1.576-1.631-2.262-2.521c-0.626-0.812-1.28-1.395-2.35-1.359c-0.337-0.164-0.575-0.403-0.604-0.799
		c-0.689-0.577-1.38-1.154-2.068-1.731c-0.88-0.543-0.773-1.153-0.06-1.717c0.684-0.539,1.322-1.126,1.976-1.698
		c2.465-2.05,5.148-3.829,7.449-6.08c0.397-0.362,0.778-0.747,1.272-0.985c0.248-0.111,0.492-0.23,0.734-0.355
		c0.27-0.12,0.555-0.197,0.835-0.076c0.899,0.389,2.01,2.84,1.789,3.923c-0.038,0.397-0.546,0.223-0.653,0.536
		c-1.012,0.918-2.117,1.739-2.919,2.871c-0.495,0.586-1.157,1.04-1.4,1.817c0.089,0.529,0.243,1.095-0.592,1.146
		c-1.609-0.133-2.442,0.969-3.276,2.062c0.511,1.096,1.266,2.026,1.964,2.996C65.922,48.974,66.415,49.529,66.298,50.329z"/>
	<path fill-rule="evenodd" clip-rule="evenodd" fill="#64646A" d="M60.487,40.773c-0.485,0.732-1.198,1.219-1.905,1.695
		c-0.665,0.448-0.699,0.917-0.195,1.488c-0.181-0.062-0.451-0.068-0.528-0.193c-1.313-2.135-3.56-3.316-5.193-5.119
		c-0.387-0.428-0.781-0.861-1.098-1.341c-1.181-1.794-0.998-2.422,0.955-3.271c0.817-0.354,1.574-1.444,2.578-0.466
		c0.925,0.901,0.796,1.958,0.29,3.082c-0.374,0.831-0.038,1.393,0.951,1.484c1.029,0.095,1.995-0.165,2.69-0.854
		c0.981-0.972,2.394-1.536,2.901-2.976c0.1-0.284,0.361-0.418,0.657-0.517c1.838-0.609,2.85-3.15,1.889-4.846
		c-0.627-1.107-0.898-2.342-1.398-3.492c-0.405-0.934-0.263-1.779,0.537-2.466c0.056,0.041,0.11,0.081,0.167,0.121
		c0.25,0.342,0.321,0.757,0.473,1.141c0.923,2.552,2.201,4.891,3.923,7.006c0.562,0.689,1.428,1.38,0.991,2.514
		c-0.38,0.309-0.76,0.617-1.14,0.927c-1.287-1.99-1.378-2.089-3.215-0.377c-1.95,1.817-4.269,3.177-6.106,5.11
		c-0.305,0.321-0.935,0.618-0.588,1.169c0.344,0.545,0.925,0.357,1.438,0.127C59.871,40.582,60.196,40.45,60.487,40.773z"/>
	<path fill-rule="evenodd" clip-rule="evenodd" fill="#DAE3E6" d="M66.813,23.296c0.068,0.618,0.581,0.972,0.869,1.459
		c0.855,0.704,1.619,1.469,1.726,2.659c1.002,1.705,2.003,3.41,3.005,5.115c0.449,0.189,0.65,0.558,0.732,1.013
		c-0.071,0.766-0.44,0.578-0.849,0.264c-0.265-0.306-0.53-0.612-0.795-0.918c-1.556-3.4-3.848-6.361-5.729-9.567
		c-0.975-1.661-1.977-3.311-3.229-4.782c0.482-0.449,0.781-0.084,1.107,0.07C64.951,20.006,65.646,21.81,66.813,23.296z"/>
	<path fill-rule="evenodd" clip-rule="evenodd" fill="#434555" d="M96.224,23.901c-1.389-1.338-2.538-2.914-4.088-4.091
		c1.829-0.711,2.479,0.749,3.263,1.84C95.864,22.298,96.148,23.078,96.224,23.901z"/>
	<path fill-rule="evenodd" clip-rule="evenodd" fill="#1B1C21" d="M88.046,20.433c0.242-0.946,0.81-1.222,1.594-0.627
		c0.971,0.736,1.719,1.687,2.298,2.771c0.33,0.619-0.09,0.471-0.41,0.455c-0.521-0.364-0.802-1.375-1.762-0.53
		c-0.291,0.256-0.493-0.309-0.673-0.551C88.726,21.458,88.393,20.939,88.046,20.433z"/>
	<path fill-rule="evenodd" clip-rule="evenodd" fill="#BFD1D0" d="M96.525,26.761c-0.78,0.081-1.147,1.012-1.989,0.969
		c-0.228-0.162-0.354-0.374-0.32-0.663c0.241,0.114,0.465,0.438,0.754,0.189c0.285-0.246,0.079-0.521-0.089-0.752
		c-0.505-0.69-1.019-1.374-1.528-2.061c0.439-0.864,0.931-0.228,1.261,0.041c0.707,0.574,1.335,1.248,1.906,1.967
		C96.521,26.555,96.523,26.658,96.525,26.761z"/>
	<path fill-rule="evenodd" clip-rule="evenodd" fill="#637572" d="M96.52,26.451c-1.098,0.105-1.18-1.086-1.884-1.47
		c-0.404-0.22-0.51-1.198-1.283-0.538c-0.544-0.257-0.64-0.742-0.71-1.271c0.642-0.182,0.739,0.577,1.29,0.578
		c0.164-0.342-0.294-0.495-0.307-0.779C94.857,23.909,96.146,24.799,96.52,26.451z"/>
	<path fill-rule="evenodd" clip-rule="evenodd" fill="#ABB2B5" d="M86.066,16.625c-0.828-0.46-1.196-1.287-1.811-2.199
		c1.043,0.308,1.4,1.168,2.101,1.563C86.356,16.244,86.308,16.479,86.066,16.625z"/>
	<path fill-rule="evenodd" clip-rule="evenodd" fill="#49616B" d="M89.221,35.824c-1.271,0.449-1.765,1.586-2.346,2.646
		c-0.966-0.621-0.072-1.009,0.257-1.253c1.081-0.802,0.908-1.4-0.009-2.242c-1.557-1.43-3.019-2.966-4.464-4.509
		c-0.558-0.597-1.102-0.818-1.848-0.482c0.226-0.704,1.172-0.532,1.44-1.185c0.991,0.37,1.606,1.206,2.326,1.904
		c1.349,1.308,2.663,2.651,3.99,3.98C88.876,34.992,89.448,35.193,89.221,35.824z"/>
	<path fill-rule="evenodd" clip-rule="evenodd" fill="#C4D1FC" d="M89.221,35.824c-2.257-2.164-4.517-4.327-6.764-6.502
		c-0.122-0.118-0.139-0.346-0.205-0.522c0.289-0.204,0.579-0.408,0.868-0.611c0.928-0.495,1.497-1.396,2.302-2.031
		c0.204-0.196,0.407-0.393,0.611-0.589c0.711-0.319,1.115-1.016,1.752-1.427l0.006-0.004c0.396-0.027,0.765-0.003,1.005,0.394
		c1.143,1.887,2.509,3.615,3.636,5.531c2.016,3.427,4.306,6.7,6.966,9.7c1.206,1.361,2.112,2.972,2.65,4.747
		c-0.814,0.437-1.133,1.645-2.324,1.495c-1.579-1.122-2.999-2.426-4.356-3.803c-1.692-2.271-4.004-3.945-5.843-6.075
		C89.424,36.026,89.322,35.925,89.221,35.824z"/>
	<path fill-rule="evenodd" clip-rule="evenodd" fill="#5F6A76" d="M85.422,26.157c-0.603,0.863-1.221,1.709-2.302,2.031
		C83.845,27.463,84.421,26.569,85.422,26.157z"/>
	<path fill-rule="evenodd" clip-rule="evenodd" fill="#5F6A76" d="M87.785,24.142c-0.442,0.649-0.911,1.268-1.752,1.427
		C86.513,24.966,86.989,24.357,87.785,24.142z"/>
	<path fill-rule="evenodd" clip-rule="evenodd" fill="#BEC6C8" d="M105.233,51.59c-1.048-0.838-1.656-1.716-2.138-2.692
		c-0.219-0.442-0.164-0.863,0.313-1.095c0.537-0.261,0.839,0.109,0.97,0.537C104.683,49.331,105.446,50.217,105.233,51.59z"/>
	<path fill-rule="evenodd" clip-rule="evenodd" fill="#49616B" d="M89.524,36.127c2.181,1.801,4.386,3.578,5.843,6.075
		C93.339,40.255,91.189,38.423,89.524,36.127z"/>
	<path fill-rule="evenodd" clip-rule="evenodd" fill="#605D5C" d="M43.844,36.964c0.104-0.472-0.288-1.17,0.406-1.364
		c0.582-0.162,0.704,0.523,1.005,0.861c0.283,0.318,0.628,0.602,0.628,1.085c-0.051,0.231-0.156,0.469-0.007,0.695
		c1.71,2.604,2.569,5.694,4.717,8.061c1.104,1.218,0.95,1.73-0.345,2.307c-0.236-0.43-0.356-0.946-0.875-1.164
		c-0.626-0.495-1.087,0.004-1.528,0.308c-0.668,0.459-1.3,0.971-1.963,1.438c-0.39,0.193-0.682,0.484-0.873,0.874
		c-0.604,0.271-1.159,0.688-2.054,0.631c0.457-1.483,1.699-2.151,2.727-2.99c0.48-0.393,1.003-0.743,1.538-1.059
		c0.93-0.547,0.934-1.398,0.463-2.103c-0.621-0.928-0.944-1.98-1.509-2.92c-0.318-0.218-0.286-0.553-0.292-0.876
		c-0.624-1.195-1.471-2.262-2.037-3.491C43.845,37.159,43.845,37.062,43.844,36.964z"/>
	<path fill-rule="evenodd" clip-rule="evenodd" fill="#505256" d="M53.456,58.208c0.239,1.151,1.307,1.62,2.001,2.391
		c0.516,0.572,0.762,0.993-0.065,1.472c-0.656,0.379-0.918,1.105-1.366,1.67c-2.511,1.868-2.896,1.831-4.587-0.779
		c-0.528-0.815-1.478-1.453-1.342-2.62c0.64-0.438,0.958,0.134,1.299,0.463c0.544,0.527,0.873,0.35,1.242-0.198
		c1.245-1.85,1.009-2.925-0.946-4.1c-0.167-0.101-0.321-0.204-0.395-0.394c0.581-0.682,1.084-0.498,1.688,0.04
		C51.782,56.864,52.305,57.921,53.456,58.208z"/>
	<path fill-rule="evenodd" clip-rule="evenodd" fill="#525458" d="M49.082,63.755c0.663,0.656,1.025,1.461,1.185,2.37
		c0.1,0.577,0.294,1.104,0.86,1.397c1.252,1.884,2.503,3.768,3.759,5.648c0.162,0.243,0.342,0.474,0.287,0.792
		c-0.095-0.002-0.188,0.002-0.282,0.012c-2.536-2.438-5.072-4.875-7.608-7.313c-0.826-0.707-2.175-1.23-0.938-2.664
		c0.372-0.27,0.663-0.456,0.996,0.129c0.679,1.19,0.714,1.17,1.457-0.056C48.872,63.949,48.974,63.849,49.082,63.755z"/>
	<path fill-rule="evenodd" clip-rule="evenodd" fill="#5F6363" d="M57.526,76.265c0.549-0.134,0.387-0.476,0.161-0.733
		c-0.706-0.806-0.334-1.39,0.341-1.937c1.076-0.87,2.151-1.742,3.227-2.614c-1.076,1.498-1.456,3.309-2.08,4.985
		C58.638,77.408,58.227,77.004,57.526,76.265z"/>
	<path fill-rule="evenodd" clip-rule="evenodd" fill="#6E6D70" d="M65.057,50.627c-1.013-1.762-2.627-2.979-3.992-4.422
		c1.132-0.319,1.831,0.169,2.421,1.128c0.651,1.059,1.45,2.026,2.186,3.034C65.523,50.589,65.304,50.641,65.057,50.627z"/>
	<path fill-rule="evenodd" clip-rule="evenodd" fill="#5E6264" d="M65.677,47.737c-0.521-0.752-1.026-1.515-1.565-2.252
		c-0.309-0.423-0.67-0.803-1.074-0.067c-0.035-0.033-0.105-0.075-0.1-0.099c0.293-1.169,2.884-2.628,3.905-2.203
		c0.299,0.265,0.598,0.529,0.896,0.794c-0.931,0.856-0.423,2.221-1.121,3.169C66.366,47.421,66.426,48.131,65.677,47.737z"/>
	<path fill-rule="evenodd" clip-rule="evenodd" fill="#7C8082" d="M69.408,27.414c-0.575-0.886-1.15-1.772-1.726-2.659
		c0.624,0.306,1.131-0.648,1.87-0.069C70.638,25.536,70.679,25.848,69.408,27.414z"/>
	<path fill-rule="evenodd" clip-rule="evenodd" fill="#7C8082" d="M70.369,27.568c0.04-0.501,0.301-0.888,0.76-0.942
		c0.486-0.058,0.871,0.322,0.827,0.788c-0.046,0.494-0.486,0.902-0.953,0.97C70.534,28.45,70.494,27.91,70.369,27.568z"/>
</g>
</svg>
