<?xml version="1.0" encoding="utf-8"?>
<!-- Generator: Adobe Illustrator 16.0.0, SVG Export Plug-In . SVG Version: 6.00 Build 0)  -->
<!DOCTYPE svg PUBLIC "-//W3C//DTD SVG 1.1//EN" "http://www.w3.org/Graphics/SVG/1.1/DTD/svg11.dtd">
<svg version="1.1" id="Capa_1" xmlns="http://www.w3.org/2000/svg" xmlns:xlink="http://www.w3.org/1999/xlink" x="0px" y="0px"
	 width="88.704px" height="88.704px" viewBox="0 0 88.704 88.704" enable-background="new 0 0 88.704 88.704" xml:space="preserve">
<g>
	<path fill-rule="evenodd" clip-rule="evenodd" fill="#5A5E67" d="M46.064,18.675c-5.621-3.295-11.59-5.97-17.059-9.545
		c-1.123-0.734-2.629-0.575-3.789-1.326c-0.602-0.672-1.203-1.344-1.807-2.017c-0.293-0.795-0.031-1.442,0.654-1.841
		c0.65-0.378,1.197,0.049,1.711,0.44c0.309,0.237,0.643,0.47,0.838,0.8c1.09,1.854,2.977,2.337,4.846,2.848
		c0.281,0.076,0.574,0.107,0.83,0.255c4.639,2.701,9.506,4.973,14.24,7.494c0.645,0.343,1.391,0.408,2.021,0.798
		c0.777,0.48,1.572,1.035,2.17-0.292c0.18-0.399,0.734-0.413,1.172-0.457c0.516,0.107,0.762,0.408,0.592,0.929
		c-0.16,0.49-0.01,0.939,0.072,1.41c0.23,1.33-0.355,1.893-1.705,1.598c-1.027-0.225-1.998-0.654-2.98-1.027
		C47.254,18.506,46.676,18.442,46.064,18.675z"/>
	<path fill-rule="evenodd" clip-rule="evenodd" fill="#EEF7FB" d="M40.268,10.472c2.395,1.307,4.777,2.626,7.35,3.586
		c1.129,0.422,2.393,0.856,2.816,2.247c-0.133,0.823-0.346,0.943-1.268,0.617c-1.537-0.544-2.965-1.329-4.424-2.047
		c-2.201-1.084-4.391-2.208-6.514-3.417c-1.834-1.043-3.924-1.593-5.574-2.963c-0.518-0.43-1.246-0.212-1.789-0.498
		c-1.66-0.872-3.098-2.08-4.613-3.167c-0.238-0.17-0.383-0.439-0.262-0.764c1.086-0.915,2.025-0.212,2.795,0.418
		C32.203,7.283,36.449,8.464,40.268,10.472z"/>
	<path fill-rule="evenodd" clip-rule="evenodd" fill="#B3BFBC" d="M25.99,4.065c0.652,0.721,1.371,1.452,2.35,1.553
		c0.977,0.101,0.918,1.104,1.727,1.488c4.438,2.114,8.9,4.185,13.199,6.603c1.916,1.078,3.809,2.429,6.074,2.835
		c0.363,0.065,0.93,0.715,1.094-0.241c0.049-0.354,0.229-0.578,0.605-0.604c0.186-0.055,0.166-0.273,0.299-0.372
		c0.119-0.027,0.232-0.017,0.342,0.037c0.186,0.192,0.227,0.415,0.145,0.665c-0.387,0.383-1.117,0.339-1.127,1.215
		c-0.006,0.662-0.656,0.583-1.125,0.343c-4.205-2.159-8.674-3.798-12.639-6.446c-0.979-0.653-2.041-1.306-3.32-1.294
		c-0.191,0.002-0.504,0.023-0.557-0.075c-1.189-2.186-3.885-1.392-5.51-2.767c-0.32-0.271-0.627-0.464-0.822-0.854
		c-0.191-0.382-0.439-0.75-0.729-1.062c-0.457-0.49-0.951-1.106-1.686-0.96c-0.834,0.167-0.717,1.034-0.9,1.657
		c-0.672-0.807-0.232-1.412,0.387-1.946C24.59,3.157,25.303,3.557,25.99,4.065z"/>
	<path fill-rule="evenodd" clip-rule="evenodd" fill="#5B5B5D" d="M49.297,39.886c0.709-0.626,0.225-1.461,0.357-2.19
		c0.412-2.288,0.906-4.532,1.92-6.651c0.617-1.286,0.189-1.894-1.27-1.912c-2.141-0.028-4.254-0.197-6.293-0.891
		c-0.816-0.278-1.699-0.445-2.295-1.165c-0.826-0.194-1.727-0.292-1.846-1.41c0.807-1.324,1.07-1.406,2.141-0.481
		c1.137,0.98,2.73,0.805,3.951,1.669c0.455,0.323,1.289-0.461,2.014-0.564c1.125-0.16,0.568-1.105,0.754-1.706
		c0.426-0.406,0.904-0.53,1.455-0.274c0.664,1.385,2.131,1.344,3.291,1.697c2.24,0.682,4.395,1.358,5.484,3.701
		c0.145,0.308,0.447,0.504,0.725,0.691c0.971,0.657,1.078,1.637,1.035,2.682c-0.016,0.84-0.438,1.648-0.008,2.532
		c0.275,0.568-0.443,0.885-0.65,1.348c-1.207,1.329-1.811,2.966-2.355,4.632c0.064,1.037-0.256,1.859-1.268,2.303
		c-1.072,0.455-1.928,1.227-2.818,1.945c-0.4,0.322-0.75,0.787-1.371,0.479c-0.748-1.313-2.035-1.432-3.33-1.439
		c-0.457-0.002-0.91,0.346-1.383,0.021c-0.086-0.117-0.127-0.248-0.133-0.391c0.225-1.248,0.084-2.58,0.893-3.699
		C48.574,40.428,48.74,39.957,49.297,39.886z"/>
	<path fill-rule="evenodd" clip-rule="evenodd" fill="#7A838B" d="M62.346,27.388c1,1.17,0.93,1.971-0.223,2.54
		c-2.117-1.324-3.66-3.272-5.424-4.98c-1.18-0.22-2.365,0.063-3.543-0.053c-0.588-0.058-1.273,0.094-1.6-0.638
		c0.051-0.148,0.145-0.261,0.281-0.338c0.395-0.201,0.828-0.224,1.254-0.207c0.955,0.04,1.543-0.144,1.746-1.318
		c0.24-1.396,1.256-0.67,2.025-0.414c0.912,0.421,1.822,0.845,2.619,1.469c0.08,0.12,0.104,0.253,0.082,0.396
		c-0.617,0.458-0.748,0.784,0.029,1.334C60.547,25.854,61.725,26.29,62.346,27.388z"/>
	<path fill-rule="evenodd" clip-rule="evenodd" fill="#E9F4F4" d="M53.051,13.727c0.07-0.48,0.311-0.604,0.809-0.539
		c3.053,0.401,5.891,1.387,8.543,2.947c0.574,0.338,1.26,0.794,0.996,1.396c-0.373,0.852-1.025-0.458-1.594-0.05
		c-0.613,0.274-1.121-0.022-1.623-0.312c-1.807-1.04-3.834-1.494-5.77-2.197C53.795,14.748,53.063,14.625,53.051,13.727z"/>
	<path fill-rule="evenodd" clip-rule="evenodd" fill="#F1F9FA" d="M62.691,21.83c2.221,0.776,4.277,1.896,6.318,3.047
		c0.434,0.244,0.764,0.643,0.6,1.193c-0.168,0.571-0.709,0.348-1.104,0.432c-0.51,0.485-1.131,0.461-1.576,0.058
		c-1.088-0.986-2.434-1.521-3.648-2.282c-0.852-0.535-1.594-1.165-1.016-2.343C62.385,21.807,62.525,21.772,62.691,21.83z"/>
	<path fill-rule="evenodd" clip-rule="evenodd" fill="#AEB9C0" d="M51.592,24.175c1.432,0.488,2.904,0.2,4.359,0.197
		c0.467-0.001,0.955-0.283,1.117,0.43c0.529,1.63,1.844,2.657,2.973,3.817c0.707,0.726,1.5,1.367,2.059,2.229
		c0.016,0.087,0.025,0.176,0.029,0.265c-0.865,0.688-1.439-0.158-2.129-0.403c-0.766-0.928-1.443-1.92-2.293-2.795
		c-1.654-1.704-3.957-1.581-5.959-2.291c-0.176-0.063-0.391-0.002-0.576-0.054c-0.514-0.142-0.947-0.439-0.791-1.013
		C50.555,23.93,51.008,23.732,51.592,24.175z"/>
	<path fill-rule="evenodd" clip-rule="evenodd" fill="#71777B" d="M68.221,28.803c-0.328,0.231-0.734,0.444-1.082,0.265
		c-1.377-0.709-2.977-1.101-3.863-2.553c-0.441-0.004-0.711-0.236-0.852-0.639c0.209-1.414,0.668-1.675,1.859-1.073
		c0.691,0.349,1.33,0.793,1.887,1.311c0.455,0.423,0.896,0.68,1.521,0.676c0.559-0.003,1.078,0.201,1.271,0.768
		C69.186,28.208,68.652,28.495,68.221,28.803z"/>
	<path fill-rule="evenodd" clip-rule="evenodd" fill="#95A1A0" d="M68.221,28.803c0.15-0.418,0.813-0.711,0.438-1.244
		c-0.324-0.46-0.893-0.469-1.434-0.491c-0.49-0.02-1.174,0.648-1.32-0.665c-0.066-0.601-1.408-1.178-2.268-1.54
		c-0.814-0.341-0.898,0.397-0.936,1c-0.443-0.636-1.254-0.567-1.83-0.948c0.523-0.993,0.301-2.278,1.215-3.119
		c0.148-0.051,0.275-0.019,0.381,0.095c-0.277,0.946,0.107,1.535,0.938,2.008c1.279,0.729,2.734,1.181,3.705,2.423
		c0.307,0.393,0.928,0.086,1.396,0.178C69.764,27.57,69.701,28.083,68.221,28.803z"/>
	<path fill-rule="evenodd" clip-rule="evenodd" fill="#95A1A0" d="M62.691,21.83c-0.078,0.011-0.152,0.032-0.225,0.063
		c-0.049-0.042-0.098-0.083-0.148-0.123c-0.316-0.83-0.938-1.561-0.803-2.538c0.08-0.573-0.389-0.741-0.77-0.905
		c-1.982-0.856-3.793-2.078-5.895-2.686c-1.314-0.38-2.461-1.073-3.309-2.191c-0.051-0.148-0.012-0.265,0.117-0.352
		c0.596-0.083,0.979,0.304,1.391,0.628c0.305,0.577,0.891,0.717,1.438,0.858c2.559,0.665,4.949,1.746,7.316,2.895
		c1.082,0.586,1.625,1.373,1.15,2.666C62.764,20.668,62.773,21.266,62.691,21.83z"/>
	<path fill-rule="evenodd" clip-rule="evenodd" fill="#EDF2F4" d="M60.893,24.786c0.568,0.416,1.598,0.062,1.809,1.079
		c0.191,0.217,0.383,0.433,0.574,0.65c0.096,0.723-0.139,1.093-0.928,0.873c-1.439-0.553-2.48-1.727-3.814-2.444
		c-0.252-0.135-0.482-0.362-0.322-0.694c0.277-0.57,0.793-0.392,1.256-0.359C60.158,23.846,60.621,24.162,60.893,24.786z"/>
	<path fill-rule="evenodd" clip-rule="evenodd" fill="#EEF4F6" d="M62.1,30.848c-1.645-0.8-2.621-2.338-3.883-3.557
		c-0.561-0.543-1.139-1.131-1.432-1.921c-0.135-0.366-0.127-0.533,0.283-0.568c1.754,1.279,2.836,3.31,4.838,4.326
		c0.166,0.083,0.148,0.525,0.217,0.8C62.146,30.235,62.545,30.553,62.1,30.848z"/>
	<path fill-rule="evenodd" clip-rule="evenodd" fill="#89979B" d="M60.08,30.539c0.766-0.108,1.264,0.746,2.049,0.575
		c0.602,1.161-0.482,1.747-0.928,2.508c-0.309,0.527-0.633,0.953-0.371,1.577c0.357,0.852-0.051,1.375-0.768,1.763
		c0.762-1.314,0.064-2.73,0.285-4.083C60.84,32.033,60.357,31.297,60.08,30.539z"/>
	<path fill-rule="evenodd" clip-rule="evenodd" fill="#C6D3FE" d="M51.66,13.099c0.002,0.101,0.004,0.203,0.004,0.304
		c0.275,0.742,0.174,1.423-0.326,2.042c-0.098,0.087,0.094,0.514-0.299,0.256C51.211,14.825,50.549,13.75,51.66,13.099z"/>
	<path fill-rule="evenodd" clip-rule="evenodd" fill="#4B4E59" d="M56.863,22.403c-0.258-0.107-0.537-0.182-0.773-0.326
		c-0.693-0.421-1.1-0.13-0.953,0.559c0.332,1.543-0.602,1.515-1.625,1.482c-0.525-0.017-1.051-0.004-1.576-0.004
		c-0.67-0.304-1.236-0.026-1.791,0.324c-0.473,0.099-0.947,0.199-1.422,0.299c-1.498,0.197-2.037-0.507-1.947-2.537
		c0.092-0.925-0.221-1.783-0.453-2.654c-0.279-0.233-0.201-0.572-0.258-0.871c-0.025-0.735,0.287-0.935,0.977-0.672
		c1.207,0.459,2.428,0.883,3.643,1.318c0.51,0.183,1.092,0.379,1.49-0.074c0.342-0.391,0.09-0.956-0.107-1.357
		c-0.25-0.505-0.553-0.852,0.092-1.332c0.369-0.275-0.066-0.438-0.334-0.527c-0.082-0.19-0.166-0.381-0.25-0.572
		c0.008-0.807,0.551-0.49,0.912-0.395c1.758,0.465,3.137,2.317,3.131,4.154c-0.012,0.148-0.057,0.288-0.123,0.42
		c-1.463,1.701-2.127,1.876-4.107,1.062c-0.631-0.259-1.283-0.421-1.953-0.51c-0.467-0.062-1.049-0.219-1.223,0.412
		c-0.186,0.678,0.244,1.088,0.854,1.298c0.951,0.329,1.904,0.222,2.842-0.064c0.922-0.281,1.828-0.624,2.775-0.804
		C55.92,20.796,56.523,21.2,56.863,22.403z"/>
	<path fill-rule="evenodd" clip-rule="evenodd" fill="#646C80" d="M46.961,22.111c0.363,1.025,0.043,2.509,1.762,2.626
		c0.469,0.442,1.256,0.834,0.318,1.548c-0.918,0.698-2.225,0.501-3.096,1.32c-1.047-1.373-3.154-0.824-4.082-2.006
		c-0.902-1.148-1.258-0.42-1.865,0.02c-0.777-1.168-0.684-1.472,0.563-1.809c2.619-0.708,3.193-0.618,5.121,0.842
		c-0.809-1.151-0.35-1.829,0.67-2.295c0.09-0.095,0.18-0.189,0.27-0.284C46.752,21.932,46.865,21.944,46.961,22.111z"/>
	<path fill-rule="evenodd" clip-rule="evenodd" fill="#8893A9" d="M46.352,22.357c-0.543,0.646-1.258,1.246-0.18,2.074
		c0.35,0.269,0.254,0.731-0.135,0.983c-0.396,0.257-0.578-0.091-0.805-0.35c-1.369-1.562-3.506-1.988-5.191-0.972
		c-0.674,0.406-0.311,1.006-0.043,1.526c0.096,1.049,1.088,1.039,1.719,1.458c-1.42-0.013-2.482-1.168-2.346-2.542
		c0.059-0.595,0.359-0.813,0.953-1.041C42.277,22.743,44.451,23.279,46.352,22.357z"/>
	<path fill-rule="evenodd" clip-rule="evenodd" fill="#8893A9" d="M46.961,22.111c-0.113-0.013-0.227-0.025-0.34-0.038
		c-0.1-0.843-0.199-1.686-0.299-2.528C46.883,20.314,46.883,21.223,46.961,22.111z"/>
	<path fill-rule="evenodd" clip-rule="evenodd" fill="#676967" d="M55.373,19.212c-0.053-2.128-1.564-3.064-3.188-3.916
		c-0.268-0.14-0.445-0.035-0.611,0.162c0,0-0.117-0.015-0.117-0.015s-0.119,0-0.119,0.001c-0.053-0.707-0.227-1.432,0.326-2.042
		c2.965,2.033,6.475,2.946,9.586,4.676c0.596,0.331,1.371,0.685,0.463,1.512c0.621,0.61,0.785,1.347,0.605,2.179
		c-0.336,0.482-0.494,1.009-0.504,1.606c-0.012,0.638-0.141,1.251-0.922,1.409c-0.477-0.299-0.951-0.597-1.426-0.896
		c0.002-0.088-0.002-0.176-0.012-0.264c0.229-1.506-0.256-2.849-1.23-3.403C57.33,19.728,56.498,19.059,55.373,19.212z"/>
	<path fill-rule="evenodd" clip-rule="evenodd" fill="#404653" d="M55.42,31.478c-0.215,1.077-0.514,2.146-0.146,3.264
		c0.145,0.439-0.199,0.794-0.555,0.898c-0.684,0.199-1.408,0.389-2.107,0.361c-0.736-0.029-1.066-0.644-0.963-1.349
		c0.139-0.945,0.703-0.338,1.063-0.198c0.775,0.303,1.014-0.083,0.936-0.733c-0.146-1.226,0.496-2.441-0.07-3.689
		c-0.322-0.71,0.346-0.713,0.73-0.541C55.127,29.859,55.551,30.529,55.42,31.478z"/>
	<path fill-rule="evenodd" clip-rule="evenodd" fill="#646C80" d="M50.145,24.438c0.486-0.73,1.1-0.743,1.791-0.324
		c-0.113,0.02-0.229,0.04-0.344,0.061c-0.432-0.002-0.977-0.084-1.016,0.515c-0.039,0.588,0.486,0.62,0.93,0.646
		c1.629,0.095,3.129,0.943,4.813,0.767c0.639-0.067,0.723,0.71,1.021,1.058c0.943,1.094,2.49,1.73,2.74,3.378
		c0.99,0.677,0.959,1.471,0.268,2.341c0.07-1.087-0.27-1.937-1.326-2.419c-0.246-0.112-0.568-0.326-0.623-0.549
		c-0.6-2.449-2.805-2.751-4.662-3.374c-0.877-0.293-1.748-0.724-2.748-0.759C50.367,25.756,50.129,25.081,50.145,24.438z"/>
	<path fill-rule="evenodd" clip-rule="evenodd" fill="#2C3342" d="M46.971,46.564c-0.172-0.076-0.354-0.139-0.516-0.232
		c-0.313-0.178-0.824-0.205-0.82-0.66c0.002-0.561,0.559-0.551,0.943-0.67c0.313-0.096,0.643-0.133,0.967-0.197
		c1.484-0.803,2.848-0.129,4.283,0.25c1.041,0.275,0.758,0.684,0.412,1.258c-0.059,0.041-0.117,0.082-0.176,0.125
		c-1.002-0.068-1.934-0.072-2.848,0.596C48.465,47.582,47.641,47.125,46.971,46.564z"/>
	<path fill-rule="evenodd" clip-rule="evenodd" fill="#404653" d="M56.588,32.149c-0.064,0.387,0.082,0.89-0.4,0.856
		c-0.469-0.033-0.484-0.521-0.48-0.917c0.004-0.356,0.094-0.79,0.475-0.776C56.779,31.333,56.438,31.916,56.588,32.149z"/>
	<path fill-rule="evenodd" clip-rule="evenodd" fill="#2E3135" d="M58.316,20.077c0.834-0.189,1.377-0.116,1.313,1
		c-0.043,0.732,0.17,1.485,0.314,2.219c0.113,0.574-0.26,0.32-0.488,0.331c-0.98-0.162-1.721-0.828-2.592-1.223
		c-1.252-2.022-2.834-0.707-4.219-0.308c-1.281,0.368-2.496,0.578-3.799,0.287c-1.104-0.246-1.375-1.083-1.213-1.971
		c0.166-0.91,0.885-0.909,1.713-0.696c0.973,0.251,1.986,0.312,2.85,0.925c0.865,0.613,1.557-0.035,2.254-0.42
		c0.363-0.201,0.492-0.739,1.01-0.751C56.395,19.749,57.189,20.686,58.316,20.077z"/>
	<path fill-rule="evenodd" clip-rule="evenodd" fill="#E2E8E9" d="M58.316,20.077c-0.906,1.124-1.605,0.975-2.857-0.609
		c0.027-0.104-0.002-0.19-0.086-0.256c0.037-0.368,0.188-0.712,0.604-0.522C56.803,19.065,57.832,19.123,58.316,20.077z"/>
	<path fill-rule="evenodd" clip-rule="evenodd" fill="#2C3342" d="M49.818,59.121c-0.193,0.174-0.369,0.361-0.59,0.51
		c-0.418,0.289-0.672,0.904-1.416,0.654c-0.914-0.307-0.672-0.986-0.709-1.523c-0.031-0.439,0.045-0.867,0.072-1.299
		c-0.707-2.266,0.951-3.582,2.158-5.146c0.875-1.135,1.426-0.564,2.223,0.174c0.045,0.094,0.088,0.188,0.133,0.285
		c-0.518,1.197-0.904,2.342-0.188,3.83C52.094,57.832,51.01,58.602,49.818,59.121z"/>
	<path fill-rule="evenodd" clip-rule="evenodd" fill="#697291" d="M48.279,48.963c-0.055,0.84,0.393,1.141,1.162,1.035
		c0.268-0.037,0.551-0.289,0.699,0.145c0.123,0.352,0.1,0.662-0.291,0.854c-1.059,0.514-0.955,1.391-1.023,2.422
		c-0.17,2.668-0.279,5.438-1.104,7.938c-0.564,1.707-2.205,3.111-3.537,4.486c-0.568,0.586-0.762,0.9-0.211,1.482
		c0.611,0.645,0.465,1.271,0.078,1.979c-2.063,3.77-4.346,7.4-6.908,10.848c-0.559,0.75-1.416,1.307-2.205,1.848
		c-2.402,1.648-4.84,3.246-7.262,4.863c1.393-1.93,3.414-3.105,5.383-4.291c1.148-0.689,2.355-1.092,2.951-2.521
		c0.389-0.934,1.336-1.623,1.951-2.479c0.242-0.336,0.818-0.816,0.303-1.236c-0.404-0.332-1.201-0.291-1.48,0.135
		c-1.318,2.014-3.959,1.676-5.531,3.221c-0.408,0.402-0.904-0.039-1.326-0.256c-0.727-0.369-1.412-0.547-2.143,0.072
		c-0.594,0.5-1.33,0.408-1.855-0.09c-0.545-0.52-1.471-0.932-1.014-1.998c0.75-1.75,1.225-3.725,3.35-4.406
		c2.197-0.705,2.715-2.553,3.141-4.48c-0.031-0.154-0.01-0.299,0.061-0.439c1.15-2.016,3.207-3.098,4.797-4.662
		c0.438-0.324,0.635-0.709,0.375-1.254c-0.225-0.469-0.033-0.926,0.035-1.406c0.432-3.094,2.217-5.363,4.359-7.451
		c0.799-0.775,1.535-1.631,2.164-2.547c1.031-1.502,2.344-2.699,3.756-3.813C48.111,47.152,48.338,47.963,48.279,48.963z"/>
	<path fill-rule="evenodd" clip-rule="evenodd" fill="#2A272D" d="M49.68,46.967c1.492-0.26,2.775-1.037,4.119-1.664
		c0.375-0.176,0.836-0.592,1.178-0.199c0.344,0.396-0.334,0.588-0.441,0.918c-0.408,1.252-1.215,2.393-0.928,3.84
		c0.188,0.953-0.635,1.416-1.223,1.959c-0.869,0.932-1.73,0.762-2.41-0.16c-0.441-0.605-1.043-1.006-1.588-1.426
		c-0.924-0.711-0.891-1.582-0.631-2.449C48.029,46.879,48.883,46.887,49.68,46.967z"/>
	<path fill-rule="evenodd" clip-rule="evenodd" fill="#CDD5E5" d="M50.91,60.045c-1.371,2.189-2.834,4.33-4.092,6.584
		c-1.342,2.402-2.715,4.773-4.463,6.9c-0.854,1.035-1.248,0.953-1.961-0.277c0.82-0.602,1.076-1.389,0.973-2.404
		c-0.178-1.754-0.023-3.482,0.768-5.107c0.285-0.586,0.301-1.213,0.172-1.848c0.297-0.904,0.559-1.836,1.535-2.281
		c0.672,0.439,0.859-0.182,1.051-0.557c0.523-1.029,1.1-2.068,1.332-3.191c0.611-2.943,2.146-5.43,3.701-7.918
		c1.1-0.207,2.256-0.555,2.686,1.02c0.092,0.273,0.143,0.547-0.002,0.82c-0.252,0.332-0.605,0.586-0.998,0.41
		c-1.15-0.514-1.281,0.26-1.502,1.061c-0.396,1.422-1.109,2.77-0.379,4.334c0.25,0.533,0.301,1.047,0.961,1.285
		C51.291,59.09,51.283,59.57,50.91,60.045z"/>
</g>
</svg>
