<?xml version="1.0" encoding="utf-8"?>
<!-- Generator: Adobe Illustrator 16.0.0, SVG Export Plug-In . SVG Version: 6.00 Build 0)  -->
<!DOCTYPE svg PUBLIC "-//W3C//DTD SVG 1.1//EN" "http://www.w3.org/Graphics/SVG/1.1/DTD/svg11.dtd">
<svg version="1.1" id="Capa_1" xmlns="http://www.w3.org/2000/svg" xmlns:xlink="http://www.w3.org/1999/xlink" x="0px" y="0px"
	 width="137.579px" height="103.227px" viewBox="0 0 137.579 103.227" enable-background="new 0 0 137.579 103.227"
	 xml:space="preserve">
<g>
	<path fill="#6F7A9C" d="M27.053,14.72c0.831-2.233,2.111-4.236,3.227-6.325c0.17-0.223,0.334-0.454,0.624-0.541
		c0.913,0.178,0.913,0.178,2.129,2.584c0.773-0.895,1.469-1.776,1.896-2.867c0.297-0.76,0.728-1.418,1.729-0.894
		c0.112,0.1,0.193,0.219,0.25,0.358c0.141,0.475-0.011,0.887-0.267,1.277c-1.317,1.93-1.733,4.274-2.903,6.279
		c-0.606,1.039-1.036,2.185-1.764,3.154c-0.463,0.614-1.018,1.102-1.797,0.385c-0.087-0.119-0.148-0.252-0.186-0.396
		c-0.076-1.426,0.808-2.775,0.287-4.546c-0.792,2.578-3.186,3.774-3.995,6.03c-0.799,2.229-2.118,4.192-2.974,6.398
		c-1.047,2.696-2.469,5.242-3.737,7.85c-1.984,4.076-3.675,8.285-5.762,12.321c-0.929,1.797-1.977,3.642-2.31,5.722
		c0.085,1.883-0.341,3.706-0.704,5.607c1.493-0.071,2.191,0.732,2.386,2.09c-0.003,0.146-0.027,0.288-0.066,0.429
		c-0.071,0.21-0.186,0.392-0.332,0.554c-0.982,0.746-0.353,1.209,0.313,1.607c2.207,1.316,4.552,2.332,6.944,3.271
		c2.463,0.966,4.896,2.021,7.201,3.344c0.44,0.567,1.199,0.534,1.741,0.912c0.655,0.592,1.479,0.691,2.304,0.795
		c0.525,0.198,1.253,0.085,1.392,0.888c-1.628,1.279-3.456,1.406-5.335,0.048c-1.427-1.033-2.924-1.167-4.543-1.031
		c-0.748,0.063-1.444,0.229-1.714,1.082c-0.256,0.812,0.005,1.414,0.666,1.896c0.356,0.261,0.717,0.565,0.822,0.994
		c0.714,2.916,3.301,3.773,5.505,5.05c0.29,0.167,0.63,0.252,0.879,0.493c0.398,0.384,0.738,0.832,0.565,1.405
		c-0.192,0.639-0.825,0.729-1.323,0.628c-2.5-0.502-5.136-0.168-7.425-1.937c-1.643-1.269-3.693-2.105-5.85-2.402
		c-3.362-1.071-6.686-2.229-9.504-4.463c-0.231-0.183-0.498-0.395-0.777-0.205c-0.351,0.237-0.141,0.604-0.106,0.932
		c0.07,0.654,1.032,1.167,0.312,1.945c-1.518-0.637-2.041-1.757-1.532-3.523c0.482-1.674,1.191-3.273,1.735-4.931
		c0.402-1.225,0.641-2.44,0.317-3.701c-0.247-0.963-0.002-1.771,0.461-2.625c0.969-1.782,1.728-3.675,2.721-5.448
		c0.194-0.346,0.336-0.735,0.106-1.104c-1.094-1.757-0.537-3.655-0.507-5.511c0.06-0.146,0.152-0.271,0.272-0.371
		c0.152-0.051,0.292-0.024,0.417,0.074c0.643,1.128,0.156,2.376,0.386,3.579c2.386-5.021,5.148-9.835,7.212-15.001
		c1.232-3.085,2.865-6.005,4.243-9.035c0.243-0.533,0.508-1.045,0.39-1.656c0.263-0.821,0.951-1.379,1.331-2.128
		c-0.021-0.218-0.005-0.421,0.216-0.544c0.69-0.628,0.898-1.515,1.247-2.326l-0.01,0.013c0.42-0.544,0.727-1.143,0.868-1.82
		c0.36-0.756,0.72-1.513,1.08-2.271C26.28,16.345,26.735,15.569,27.053,14.72z"/>
	<path fill="#F5FAFB" d="M4.962,58.762c-0.089-1.26-0.354-2.521,0.004-3.78c0.506-0.703,0.833-1.688,2.218-1.247
		c-2.069-0.845-1.796-2.313-1.402-3.86c0.116-0.455,0.078-0.962,0.045-1.44c-0.216-3.109,1.326-5.412,3.406-7.469
		c0.195-0.193,0.393-0.522,0.711-0.368c0.402,0.195,0.238,0.586,0.139,0.892c-0.254,0.779-0.563,1.545-0.462,2.392
		c0.111,0.438,0.111,0.874-0.019,1.31c-0.354,1.039-0.444,2.178-1.133,3.095l-0.01,0.02c-0.183,1.958-0.425,3.919,0.185,5.854
		c0.088,0.277,0.182,0.591,0.077,0.856C7.98,56.9,7.009,58.678,6.147,60.507c-0.218,0.464-0.625,0.412-0.923,0.02
		C4.818,59.993,4.654,59.408,4.962,58.762z"/>
	<path fill="#717C9E" d="M9.316,45.097c0.091-0.408-0.043-0.874,0.305-1.218c0.896-1.352,1.151-2.954,1.554-4.456
		c0.49-1.829,1.393-3.313,2.459-4.832c2.636-3.76,6.077-6.832,8.771-10.53c-0.054,0.879-0.807,1.383-1.135,2.115
		c0.131,0.705-0.204,1.289-0.695,1.662c-3.581,2.719-4.696,6.998-6.803,10.646c-0.216,0.376-0.315,0.861-0.653,1.121
		c-1.795,1.376-2.032,3.533-2.798,5.429c-0.209,0.518-0.118,1.35-1.092,1.158C9.188,45.823,9.096,45.448,9.316,45.097z"/>
	<path fill="#9EAFC9" d="M35.79,4.64c0.014,0.558,0.668,0.846,0.606,1.437c-1.68-0.567-2.897,0.513-4.197,1.223
		c-0.458,0.25-0.897,0.553-1.368,0.794c-0.184,0.101-0.368,0.202-0.552,0.303c0.01-0.188,0.021-0.379,0.031-0.567
		c1.194-1.76,3.269-2.186,4.924-3.246C35.437,4.44,35.621,4.465,35.79,4.64z"/>
	<path fill="#717C9E" d="M27.053,14.72c0.046,1.038-0.557,1.737-1.246,2.392C26.082,16.242,26.367,15.377,27.053,14.72z"/>
	<path fill="#717C9E" d="M23.868,21.19c-0.081,0.955-0.304,1.834-1.247,2.326C22.996,22.719,23.271,21.868,23.868,21.19z"/>
	<path fill="#717C9E" d="M24.726,19.382c0.117,0.8-0.046,1.468-0.868,1.82C23.846,20.452,24.335,19.94,24.726,19.382z"/>
	<path fill="#D2DEFE" d="M4.962,58.762c0.395,0.544,0.142,1.356,0.998,2.014c0.452-2.537,2.662-4.236,2.274-7.09
		c-0.237-1.742-0.428-3.617,0.225-5.386c-0.004,1.212-0.009,2.423-0.013,3.634c-0.001,0.669-0.088,1.324,0.591,1.824
		c0.549,0.404,0.236,0.977,0,1.452c-1.031,2.075-2.05,4.158-3.136,6.204c-0.267,0.502-0.476,0.989-0.335,1.509
		c0.501,1.848-0.082,3.533-0.677,5.228c-0.336,0.959-0.635,1.934-0.985,2.887c-0.76,2.066-0.592,2.821,1.025,4.364
		c0.687,0.192,1.029,0.846,1.598,1.199c1.076,0.67,2.209,1.144,3.494,1.24c1.35,0.104,2.673,0.36,3.859,1.063
		c0.431,0.257,1.02,0.4,0.99,1.09c-0.005,0.103-0.01,0.204-0.015,0.309c-0.888-0.225-1.797-0.375-2.603-0.856
		c-0.244-0.146-0.539-0.325-0.818-0.159c-1.591,0.945-3.219,0.156-4.826,0.112c-2.067-0.057-3.37-2.802-3.683-4.792
		c-0.263-1.671,0.151-3.187,0.808-4.726c0.714-1.676,1.485-3.371,1.517-5.257c0.018-1.075-0.17-2.063-0.831-2.991
		C3.605,60.493,3.884,59.368,4.962,58.762z"/>
	<path fill="#666A78" d="M14.869,79.995c-1.504-1.157-3.265-1.502-5.099-1.75c-1.973-0.267-3.896-0.762-4.842-2.844
		c-0.059-0.893-0.986-1.404-0.998-2.349c-0.005-0.396-0.147-0.787,0.256-1.027c0.396-0.234,0.89-0.301,1.224,0.037
		c2.619,2.648,6.147,3.471,9.448,4.75c2.494,1.007,5.008,1.95,7.281,3.449c1.618,1.068,3.588,1.203,5.428,1.297
		c3.28,0.167,6.562,0.491,9.858,0.34c0.919-0.042,1.708-0.174,2.245-1.028c0.417-0.663,1.049-0.746,1.789-0.557
		c1.218,0.313,2.458,0.527,3.706,0.711c1.182,0.175,2.324,0.109,3.414-0.354c1.778-0.757,3.623-1.378,5.323-2.291
		c1.071-0.574,2.07-1.055,3.35-0.528c-0.095-0.791-0.494-1.554,0.42-1.977c0.523,0.208,1,0.317,1.428-0.245
		c0.21-0.276,0.56-0.526,0.974-0.241c0.069,1.262,0.575,2.146,1.666,2.958c1.435,1.068,2.117,2.839,3.052,4.354
		c0.355,0.572,0.705,1.146,1.11,1.688c0.089,0.673-0.217,1.256-0.826,1.325c-0.96,0.111-1.816,0.598-2.78,0.634
		c-0.479-0.144-0.65-0.563-0.854-0.952c-0.302-0.909-0.813-1.574-1.745-1.995c-1.105-0.498-1.76-1.588-2.716-2.494
		c-0.197,1.633,0.178,3.222-0.522,4.673c-0.495,0.711-0.616,1.591-1.129,2.314c-0.494,0.697,0.217,0.655,0.609,0.642
		c1.209-0.047,2.345-0.441,3.461-0.865c0.627-0.238,1.121-0.239,1.437,0.442c0.516,1.445-0.044,2.508-1.167,3.405
		c-0.968,0.774-2.072,1.415-2.512,2.713c-0.192,0.566-0.77,0.698-1.335,0.638c-0.647-0.071-1.243,0.017-1.79,0.396
		c-2.612,1.809-5.574,3.063-8.065,5.072c-0.351,0.283-0.684,0.51-0.791,0.962c-0.998,0.792-2.614,0.306-3.278-0.984
		c-0.656-1.276-0.263-2.811,0.979-3.538c1.041-0.607,2.103-1.197,3.209-1.669c0.864-0.367,1.172-0.925,1.096-1.803
		c-0.029-0.337,0.005-0.679,0.004-1.019c-0.003-1.566,0.536-3.438-2.046-3.538c-0.216-0.009-0.419-0.355-0.629-0.546
		c2.13-0.51,3.556,0.483,3.673,2.561c0.022,0.387,0.01,0.776,0.085,1.159c0.147,0.747,0.554,0.982,1.256,0.636
		c0.87-0.431,1.745-0.849,2.595-1.318c0.683-0.377,0.875-0.829,0.113-1.269c-1.901-1.098-3.556-2.618-6.023-2.62
		c-1.832-0.001-3.365-1.166-4.771-2.295c-1.423-1.144-2.715-1.069-4.125,0.429c1.756,0.551,3.587,0.386,5.31,0.828
		c0.973,0.251,2.019,0.513,1.901,1.896c-2.346-1.832-5.225-1.33-7.878-1.728c-3.106-0.464-6.285-0.474-9.375-1.007
		c-2.128-0.367-3.942-1.767-5.914-2.667C19.212,81.825,17.178,80.593,14.869,79.995z"/>
	<path fill="#545151" d="M45.174,101.294c-0.593-0.623,0.093-0.81,0.394-1.101c1.609-1.563,3.667-2.45,5.521-3.645
		c0.892-0.573,1.819-1.091,2.712-1.662c0.62-0.396,1.188-0.803,1.995-0.418c0.521,0.248,1.061-0.001,1.121-0.553
		c0.13-1.198,1.057-1.668,1.863-2.222c1.263-0.864,2.178-1.854,1.804-3.529c0.512-0.851,1.48-0.526,2.218-0.851
		c0.17-0.537-0.77-0.618-0.491-1.184c0.858-0.263,1.508-1.125,2.632-0.693c0.407,0.157,0.607-0.644,0.881-1.024
		c0.226-1.079-0.119-2.248,0.518-3.264c0.533-0.063,0.672,0.352,0.698,0.707c0.088,1.249,0.625,2.381,0.878,3.584
		c-0.118,1.283,0.335,2.467,0.65,3.674c-0.429,0.791-1.188,0.633-1.881,0.657c-0.571-0.063-1.108-0.004-1.542,0.431
		c-0.641,0.474-1.027,1.131-1.357,1.838c-0.361,0.772-1.001,1.311-1.838,1.071c-1.257-0.357-2.087,0.148-2.981,0.917
		c-0.761,0.654-1.534,1.309-2.331,1.927c-0.369,0.161-0.774,0.217-1.138,0.393c-0.181,0.093-0.366,0.176-0.557,0.248
		c-2.451,0.626-4.438,2.038-6.279,3.701c-0.641,0.422-1.395,0.16-2.076,0.342c-0.319,0.05-0.706-0.051-0.851,0.385
		C45.633,101.29,45.388,101.258,45.174,101.294z"/>
	<path fill="#697291" d="M57.986,75.958c-0.757,0.369-0.797,0.905-0.324,1.521c0.164,0.214,0.523,0.335,0.222,0.681
		c-0.246,0.28-0.528,0.414-0.886,0.169c-0.971-0.665-1.683-0.143-2.611,0.311c-2.404,1.173-4.863,2.448-7.444,2.969
		c-1.762,0.354-3.795-0.377-5.648-0.853c-0.791-0.204-1.161-0.218-1.393,0.549c-0.258,0.851-0.874,1.034-1.68,1.048
		c-4.297,0.073-8.583-0.113-12.845-0.634c-0.928-0.114-1.836-0.584-2.698-1.002c-2.621-1.271-5.215-2.599-7.82-3.904
		c2.367,0.255,4.389,1.431,6.393,2.555c1.169,0.656,2.116,1.508,3.653,1.316c1.002-0.125,2.07,0.357,3.118,0.469
		c0.413,0.044,1.115,0.309,1.226-0.35c0.087-0.515-0.343-1.187-0.85-1.219c-2.402-0.148-3.416-2.61-5.536-3.212
		c-0.552-0.156-0.413-0.807-0.435-1.28c-0.039-0.813-0.223-1.496-1.123-1.825c-0.729-0.268-1.014-0.954-0.84-1.656
		c0.182-0.731,0.08-1.739,1.235-1.869c1.892-0.216,3.842-0.78,5.486,0.729c1.701,1.561,3.562,1.096,5.447,0.513
		c0.118-0.104,0.256-0.156,0.412-0.165c2.321,0.001,4.279,1.253,6.425,1.859c0.499,0.22,0.93,0.201,1.274-0.294
		c0.297-0.427,0.789-0.486,1.24-0.666c2.902-1.156,5.757-0.729,8.632,0.102c1.069,0.311,2.179,0.526,3.283,0.619
		c1.818,0.152,3.506,0.702,5.173,1.378C59.476,74.917,58.883,75.515,57.986,75.958z"/>
	<path fill="#CDD5E5" d="M27.006,68.704c-2.348-1.078-4.659-2.252-7.056-3.209c-2.557-1.021-5.085-2.073-7.421-3.534
		c-1.137-0.711-1.106-1.113,0.023-1.979c0.702,0.735,1.515,0.89,2.509,0.654c1.717-0.402,3.451-0.474,5.164,0.101
		c0.618,0.207,1.243,0.144,1.854-0.066c0.935,0.178,1.893,0.314,2.46,1.228c-0.348,0.724,0.292,0.829,0.688,0.971
		c1.089,0.385,2.194,0.821,3.338,0.907c2.998,0.227,5.661,1.428,8.329,2.646c0.346,1.063,0.841,2.166-0.664,2.795
		c-0.259,0.128-0.524,0.212-0.813,0.104c-0.363-0.207-0.66-0.524-0.537-0.938c0.362-1.207-0.422-1.237-1.245-1.354
		c-1.461-0.208-2.889-0.741-4.347,0.188c-0.496,0.316-0.999,0.433-1.149,1.117C28.004,68.956,27.527,69.01,27.006,68.704z"/>
	<path fill="#637093" d="M9.315,46.244c0.691-1.248,1.121-2.6,1.447-3.974c0.112-0.473,0.105-0.953,0.502-1.307
		c2.392-2.124,3.429-5.096,4.704-7.867c0.687-1.491,1.513-2.744,2.651-3.878c0.951-0.948,2.086-1.753,2.65-3.043
		c0.568,0.557,0.157,1.077-0.081,1.582c-1.769,3.748-3.756,7.41-5.266,11.259c-1.491,3.8-3.454,7.326-5.385,10.885
		c-0.558,1.027-0.374,2.406-1.632,3.298c-0.333-1.732-0.056-3.361-0.191-4.965C8.519,47.452,8.768,46.803,9.315,46.244z"/>
	<path fill="#717C9E" d="M30.295,18.007c0.683,0.444,1.107,0.06,1.393-0.501c1.321-2.595,2.979-5.039,3.571-7.964
		c0.132-0.655,0.826-0.905,1.137-1.44c0.057,0.042,0.115,0.084,0.174,0.125c0.813,1.127,1.138,2.506,1.892,3.667
		c0.293,0.451,0.219,0.927-0.102,1.331c-0.315,0.397-0.377,0.861-0.459,1.329c-1.178,2.643-2.829,5.018-4.25,7.525
		c-0.484,0.943-1.009,1.86-1.632,2.72c-0.396,0.547-0.774,1.268-1.583,0.883c-0.757-0.36-0.596-1.151-0.443-1.8
		c0.25-1.062,0.221-2.095-0.07-3.135C29.954,19.821,29.56,18.836,30.295,18.007z"/>
	<path fill="#FBFCFC" d="M22.153,60.789c-0.38,1.019-1.284,0.695-1.829,0.473c-1.999-0.822-3.969-0.491-5.93-0.04
		c-1.165,0.268-1.777-0.009-1.842-1.24c0.108-0.104,0.217-0.211,0.325-0.315c0.333-0.406,0.61-0.863,1.028-1.193
		c0.532-0.42,0.646-0.888,0.303-1.502c-0.473-0.844-0.275-1.667,0.19-2.452c0.293-0.496,0.526-1.021,0.773-1.54
		c0.664-1.394,0.985-1.536,2.609-1.236c0.402,0.138,0.736,0.388,1.056,0.655c1.611,1.369,1.611,1.369,0.976,3.324
		c-0.1,0.309-0.319,0.617,0.023,0.913c0.112,0.077,0.215,0.16,0.321,0.242C21.513,57.828,22.592,58.922,22.153,60.789z"/>
	<path fill="#949EB9" d="M12.837,59.364c-0.415-0.877-0.163-2.512-2.114-1.442c-0.728,0.397-0.528-0.663-0.404-1.041
		c0.575-1.753,0.733-3.554,0.762-5.378c0.102-0.105,0.209-0.203,0.324-0.294c0.588-0.216,0.988-0.685,1.193-1.211
		c1.947-5.009,4.583-9.695,6.763-14.594c1.468-3.299,3.075-6.527,4.585-9.801c1.108-2.4,2.322-4.75,3.408-7.16
		c0.389-0.863,0.783-1.712,1.979-1.531c0.392,0.134,0.619,0.421,0.749,0.8c0.037,0.151,0.009,0.293-0.081,0.422
		c-1.119,1.171-1.907,2.579-2.587,4.014c-2.112,4.458-4.534,8.768-6.257,13.415c-0.635,1.712-1.633,3.3-2.531,4.9
		c-2.424,4.324-4.212,8.922-6.085,13.487c-0.5,1.219-0.751,2.39,0.34,3.487c0.396,0.399,0.676,0.961,0.47,1.603
		C13.242,59.247,13.11,59.417,12.837,59.364z"/>
	<path fill="#717C9E" d="M29.993,17.727c-0.195-0.197-0.391-0.394-0.585-0.59c-1.059-0.494-1.548,0.248-1.91,0.986
		c-2.169,4.417-4.275,8.87-6.336,13.336C18.839,36.488,16.497,41.506,14.1,46.5c-0.625,1.302-0.999,2.716-1.744,3.979
		c-0.263,0.445-0.57,0.758-0.989,1.007c-0.095,0.003-0.19,0.009-0.286,0.016c-0.175-0.806,0.42-1.342,0.673-2.004
		c0.979-2.569,2.294-4.979,3.452-7.466c2.091-4.488,3.98-9.079,6.254-13.473c1.175-2.271,2.123-4.642,3.251-6.926
		c1.18-2.388,2.303-4.694,4.218-6.589c0.479-0.475,0.604-1.299,0.913-1.954c0.169-0.358,0.379-0.727,0.878-0.489
		c0.385,0.184,0.281,0.507,0.271,0.865c-0.04,1.458-0.394,2.854-0.709,4.261C30.185,17.87,30.088,17.87,29.993,17.727z"/>
	<path fill="#C0C7DA" d="M27.006,68.704c0.313-0.118,0.948,0.079,0.796-0.532c-0.269-1.088,0.305-1.272,1.15-1.256
		c0.472,0.009,0.821-0.213,1.141-0.521c0.433-0.418,0.967-0.443,1.479-0.255c0.911,0.336,1.845,0.432,2.803,0.538
		c0.75,0.083,2.027,0.232,0.871,1.558c-0.39,0.447,0.2,0.656,0.283,0.991c-0.647,0.924-1.146,2.067-2.62,1.763
		c-0.093,0-0.186-0.002-0.279-0.006c-0.361-0.543-1.114-0.058-1.489-0.564c-0.75-0.345-1.582-0.463-2.316-0.853
		C28.263,69.19,27.353,69.541,27.006,68.704z"/>
	<path fill="#717C9E" d="M30.831,8.092c0.84-1.621,2.747-1.702,4.005-2.749c0.637-0.53,0.986,0.566,1.56,0.73
		c0.108,0.287,0.217,0.573,0.326,0.86c-0.659-0.366-1.304-0.135-1.355,0.508c-0.113,1.396-1.335,2.061-1.827,3.181
		c-0.134,0.305-0.316,0.657-0.739,0.549c-0.389-0.101-0.389-0.478-0.484-0.808C32.058,9.463,32.307,8.205,30.831,8.092z"/>
	<path fill="#D9E2EF" d="M12.837,59.364c0.108-0.09,0.216-0.18,0.324-0.27c0.302-0.509,0.083-0.889-0.251-1.301
		c-0.822-1.02-0.853-2.086-0.186-3.229c0.365-0.626,0.701-1.271,1.06-1.902c1.047-1.843,1.265-1.933,3.381-1.434
		c0.326,0.188,0.711,0.337,0.596,0.84c-1.406-0.525-2.012,0.195-2.376,1.441c-0.144,0.492-0.507,0.92-0.763,1.381
		c-0.341,0.615-0.624,1.326-0.08,1.882c0.912,0.934,0.565,1.518-0.398,1.967c-0.496,0.231-0.445,1.177-1.266,0.926
		C12.864,59.565,12.851,59.464,12.837,59.364z"/>
	<path fill="#8790AB" d="M28.827,69.566c0.921-0.121,1.674,0.213,2.316,0.853C30.262,70.43,29.392,70.416,28.827,69.566z"/>
	<path fill="#D2DEFE" d="M9.315,46.244c-0.2,0.664-0.4,1.327-0.601,1.99c-0.08,0.025-0.162,0.041-0.246,0.048
		c-0.024-1.145,0.405-2.166,0.847-3.186C9.316,45.479,9.315,45.861,9.315,46.244z"/>
	<path fill="#8E97B3" d="M29.993,17.727c0.096-0.005,0.193-0.005,0.29,0.001c0,0.093,0.005,0.187,0.013,0.279
		c0.008,0.956,0.015,1.912,0.022,2.868c-0.076,0.025-0.152,0.052-0.229,0.077c-0.328-0.167-0.433-0.467-0.482-0.801
		c-0.075-0.74-0.192-1.489,0.372-2.118C29.983,17.931,29.988,17.829,29.993,17.727z"/>
	<path fill="#4E5769" d="M44.524,88.204c-0.696-1.686-2.294-1.546-3.678-1.768c-1.141-0.182-2.304-0.227-3.458-0.323
		c-0.405-0.033-0.79-0.099-0.906-0.564c-0.109-0.44,0.273-0.548,0.535-0.753c0.91-0.711,2.051-0.82,3.085-1.204
		c0.428-0.159,0.731,0.125,1.001,0.426c1.646,1.836,3.63,2.917,6.161,3.01c2.484,0.092,4.061,2.07,6.057,3.177
		c0.511,0.282,0.149,0.776-0.285,1.01c-1.315,0.705-2.629,1.414-3.965,2.077c-0.526,0.26-0.885,0.052-1.104-0.54
		c-0.282-0.764-0.211-1.534-0.2-2.302c0.014-1.032-0.327-1.648-1.466-1.74c-0.607-0.049-1.195-0.332-1.792-0.51L44.524,88.204z"/>
	<path fill="#2A272D" d="M56.188,85.542c0.426-1.455,0.292-2.949,0.32-4.434c0.008-0.414-0.161-1.011,0.34-1.144
		c0.508-0.135,0.381,0.559,0.63,0.8c0.945,0.918,1.611,2.145,3.038,2.523c0.94,0.251,0.992,1.192,1.224,1.961
		c0.452,1.189-0.08,1.89-1.208,2.091c-0.736,0.132-1.361,0.495-1.979,0.8c-1.044,0.518-1.813,0.104-2.476-0.513
		C55.384,86.984,55.766,86.22,56.188,85.542z"/>
	<path fill="#848895" d="M59.944,75.307c0.049-0.395,0.253-0.679,0.609-0.854c0.886-0.271,1.82,0.023,2.706-0.229
		c0.238,0.03,0.436,0.126,0.555,0.346c-0.171,0.729-0.806,0.59-1.276,0.596c-1.098,0.014-1.119,0.595-0.673,1.284
		c1.215,1.878,2.277,3.853,3.497,5.79c0.558-0.526,0.135-1.358,0.789-1.707c0.372,0.091,0.434,0.32,0.29,0.644
		c-0.201,1.08,0.373,2.309-0.617,3.238c-0.466-0.011-0.757-0.162-0.971-0.659c-0.725-1.683-1.803-3.16-2.859-4.646
		c-0.19-0.269-0.41-0.613-0.688-0.705C59.663,77.871,59.561,76.706,59.944,75.307z"/>
	<path fill="#4A4E55" d="M56.188,85.542c-0.007,0.626-0.723,1.415,0.089,1.836c0.852,0.44,1.794,1.174,2.857,0.215
		c0.368-0.333,0.933-0.477,1.432-0.63c0.866-0.269,1.279-0.802,1.173-1.713c0.19,0.295,0.381,0.589,0.571,0.884
		c0.126,0.137,0.24,0.375,0.381,0.393c0.534,0.064,1.026,0.252,0.927,0.838c-0.105,0.622-0.735,0.527-1.196,0.499
		c-0.645-0.039-1.233,0.165-1.838,0.305c-0.226-0.443-0.47-0.416-0.916-0.201c-1.153,0.557-2.401,0.857-3.667,1.045
		c-0.575,0.086-1.228,0.126-1.548-0.469c-0.34-0.63,0.356-0.775,0.683-1.05C55.752,86.973,55.347,85.922,56.188,85.542z"/>
	<path fill="#303337" d="M66.441,81.176c-0.075-0.216-0.097-0.472-0.393-0.521c-1.326-0.568-1.321-1.814-1.51-2.964
		c0.059-0.378,0.093-0.861,0.558-0.876c0.558-0.017,0.742,0.511,0.943,0.943c0.144,0.879,0.827,1.457,1.234,2.189
		c0.743,0.983,1.307,2.051,1.524,3.278c0.174,0.79,0.326,1.584,0.534,2.367c0.117,0.688,0.244,1.373,0.303,2.07
		c-0.045,0.45-0.12,0.906-0.702,0.92c-0.447,0.009-0.606-0.382-0.859-0.681c-0.603-0.711-0.17-1.615-0.527-2.356
		C66.87,84.168,66.712,82.658,66.441,81.176z"/>
	<path fill="#37394E" d="M66.388,89.338c0.055,0.577-0.239,0.914-0.764,1.07c-0.423,0.126-0.639-0.079-0.701-0.488
		C65.226,89.257,65.816,89.322,66.388,89.338z"/>
	<path fill="#454141" d="M89.502,82.562c-0.243,0.083-0.492,0.146-0.752,0.175c-1.049,0.116-1.955-0.432-2.854-0.796
		c-0.375-0.151,0.25-0.91,0.201-1.432c-0.028-0.301-0.108-0.557-0.345-0.751c-0.119-0.082-0.256-0.21-0.377-0.188
		c-1.402,0.273-2.771,0.4-3.905-0.738c-0.003-0.003-0.069,0.057-0.104,0.088c-0.521,1.368-0.232,2.769-0.185,4.162
		c0.007,0.233,0.094,0.539-0.183,0.644c-0.345,0.13-0.519-0.16-0.664-0.411c-0.463-0.792-0.377-1.684-0.449-2.548
		c-0.166-1.992-0.17-1.992,1.709-2.174c0.613-1.081-0.643-1.905-0.408-2.933c-0.104-0.192-0.237-0.339-0.48-0.318
		c-0.627,0.937-1.265,1.518-2.184,0.254c-0.208-0.286-0.686-0.657-0.964,0.054c0.882,2.778,0.644,5.729,1.301,8.545
		c0.233,0.997-0.306,1.418-1.271,1.447c-1.012,0.031-1.545-0.479-1.646-1.436c-0.121-1.152-0.196-2.318-0.435-3.445
		c-0.357-1.699-1.098-3.181-2.954-3.737c-0.476,0.492-0.154,0.944,0.166,1.271c1.127,1.15,1.366,2.64,1.604,4.111
		c0.219,1.332,0.403,2.664,0.885,3.99c-0.295-0.497-0.199-1.271-1.076-1.128c-0.358,1.032-1.166,1.712-1.908,2.453
		c-1.633,1.631-1.039,4.4,1.107,5.258c0.319,0.007,0.58-0.122,0.81-0.334c0.68-0.876,1.274-1.775,0.924-3.1
		c0.61,2.878,1.562,3.573,3.543,2.698c0.067-0.461,0.193-0.889,0.627-1.149c0.655-0.054,0.524-0.547,0.537-0.959
		c-0.364-0.758,0.343-1.367,0.288-2.081c-0.077-1.017,0.041-1.972,1.113-2.428c1.086-0.461,1.949-0.009,2.672,0.813
		c0.65,1.326,1.798,1.026,2.898,0.89c-0.3-0.829-0.595-1.632,0.842-1.554c0.351,0.02,0.638-0.315,0.572-0.688
		c-0.197-1.108,0.571-1.369,1.352-1.656c0.125-0.046,0.258-0.085,0.386-0.129C89.743,83.067,89.615,82.818,89.502,82.562z"/>
	<path fill="#88929E" d="M89.387,78.85c0.248-0.681,0.627-1.313,1.146-1.832c0.856-0.857,2.282-1.59,3.535-1.465
		c0.151,0.015,0.304,0.027,0.456,0.04c-0.042-0.379-0.083-0.759-0.14-1.135c-0.279-0.188-0.588-0.164-0.786,0.062
		c-0.634,0.714-1.574,0.891-2.31,1.383c-0.929,0.621-2.265,0.576-2.851,1.736C88.977,77.946,89.231,78.365,89.387,78.85z"/>
	<path fill="#88929E" d="M89.069,80.553c0-0.142,0.03-0.28,0.042-0.421c-0.486-0.647-0.886-1.235-1.269-1.825
		c-0.723-0.684,0.175-1.629-0.381-2.34c-0.101-0.092-0.221-0.132-0.356-0.125c-0.124,0.052-0.231,0.128-0.321,0.229
		c-0.314,0.508-0.813,0.629-1.359,0.652c-0.272,0.039-0.53,0.108-0.725,0.318c0.287,0.787,0.768,1.521,0.596,2.431
		c-0.025,0.143,0.215,0.286,0.379,0.381c1.217,0.816,2.742,1.195,3.559,2.591c0.075,0.131,0.205,0.222,0.354,0.276
		C89.261,82.046,89.069,81.311,89.069,80.553z"/>
	<path fill="#AEB5C8" d="M43.1,71.285c-1.219,0.695-2.61-0.014-3.893,0.411c0.06,0.729,1.202,0.424,1.033,1.142
		c-0.072,0.305-0.6,0.141-0.922,0.185c-2.175-0.553-4.185-1.629-6.407-2.033c0.379-0.026,0.929,0.02,0.993-0.389
		c0.156-0.988,1.069-0.941,1.627-1.374c0.192-0.092,0.385-0.184,0.578-0.274c1.424-0.705,2.71,0.001,3.992,0.449
		C41.227,69.795,42.273,70.38,43.1,71.285z"/>
	<path fill="#98A3B3" d="M24.755,61.966c-0.086-0.02-0.172-0.025-0.26-0.021c-0.793-0.359-1.69-0.512-2.342-1.157
		c-0.346-1.532-0.821-2.981-2.397-3.721c0.382-0.514,0.866-0.248,1.319-0.164c0.631,0.117,1.013-0.019,1.05-0.769
		c0.104-2.121,0.57-4.185,1.13-6.224c0.127-0.461,0.162-0.828-0.147-1.199c-0.104-0.286-0.119-0.588-0.001-0.854
		c1.115-2.523,1.568-5.275,2.692-7.797c1.337-2.998,2.206-6.165,3.338-9.237c0.421-0.569,0.413-1.591,1.513-1.453
		c0.41,0.62,0.12,1.216-0.093,1.797c-1.398,3.81-2.783,7.623-4.205,11.424c-0.571,1.526-1.219,3.035-0.688,4.765
		c0.246,0.804-0.276,1.59-0.531,2.364c-0.455,2.307-1.132,4.591-0.816,7.07c1.007-0.234,1.044-1.664,2.17-1.516
		c-0.292,1.277-1.22,2.141-2.04,3.062c-0.45,0.504-0.853,0.949-0.269,1.597C24.383,60.609,25.702,60.966,24.755,61.966z"/>
	<path fill="#C0C7DA" d="M46.344,69.545c-0.124,0.016-0.252,0.026-0.382,0.033c-0.739,1.127-1.547,0.42-2.309,0.038
		c-2.18-1.095-4.061-2.849-6.668-2.988c-0.126,0.182-0.382,0.505-0.359,0.523c1.039,0.96-0.018,1.3-0.518,1.798
		c1.947,0.123,3.78,0.601,5.432,1.686c0.472,0.31,0.913,0.739,1.559,0.648c0.582-0.193,1.164-0.388,1.747-0.58
		c0.411-0.315,0.911-0.042,1.342-0.203c0.272-0.102,0.503-0.285,0.419-0.615C46.564,69.712,46.472,69.597,46.344,69.545z"/>
	<path fill="#BBC4CF" d="M39.613,11.884c0.392,0.318,0.27,0.737,0.223,1.142c0.054,0.873-0.48,1.547-0.772,2.305
		c-0.877,1.586-1.853,3.11-2.861,4.616c-0.699,0.559-1.064,1.365-1.564,2.072c-0.229,0.325-0.544,0.603-0.977,0.456
		c-0.33-0.112-0.414-0.377-0.168-0.679c0.926-2.227,2.459-4.115,3.498-6.279c0.166-0.346,0.379-0.67,0.57-1.003
		c0.136-0.914,0.975-1.504,1.083-2.468C38.695,11.603,39.239,11.688,39.613,11.884z"/>
	<path fill="#97A2B1" d="M33.494,21.795c0.373,0.928,0.607,0.308,0.885-0.071c0.514-0.702,0.667-1.71,1.681-1.989
		c0.333,0.667-0.208,1.083-0.47,1.565c-1.176,2.16-2.93,4-3.555,6.47c-0.099,0.392-0.326,0.844-0.909,0.75
		c-0.411-0.789,0-1.977-1.165-2.408c-0.757-1.769-0.196-3.462,0.289-5.159l0.067-0.076c0.501,1.113,0.262,2.227,0.037,3.355
		c-0.085,0.424-0.301,1.054,0.316,1.243c0.532,0.165,0.616-0.398,0.842-0.765C32.129,23.711,32.828,22.763,33.494,21.795z"/>
	<path fill="#97A0B7" d="M17.761,52.069c-0.197-0.189-0.394-0.38-0.59-0.568c-0.406-3.467,0.444-6.669,1.946-9.77
		c1.113-2.299,2.171-4.628,3.156-6.983c0.483-1.156,1.312-2.016,2.141-2.893c0.687-1.193,2.162-1.691,2.678-3.039
		c0.694-0.906,0.481-2.398,1.849-2.873c0.599,0.04,0.771,0.44,0.806,0.955c-0.082,1.445-0.812,2.672-1.404,3.928
		c-2.512,5.32-4.752,10.766-7.298,16.069c-0.55,0.903-1.105,1.785-0.579,2.928c0.185,0.402-0.017,0.857-0.28,1.212
		c-0.307,0.412-0.292,0.762,0.043,1.15c0.253,0.292,0.489,0.666,0.169,1.023c-0.369,0.414-0.681,0.01-0.993-0.172
		c-0.245-0.143-0.547-0.182-0.742-0.412C18.362,52.439,18.062,52.253,17.761,52.069z"/>
	<path fill="#CAD2D5" d="M18.663,52.625c0.56-0.064,0.965,0.357,1.427,0.533c0.34-0.404,0.039-0.604-0.163-0.762
		c-0.598-0.468-1.5-0.852-0.094-1.479c0.333-0.148,0.515-0.84,0.343-1.018c-1.258-1.295,0.104-2.099,0.498-3.079
		c0.802,0.412,0.862-0.31,1.08-0.73c1.396-2.707,2.319-5.625,3.69-8.342c0.936-1.854,1.683-3.798,2.663-5.628
		c0.287-0.534,0.421-1.352,1.331-1.296c-0.426,2.188-1.255,4.257-2.047,6.319c-1.485,3.864-2.81,7.781-4.097,11.713
		c0.151,0.222,0.149,0.462,0.053,0.692c-1.084,2.584-2.011,5.249-3.822,7.461c-0.492-0.211-0.68-0.515-0.31-0.995
		C20.236,54.689,20.083,53.553,18.663,52.625z"/>
	<path fill="#6A7687" d="M19.526,57.01c-0.063-0.406,0.076-0.765,0.299-1.086c1.515-2.18,2.252-4.741,3.469-7.067
		c0.181-0.146,0.362-0.294,0.929-0.755c-0.8,2.382-1.142,4.453-1.554,6.51c-0.093,0.467-0.304,0.905-0.144,1.407
		c0.142,0.44,0.4,0.958-0.218,1.251c-0.467,0.223-0.966,0.492-1.477,0.053c-0.312-0.269-0.674-0.353-1.076-0.255
		C19.676,57.062,19.599,57.042,19.526,57.01z"/>
	<path fill="#AFB9CC" d="M24.764,31.988c-2.125,2.184-2.936,5.075-4.21,7.725c-1.138,2.364-2.034,4.82-3.001,7.251
		c-0.12,0.303-0.461,0.646-0.199,0.937c1.167,1.282,0.068,2.413-0.182,3.602c-1.7-0.533-2.683,0.16-3.243,1.777
		c-0.197,0.57-0.56,1.115-0.879,1.634c-0.689,1.116-0.572,2.084,0.238,3.01c0.424,0.483,0.385,0.833-0.126,1.174
		c0.045-0.751-0.407-1.323-0.849-1.793c-0.833-0.884-0.831-1.833-0.42-2.822c1.83-4.4,3.436-8.894,5.78-13.08
		c1.928-3.442,3.443-7.101,5.088-10.689c1.903-4.152,3.797-8.33,6.257-12.207c0.246-0.388,0.538-0.524,0.962-0.469
		c0.003,0.769,0.006,1.537,0.009,2.307c-0.643,0.312-1.021,0.868-1.308,1.485c-1.394,3.005-2.87,5.97-4.29,8.962
		C24.111,31.375,24.111,31.75,24.764,31.988z"/>
	<path fill="#8E97B3" d="M11.367,51.487c2.118-3.947,3.786-8.112,5.785-12.113c2.019-4.041,3.745-8.215,5.793-12.246
		c1.497-2.946,2.772-6.032,4.191-9.032c0.393-0.831,0.943-2.012,2.271-0.958c-0.814-0.067-1.292,0.396-1.535,1.083
		c-0.694,1.965-2.129,3.597-2.72,5.553c-0.65,2.155-1.833,4.031-2.809,5.98c-1.506,3.009-2.595,6.189-4.19,9.163
		c-1.87,3.485-3.519,7.103-5,10.783C12.821,50.526,12.582,51.513,11.367,51.487z"/>
	<path fill="#C6CDDD" d="M24.764,31.988c-0.394,0.148-0.786,0.298-1.268,0.479c-0.214-1.057,0.45-1.909,0.846-2.626
		c1.605-2.905,2.75-6.025,4.34-8.93c0.307-0.561,0.58-1.04,1.305-0.57c0.088,0.203,0.176,0.407,0.263,0.611
		c0.084,1.146-0.026,2.273-0.224,3.404c-0.105,0.601-0.131,1.242,0.285,1.785c-0.147,0.445-0.243,0.941-0.887,0.893
		c0.015-0.438-0.037-0.828-0.593-0.881c0.238-1.057,0.605-2.088,0.613-3.53c-1.01,2.353-1.944,4.398-3.096,6.324
		c0.385,0.307,0.729-0.121,1.026,0.123C26.97,30.459,25.41,30.815,24.764,31.988z"/>
	<path fill="#A8B0C4" d="M66.085,71.069c-0.207-0.11-0.401-0.242-0.609-0.352c-2.247-0.592-4.577-0.557-6.859-0.898
		c-1.08-0.162-1.693-0.244-1.994-0.474c-0.558-0.139-1.1-0.324-1.626-0.554c-0.195,0.127-0.478,0.188-0.879,0.195
		c-1.462,0.025-2.883-0.249-4.325-0.32c-0.725,0.376-1.526,0.466-2.31,0.615c-0.008-0.003-0.016-0.008-0.024-0.011
		c-0.432,0.163-0.911,0.269-1.437,0.306c0.532,0.251,0.578,0.531-0.024,0.782c-0.369,0.155-0.855-0.061-1.154,0.348
		c3.652-0.027,7.349-0.415,10.871,0.903c1.6,0.599,3.248,0.669,4.895,0.865c0.658-0.305,1.315-0.608,1.973-0.914
		c1.138-0.297,2.218-0.262,3.155,0.564c0.385,0.045,0.822,0.072,0.934-0.381C66.765,71.364,66.373,71.222,66.085,71.069z"/>
	<path fill="#6D748A" d="M80.388,69.2c-0.505,0.026-1.008,0.043-1.472-0.271c0.097,0.798-0.248,1.173-1.051,1.321
		c-0.428,0.078-0.962,0.03-1.289,0.458c0.188,1.003-0.74,1.566-0.957,2.439c-0.396,1.591-0.936,1.698-2.068,0.563
		c-0.271-0.271-0.471-0.604-0.733-0.878c-0.319-0.336-0.629-0.782-1.192-0.373c-0.438,1.027-1.129,0.482-1.766,0.286
		c-0.09,0.115-0.145,0.245-0.166,0.39c0.053,0.564,0.313,1.087,0.273,1.672c-0.028,0.418-0.059,0.89,0.551,0.966
		c0.406-0.097,0.852-0.341,1.16,0.155c1.043,1.676,2.492,1.575,4.141,1.088c1.525-0.45,1.684-0.564,1.485-2.178
		c-0.025-0.526-0.118-1.122,0.536-1.322c0.529-0.161,1.131-0.413,1.635,0.032c0.508,0.449,0.697,1.118,1.01,1.701
		c0.055,0.039,0.107,0.08,0.162,0.12c0.105,0.09,0.213,0.182,0.318,0.272c0.66,2.211,1.521,2.612,3.166,1.466
		c-0.487-1.899-0.999-3.794-1.447-5.704C81.718,70.934,80.892,70.179,80.388,69.2z"/>
	<path fill="#A1ABBD" d="M76.577,70.708c0.325,0.036,0.65,0.071,1.248,0.138c-1.191,0.843-1.64,1.854-1.923,3.037
		c-0.282,1.171-1.153,1.261-2.164,0.608c-0.856-0.555-0.969-1.825-2.112-2.032c-0.299-0.226-0.279-0.538-0.238-0.858
		c0.689-0.616,1.434-0.886,2.301-0.351c-0.496,1.313,0.896,1.345,1.283,2.392c0.386-1.42-1.113-1.428-1.028-2.335
		c0.739-1.068-0.263-2.116-0.039-3.178c0.993,0.022,0.667,0.906,0.909,1.413c0.217,0.456-0.016,1.248,0.904,1.146
		C75.999,70.923,76.286,70.931,76.577,70.708z"/>
	<path fill="#A8B0C4" d="M70.77,78.82c-0.729,0.105-1.25-0.203-1.786-0.694c-0.956-0.878-1.671-1.961-2.582-2.883
		c-0.647-0.656-0.225-1.8,0.212-2.599c0.441-0.808,1.218-0.507,1.902-0.243c0.261,0.102,0.527,0.189,0.791,0.283
		c0.184,0.021,0.367,0.04,0.552,0.061c0,0.1,0.002,0.198,0.003,0.298c-0.386,0.42-0.873,0.359-1.346,0.248
		c-1.131-0.267-1.002,0.285-0.672,0.995c0.574,1.234,1.347,2.333,2.255,3.344C70.406,77.969,70.893,78.229,70.77,78.82z"/>
	<path fill="#474A4F" d="M111.834,63.002c-0.51-0.591-0.977-0.256-1.519,0.002c-1.711,0.815-3.222,2.021-5.056,2.594
		c-1.768,0.637-3.295,1.737-4.963,2.562c-0.676,0.49-0.826,1.474-1.604,1.834c-1.709,0.791-3.327,1.75-4.991,2.624
		c-2.125,1.115-4.375,1.994-6.39,3.326c0.142,0.593-0.226,1.11-0.247,1.675c-0.013,0.334-0.169,0.868,0.534,0.627
		c0.455,0.033,0.803-0.092,0.885-0.604c0.876-0.434,1.802-0.777,2.703-1.168c0.454-0.323,0.977-0.594,1.52-0.759
		c0.578-0.339,1.128-0.731,1.614-1.239c0.822-0.083,1.324-1.488,2.387-0.574c0.844-0.102,0.617-1.15,1.265-1.43
		c2.212-0.95,3.825-2.835,5.905-3.92c2.759-1.439,5.028-3.638,7.916-4.834c0.008-0.104,0.019-0.206,0.028-0.309
		C111.895,63.275,111.898,63.14,111.834,63.002z"/>
	<path fill="#2A2E34" d="M109.752,66.327c-0.211-0.273-0.524-0.373-0.756-0.147c-1.228,1.204-3.203,1.3-4.229,2.665
		c-0.848,1.129-1.969,1.292-3.125,1.713c-1.352,0.491-2.45,1.534-3.671,2.313c-0.608,0.388-0.771,0.774-0.761,1.381
		c-0.1,0.109-0.203,0.112-0.315,0.022c-0.063-0.125-0.127-0.249-0.188-0.374c0.301-1.063,0.875-1.775,1.963-2.265
		c1.262-0.565,2.309-1.565,3.447-2.361c2.907-2.029,5.979-3.823,9.002-5.686c0.144-0.089,0.444,0.08,0.674,0.129
		C111.947,65.241,110.799,65.744,109.752,66.327z"/>
	<path fill="#707988" d="M113.866,64.035c-0.02,0.084-0.031,0.168-0.037,0.253c-0.361,0.59-0.697,1.245-1.263,0.135
		c-0.188-0.368-0.493-0.677-0.744-1.013c-0.012-0.096-0.022-0.188-0.032-0.283c-0.43-0.749-0.356-1.325,0.551-1.614
		c0.578,0.052,0.451,0.521,0.518,0.878c0.105,0.575,0.165,1.186,0.936,1.27C113.817,63.784,113.84,63.909,113.866,64.035z"/>
	<path fill="#3C464F" d="M65.81,71.859c0.594,0.951-0.183,1.335-0.788,1.64c-0.562,0.281-1.1,0.576-1.598,0.953
		c-0.957,0.001-1.914,0.002-2.871,0.003c0.904-0.549,2.124-0.046,2.948-0.894c0.161-0.166,0.465-0.19,0.623-0.357
		c0.326-0.345,0.81-0.704,0.705-1.202c-0.14-0.654-0.786-0.37-1.229-0.422c-0.334-0.039-0.676-0.016-1.015-0.02
		C63.718,71.025,64.801,71.039,65.81,71.859z"/>
	<path fill="#E8EDF0" d="M63.729,74.844c0.502,0.908,0.507,2.021,1.176,2.86c0.06,1.106,0.563,2.044,1.143,2.949
		c-0.011,0.825,0.512,2.014-0.462,2.309c-0.664,0.201-0.902-1.06-1.288-1.682c-1.027-1.656-2.02-3.339-2.957-5.049
		c-0.754-1.377-0.618-1.543,0.94-1.467C62.765,74.79,63.248,74.818,63.729,74.844z"/>
	<path fill="#545151" d="M73.094,93.111c-0.586-0.36-1.17-0.424-1.758-0.004c-0.099-0.095-0.197-0.188-0.295-0.282
		c-0.246-1.333-1.063-2.381-1.746-3.495c0.267-0.582,0.537-1.164,0.006-1.748c-0.4-0.634-0.271-1.346-0.302-2.032
		c-0.274-0.759-0.018-1.645-0.56-2.338c-0.198-1.198-0.937-2.146-1.481-3.186c1.415,0.037,1.999,1.084,2.369,2.171
		c0.357,1.054,0.813,2.077,1.063,3.17c0.136,0.592,0.381,1.134,1.133,1.099c0.682-0.031,1.203-0.328,1.501-0.971
		c0.222-0.478,0.183-1.065,0.624-1.449c0.775,0.136,0.678,0.686,0.586,1.231c0.199,1.073-0.554,1.687-1.195,2.292
		c-1.826,1.729-1.717,3.777,0.338,5.245C73.454,93.077,73.354,93.17,73.094,93.111z"/>
	<path fill="#61626D" d="M73.659,84.102c0.038,0.781,0.043,1.618-0.515,2.188c-0.582,0.595-1.401,0.861-2.267,0.667
		c-0.853-0.192-0.762-1.013-0.979-1.612c-0.704-1.927-0.814-4.178-2.94-5.318c-0.445-0.647-1.208-1.117-1.158-2.047
		c0.326,0.276,0.689,0.52,0.97,0.836c0.751,0.852,1.533,1.271,2.605,0.492c0.401-0.292,0.929-0.16,1.404-0.14
		c0.602,0.024,1.16-0.012,1.463-0.647c0.45-0.039,0.78,0.224,0.877,0.591C73.547,80.744,74.107,82.372,73.659,84.102z"/>
	<path fill="#5E5D64" d="M70.441,75.667c0.521-0.854,1.072-0.681,1.579-0.012c0.434,0.57,0.753,1.43,1.539,1.38
		c1.082-0.068,2.189-0.313,3.202-0.706c0.764-0.298,0.104-1.013,0.101-1.539c0.081-0.107,0.188-0.149,0.322-0.128
		c0.313,0.138,0.523,0.352,0.548,0.711c1.295,1.716,0.733,3.81,1.117,5.711c0.194,0.976,0.271,2,0.496,2.979
		c0.204,0.898,0.219,1.668-0.804,2.009c-1.328,0.443-2.521,0.01-2.924-1.011c-0.416-1.052-0.367-2.213-0.406-3.271
		c-0.078-2.145-1.182-3.482-2.713-4.674c-0.496,0.348-0.723-0.902-1.281-0.217C70.563,76.736,70.275,76.344,70.441,75.667z"/>
	<path fill="#252730" d="M71.29,76.865c0-0.263,0-0.524,0-0.813c0.674,0.08,0.78,0.756,1.211,1.064
		c0.942,1.435,1.979,2.795,2.19,4.607c0.233,1.985,0.644,3.949,0.84,5.965c-0.524-0.773-0.674-1.722-1.299-2.412
		c-0.437-0.271-0.103-0.921-0.573-1.175c-0.255-1.21-0.601-2.397-0.617-3.656c-0.013-0.714-0.179-1.432-0.799-1.926
		c-0.105-0.085-0.212-0.171-0.316-0.256C71.396,77.942,71.161,77.487,71.29,76.865z"/>
	<path fill="#2C2C34" d="M81.527,78.849c0.072,1.494-0.188,3.001,0.183,4.484c0.105,0.423,0.244,0.991-0.313,1.099
		c-0.458,0.088-1.093,0.112-1.339-0.553c-0.252-0.675-0.636-1.298-0.584-2.073c0.043-0.672,0.012-1.341-0.188-2.013
		c-0.139-0.472-0.361-1.193,0.276-1.404c0.604-0.2,1.38-0.652,1.956,0.169c0.066,0.063,0.09,0.127,0.07,0.192
		C81.57,78.817,81.549,78.849,81.527,78.849z"/>
	<path fill="#5C5A5B" d="M81.527,78.849c-0.002-0.097-0.004-0.193-0.008-0.291c0.063-1.019-1.194-1.787-0.556-2.916
		c0.625,1.418,1.601,2.083,3.166,1.466c0.187,0.009,0.373,0.018,0.561,0.024c1.704,0.35,0.87,1.616,0.926,2.562
		c0.098,0.073,0.127,0.146,0.092,0.212s-0.07,0.102-0.104,0.102c-0.353-0.187-0.729-0.304-1.076-0.052
		C82.961,81.098,82.196,80.115,81.527,78.849z"/>
	<path fill="#666568" d="M89.344,82.114c-0.003-0.006-0.008-0.01-0.01-0.016c-0.655-1.734-2.314-1.861-3.719-2.405
		c-0.004,0.105-0.008,0.209-0.012,0.313c0.572,0.999-0.784,1.755-0.389,2.849c0.541-0.426,0.951-0.549,1.57-0.158
		c0.935,0.589,1.948,0.723,2.93,0.264C89.565,82.689,89.441,82.407,89.344,82.114z"/>
	<path fill="#12141C" d="M77.732,75.373c-0.2-0.196-0.399-0.395-0.601-0.592c-0.26-0.6-0.106-1.078,0.535-1.217
		c0.845-0.18,1.711-0.291,2.388,0.496c0.327,0.382,0.36,0.876,0.583,1.295l0.009,0.014c0.041,0.701-0.017,1.427-0.795,1.656
		c-0.783,0.232-1-0.533-1.378-0.999C78.269,75.775,77.982,75.588,77.732,75.373z"/>
	<path fill="#8A92A6" d="M109.776,60.228c-4.205,2.196-8.432,4.354-12.6,6.618c-0.43,0.233-0.744,0.316-0.996,0.258
		c-0.427,0.353-0.921,0.63-1.455,0.846c-0.406,0.412-0.947,0.646-1.641,0.68c-0.149,0.075-0.301,0.147-0.449,0.226
		c-0.623,0.331-1.238,0.676-1.864,1.001c-0.999,0.518-2.025,0.998-3.08,1.396c-0.134,0.522-0.583,0.604-1.656,0.531
		c-0.004,0.001-0.007,0.001-0.011,0.002c-0.716,1.184-0.198,3.565,0.982,4.513c0.029-0.14,0.058-0.279,0.086-0.418
		c0.218-0.221,0.26-0.496,0.246-0.789c-0.19-0.728,0.351-0.902,0.842-1.12c2.921-1.292,5.795-2.685,8.396-4.551
		c1.307-0.938,2.666-1.72,4.228-2.078c0.868-0.199,1.588-0.665,2.377-1.003c2.549-1.092,4.455-3.268,7.123-4.134
		c0.272-0.089,0.495-0.301,0.661-0.545C111.273,60.275,111.129,60.1,109.776,60.228z"/>
	<path fill="#EEF4F6" d="M86.152,71.924c0.08-0.068,0.127-0.141,0.174-0.212c-0.05,0.015-0.1,0.034-0.15,0.048
		c-0.884,0.246-1.783,0.209-2.622-0.024c0.379,1.384,0.758,2.768,1.099,4.162c0.147,0.605,0.574,0.854,0.981,1.175
		c0.598-0.013,1.289,0.141,1.373-0.776C86.624,74.858,85.874,73.491,86.152,71.924z"/>
	<path fill="#62626A" d="M87.094,75.878c-0.02-0.269-0.039-0.535-0.059-0.803c-0.322-0.879,0.43-0.945,0.911-1.128
		c3.078-1.152,6.05-2.525,8.873-4.216c0.624-0.373,1.218-0.778,1.802-1.212c0.555-0.41,1.168-0.738,1.828-0.146
		c-0.51,1.98-2.371,2.38-3.834,3.188c-2.507,1.385-5.076,2.657-7.637,3.947c-0.51,0.257-1.064,0.466-1.667,0.437
		C87.233,75.943,87.161,75.92,87.094,75.878z"/>
	<path fill="#929BAE" d="M133.864,48.926c-0.72-0.131-1.63-0.337-2.127,0.099c-0.234,0.206-0.404,1.535-0.625,1.596
		c-1.976,0.539-5.68,2.38-6.063,2.602c-0.696,0.403-1.129,0.396-1.417-0.141c-0.187,0.081-0.368,0.168-0.565,0.233h-0.001
		c-0.104,0.372-0.395,0.691-0.894,0.981c-1.575,0.917-3.254,1.601-4.896,2.372c-1.084-0.231-1.666,0.72-2.505,1.062
		c-0.842,0.667-1.849,1.021-2.8,1.482c-0.496,0.24-1.227,0.392-0.885,1.207c0.336,0.803,1.018,0.825,1.711,0.534
		c0.714-0.3,1.486-0.539,2.09-1c1.002-0.764,2.104-1.237,3.4-1.319c2.006-1.018,4.541-2.167,6.217-2.997
		c2.088-1.034,9.15-3.359,9.732-5.025C134.502,49.854,134.072,49.129,133.864,48.926z"/>
	<path fill="#707988" d="M114.136,57.916c0.278-0.027,0.559-0.057,0.838-0.083c-0.707,0.859-1.862,0.91-2.724,1.499
		c-0.396,0.271-1.236,0.271-0.889,1c0.361,0.754,0.988,0.438,1.588,0.1c1.076-0.612,2.203-1.138,3.303-1.715
		c0.617-0.324,3.666-1.463,4.349-1.297c-0.72,0.496-3.131,1.515-4.724,2.208c-0.241,0.975-1.51,1.41-1.361,2.59
		c-0.045,0.03-0.094,0.054-0.146,0.069c-0.582,0.354-1.029,0.087-1.447-0.314c-0.582-1.079-1.313,0.002-1.961-0.135
		c-0.131-0.019-0.244-0.071-0.338-0.167c0.508-0.945,0.27-1.452-0.849-1.443C111.229,59.457,112.683,58.686,114.136,57.916z"/>
	<path fill="#5B6684" d="M30.286,44.494c0.684-0.581,1.367-1.161,2.051-1.741c-0.015,0.094,0.005,0.235-0.049,0.274
		c-2.795,1.984-3.029,5.188-3.853,8.104c-0.422,1.494-0.957,2.924-1.948,4.145c-0.672,0.431-0.951,1.185-1.453,1.753
		c-0.238,0.271-0.354,0.785-0.827,0.635c-0.363-0.116-0.272-0.563-0.345-0.885c-0.282-1.254-0.039-2.477,0.212-3.692
		c0.229-1.111,0.128-2.292,0.688-3.335c0.689-0.252,0.234-1.398,1.151-1.474C27.433,47.088,29.299,46.299,30.286,44.494z"/>
	<path fill="#CDD5E5" d="M24.755,61.966c0.53-0.882-0.608-1.291-0.577-2.032c0.666,0.338,1.02,0.955,1.417,1.541
		c0.204,0.301,0.381,0.603,0.03,0.861C25.181,62.665,24.951,62.318,24.755,61.966z"/>
	<path fill="#444D66" d="M25.913,48.278c-0.388,0.451-0.417,1.04-0.616,1.564c-0.221,0.58-0.42,0.33-0.536-0.092
		c0.239-1.188,0.661-2.243,0.204-3.616c-0.313-0.944,0.469-2.298,0.877-3.427c1.509-4.181,3.068-8.341,4.596-12.515
		c0.095-0.26,0.083-0.56,0.121-0.841c-0.136-0.506,0.003-0.844,0.563-0.925c0.11-0.087,0.292-0.156,0.319-0.265
		c0.818-3.206,3.043-5.641,4.618-8.43c0.633-1.695,1.847-3.058,2.678-4.639c0.566,0.111,1.139,0.199,1.698,0.339
		c0.98,0.247,1.255,0.972,1.193,1.886c-0.035,0.521-0.261,0.78-0.709,0.322c-0.833-0.851-0.912-0.135-1.04,0.478
		c-0.108,0.517-0.22,1.035-0.276,1.56c-0.045,0.415-0.169,0.893-0.529,0.964c-1.548,0.31-1.875,1.575-2.137,2.763
		c-0.578,2.634-2.088,4.812-3.577,6.894c-1.843,2.577-2.763,5.434-3.663,8.364c-0.746,2.426-1.522,4.846-2.395,7.229
		C26.992,46.74,25.763,47.115,25.913,48.278z"/>
	<path fill="#DAE2EB" d="M31.123,28.428c-0.188,0.309-0.375,0.616-0.563,0.925c-0.717,0.229-0.45,1.207-1.122,1.471
		c-1.659,2.053-2.339,4.607-3.494,6.915c-1.508,3.017-2.753,6.163-4.103,9.258c-0.177,0.406-0.36,0.912-0.857,0.818
		c-0.503-0.093-0.224-0.647-0.31-0.994c2.591-5.742,5.188-11.482,7.766-17.231c0.373-0.831,0.658-1.703,0.983-2.556
		c0.347-0.246,0.283-0.901,0.887-0.893C32.58,26.193,30.934,27.637,31.123,28.428z"/>
	<path fill="#DDE5F1" d="M27.374,29.07c-0.121,0.078-0.245,0.153-0.362,0.236c-0.365,0.257-0.666,0.903-1.189,0.446
		c-0.416-0.363,0.021-0.809,0.22-1.164c0.884-1.589,1.866-3.115,2.365-4.907c0.177-0.636,0.625-1.306,1.33-1.646
		c0.371,1.422-0.055,3.347-0.906,4.118C28.089,26.997,28.147,28.241,27.374,29.07z"/>
	<path fill="#5B6684" d="M30.87,42.464c-0.563,0.56-0.533,1.371-0.861,2.029c-0.229,0.175-0.459,0.35-0.688,0.523
		c-0.154,0.119-0.32,0.26-0.511,0.108c-0.217-0.173-0.279-0.462-0.095-0.641c0.837-0.81,0.501-1.906,0.624-2.845
		c0.136-1.04,0.45-1.945,0.891-2.864c1.13-2.354,1.909-4.962,3.442-7.009c0.863-1.152,0.474-2.838,1.954-3.586
		c0.634-0.32,1.107-1.038,1.891-0.41c0.783,0.627,1.24,1.481,0.752,2.422c-0.723,1.396-1.1,2.963-2.259,4.152
		c-0.764,0.784-1.334,1.757-1.645,2.854C33.763,39.324,31.747,40.518,30.87,42.464z"/>
	<path fill="#E6EFF4" d="M71.29,76.865c0.213,0.468,0.424,0.934,0.637,1.399c-0.229,0.51-0.609,0.707-1.156,0.556
		c-1.496-1.315-2.664-2.868-3.482-4.693c-0.183-0.409-0.458-0.786-0.158-1.201c0.313-0.434,0.759-0.343,1.173-0.127
		c0.496,0.26,1.035,0.191,1.561,0.244c0.984,0.7,0.276,1.773,0.579,2.625C70.631,76.132,70.874,76.56,71.29,76.865z"/>
	<path fill="#454141" d="M80.638,75.356c-0.565-1.046-1.293-1.712-2.632-1.473c-0.611,0.108-0.853,0.335-0.875,0.897
		c-0.09,0-0.18,0.003-0.27,0.008c-0.378-1.707,0.948-1.759,1.995-1.958C79.734,72.663,80.538,73.871,80.638,75.356z"/>
	<path fill="#4D5059" d="M114.516,62.217c-0.581-0.673-0.543-1.245,0.242-1.743c0.396-0.249,0.748-0.562,1.119-0.847
		c0.572-0.248,10.483-5.917,14.846-8.243c0.498-0.266,1.605-1.731,1.951-1.914c0.431-0.228,1.775,0.675,1.563,1.143
		c0.021,0.403-0.767,1.11-1.188,1.522c-0.084,0.082-1.411,0.453-1.471,0.49C128.147,54.744,116.186,61.814,114.516,62.217z"/>
	<path fill="#D5DDE1" d="M112.924,61.709c0.482,0.191,0.965,0.385,1.445,0.577c0.166,0.306,0.178,0.524-0.265,0.553
		c-0.688,0.043-0.378,0.479-0.312,0.819c-0.377,0.376-0.717,0.369-1.028-0.088c-0.419-0.613-0.712-1.226-0.035-1.857
		C112.793,61.605,112.857,61.609,112.924,61.709z"/>
	<path fill="#6F7585" d="M110.624,61.67c0.107,0.004,0.217,0.009,0.323,0.013c0.554,1.004-0.288,1.274-0.894,1.565
		c-1.641,0.791-3.176,1.75-4.674,2.774c-1.776,0.501-3.141,1.875-4.932,2.351c-1.544-0.275-2.26,1.136-3.346,1.739
		c-2.908,1.617-5.832,3.146-9.037,4.083c-0.469,0.139-0.943,0.286-1.029,0.88c-0.375-0.541-0.371-0.935,0.334-1.227
		c3.16-1.305,6.185-2.873,9.033-4.767c0.24-0.16,0.544-0.264,0.721-0.475c1.158-1.389,2.922-1.255,4.393-1.854
		c1.296-0.528,2.682-1.142,3.748-2.012C106.907,63.402,108.694,62.446,110.624,61.67z"/>
	<path fill="#1E2131" d="M34.424,39.477c1.534-3.229,3.886-5.924,5.688-8.965c0.138-0.232,0.369-0.511,0.699-0.291
		c0.211,0.14,0.265,0.422,0.164,0.656c-0.9,2.09-1.302,4.299-1.646,6.53c-0.064,0.415-0.536,1.014-0.85,0.832
		C36.593,37.157,36,39.577,34.424,39.477z"/>
</g>
</svg>
