<?xml version="1.0" encoding="utf-8"?>
<!-- Generator: Adobe Illustrator 16.0.0, SVG Export Plug-In . SVG Version: 6.00 Build 0)  -->
<!DOCTYPE svg PUBLIC "-//W3C//DTD SVG 1.1//EN" "http://www.w3.org/Graphics/SVG/1.1/DTD/svg11.dtd">
<svg version="1.1" id="Capa_1" xmlns="http://www.w3.org/2000/svg" xmlns:xlink="http://www.w3.org/1999/xlink" x="0px" y="0px"
	 width="65.42px" height="59.193px" viewBox="0 0 65.42 59.193" enable-background="new 0 0 65.42 59.193" xml:space="preserve">
<g>
	<path fill-rule="evenodd" clip-rule="evenodd" fill="#4D4C54" d="M61.715,16.466c-0.185,0.814-0.158,1.706-0.848,2.338
		c-0.533,0.678-0.235,1,0.471,1.243c1.145,0.394,1.914,0.995,1.008,2.312c-0.109,0.158-0.204,0.396-0.079,0.545
		c0.953,1.126,0.216,2.057-0.31,3.025c-0.947,1.748-1.291,3.84-2.963,5.176c-0.067,0.053-0.104,0.174-0.105,0.266
		c-0.003,2.148-1.605,3.113-3.078,4.181c-0.59,0.427-1.219,0.88-1.377,1.624c-0.261,1.225-1.035,1.651-2.182,1.638
		c-1.484-0.728-0.998-2.151-1.173-3.231c-0.045,0.496,0.12,1.16-0.474,1.617c-1.146-0.553-0.398-1.698-0.785-2.489
		c-0.091-0.466,0.033-0.897,0.207-1.319c0.429-0.781,0.746-1.588,0.557-2.509c0.311-1.387,0.74-1.54,1.744-0.618
		c0.284,0.262,0.527,0.564,0.77,0.857c0.883,0.191,0.514-0.521,0.632-0.877c0.005-0.41,0-0.818-0.01-1.228
		c0.124-1.671-0.438-3.103-1.52-4.353c-0.173-0.129-0.327-0.276-0.464-0.443c-0.826-1.123-0.219-2.483-0.611-3.698
		c-0.275-0.847-0.279-1.782-0.947-2.478c-0.211-0.338-0.34-0.699-0.324-1.102c0.125-0.611,0.057-1.235,0.107-1.852
		c0.033-0.387,0.09-0.889,0.512-0.918c0.449-0.033,0.508,0.475,0.58,0.848c0.027,0.141,0.039,0.283,0.071,0.413
		c0.039,0.087,0.082,0.181,0.128,0.255c0.33-1.02,0.088-2.048,0.126-3.064c-0.001-0.66-0.031-1.32,0.1-1.975
		c0.037-0.154,0.1-0.297,0.181-0.433c0.136-0.202,0.311-0.362,0.523-0.48c0.48-0.241,0.955-0.109,1.401,0.077
		c1.563,0.652,3.216,0.996,4.837,1.449c1.181,0.33,1.711,0.979,1.202,1.986c-0.691,1.372,0.38,1.308,1.05,1.568
		C61.455,15.123,62.389,15.265,61.715,16.466z"/>
	<path fill-rule="evenodd" clip-rule="evenodd" fill="#838A95" d="M50.608,37.152c0.017-0.764,0.015-1.528,0.056-2.291
		c0.019-0.342-0.125-0.879,0.47-0.842c0.454,0.029,0.352,0.493,0.376,0.806c0.078,0.997-0.033,2.005,0.238,2.993
		c0.105,0.385,0.127,0.768,0.648,0.772c1.082-0.148,2.133-0.488,3.232-0.509c0.973-0.018,1.517-0.459,1.574-1.473
		c0.031-0.525,0.138-1.052,0.322-1.549c0.166-0.448,0.334-0.934,0.98-0.836c0.117,1.439-0.182,3.086-0.75,4.094
		c-0.582,1.034-0.649,1.879-0.692,2.885c0.417,1.059-0.054,1.527-1.083,1.616c-0.859,0.074-1.723,0.048-2.584,0.046
		c-0.958-0.001-1.4,0.418-1.375,1.391c0.016,0.559,0.128,1.166-0.376,1.617c-0.159,0.093-0.321,0.098-0.487,0.018
		c-0.125-0.128-0.214-0.275-0.271-0.443c-0.324-2.262-0.287-4.556-0.621-6.818C50.19,38.119,50.172,37.569,50.608,37.152z"/>
	<path fill-rule="evenodd" clip-rule="evenodd" fill="#A9B1BC" d="M51.51,45.837c0.045-0.137,0.142-0.277,0.129-0.408
		c-0.365-3.758,0.097-2.978,2.859-3.047c0.48-0.013,0.967-0.048,1.443,0.003c0.922,0.098,1.213-0.348,1.122-1.183
		c0.397,0.691,0.64,1.357-0.063,2.039c-0.337,0.326-0.288,0.828-0.219,1.238c0.262,1.564-0.91,2.906-0.657,4.47
		c0.042,0.255-0.271,0.358-0.507,0.423c-0.416-0.174-0.838-0.513-1.232,0.035c-0.305,0.066-0.528-0.078-0.733-0.275
		c-0.392-0.712-1.159-1.072-1.626-1.713c-0.042-0.125-0.044-0.252-0.01-0.377c0.072-0.133,0.213-0.246,0.134-0.428
		C51.9,46.38,51.551,46.234,51.51,45.837z"/>
	<path fill-rule="evenodd" clip-rule="evenodd" fill="#5A626F" d="M58.506,34.224c-0.983,0.697-0.791,1.825-0.813,2.75
		c-0.026,1.172-0.593,1.548-1.549,1.593c-1.247,0.06-2.497,0.021-3.747,0.023c0.896-0.259,1.348-0.753,1.695-1.733
		c0.506-1.426,1.96-2.176,3.236-2.945c0.376-0.226,0.793-0.342,0.919-0.838c0.567-2.243,1.946-4.096,2.911-6.145
		c0.357-0.755,0.481-1.603,1.148-2.214c0.371-0.341,0.117-0.722-0.059-1.062c-0.236-0.457-0.358-0.928-0.076-1.386
		c0.799-1.293-0.031-1.697-1.062-2.017c-1.026-0.318-1.202-0.789-0.243-1.447c-0.133,0.872,0.57,1.017,1.125,1.254
		c0.887,0.377,1.385,0.859,0.764,1.863c-0.321,0.52-0.315,0.915,0.186,1.499c0.76,0.888-0.19,1.86-0.528,2.606
		c-0.604,1.334-0.897,2.711-1.25,4.093c-0.085,0.331-0.142,0.812-0.491,0.802c-2.268-0.061-1.739,1.789-2.121,3.018
		C58.523,34.029,58.521,34.128,58.506,34.224z"/>
	<path fill-rule="evenodd" clip-rule="evenodd" fill="#8895A2" d="M61.715,16.466c0.19-1.039-0.475-1.354-1.298-1.523
		c-1.032-0.213-1.537-0.688-1.099-1.828c0.156-0.407,0.31-1.059-0.306-1.262c-2.274-0.746-4.51-1.654-6.935-1.838
		c-0.391-0.232-0.549-0.658-0.808-0.997c-0.277-0.364-0.394-0.784-0.137-1.208c0.237-0.389,0.647-0.383,1.032-0.338
		c0.535,0.061,0.91,0.355,0.936,0.916c0.02,0.438-0.047,0.875,0.452,1.102c1.8,0.619,3.578,1.316,5.503,1.465
		c1.314,0.621,1.404,1.101,0.531,2.869c-0.105,0.879,0.717,0.545,1.082,0.792c0.467,0.314,1.034,0.48,1.557,0.711
		C62.285,15.809,62.236,16.244,61.715,16.466z"/>
	<path fill-rule="evenodd" clip-rule="evenodd" fill="#D2DBEA" d="M12.515,44.704c-1.459-1.126-0.629-3.069-1.336-4.211
		c-1.107-1.788-0.043-4.015-1.561-5.554c-0.073-0.074-0.013-0.278-0.014-0.422c0.102-0.201,0.203-0.401,0.304-0.602
		c0.984,0.148,0.488,1.217,1.027,1.645c0.356,0.858,0.266,1.891,0.615,2.652c0.817,1.782,0.309,3.93,1.677,5.525
		c0.431,0.504,0.269,1.209,0.292,1.834c0.02,0.53-0.054,1.072,0.195,1.572c0.692,2.318,0.514,2.724-1.733,3.488
		c-0.624,0.213-0.842,0.549-0.804,1.154c0.05,0.787-0.14,1.528-0.486,2.229c-0.56,1.134-1.108,1.271-2.154,0.514
		c-0.466-0.338-0.887-0.737-1.35-1.081c-0.882-0.756-1.55-1.851-2.962-1.742c-0.351,0.027-0.567-0.309-0.714-0.623l0.011,0.015
		c-0.218-0.284-0.487-0.526-0.676-0.835c-0.197-0.541-0.676-1.039-0.267-1.676c0.772-0.74,1.699-0.529,2.609-0.424
		c1.405,0.164,2.668,0.873,4.069,1.059c0.672,0.09,1.334,0.199,2.021,0.111c1.021-0.129,1.553-0.578,1.106-1.642
		C11.948,46.66,12.676,45.707,12.515,44.704z"/>
	<path fill-rule="evenodd" clip-rule="evenodd" fill="#8F9BAF" d="M10.499,35.651c-0.703-0.405-0.099-1.259-0.592-1.735
		c0.001-0.145,0.061-0.375-0.005-0.42c-1.655-1.127-1.004-2.984-1.449-4.49c-0.037-0.124-0.179-0.217-0.272-0.324
		c-0.377-0.718-0.096-1.486-0.169-2.227c-0.045-0.461,0.098-0.973-0.442-1.254c-0.682-0.102-1.435,0.305-2.047-0.289
		c-0.303-0.76-0.136-1.502,0.027-2.264c0.248-1.153,0.581-2.264,0.298-3.52c-0.253-1.125,0.402-2.108,1.519-2.479
		c0.597-0.198,1.072-0.592,1.662-0.758c0.185,0.18,0.237,0.402,0.212,0.65c-0.072,0.322-0.253,0.569-0.522,0.755
		c-1.774,0.823-1.775,0.823-1.677,2.929c0.046,0.992-0.56,1.816-0.696,2.775c-0.111,0.79-0.021,1.193,0.866,1.219
		c1.222,0.034,1.724,0.799,1.627,1.922c-0.148,1.713,0.828,3.242,0.713,4.949c-0.042,0.623,0.635,0.932,0.914,1.432
		C10.85,33.562,11.243,34.601,10.499,35.651z"/>
	<path fill-rule="evenodd" clip-rule="evenodd" fill="#C1CCFE" d="M7.569,25.201c0.701,0.092,0.559,0.637,0.571,1.084
		c0.022,0.799,0.027,1.598,0.039,2.396C7.384,27.625,8.274,26.273,7.569,25.201z"/>
	<path fill-rule="evenodd" clip-rule="evenodd" fill="#6C7B88" d="M9.043,16.492c-0.005-0.199-0.011-0.399-0.016-0.6
		c0.291-0.59,0.581-1.181,0.872-1.771c0.626-0.681,1.472-1.221,1.479-2.3l-0.004,0.009c0.459-0.643,0.911-1.289,1.148-2.057
		c1.327-0.181,2.782,0.051,3.782-1.179c0.088,0.028,0.174,0.024,0.258-0.015c0.144-0.094,0.276-0.08,0.397,0.041
		c0.202,1.298-0.814,1.664-1.659,1.692c-1.706,0.056-2.439,1.015-2.977,2.421c-0.47,1.229-1.383,2.193-2.187,3.214
		C9.87,16.285,9.558,16.615,9.043,16.492z"/>
	<path fill-rule="evenodd" clip-rule="evenodd" fill="#B6C1FD" d="M11.377,11.821c0.232,1.232-0.53,1.826-1.479,2.3
		C10.197,13.229,11.181,12.778,11.377,11.821z"/>
	<path fill-rule="evenodd" clip-rule="evenodd" fill="#B6C1FD" d="M12.521,9.773c-0.03,0.883-0.435,1.556-1.148,2.057
		C11.538,11.022,12.032,10.399,12.521,9.773z"/>
	<path fill-rule="evenodd" clip-rule="evenodd" fill="#96A0B1" d="M16.866,8.593c-0.101-0.004-0.203-0.009-0.304-0.014
		c0.47-1.661,1.244-2.214,2.814-1.884c0.724,0.152,1.445,0.096,2.162,0.179c1.297,0.15,2.294-0.047,2.39-1.648
		c0.027-0.461,0.369-0.935,0.831-0.846c1.496,0.287,2.999,0.02,4.487,0.173c0.356,0.037,0.688,0.319,1.031,0.487
		c0.408,0.773,1.119,0.59,1.629,0.322c2.565-1.345,5.323-1.15,8.063-1.132c0.385,0.002,0.779-0.005,1.089,0.291
		c-0.337,0.435-0.834,0.43-1.31,0.464c-2.268,0.159-4.428,0.768-6.549,1.543c-0.269,0.146-0.545,0.271-0.851,0.32
		c-1.565-0.313-2.585,0.674-3.674,1.527c-1.492,1.168-2.014,1.055-3.023-0.59c-0.054-0.13-0.091-0.266-0.118-0.404
		c-0.138-0.535,0.037-1.178-0.498-1.566c-0.144-0.01-0.26,0.055-0.236,0.151c0.455,1.798,0.396,1.877-1.547,1.886
		c-0.676,0.002-1.357,0.049-2.026-0.115c-1.028-0.273-2.062-0.211-3.096-0.066C17.635,7.877,17.39,8.427,16.866,8.593z"/>
	<path fill-rule="evenodd" clip-rule="evenodd" fill="#A9B1C3" d="M43.623,5.423c0.109-0.027,0.217-0.053,0.325-0.08
		c0.786-0.2,1.292,0.176,1.251,0.909c-0.037,0.663-0.719,0.446-1.168,0.463c-0.678,0.024-1.352,0.005-1.95-0.373
		c-0.665-0.354-1.304,0.104-1.965,0.077c-0.38-0.016-1.013-0.176-1.04,0.406c-0.023,0.495,0.631,0.471,0.992,0.668
		c0.738,0.402,0.6-0.244,0.718-0.598c0.246-0.731,0.715-0.824,1.34-0.448c0.614,0.601,1.028,1.299,1.075,2.178
		c0.549,1.802-0.391,3.427-0.609,5.139c-1.173-0.034-0.742-1.251-1.293-1.745c-0.36-0.656-0.652-1.342-0.906-2.046
		c-0.215-1.112-0.989-1.435-2.005-1.467c-1.397-0.045-2.786,0.042-4.181,0.142c-1.377,0.098-1.727-0.617-1.031-1.881
		c0.117-0.119,0.25-0.215,0.397-0.291c2.857-1.329,5.858-1.498,8.931-1.115C42.875,5.408,43.236,5.663,43.623,5.423z"/>
	<path fill-rule="evenodd" clip-rule="evenodd" fill="#EEF6FA" d="M42.793,8.603c0.07-0.833-0.61-1.345-0.874-2.035
		c-0.174-0.193-0.179-0.378,0.026-0.553c0.956,0.42,1.984,0.158,3.058,0.334c-0.122-0.631-0.553-0.854-1.054-1.005
		c-0.316-0.424-0.999-0.37-1.348-1.199c1.502,0.585,2.774,1.126,3.973,1.845c0.357,0.891,0.996,1.543,1.764,2.088
		c0.363,0.393,0.703,0.787,0.121,1.268c-0.137,0.06-0.279,0.086-0.427,0.08c-0.296-0.034-0.54-0.178-0.765-0.361
		c-0.61-0.686-1.454-0.816-2.291-0.991c-0.487-0.103-0.858-0.229-1.074,0.452C43.672,9.253,43.21,9.206,42.793,8.603z"/>
	<path fill-rule="evenodd" clip-rule="evenodd" fill="#595F75" d="M43.623,5.423c-0.434,0.466-0.987,0.277-1.498,0.256
		c-2.952-0.13-5.861,0.032-8.633,1.197c-0.326-0.094-0.539-0.305-0.641-0.627c2.625-1.1,5.333-1.803,8.206-1.728
		C41.912,4.822,42.768,5.123,43.623,5.423z"/>
	<path fill-rule="evenodd" clip-rule="evenodd" fill="#ECF3F6" d="M48.074,8.3c-0.75-0.608-1.863-0.979-1.5-2.311
		c0.68,0.385,1.359,0.77,2.039,1.154c1.365,0.248,2.184,1.295,3.115,2.162c0.299,0.278,0.338,0.67,0.083,1.039l0.025,0.027
		c-1.178,0.958-1.776,0.717-2.626-1.053C48.938,8.863,48.916,8.126,48.074,8.3z"/>
	<path fill-rule="evenodd" clip-rule="evenodd" fill="#BAC5CC" d="M51.812,10.345c0.045-0.655-0.323-1.01-0.838-1.36
		c-0.823-0.56-1.577-1.222-2.36-1.84c1.211,0.015,2.434-0.067,3.63,0.069c1.335,0.151,0.841,1.527,1.311,2.275
		c-0.375-0.025-0.868,0.058-0.711-0.578c0.135-0.541,0.102-0.977-0.517-1.137c-0.327-0.086-0.752-0.137-0.937,0.18
		c-0.327,0.561,0.295,0.828,0.493,1.234c0.121,0.248,0.134,0.549,0.195,0.826C51.989,10.125,51.9,10.236,51.812,10.345z"/>
	<path fill-rule="evenodd" clip-rule="evenodd" fill="#C6D3FE" d="M59.588,13.824c0.232-1.031,0.913-2.147-0.531-2.869
		C60.522,11.236,60.744,12.435,59.588,13.824z"/>
	<path fill-rule="evenodd" clip-rule="evenodd" fill="#F9FDFD" d="M52.059,24.068c0.098,0.096,0.195,0.193,0.294,0.289
		c0.104,0.635-0.61,0.688-0.785,1.125c-0.865,2.178-3.56,2.633-4.979,0.748c-0.609-0.81-1.738-0.607-2.214-1.474
		c-0.269-0.437-0.401-0.937-0.655-1.386c-0.403-0.715-0.291-1.252,0.596-1.453c0.525-0.162,1.293,0.268,1.566-0.381
		c0.217-0.514-0.324-1.092-0.689-1.328c-1.251-0.809-0.975-1.863-0.696-2.967c-0.118-0.723-0.076-1.475-0.401-2.158
		c-0.277-0.67-1.223-0.638-1.443-1.365c-0.002-0.436-0.027-0.872,0.014-1.305c0.051-0.529,0.31-0.941,0.863-1.01
		c0.576-0.071,0.748,0.396,0.803,0.831c0.1,0.788,0.514,1.33,1.156,1.735c0.949,0.395,1.788,0.99,2.685,1.478
		c0.966-0.083,2.021-0.302,1.978,1.23c0.043,0.128,0.059,0.259,0.045,0.393c0.072,0.262,0.145,0.524,0.218,0.786
		c0.644,0.67,0.872,1.529,0.729,2.379c-0.178,1.068,0.436,2.054,0.157,3.123C51.17,23.849,51.814,23.811,52.059,24.068z"/>
	<path fill-rule="evenodd" clip-rule="evenodd" fill="#767F89" d="M50.369,33.355c-0.102,0.385-0.203,0.768-0.305,1.152
		c0.225,2.57,0.49,5.137,0.433,7.723c-0.007,0.347-0.084,0.666-0.312,0.937c-0.554,0.302-0.638-0.178-0.742-0.495
		c-0.146-0.444-0.064-0.929-0.143-1.389c-0.078-1.709-0.035-3.418-0.018-5.125c-0.035-0.722,0.557-2.016-1.135-1.213
		c-0.166,0.08-0.434,0.063-0.547-0.076c-0.705-0.844-1.688-0.596-2.582-0.696c-0.217-1.232,0.572-2.212,1.018-3.196
		c0.561-1.24,1.129-2.4,1.043-3.789c0.744-0.475,1.285-0.059,1.689,0.486c0.379,0.512,0.863,0.853,1.375,1.184
		c0.338,0.423,0.495,0.9,0.438,1.443c-0.081,0.383-0.344,0.668-0.549,0.984C49.52,32.078,49.506,32.787,50.369,33.355z"/>
	<path fill-rule="evenodd" clip-rule="evenodd" fill="#868F96" d="M50.193,17.071c-0.048-0.104-0.096-0.206-0.143-0.31
		c-0.16-0.201-0.084-0.453-0.146-0.672c-0.101-0.348-0.02-0.838-0.426-0.982c-0.543-0.191-0.508,0.404-0.726,0.66
		c-0.2,0.236-0.437,0.354-0.713,0.098c-0.868-0.488-1.735-0.977-2.603-1.465c-0.483-0.204-0.586-0.748-0.95-1.065
		c-0.253-0.221-0.507-0.518-0.283-0.882c0.243-0.395,0.632-0.384,1.026-0.241c0.543,1.073,1.885,0.528,2.584,1.284
		c-0.602-0.744-1.719-0.283-2.332-1.004c-0.283-0.359-0.316-0.727-0.031-1.104c1.349,0.195,1.653-1.221,2.582-1.678
		c0.443,0.35,0.498,0.924,0.763,1.378c0.691,1.188,1.873,1.335,3.021,1.595c-0.032,1.205-0.044,2.41-0.109,3.613
		c-0.015,0.256-0.142,0.654-0.497,0.592c-0.357-0.063-0.271-0.44-0.26-0.721c0.209-0.271,0.282-0.583,0.277-0.92
		c-0.011,0.262-0.072,0.5-0.303,0.659c-0.443-0.382-0.082-1.014-0.443-1.467C50.383,15.347,50.287,16.208,50.193,17.071z"/>
	<path fill-rule="evenodd" clip-rule="evenodd" fill="#B4C0C3" d="M44.549,24.61c0.885,0.627,2.043,0.643,2.772,1.802
		c0.394,0.627,1.933,0.732,2.997,0.475c1.016-0.245,0.307-1.438,0.944-1.93c0.614,1.045,1.075,2.199,2.389,2.648
		c0.619,0.212,0.146,0.977,0.489,1.381c-0.018,0.485-0.037,0.971-0.056,1.456c-0.354,0.042-0.547-0.208-0.661-0.457
		c-0.469-1.034-1.092-1.036-1.854-0.325c-0.284,0.021-0.542-0.06-0.788-0.195c-0.813-0.777-2.01-1.079-2.599-2.16
		c-0.193-0.354-0.686-0.211-1.06-0.188c-1.445-0.283-2.277-1.568-3.533-2.163c-0.312-0.348-0.769-0.579-0.879-1.089
		c0.037-0.14,0.119-0.243,0.248-0.309C43.894,23.297,44.154,24.054,44.549,24.61z"/>
	<path fill-rule="evenodd" clip-rule="evenodd" fill="#A0A9B0" d="M51.817,12.683c-0.739,0.109-1.478,0.219-2.216,0.328
		c0.01-1.338-2.092-1.652-1.568-3.238c-0.184-0.176-0.178-0.359-0.023-0.55c0.102-0.006,0.203-0.013,0.305-0.019
		c0.588,0.605,0.686-0.588,1.18-0.32c0.379,1.128,0.744,2.277,2.343,1.488C51.83,11.142,51.824,11.914,51.817,12.683z"/>
	<path fill-rule="evenodd" clip-rule="evenodd" fill="#101A1D" d="M50.038,43.254c0.009-2.915,0.018-5.831,0.026-8.747
		c0.741,0.766-0.059,1.85,0.544,2.645c0.306,2.772,0.545,5.55,0.582,8.341c-0.599,0.553-0.929,0.196-1.144-0.369
		c-0.17-0.446-0.084-0.939-0.16-1.407C49.89,43.547,49.94,43.393,50.038,43.254z"/>
	<path fill-rule="evenodd" clip-rule="evenodd" fill="#8E9498" d="M54.141,28.986c-0.326-0.532-0.486-1.061-1.285-1.32
		c-1.141-0.37-1.793-1.373-1.593-2.709c0.224-0.453,0.792-0.281,1.09-0.6C53.734,25.595,54.366,27.125,54.141,28.986z"/>
	<path fill-rule="evenodd" clip-rule="evenodd" fill="#D8E2E5" d="M51.543,29.544c0.074-0.66,0.766-0.81,1.12-1.463
		c0.515,0.854,0.968,1.607,1.422,2.36c0.077,0.585,0.131,1.17-0.488,1.522c-0.378,0.217-0.47-0.148-0.637-0.35
		C52.851,30.677,51.879,30.329,51.543,29.544z"/>
	<path fill-rule="evenodd" clip-rule="evenodd" fill="#9399A3" d="M50.369,33.355c-0.689,0.35-1.105,0.18-1.164-0.627
		c-0.07-0.987,0.273-1.775,1.147-2.296c0.571-0.179,0.33,0.466,0.6,0.593C51.313,31.941,50.951,32.675,50.369,33.355z"/>
	<path fill-rule="evenodd" clip-rule="evenodd" fill="#B4C0C3" d="M52.059,24.068c-0.428,0.012-1.052,0.109-1.024-0.47
		c0.054-1.152-0.704-2.251-0.208-3.404c0.381-0.886-0.273-1.56-0.415-2.337c1.466,1.32,1.127,3.152,1.28,4.811
		C51.74,23.19,51.689,23.66,52.059,24.068z"/>
	<path fill-rule="evenodd" clip-rule="evenodd" fill="#8E9498" d="M50.952,31.025c-0.2-0.197-0.399-0.395-0.6-0.593
		c-0.099-0.481-0.196-0.962-0.294-1.442c0.387-0.191,0.609,0.15,0.897,0.277c0.196,0.093,0.392,0.186,0.587,0.277
		c0.49,0.678,1.66,0.892,1.417,2.07c-0.293-0.367-0.561-0.76-0.888-1.092c-0.248-0.252-0.467-0.738-0.898-0.535
		C50.762,30.181,51.04,30.675,50.952,31.025z"/>
	<path fill-rule="evenodd" clip-rule="evenodd" fill="#A0A9B0" d="M50.926,15.907c0-0.71,0-1.421,0-2.417
		c0.799,1.223,0.762,1.752,0.025,2.678C50.932,16.082,50.924,15.995,50.926,15.907z"/>
	<path fill-rule="evenodd" clip-rule="evenodd" fill="#EFF5F6" d="M49.716,35.779c0.003,1.801,0.007,3.603,0.011,5.404
		c-0.207,0.566,0.041,1.258-0.476,1.74c-0.175,0.164-0.206,0.207,0.097,0.277c0.793,0.184,0.646,0.943,0.825,1.5
		c-0.12,0.817,0.276,1.15,1.054,1.126c0.094,0.028,0.188,0.032,0.283,0.011c0.375,0.218,0.751,0.436,1.126,0.654
		c-0.892,0.742-3.528,1.067-4.448,0.442c-0.608-0.414-1.275-0.646-1.924-0.941c-0.555-0.656-0.436-1.425-0.092-2.047
		c0.792-1.433,0.866-3.03,1.207-4.39c-0.418,0.865-0.263,2.027-0.653,3.074c-0.188,0.508-0.374,1.082-1.042,1.023
		c-0.584-0.052-0.73-0.586-0.781-1.078c-0.037-0.379-0.247-0.613-0.501-0.847c-1.341-1.86-1.093-3.962-0.646-5.958
		c0.335-1.5,2.354-2.023,3.53-1.115c0.376,0.291,0.688,0.436,1.169,0.25C49.248,34.599,49.615,35.023,49.716,35.779z"/>
	<path fill-rule="evenodd" clip-rule="evenodd" fill="#57667E" d="M13.981,47.617c-0.205-0.096-0.41-0.192-0.614-0.288
		c-0.497-0.543-0.192-1.198-0.234-1.799c-0.056-0.805,0.134-1.67-0.852-2.105c-0.286-0.127-0.373-0.458-0.332-0.751
		c0.31-2.203-1.263-4.063-1.133-6.238c0.015-0.254-0.205-0.522-0.316-0.784c-0.107-1.056-0.214-2.112-0.321-3.169
		c0.753-0.096,0.89,0.468,0.984,0.988c0.369,2.047,0.716,4.093,1.618,5.998c0.229,0.484,0.213,1.043,0.206,1.576
		c-0.012,0.846,0.185,1.6,0.655,2.33c0.77,1.195,0.495,2.626,0.74,3.943C14.418,47.517,14.202,47.63,13.981,47.617z"/>
	<path fill-rule="evenodd" clip-rule="evenodd" fill="#393F5A" d="M13.981,47.617c-0.498-1.496,0.262-3.317-1.189-4.569
		c-0.102-0.088-0.222-0.255-0.205-0.366c0.326-2.138-0.65-4.025-1.279-5.936c-0.464-1.41-0.098-3.026-1.13-4.264
		c-0.888-0.213-1.23-0.738-1.126-1.671c0.204-1.823-0.838-3.511-0.597-5.374c0.1-0.773-0.732-0.797-1.298-0.756
		c-1.276,0.091-1.417-0.547-1.249-1.611c0.212-1.351,1.005-2.525,0.533-4.123c-0.28-0.95,0.993-1.861,2.271-1.934
		c0.057,0.085,0.12,0.219,0.07,0.262c-1.424,1.213-1.15,3.029-1.643,4.572c-0.319,1.001-0.273,1.713,1.013,1.797
		c0.885,0.059,1.369,0.625,1.234,1.455c-0.403,2.48,0.914,4.433,2.122,6.272c1.009,1.538,2.344,2.896,3.417,4.429
		c1.259,0.908,1.792,2.107,1.919,3.684c0.138,1.717,0.571,3.41,2.122,4.578c0.778,0.587,1.217,1.506,1.431,2.465
		c0.208,0.934,0.773,1.2,1.663,1.224c1.584,0.042,3.181-0.206,4.753,0.181c0.145,0.073,0.253,0.182,0.326,0.327
		c-0.023,0.075-0.047,0.149-0.071,0.226c-3.333,0.002-6.666,0.004-9.998,0.006c-0.532,0-1.066-0.019-1.555,0.248
		C14.207,49.451,13.887,48.818,13.981,47.617z"/>
	<path fill-rule="evenodd" clip-rule="evenodd" fill="#373840" d="M14.547,35.964c-2.031-2.771-4.441-5.289-5.627-8.619
		c-0.219-0.616-0.034-1.129,0.058-1.695c0.157-0.959,0.111-1.765-1.254-1.629c-1.263,0.127-1.477-0.599-1.206-1.662
		c0.252-0.993,0.89-1.885,0.417-3.061c-0.19-0.471,0.464-1.109,0.963-1.506c0.298-0.236,0.707-0.347,0.814-0.779
		c0.11-0.174,0.22-0.348,0.331-0.521c1.511-1.507,2.734-3.217,3.484-5.221c0.34-0.91,0.872-1.236,1.847-1.224
		c1.051,0.013,2.173-0.099,2.491-1.454c0.076-0.557,0.472-0.869,0.889-1.167c0.072,0.003,0.144,0.007,0.215,0.009
		c1.002,0.045,2.008-0.063,3.008,0.067c0.133,0.057,0.25,0.138,0.349,0.243c0.026,0.145-0.009,0.274-0.097,0.393
		c-0.429,0.341-0.968,0.433-1.464,0.618c-0.547,0.204-0.992,0.415-0.715,1.136c0.088,0.232,0.029,0.529-0.162,0.678
		c-1.762,1.371-2.692,3.748-5.169,4.265c-0.798,0.167-1.436,0.683-1.167,1.531c0.421,1.329-0.257,2.009-1.208,2.629
		c-0.841,0.55-1.894,0.972-0.882,2.286c0.314,0.406-0.128,0.813-0.43,1.123c-0.576,0.594-0.472,1.119,0.131,1.598
		c0.798,0.631,1.127,1.429,0.921,2.436c-0.807,2.254,0.785,3.73,1.82,5.332c0.545,0.843,1.345,1.53,1.631,2.539
		C14.689,34.848,14.987,35.41,14.547,35.964z"/>
	<path fill-rule="evenodd" clip-rule="evenodd" fill="#464B60" d="M21.253,8.019c0.001-0.098,0.002-0.195,0.004-0.293
		c1.525-0.273,3.077-0.043,4.605-0.245c0.02,0.081,0.037,0.162,0.052,0.244c0.807,2.233-0.206,4.234-0.807,6.286
		c-0.143,0.488-0.533,0.912-0.359,1.637c0.67-0.811,1.245-1.547,1.715-2.373c0.256-0.451,0.488-0.969,1.147-0.952
		c0.522,1.589-0.658,2.393-1.318,3.234c1.125-0.793,1.746-2.269,2.68-3.493c0.284-0.372,0.376-1.063,1.126-0.791
		c0.229,0.313,0.245,0.66,0.166,1.023c-0.886,1.678-1.86,3.311-3.378,4.494c-0.854,0.666-1.225,1.434-1.159,2.496
		c0.045,0.729,0.022,1.477-0.895,2.212c0.835-0.571,1.407-0.923,2.061-1.083c0.677-0.166,1.431,0.17,1.152,0.791
		c-0.458,1.02-0.323,1.932-0.181,2.918c0.034,0.234-0.155,0.451-0.318,0.636c-0.576,0.57-1.08,0.223-1.584-0.116
		c-0.538,0.014-0.651,0.524-0.951,0.811c-0.81,0.771-1.461,0.587-1.773-0.504c-0.624-2.186-0.624-2.186-2.637-2.072
		c-0.354-1.176,0.897-1.551,1.188-2.405c0.29-0.624,0.336-1.3,0.449-1.964c0.363-2.143,0.699-4.291,1.918-6.176
		c0.506-0.783,0.641-1.703,0.801-2.614c0.161-0.917-0.223-1.198-1.08-1.24C22.992,8.436,22.024,8.751,21.253,8.019z"/>
	<path fill-rule="evenodd" clip-rule="evenodd" fill="#595F75" d="M27.653,12.391c-0.78,1.127-1.592,2.233-2.324,3.392
		c-0.256,0.404-0.447,0.777-0.972,0.578c-0.538-0.203-0.293-0.672-0.189-0.993c0.588-1.815,1.36-3.565,1.592-5.497
		c0.086-0.719,0.109-1.43,0.153-2.146c0.771,1.255,1.492,1.439,2.641,0.251c0.95-0.982,2.065-2.127,3.755-1.414
		c-0.289,1.174-1.453,1.688-2.014,2.668c-0.257,0.447-0.718,0.772-0.934,1.27C28.799,11.135,28.729,12.22,27.653,12.391z"/>
	<path fill-rule="evenodd" clip-rule="evenodd" fill="#6C7B88" d="M25.862,7.481c-1.514,0.471-3.071,0.146-4.605,0.245
		c0,0-0.002-0.002-0.002-0.002c-0.035-0.058-0.069-0.115-0.103-0.174c0.044-0.051,0.088-0.103,0.132-0.153c1.176,0,2.352,0,3.507,0
		c0.066-0.519-0.289-0.469-0.425-0.628c-0.42-0.491-0.177-0.992,0.007-1.482c0.087-0.234,0.255-0.458,0.522-0.402
		c0.537,0.111,0.778,0.6,0.896,1.031C25.926,6.407,25.848,6.957,25.862,7.481z"/>
	<path fill-rule="evenodd" clip-rule="evenodd" fill="#464B60" d="M29.098,10.33c0.826-1.465,1.917-2.703,3.212-3.768
		c0.18-0.104,0.361-0.208,0.542-0.313c0.367,0.051,0.604,0.236,0.641,0.627l-0.004-0.002c-1.329,0.777-2.068,2.09-2.962,3.263
		C30.054,10.219,29.616,10.58,29.098,10.33z"/>
	<path fill-rule="evenodd" clip-rule="evenodd" fill="#6C7B88" d="M17.754,7.426c1.172-0.505,2.35-0.345,3.529-0.028
		c0-0.001-0.078,0.09-0.078,0.09c-1.145,0.182-2.292,0.104-3.439,0.047L17.754,7.426z"/>
	<path fill-rule="evenodd" clip-rule="evenodd" fill="#595F75" d="M30.198,10.025c0.877-1.279,1.482-2.844,3.29-3.151
		c-0.097,0.387-0.764,0.601-0.391,1.114c0.3,0.413,0.789,0.343,1.205,0.247c1.432-0.329,2.881-0.177,4.32-0.171
		c1.26,0.005,2.121,0.587,2.172,1.984c-0.08,0.063-0.205,0.131-0.257,0.082c-1.016-0.977-1.774-0.453-2.481,0.412
		c-0.336,0.125-0.66-0.033-0.99-0.036c-0.284-0.003-0.572-0.058-0.794,0.019c0.493,0.033,1.097-0.076,1.345,0.631
		c-0.363,0.508-0.919,0.431-1.438,0.482c-0.492,0.049-1.05-0.072-1.53,0.676c1.099-0.411,2.177-0.191,2.896-1.082
		c0.362-0.35,0.851-0.289,1.29-0.391c0.941,0.688,1.057,2.043,2.089,2.673c0.653-0.429,0.114-1.29,0.698-1.696
		c0.613,0.535,0.359,1.447,0.877,2.025c0.056,0.027,0.111,0.055,0.167,0.082c0.581,0.344,1.265,0.463,1.835,0.83
		c0.475,0.801,0.311,1.698,0.388,2.559c0.187,0.498-0.067,0.745-0.502,0.891c-0.659,0.283-1.333,0.537-2.011,0.764
		c-1.438,0.482-2.473-0.126-2.787-1.588c-0.02-0.094-0.023-0.189-0.041-0.285c-0.411-2.35-0.549-2.468-2.971-2.535
		c-0.336-0.01-0.672,0.002-1.008-0.001c-1.112,0.056-2.117-0.201-2.834-1.114c-0.719-0.916-1.912-0.517-2.759-1.055
		c-0.006-0.396-0.012-0.793-0.018-1.189C29.633,10.727,29.537,10.299,30.198,10.025z"/>
	<path fill-rule="evenodd" clip-rule="evenodd" fill="#404C66" d="M41.623,11.818c0.061,0.426,0.131,0.851,0.178,1.278
		c0.063,0.585-0.377,0.9-0.773,1.12c-0.598,0.332-0.525-0.346-0.713-0.605c-0.609-0.846-1.26-1.67-1.592-2.681
		c-0.494,0.104-0.686-0.095-0.584-0.585c0.078-0.177,0.162-0.352,0.235-0.529c0.568-1.37,0.774-1.398,1.741-0.282
		c0.183,0.21,0.451,0.345,0.68,0.515C41.072,10.638,41.348,11.228,41.623,11.818z"/>
	<path fill-rule="evenodd" clip-rule="evenodd" fill="#C6D0D6" d="M45.395,12.374c-0.684,0.016-1.57-0.117-0.629,0.972
		c0.27,0.313,0.45,0.701,0.672,1.055c-0.818-0.378-1.393-0.942-1.49-1.893c-0.031-0.307,0.134-0.772-0.342-0.82
		c-0.4-0.041-0.479,0.404-0.632,0.691c-0.241,0.453-0.149,0.941-0.137,1.42c-0.091,0.168-0.202,0.184-0.335,0.047L42.5,13.843
		c-0.492-1.779,0.908-3.453,0.293-5.24c0.75,0.427,0.962,0.115,0.826-0.619c-0.139-0.746,0.145-0.922,0.759-0.547
		c0.976,0.595,2.459,0.101,3.079,1.443c-0.43,0.279-0.827,0.026-1.229-0.082c-0.607-0.166-1.299-0.413-1.646,0.307
		c-0.345,0.709-0.386,1.49,0.422,2.024c0.16,0.105,0.314,0.215,0.414,0.384c0.18,0.291,0.111,0.576-0.022,0.858L45.395,12.374z"/>
	<path fill-rule="evenodd" clip-rule="evenodd" fill="#C6CDE0" d="M41.945,6.015c-0.009,0.184-0.018,0.368-0.026,0.553
		c-0.86-0.343-0.978,0.248-0.829,0.798c0.407,1.502-0.096,1.216-0.955,0.571c-0.241-0.182-0.635-0.17-0.963-0.226
		c-0.682-0.116-0.828-0.663-0.822-1.187c0.008-0.637,0.592-0.513,0.993-0.522C40.209,5.982,41.077,6.007,41.945,6.015z"/>
	<path fill-rule="evenodd" clip-rule="evenodd" fill="#6D747D" d="M45.418,11.513c-0.555-0.042-1.249,0.099-1.367-0.693
		c-0.119-0.787-0.37-1.665,0.236-2.334c0.504-0.555,1.209-0.457,1.865-0.166c0.434,0.191,0.87,0.373,1.305,0.561
		c0.184,0.113,0.368,0.229,0.553,0.343c0.008,0.183,0.016,0.366,0.023,0.55c-0.098,0.102-0.282,0.207-0.277,0.305
		C47.837,11.972,46.603,11.698,45.418,11.513z"/>
	<path fill-rule="evenodd" clip-rule="evenodd" fill="#BAC5CC" d="M49.494,8.884C48.833,9.027,49.746,9.994,48.933,10
		c-0.434,0.004-0.569-0.404-0.618-0.795c0.466-0.447,0.056-0.66-0.241-0.904C48.588,7.726,48.623,7.74,49.494,8.884z"/>
	<path fill-rule="evenodd" clip-rule="evenodd" fill="#ADB7C4" d="M44.254,17.943c0.426,0.008,0.551-0.291,0.636-0.629
		c0.059,0.074,0.176,0.206,0.167,0.215c-1.244,1.271,0.287,1.857,0.652,2.74c0.225,0.544,1.155,0.841,0.708,1.59
		c-0.428,0.715-1.223,0.364-1.872,0.41c-1.226-0.204-2.325,0.424-3.825,0.496c0.765,0.172,1.183-0.198,1.62-0.035
		c0.453,0.168,0.763,0.437,0.496,0.982l-0.059,0.041c-0.967,0.446-1.941,1.311-3.012,0.4c-1.004-0.854-1.971-1.814-1.813-3.34
		c1.271-1.186,1.986-1.188,3.068,0.137c0.365,0.445,0.73,0.355,1.152,0.355c0.817,0.001,1.627-0.314,2.457-0.066
		c0.072-0.041,0.025-0.039-0.113-0.092c-0.729-0.28-2.021-0.009-2.038-0.983C42.465,19.244,43.398,18.488,44.254,17.943z"/>
	<path fill-rule="evenodd" clip-rule="evenodd" fill="#CED6E6" d="M42.836,23.712c-0.196-0.734-0.541-0.961-1.229-0.448
		c-0.408,0.305-0.904,0.282-1.355,0.018c-0.194-0.114-0.211-0.317-0.139-0.505c0.23-0.6,0.77-0.455,1.23-0.49
		c1.067-0.079,2.131-0.686,3.201-0.017c-0.44,0.078-1.104,0-0.564,0.781c0.324,0.472,0.586,0.964,0.568,1.559
		C43.961,24.341,43.619,23.607,42.836,23.712z"/>
	<path fill-rule="evenodd" clip-rule="evenodd" fill="#D2D9DC" d="M48.04,15.865c0.093-0.021,0.206-0.015,0.272-0.067
		c0.461-0.366,0.303-1.509,1.237-1.203c0.93,0.304,0.319,1.25,0.506,1.884c0.024,0.086-0.001,0.188-0.005,0.283
		c-0.188-0.369-0.377-0.738-0.602-1.177C48.981,15.535,48.658,16.7,48.04,15.865z"/>
	<path fill-rule="evenodd" clip-rule="evenodd" fill="#A9B1C3" d="M42.502,13.845c0.111-0.016,0.223-0.03,0.335-0.046
		c0.575,0.284,1.3,0.307,1.665,0.956C43.751,14.637,42.969,14.589,42.502,13.845z"/>
	<path fill-rule="evenodd" clip-rule="evenodd" fill="#6B6C73" d="M43.672,24.609c1.283,0.599,2.316,1.561,3.453,2.373
		c0.124,0.036,0.172,0.084,0.143,0.146c-0.033,0.066-0.066,0.101-0.104,0.101c-0.047,0.458,0.131,0.833,0.391,1.2
		c0.239,0.34,0.311,0.839-0.006,1.067c-1.625,1.169-1.404,3.264-2.441,4.714c-0.475,0.643-0.883,1.361-1.76,1.549
		c-0.421-0.247-0.758-0.584-1.034-0.984c0.423-2.525-1.374-3.961-2.759-5.597c-0.44-0.479-1.053-0.695-1.602-0.979
		c-1.387-0.717-2.04-1.861-2.182-3.363c0.113-0.714,0.494-1.172,1.23-1.293c0.918,0.07,1.82,0.221,2.692,0.525
		c0.726,0.254,1.397,0.536,2.215,0.115C42.5,23.88,43.1,24.375,43.672,24.609z"/>
	<path fill-rule="evenodd" clip-rule="evenodd" fill="#8996A1" d="M43.366,35.634c0.581-0.475,1.161-0.949,1.741-1.424
		c0.828-0.648,1.615-0.832,2.35,0.154c0.162,0.218,0.378,0.39,0.739,0.246c1.582-0.627,1.587-0.615,1.52,1.168
		c-0.231-0.282-0.361-0.816-0.833-0.647c-0.962,0.345-1.604-0.026-2.312-0.648c-0.501-0.439-2.327,0.39-2.423,1.258
		c-0.213,1.946-0.766,4.001,0.643,5.792c0.367,0.936-0.229,1.715-0.502,2.506c-0.178,0.516-0.815,0.361-1.229,0.055
		c-0.533-0.395-0.761-0.951-0.723-1.614c0.316-0.726,0.523-1.481,0.592-2.273c0.006-1.345-0.793-2.644-0.233-4.02
		C42.826,35.888,42.971,35.607,43.366,35.634z"/>
	<path fill-rule="evenodd" clip-rule="evenodd" fill="#A9B1BC" d="M50.092,43.51c-0.019,0.405-0.037,0.812-0.057,1.217
		c-0.436-0.416-0.01-2.396-1.676-0.565c0.172-1.35,1.342-1.906,1.367-2.979c0.23,0.672-0.251,1.449,0.312,2.071
		C50.078,43.335,50.096,43.42,50.092,43.51z"/>
	<path fill-rule="evenodd" clip-rule="evenodd" fill="#9399A3" d="M47.164,27.229c-0.013-0.083-0.025-0.165-0.039-0.247
		c0.771-0.098,1.474,0.044,1.768,0.843c0.365,0.992,1.781,0.392,2.063,1.442c-0.299-0.092-0.598-0.186-0.896-0.277
		c-0.729,0.055-1.169-0.342-1.486-0.939C48.274,27.487,47.817,27.189,47.164,27.229z"/>
	<path fill-rule="evenodd" clip-rule="evenodd" fill="#394848" d="M45.396,12.372c0.618,0.102,1.233,0.262,1.854,0.29
		c0.697,0.031,1.006,0.479,1.322,0.977c0.143,0.225,0.226,0.465-0.03,0.62c-0.124,0.075-0.421,0.063-0.512-0.032
		c-0.685-0.715-1.527-0.91-2.482-0.981c-0.77-0.058-0.441-0.515-0.153-0.871L45.396,12.372z"/>
	<path fill-rule="evenodd" clip-rule="evenodd" fill="#8996A9" d="M43.672,24.609c-2.254-0.158-4.563,0.137-6.711-0.85
		c-0.089-0.042-0.225-0.107-0.217-0.168c0.148-1.076,0.432-2.089,1.407-2.742c0.06,1.199,0.876,2.021,1.586,2.821
		c0.489,0.552,1.294,0.914,2.005,0.106c0.337-0.383,0.686-0.225,1.035-0.023C43.016,24.102,43.545,24.145,43.672,24.609z"/>
	<path fill-rule="evenodd" clip-rule="evenodd" fill="#BCC6D6" d="M42.458,42.423c0.14,0.307,0.263,0.621,0.422,0.918
		c0.206,0.386,0.445,0.852,0.956,0.725c0.558-0.139,0.334-0.613,0.208-0.961c-0.286-0.791,0.952-0.836,0.747-1.572
		c0.633,0.184,0.596,0.647,0.506,1.157c-0.053,0.304,0.051,0.638,0.356,0.705c0.425,0.094,0.574-0.274,0.647-0.61
		c0.295-1.354,0.574-2.711,0.856-4.068c0.056-0.266-0.027-0.594,0.46-0.746c0.307,1.806-0.059,3.49-0.699,5.126
		c-0.352,0.901-0.752,1.774-0.637,2.775c0.277,0.545,0.027,0.782-0.497,0.89c-0.499,0.102-0.607,0.397-0.363,0.834
		c-0.37,0.443-0.841,0.329-1.325,0.273c-1.623-0.186-3.246-0.244-4.869,0.053c-0.613,0.112-1.34,0.258-1.697-0.391
		c-0.375-0.681,0.237-1.154,0.65-1.602c0.701-0.76,1.516-1.32,2.611-1.354c0.29-0.008,0.772,0.074,0.523-0.523
		c-0.66-0.947-1.264-1.924-2.057-2.773c-0.484-0.518-0.802-1.178-0.159-1.775c0.659-0.611,1.284-0.23,1.712,0.35
		C41.414,40.67,42.525,41.175,42.458,42.423z"/>
	<path fill-rule="evenodd" clip-rule="evenodd" fill="#222841" d="M14.547,35.964c-0.247-1.688-1.037-3.036-2.284-4.229
		c-1.004-0.962-1.177-2.485-1.985-3.638c-0.382-0.545,0.258-1.164,0.493-1.733c1.028-0.421,1.079,0.435,1.297,1.021
		c0.485,1.301,0.888,2.648,2.326,3.266c2.414,0.941,3.489,3.166,4.875,5.095c0.428,0.596,0.421,2.091,1.73,0.554
		c0.549-0.646,1.089,0.235,1.089,0.909c0,0.815,0.151,1.53,0.733,2.12c0.305,0.308,0.643,0.738,1.092,0.567
		c0.541-0.204,0.217-0.745,0.221-1.149c0.01-1.062-0.51-2.195,0.422-3.134c0.321,0.084,0.443,0.321,0.456,0.509
		c-0.837-2.355-0.263-4.928-0.496-7.443c-0.075-0.808,0.568-1.152,1.221-1.418c0.136-0.063,0.276-0.104,0.421-0.135
		c0.24-0.027,0.477-0.068,0.695-0.172c0.492-0.23,1.011-0.456,1.454,0.024c0.401,0.437,0.292,0.979,0.135,1.499
		c-0.433,1.436,0.091,2.68,1.527,3.34c0.946,0.437,1.662,0.955,1.612,2.109c-0.002,0.457,0.256,0.814,0.456,1.193
		c0.371,0.701,0.325,1.372-0.128,2.029c-1.38,2.006-1.304,4.334-1.434,6.615c0.033,0.866,0.052,1.732-0.01,2.596
		c-0.106,1.473-0.477,1.813-1.972,1.832c-0.479,0.006-0.958,0.084-1.437-0.003c-1.834,0.001-3.668-0.019-5.501,0.015
		c-0.899,0.016-1.447-0.178-1.514-1.246c-0.066-1.032-0.544-2.102-1.396-2.599c-1.783-1.038-2.078-2.858-2.214-4.461
		C16.287,38.214,15.818,36.972,14.547,35.964z"/>
	<path fill-rule="evenodd" clip-rule="evenodd" fill="#5B6584" d="M27.056,48.188c0.32-0.095,0.636-0.245,0.963-0.276
		c1.97-0.196,1.969-0.188,1.958-2.194c-0.004-0.724,0.006-1.447,0.009-2.171c0.208-1.869,1.272-3.254,2.624-4.425
		c0.751-0.651,0.946-1.253,0.337-2.081c-0.428-0.582-0.561-1.317-0.927-1.936c-0.178-0.398-0.361-0.793-0.35-1.246
		c0.029-1.105,0.804-1.563,1.767-1.012c0.635,0.365,1.104,0.928,1.592,1.469c1.42,1.572,3.104,2.859,4.633,4.316
		c-0.826-0.56-1.287-1.408-1.72-2.256c-0.567-1.111-0.235-1.734,1.005-1.645c1.191,0.085,2.373,0.107,3.563,0.078
		c0.52,0.031,0.816,0.295,0.856,0.824c-0.099,0.201-0.196,0.404-0.296,0.605c-0.774,0.767-0.549,1.653-0.275,2.525
		c0.17,0.539,0.373,1.069,0.561,1.604c-0.217,0.721,0.081,1.666-0.896,2.054c-0.676-0.81-1.367-1.606-2.021-2.435
		c-0.351-0.442-0.726-0.688-1.194-0.25c-0.41,0.383-0.231,0.824,0.131,1.126c0.983,0.819,1.603,1.901,2.238,2.977
		c-0.051,0.241-0.11,0.526-0.4,0.53c-2.124,0.022-3.925,1.262-5.996,1.563c-1.131,0.164-2.305,0.757-3.228,1.458
		c-1.53,1.164-3.192,1.176-4.934,1.076C27.058,48.375,27.059,48.281,27.056,48.188z"/>
	<path fill-rule="evenodd" clip-rule="evenodd" fill="#292733" d="M14.259,31.021c-1.619-0.638-2.174-2.078-2.587-3.566
		c-0.155-0.558-0.218-1.036-0.901-1.091c0.095-0.938-0.148-1.641-1.047-2.176c-0.989-0.589-0.98-1.459,0.001-2.058
		c0.821-0.502,0.57-0.868,0.033-1.277c-0.85-0.646-0.519-1.037,0.224-1.442c0.549-0.3,1.072-0.656,1.569-1.037
		c0.57-0.437,1.109-0.786,0.554-1.753c-0.503-0.877,0.099-1.92,0.974-2.066c1.667-0.279,2.737-1.18,3.675-2.449
		c0.368-0.498,0.855-0.93,1.354-1.305c0.501-0.377,1.05-0.605,0.243-1.252c-0.425-0.34-0.181-0.791,0.26-0.857
		c0.909-0.136,1.671-0.818,2.642-0.672c1.115,0.008,2.23,0.051,3.343,0.012C25.49,8,25.713,8.427,25.545,9.199
		c-0.265,1.217-0.311,2.494-1.064,3.573c-1.527,2.189-1.503,4.823-2.048,7.294c-0.063,0.283-0.045,0.58-0.301,0.783
		c-0.655-1.783-2.168-2.498-3.817-2.979c-0.888-0.259-1.497-0.786-2.004-1.798c-0.535,1.406-1.617,2.008-2.45,2.851
		c-0.576,0.583-0.629,1.081,0.373,1.267c0.672,0.125,1.335,0.143,2.018,0.119c1.089-0.039,1.421,0.474,0.947,1.451
		c-0.622,1.281-1.45,2.309-3.104,2.121c-0.327-0.037-0.67-0.028-1.183,0.131c1.401,0.699,1.711,1.881,1.854,3.153
		c0.027,0.241,0.143,0.569-0.011,0.705C13.695,28.794,14.27,29.949,14.259,31.021z"/>
	<path fill-rule="evenodd" clip-rule="evenodd" fill="#464B60" d="M17.767,7.535c1.147-0.016,2.293-0.031,3.439-0.047
		c0.028,0.076,0.045,0.155,0.049,0.236C20.092,7.667,18.912,7.929,17.767,7.535z"/>
	<path fill-rule="evenodd" clip-rule="evenodd" fill="#201E2D" d="M14.259,31.021c-0.196-0.39-0.337-0.82-0.598-1.158
		c-0.52-0.673-0.544-1.059,0.325-1.522c0.873-0.465,0.395-2.776-0.61-3.569c-0.409-0.321-1.377-0.295-1.128-1.014
		c0.203-0.585,1.076-0.385,1.589-0.275c1.753,0.375,2.382-0.85,3.101-2c0.132-0.212,0.26-0.434,0.117-0.67
		c-0.195-0.32-0.496-0.225-0.768-0.118c-1.034,0.404-1.998-0.118-2.981-0.255c-0.661-0.094-0.887-0.48-0.334-1.105
		c0.539-0.609,0.912-1.373,1.759-1.654c0.616-0.204,0.63-0.771,0.788-1.277c0.134-0.428,0.473-0.733,0.957-0.781
		c0.71-0.069,0.376,0.47,0.458,0.783c0.151,0.58,0.565,0.863,1.148,0.943c1.026,0.142,1.865,0.76,2.796,1.143
		c1.027,0.42,1.382,1.281,1.253,2.359c-0.372,0.76-1.373,1.061-1.471,2.02c-0.321,1.938-0.142,3.73,1.487,5.102
		c1.191,2.211,2.253,4.465,2.495,7.014c0.024,0.25,0.004,0.478-0.171,0.672c0.002,1.248-0.145,2.501,0.233,3.734
		c0.107,0.348,0.154,0.82-0.192,1.083c-0.404,0.307-0.879,0.12-1.21-0.149c-0.958-0.781-2.083-1.506-1.563-3.063
		c0.118-0.352,0.052-0.73-0.346-0.828c-0.425-0.104-0.406,0.289-0.432,0.564c-0.032,0.34-0.025,0.762-0.438,0.807
		c-0.457,0.049-0.974-0.24-1.056-0.631c-0.445-2.107-2.401-3.18-3.299-4.961C15.768,31.417,14.858,31.476,14.259,31.021z"/>
	<path fill-rule="evenodd" clip-rule="evenodd" fill="#5A617C" d="M36.097,24.916c0.282,1.904,1.563,2.891,3.245,3.484
		c0.311,0.109,0.489,0.252,0.531,0.569c-2.774,0.585-5.352,1.827-8.16,2.349c-2.502,0.465-3.632-0.496-3.229-3.054
		c0.122-0.774,0.121-1.511-0.673-2.048c-0.53-0.358-0.927-0.891-0.45-1.598c0.135-0.307,0.444-0.699,0.197-0.943
		c-0.867-0.855-0.696-1.543,0.167-2.248c0.199-0.162,0.165-0.437-0.044-0.64c-0.208-0.202-0.441-0.179-0.667-0.06
		c-0.641,0.339-1.284,0.677-1.911,1.04c-0.373,0.216-0.767,0.356-0.986-0.103c-0.178-0.373,0.231-0.459,0.494-0.539
		c0.92-0.286,0.759-1.064,0.693-1.695c-0.138-1.32,0.203-2.297,1.396-3.043c1.518-0.947,2.066-2.759,3.277-3.998
		c1.228-0.24,2.383-0.42,3.202,0.944c0.495,0.825,1.458,0.847,2.35,0.816c-0.195,1.295-1.119,1.231-2.055,1.063
		c-0.48-0.086-0.857-0.422-1.236-0.723c-0.422-0.336-0.873-0.73-1.376-0.174c-0.482,0.532-0.587,1.282-0.014,1.676
		c1.19,0.816,1.112,1.916,1.218,3.152C32.292,21.771,33.767,23.679,36.097,24.916z"/>
	<path fill-rule="evenodd" clip-rule="evenodd" fill="#494E5F" d="M27.361,24.619c0.004,0.391-0.013,0.84,0.39,1.025
		c1.339,0.617,1.148,1.788,1.023,2.873c-0.248,2.152,0.863,2.96,2.893,2.398c2.259-0.623,4.497-1.266,6.671-2.139
		c0.518-0.209,1.047-0.059,1.535,0.192c0.344,0.396,0.639,0.851,1.039,1.177c1.512,1.232,2.164,2.732,1.597,4.664
		c-1.065,0.913-2.239,0.473-3.405,0.305c-0.352-0.05-0.844-0.188-1.065,0.213c-0.216,0.389,0.18,0.699,0.346,1.035
		c0.472,0.954,1.185,1.709,2.251,2.559c-0.807-0.014-1.345,0.08-1.719-0.32c-1.35-1.445-3.042-2.531-4.28-4.091
		c-0.12-0.151-0.196-0.371-0.35-0.455c-0.644-0.353-1.039-1.489-1.866-1.065c-0.896,0.461-0.186,1.382-0.11,2.104
		c-0.857,0.086-0.862-0.688-1.169-1.159c0.086-0.826-0.198-1.303-1.064-1.595c-1.953-0.657-2.598-2.132-1.954-4.114
		c0.121-0.371,0.227-0.789-0.076-1.096c-0.31-0.312-0.625-0.052-0.894,0.152c-0.289,0.219-0.612,0.268-0.959,0.242
		c0.203-0.752,0.421-1.464-0.19-2.196c-0.294-0.353-0.222-0.908,0.187-1.29C26.539,24.316,26.584,25.205,27.361,24.619z"/>
	<path fill-rule="evenodd" clip-rule="evenodd" fill="#5A617C" d="M26.191,24.039c0.052,0.504-0.205,1.178,0.273,1.471
		c1.529,0.941,0.402,1.428-0.271,2.016c-0.091,0.01-0.184,0.016-0.276,0.021c-0.698,0.149-1.358,0.401-2.023,0.661
		c-0.672,0.262-1.394,0.395-2.054-0.104c-1.911-1.653-2.31-3.417-1.182-5.233c1.705-1.143,2.743-0.6,2.914,1.525
		c0.038,0.463-0.114,1.066,0.471,1.228c0.627,0.173,0.667-0.557,0.988-0.862C25.37,24.439,25.295,23.462,26.191,24.039z"/>
	<path fill-rule="evenodd" clip-rule="evenodd" fill="#12172B" d="M30.198,10.025c-0.332,0.342-0.198,0.776-0.238,1.176
		c-1.159,1.69-1.972,3.664-3.875,4.77c0.317-1.305,1.315-2.275,1.567-3.579c0.481-0.687,0.963-1.374,1.445-2.062
		C29.502,10.365,29.654,9.486,30.198,10.025z"/>
	<path fill-rule="evenodd" clip-rule="evenodd" fill="#6C7697" d="M36.097,24.916c-0.929,0.141-2.871-1.184-3.347-2.37
		c-0.609-1.521-1.627-2.95-1.05-4.763c0.164-0.514-0.263-0.799-0.744-1.066c-1.253-0.693-1.289-2.217-0.161-3.096
		c0.736-0.574,1.113-0.006,1.568,0.419c1.333,1.245,1.894,1.26,3.166,0.11c0.432-0.005,0.864-0.015,1.297-0.015
		c2.537,0.001,3.113,0.542,3.239,3.03c0.069,1.385,0.968,2.004,2.155,1.393c0.658-0.339,1.351-0.433,2.033-0.615
		c-0.854,0.33-0.26,1.762-1.508,1.914c-0.322,0.039,0.094,0.543,0.414,0.627c0.744,0.193,1.508,0.314,2.244,0.529
		c0.254,0.074,0.527,0.328,0.467,0.654c-0.072,0.398-0.489,0.387-0.69,0.26c-1.248-0.793-2.513-0.133-3.761-0.074
		c-0.558,0.026-0.836,0.198-0.783-0.652c0.06-0.983-1.02-1.121-2.485-0.352c-0.089,1.096-1.002,1.854-1.19,2.91
		C36.487,24.006,36.123,24.333,36.097,24.916z"/>
	<path fill-rule="evenodd" clip-rule="evenodd" fill="#273040" d="M37.58,11.207c0.331,0.899-0.435,0.938-0.929,1.107
		c-0.494,0.168-1.034,0.198-1.552,0.307c-0.383,0.08-0.888,0.593-1.094-0.047c-0.182-0.559,0.32-1.022,0.818-1.215
		c0.877-0.337,1.822-0.092,2.736-0.162L37.58,11.207z"/>
	<path fill-rule="evenodd" clip-rule="evenodd" fill="#7D8295" d="M38.139,10.345c0.194,0.195,0.389,0.391,0.584,0.586
		c-0.168,0.975-0.755,0.214-1.143,0.275l-0.02-0.01c-0.588-0.548-1.531-0.003-2.15-0.747C36.313,9.63,37.241,10.218,38.139,10.345z"
		/>
	<path fill-rule="evenodd" clip-rule="evenodd" fill="#8590A2" d="M43.355,40.369c-1.479-2.268-1.527-2.971-0.284-4.129
		C42.521,37.661,43.455,38.978,43.355,40.369z"/>
	<path fill-rule="evenodd" clip-rule="evenodd" fill="#03030B" d="M29.964,38.753c0.166,2.74-0.825,5.176-0.571,7.71
		c0.033,0.332,0.007,0.704-0.433,0.806c-0.395,0.092-0.601-0.156-0.837-0.428c-1.12-1.287-1.325-2.978-1.498-4.48
		c-0.496-4.301-1.534-8.559-1.274-12.934c0.029-0.485-0.24-1.128,0.556-1.289c0.783-0.158,0.701,0.515,0.985,0.926
		c0.856,1.24,0.832,3.029,2.39,3.829c0.33,0.169,0.434,0.526,0.4,0.88C29.513,35.521,30.23,37.218,29.964,38.753z"/>
	<path fill-rule="evenodd" clip-rule="evenodd" fill="#434B64" d="M21.841,28.102c1.39,0.042,2.659-0.802,4.077-0.557
		c-0.733,0.328-1.045,0.671-0.967,1.687c0.217,2.836-0.035,5.697,0.246,8.561c-0.78-0.572-0.115-1.551-0.727-2.137
		C24.017,32.99,22.965,30.534,21.841,28.102z"/>
	<path fill-rule="evenodd" clip-rule="evenodd" fill="#373A58" d="M31.141,33.935c0.431,0.346,0.596,0.958,1.169,1.159
		c0.508,0.86,1.032,1.712,1.52,2.583c0.334,0.596-0.034,1.061-0.459,1.357c-1.634,1.137-2.605,2.746-3.384,4.512
		c0.344-2.387-0.077-4.968,1.806-6.961c0.373-0.395,0.139-0.823-0.081-1.205C31.45,34.925,31.052,34.528,31.141,33.935z"/>
	<path fill-rule="evenodd" clip-rule="evenodd" fill="#959FB9" d="M36.961,16.401c-0.01,0.729-0.367,1.591-0.83,1.338
		c-0.777-0.426-1.948-0.381-2.304-1.417c-0.146-0.428,1.569-1.635,2.245-1.525C37.051,14.955,36.794,15.862,36.961,16.401z"/>
</g>
</svg>
